<?xml version="1.0" encoding="utf-8"?>
<!-- Generator: Adobe Illustrator 21.1.0, SVG Export Plug-In . SVG Version: 6.00 Build 0)  -->
<svg version="1.0" id="Layer_1" xmlns="http://www.w3.org/2000/svg" xmlns:xlink="http://www.w3.org/1999/xlink" x="0px" y="0px"
	 viewBox="0 0 276 40" enable-background="new 0 0 276 40" xml:space="preserve">
<g>
	<g>
		<g>
			<g>
				<g>
					<defs>
						<path id="SVGID_1_" d="M0,17.6C1.4,7.7,10.9,0,22.6,0c11.6,0,21.3,7.7,22.7,17.6h-15c-1.9,0.2-2.4,1.3-2.9,2.2l-4.8,11.3v-7.8
							h-4.9v10.4c3,0,6.1,0,9.1,0c1.8-3.6,3.3-7.4,4.9-11.2l13.4,0C43.7,32.4,34.2,40,22.6,40C11,40,1.5,32.4,0,22.6h14.8
							c1.9-0.2,2.4-1.3,2.9-2.2L22.5,9v7.8c1.7,0,4.9,0,4.9,0V6.4c-3,0-6.1,0-9.1,0c-1.8,3.6-3.3,7.4-4.9,11.2L0,17.6z"/>
					</defs>
					<clipPath id="SVGID_2_">
						<use xlink:href="#SVGID_1_"  overflow="visible"/>
					</clipPath>
					<g clip-path="url(#SVGID_2_)">
						<defs>
							<rect id="SVGID_3_" x="0" width="46" height="40"/>
						</defs>
						<clipPath id="SVGID_4_">
							<use xlink:href="#SVGID_3_"  overflow="visible"/>
						</clipPath>
						<rect x="-5" y="-5" clip-path="url(#SVGID_4_)" fill="#8B8E90" width="55.3" height="50"/>
					</g>
				</g>
			</g>
		</g>
	</g>
	<g>
		<defs>
			<path id="SVGID_5_" d="M66.3,24.6l2.1-10.2h0.4c0.2,1.4,0.4,2.9,0.8,4.3l1.4,5.9H66.3z M64.2,32.5H73l1.1,4.2h12.3L75,3.3H62.1
				L50.9,36.7h12.3L64.2,32.5z"/>
		</defs>
		<clipPath id="SVGID_6_">
			<use xlink:href="#SVGID_5_"  overflow="visible"/>
		</clipPath>
		<g clip-path="url(#SVGID_6_)">
			<defs>
				<rect id="SVGID_7_" x="-896" y="-3185" width="1440" height="4673"/>
			</defs>
			<clipPath id="SVGID_8_">
				<use xlink:href="#SVGID_7_"  overflow="visible"/>
			</clipPath>
			<rect x="45.9" y="-1.7" clip-path="url(#SVGID_8_)" fill="#8B8E90" width="45.5" height="43.4"/>
		</g>
	</g>
	<g>
		<g>
			<g>
				<defs>
					<rect id="SVGID_9_" x="87" y="2" width="189" height="36"/>
				</defs>
				<clipPath id="SVGID_10_">
					<use xlink:href="#SVGID_9_"  overflow="visible"/>
				</clipPath>
				<g clip-path="url(#SVGID_10_)">
					<defs>
						<rect id="SVGID_11_" x="88" y="3.3" width="11.7" height="33.4"/>
					</defs>
					<clipPath id="SVGID_12_">
						<use xlink:href="#SVGID_11_"  overflow="visible"/>
					</clipPath>
					<g clip-path="url(#SVGID_12_)">
						<defs>
							<rect id="SVGID_13_" x="0" width="276" height="40"/>
						</defs>
						<clipPath id="SVGID_14_">
							<use xlink:href="#SVGID_13_"  overflow="visible"/>
						</clipPath>
						<rect x="83" y="-1.7" clip-path="url(#SVGID_14_)" fill="#8B8E90" width="21.7" height="43.4"/>
					</g>
				</g>
				<g clip-path="url(#SVGID_10_)">
					<defs>
						<path id="SVGID_15_" d="M114.8,12.4h1.1c1.9,0,4.3,0.1,4.3,2.7c0,2.7-2.2,3.1-4.3,3.1h-1.2V12.4z M103.5,36.7h11.2V26.6h6
							c6.5,0,10.6-4.3,10.6-11.1c0-8.3-5.5-12.3-13-12.3h-14.8V36.7z"/>
					</defs>
					<clipPath id="SVGID_16_">
						<use xlink:href="#SVGID_15_"  overflow="visible"/>
					</clipPath>
					<g clip-path="url(#SVGID_16_)">
						<defs>
							<rect id="SVGID_17_" x="0" width="276" height="40"/>
						</defs>
						<clipPath id="SVGID_18_">
							<use xlink:href="#SVGID_17_"  overflow="visible"/>
						</clipPath>
						<rect x="98.5" y="-1.7" clip-path="url(#SVGID_18_)" fill="#8B8E90" width="37.8" height="43.4"/>
					</g>
				</g>
				<g clip-path="url(#SVGID_10_)">
					<defs>
						<polygon id="SVGID_19_" points="133.9,36.7 145.1,36.7 145.1,25.1 152.2,25.1 152.2,36.7 163.5,36.7 163.5,3.3 152.2,3.3 
							152.2,14.5 145.1,14.5 145.1,3.3 133.9,3.3 						"/>
					</defs>
					<clipPath id="SVGID_20_">
						<use xlink:href="#SVGID_19_"  overflow="visible"/>
					</clipPath>
					<g clip-path="url(#SVGID_20_)">
						<defs>
							<rect id="SVGID_21_" x="0" width="276" height="40"/>
						</defs>
						<clipPath id="SVGID_22_">
							<use xlink:href="#SVGID_21_"  overflow="visible"/>
						</clipPath>
						<rect x="128.9" y="-1.7" clip-path="url(#SVGID_22_)" fill="#8B8E90" width="39.6" height="43.4"/>
					</g>
				</g>
				<g clip-path="url(#SVGID_10_)">
					<defs>
						<path id="SVGID_23_" d="M184.1,13.7c3.7,0,6,3,6,6.5c0,3.8-2.5,6.4-6,6.4s-6-2.6-6-6.4C178.1,16.7,180.4,13.7,184.1,13.7
							 M184.1,2.7c-9.7,0-17.7,6.8-17.7,17.3c0,10.7,8,17.2,17.7,17.2c9.8,0,17.7-6.4,17.7-17.2C201.8,9.6,193.8,2.7,184.1,2.7"/>
					</defs>
					<clipPath id="SVGID_24_">
						<use xlink:href="#SVGID_23_"  overflow="visible"/>
					</clipPath>
					<g clip-path="url(#SVGID_24_)">
						<defs>
							<rect id="SVGID_25_" x="0" width="276" height="40"/>
						</defs>
						<clipPath id="SVGID_26_">
							<use xlink:href="#SVGID_25_"  overflow="visible"/>
						</clipPath>
						<rect x="161.3" y="-2.3" clip-path="url(#SVGID_26_)" fill="#8B8E90" width="45.5" height="44.5"/>
					</g>
				</g>
				<g clip-path="url(#SVGID_10_)">
					<defs>
						<path id="SVGID_27_" d="M204.5,36.7h11.1V25.8c0-2.2-0.3-4.4-0.7-6.7h0.3l10.2,17.6h11.1V3.3h-11.1v10c0,2.8,0.5,5.7,1,8.5
							h-0.3L215.7,3.3h-11.2V36.7z"/>
					</defs>
					<clipPath id="SVGID_28_">
						<use xlink:href="#SVGID_27_"  overflow="visible"/>
					</clipPath>
					<g clip-path="url(#SVGID_28_)">
						<defs>
							<rect id="SVGID_29_" x="0" width="276" height="40"/>
						</defs>
						<clipPath id="SVGID_30_">
							<use xlink:href="#SVGID_29_"  overflow="visible"/>
						</clipPath>
						<rect x="199.5" y="-1.7" clip-path="url(#SVGID_30_)" fill="#8B8E90" width="42.1" height="43.4"/>
					</g>
				</g>
				<g clip-path="url(#SVGID_10_)">
					<defs>
						<polygon id="SVGID_31_" points="241.6,36.7 263.5,36.7 263.5,27.6 253.3,27.6 253.3,24.3 262.3,24.3 262.3,15.6 253.3,15.6 
							253.3,12.4 263.2,12.4 263.2,3.3 241.6,3.3 						"/>
					</defs>
					<clipPath id="SVGID_32_">
						<use xlink:href="#SVGID_31_"  overflow="visible"/>
					</clipPath>
					<g clip-path="url(#SVGID_32_)">
						<defs>
							<rect id="SVGID_33_" x="0" width="276" height="40"/>
						</defs>
						<clipPath id="SVGID_34_">
							<use xlink:href="#SVGID_33_"  overflow="visible"/>
						</clipPath>
						<rect x="236.6" y="-1.7" clip-path="url(#SVGID_34_)" fill="#8B8E90" width="31.9" height="43.4"/>
					</g>
				</g>
				<g clip-path="url(#SVGID_10_)">
					<defs>
						<path id="SVGID_35_" d="M270.1,7.7v-1h1.2c0.5,0,1,0,1,0.5c0,0.6-0.5,0.6-1,0.6H270.1z M272.1,8.7c0.6-0.1,1.1-0.5,1.1-1.4
							c0-1.2-0.6-1.6-1.7-1.6H269v5.3h1.1V8.7h0.8l1.1,2.2h1.3L272.1,8.7z M271,12c-2.1,0-3.6-1.5-3.6-3.7c0-2.2,1.5-3.7,3.6-3.7
							c2.1,0,3.6,1.5,3.6,3.7C274.6,10.5,273.1,12,271,12z M271,13.3c2.7,0,4.8-2.2,4.8-5c0-2.8-2.2-5-4.8-5c-2.7,0-4.8,2.2-4.8,5
							C266.2,11.1,268.3,13.3,271,13.3z"/>
					</defs>
					<clipPath id="SVGID_36_">
						<use xlink:href="#SVGID_35_"  overflow="visible"/>
					</clipPath>
					<g clip-path="url(#SVGID_36_)">
						<defs>
							<rect id="SVGID_37_" x="0" width="276" height="40"/>
						</defs>
						<clipPath id="SVGID_38_">
							<use xlink:href="#SVGID_37_"  overflow="visible"/>
						</clipPath>
						<rect x="261.2" y="-1.7" clip-path="url(#SVGID_38_)" fill="#8B8E90" width="19.7" height="20.1"/>
					</g>
				</g>
			</g>
		</g>
	</g>
</g>
</svg>
