<?xml version="1.0" encoding="utf-8"?>
<!-- Generator: Adobe Illustrator 21.1.0, SVG Export Plug-In . SVG Version: 6.00 Build 0)  -->
<svg version="1.0" id="Layer_1" xmlns="http://www.w3.org/2000/svg" xmlns:xlink="http://www.w3.org/1999/xlink" x="0px" y="0px"
	 viewBox="0 0 212.9 58.2" enable-background="new 0 0 212.9 58.2" xml:space="preserve">
<g>
	<g>
		<defs>
			<rect id="SVGID_1_" width="54.9" height="58"/>
		</defs>
		<clipPath id="SVGID_2_">
			<use xlink:href="#SVGID_1_"  overflow="visible"/>
		</clipPath>
		<g clip-path="url(#SVGID_2_)">
			<defs>
				<rect id="SVGID_3_" x="-927" y="-2316.3" width="1440" height="4673"/>
			</defs>
			<clipPath id="SVGID_4_">
				<use xlink:href="#SVGID_3_"  overflow="visible"/>
			</clipPath>
			<g clip-path="url(#SVGID_4_)">
				<defs>
					<rect id="SVGID_5_" x="0" y="-0.3" width="55" height="59"/>
				</defs>
				<clipPath id="SVGID_6_">
					<use xlink:href="#SVGID_5_"  overflow="visible"/>
				</clipPath>
				<g clip-path="url(#SVGID_6_)">
					<defs>
						<path id="SVGID_7_" d="M11.7,43.5c0,4.6,2,7,6.1,7c5.2,0,10.3-0.9,15.4-2.8l4.5-20.9c-4.3-1.1-9.1-1.6-14.5-1.6
							c-1.8,0-3.3,0.3-4.5,1c-2.8,1.4-4.9,5.4-6.3,12C11.9,40.1,11.7,41.9,11.7,43.5 M9.2,21.7c1.5-1.1,3.4-2,5.6-2.6
							c2.2-0.7,4.7-1,7.3-1s5.5,0.2,8.7,0.7c3.2,0.5,5.9,1.1,8.3,2L43.5,0h11.4L42.5,57.6h-9.1l-1.5-4.1c-2,1.1-4.7,2.2-8,3.1
							c-3.3,1-6.5,1.4-9.5,1.4c-3,0-5.6-0.6-7.8-1.8c-2.2-1.2-3.7-2.8-4.7-4.7C0.6,48.9,0,46.4,0,43.9c0-2.5,0.3-4.8,0.8-6.9
							c0.5-2.1,1.1-4.1,1.8-5.8c0.7-1.7,1.6-3.5,2.7-5.2C6.4,24.2,7.7,22.8,9.2,21.7"/>
					</defs>
					<clipPath id="SVGID_8_">
						<use xlink:href="#SVGID_7_"  overflow="visible"/>
					</clipPath>
					<g clip-path="url(#SVGID_8_)">
						<defs>
							<rect id="SVGID_9_" x="0" y="-0.3" width="55" height="59"/>
						</defs>
						<clipPath id="SVGID_10_">
							<use xlink:href="#SVGID_9_"  overflow="visible"/>
						</clipPath>
						<rect x="-5" y="-5" clip-path="url(#SVGID_10_)" fill="#807E82" width="64.9" height="68"/>
					</g>
				</g>
			</g>
		</g>
	</g>
	<g>
		<defs>
			<path id="SVGID_11_" d="M99.9,21.4c0,2.2-0.8,4.5-2.4,6.9L77.1,57.6H62.9L52,18.6h12.1l7.4,29.3L86.2,26c1.6-2.4,2.6-4.9,3-7.4
				h10.3C99.7,19.5,99.9,20.4,99.9,21.4"/>
		</defs>
		<clipPath id="SVGID_12_">
			<use xlink:href="#SVGID_11_"  overflow="visible"/>
		</clipPath>
		<g clip-path="url(#SVGID_12_)">
			<defs>
				<rect id="SVGID_13_" x="-927" y="-2316.3" width="1440" height="4673"/>
			</defs>
			<clipPath id="SVGID_14_">
				<use xlink:href="#SVGID_13_"  overflow="visible"/>
			</clipPath>
			<rect x="47" y="13.6" clip-path="url(#SVGID_14_)" fill="#807E82" width="57.9" height="49"/>
		</g>
	</g>
	<g>
		<defs>
			<path id="SVGID_15_" d="M118.7,57.6c-8.2,0-12.3-3.2-12.3-9.7c0-1.3,0.2-2.7,0.5-4.2l3.9-18.2h-9l1.1-5.1l9.4-1.8l4.5-10.9h9.3
				l-2.3,10.9h13.1l-1.5,7h-13.1l-3.7,17.2c-0.7,3.6-0.6,5.8,0.4,6.7c0.6,0.5,1.6,0.9,3,1.2c4.1,0.9,6.2,1.4,6.4,1.4l-1.2,5.6H118.7
				z"/>
		</defs>
		<clipPath id="SVGID_16_">
			<use xlink:href="#SVGID_15_"  overflow="visible"/>
		</clipPath>
		<g clip-path="url(#SVGID_16_)">
			<defs>
				<rect id="SVGID_17_" x="-927" y="-2316.3" width="1440" height="4673"/>
			</defs>
			<clipPath id="SVGID_18_">
				<use xlink:href="#SVGID_17_"  overflow="visible"/>
			</clipPath>
			<rect x="96.8" y="2.7" clip-path="url(#SVGID_18_)" fill="#FCB813" width="45.1" height="59.9"/>
		</g>
	</g>
	<g>
		<defs>
			<rect id="SVGID_19_" x="134" y="17.9" width="47.9" height="40.3"/>
		</defs>
		<clipPath id="SVGID_20_">
			<use xlink:href="#SVGID_19_"  overflow="visible"/>
		</clipPath>
		<g clip-path="url(#SVGID_20_)">
			<defs>
				<rect id="SVGID_21_" x="-927" y="-2316.3" width="1440" height="4673"/>
			</defs>
			<clipPath id="SVGID_22_">
				<use xlink:href="#SVGID_21_"  overflow="visible"/>
			</clipPath>
			<g clip-path="url(#SVGID_22_)">
				<defs>
					<rect id="SVGID_23_" x="134" y="17.7" width="48" height="41"/>
				</defs>
				<clipPath id="SVGID_24_">
					<use xlink:href="#SVGID_23_"  overflow="visible"/>
				</clipPath>
				<g clip-path="url(#SVGID_24_)">
					<defs>
						<path id="SVGID_25_" d="M147,36.1c1.7,0.1,3.3,0.2,4.9,0.2c1.6,0,3,0,4.1,0c1.1,0,2.5-0.2,4.2-0.4c1.7-0.2,3.2-0.6,4.5-1
							c1.3-0.4,2.5-1.1,3.5-1.9c1.4-1.1,2.1-2.4,2.1-3.9c0-1.5-0.6-2.5-1.9-3.1c-1.3-0.6-3.6-0.8-7.1-0.8c-4.8,0-8.1,0.8-10,2.4
							c-1.7,1.4-2.8,3.3-3.5,5.6c-0.1,0.5-0.3,1.1-0.5,1.7C147.1,35.5,147,35.9,147,36.1 M162,17.9c13.3,0,19.9,3.3,19.9,9.8
							c0,3.2-1,5.9-2.9,8c-1.9,2.1-4.1,3.6-6.6,4.5c-4.8,1.7-9.7,2.6-14.8,2.6c-2.5,0-4.9-0.1-7.1-0.3c-2.2-0.2-3.8-0.5-4.6-0.7
							c-0.3,1.5-0.5,2.9-0.5,4.2c0,1.3,0.3,2.3,1,3c1.1,1.3,3.4,1.9,6.9,2c1.3,0,3.6,0.1,6.9,0.1c3.4,0,8.6-0.4,15.7-1.2l-1.3,6.2
							c-6.8,1.5-14.2,2.2-22.3,2.2c-1.4,0-2.8,0-4.2-0.1c-6.3-0.1-10.4-2-12.5-5.6c-1.1-2-1.7-4.3-1.7-7.1c0-2.8,0.3-5.5,1-8.3
							c0.7-2.8,1.3-4.9,1.9-6.4c0.6-1.5,1.3-3,2.2-4.5c0.9-1.5,2-2.7,3.2-3.6c1.3-0.9,2.8-1.8,4.6-2.5
							C150.5,18.6,155.5,17.9,162,17.9"/>
					</defs>
					<clipPath id="SVGID_26_">
						<use xlink:href="#SVGID_25_"  overflow="visible"/>
					</clipPath>
					<g clip-path="url(#SVGID_26_)">
						<defs>
							<rect id="SVGID_27_" x="134" y="17.7" width="48" height="41"/>
						</defs>
						<clipPath id="SVGID_28_">
							<use xlink:href="#SVGID_27_"  overflow="visible"/>
						</clipPath>
						<rect x="129" y="12.9" clip-path="url(#SVGID_28_)" fill="#FCB813" width="57.9" height="50.3"/>
					</g>
				</g>
			</g>
		</g>
	</g>
	<g>
		<defs>
			<path id="SVGID_29_" d="M195.4,57.6c-8.5,0-12.7-3.3-12.7-9.8c0-1.2,0.2-2.6,0.5-4.1l9.3-43.6h11.5l-9,42.6
				c-0.8,3.6-0.7,5.8,0.4,6.7c0.6,0.5,1.6,1,3,1.2c4,0.9,6.1,1.4,6.3,1.4l-1.2,5.6H195.4z"/>
		</defs>
		<clipPath id="SVGID_30_">
			<use xlink:href="#SVGID_29_"  overflow="visible"/>
		</clipPath>
		<g clip-path="url(#SVGID_30_)">
			<defs>
				<rect id="SVGID_31_" x="-927" y="-2316.3" width="1440" height="4673"/>
			</defs>
			<clipPath id="SVGID_32_">
				<use xlink:href="#SVGID_31_"  overflow="visible"/>
			</clipPath>
			<rect x="177.7" y="-4.9" clip-path="url(#SVGID_32_)" fill="#FCB813" width="32" height="67.4"/>
		</g>
	</g>
	<g>
		<defs>
			<rect id="SVGID_33_" x="206.2" y="1.5" width="6.7" height="7.3"/>
		</defs>
		<clipPath id="SVGID_34_">
			<use xlink:href="#SVGID_33_"  overflow="visible"/>
		</clipPath>
		<g clip-path="url(#SVGID_34_)">
			<defs>
				<rect id="SVGID_35_" x="-927" y="-2316.3" width="1440" height="4673"/>
			</defs>
			<clipPath id="SVGID_36_">
				<use xlink:href="#SVGID_35_"  overflow="visible"/>
			</clipPath>
			<g clip-path="url(#SVGID_36_)">
				<defs>
					<rect id="SVGID_37_" x="206" y="0.7" width="7" height="9"/>
				</defs>
				<clipPath id="SVGID_38_">
					<use xlink:href="#SVGID_37_"  overflow="visible"/>
				</clipPath>
				<g clip-path="url(#SVGID_38_)">
					<defs>
						<path id="SVGID_39_" d="M209.7,5c0.2,0,0.4,0,0.5-0.1c0.1-0.1,0.1-0.2,0.2-0.4c0-0.2,0-0.3,0-0.4c0-0.2-0.2-0.3-0.5-0.3h-0.8
							L208.9,5H209.7z M210.1,3c0.3,0,0.6,0.1,0.8,0.3c0.2,0.2,0.3,0.4,0.3,0.8c0,0.1,0,0.2,0,0.3c-0.1,0.6-0.3,1-0.7,1.2
							c-0.1,0-0.1,0-0.3,0.1l0.6,1.6h-0.8l-0.6-1.6l-0.6-0.1l-0.3,1.7h-0.7l0.6-4.2H210.1z M212.2,3.8c0-1-0.3-1.5-1-1.5h-2.3
							c-0.7,0-1.3,0.5-1.6,1.4c-0.1,0.4-0.2,0.8-0.3,1.2c-0.1,0.4-0.1,0.7-0.1,0.9c0,0.2,0,0.4,0,0.6c0,0.2,0.1,0.4,0.1,0.7
							c0.1,0.3,0.2,0.5,0.4,0.6c0.2,0.2,0.4,0.2,0.6,0.2h2.2c0.4,0,0.8-0.2,1.1-0.7c0.4-0.5,0.6-1.4,0.8-2.7
							C212.1,4.3,212.2,4,212.2,3.8z M209,1.5h2.2c0.7,0,1.2,0.3,1.4,1c0.2,0.4,0.2,0.9,0.2,1.4c0,0.4,0,0.8-0.1,1.3
							c-0.2,1.1-0.5,2-0.9,2.6c-0.4,0.6-1,0.9-1.7,0.9H208c-0.6,0-1-0.2-1.3-0.6c-0.3-0.4-0.4-0.9-0.5-1.5c0-0.2,0-0.4,0-0.6
							c0-1,0.2-1.9,0.5-2.8c0.2-0.5,0.5-1,0.9-1.3C207.9,1.7,208.4,1.5,209,1.5z"/>
					</defs>
					<clipPath id="SVGID_40_">
						<use xlink:href="#SVGID_39_"  overflow="visible"/>
					</clipPath>
					<g clip-path="url(#SVGID_40_)">
						<defs>
							<rect id="SVGID_41_" x="206" y="0.7" width="7" height="9"/>
						</defs>
						<clipPath id="SVGID_42_">
							<use xlink:href="#SVGID_41_"  overflow="visible"/>
						</clipPath>
						<rect x="201.2" y="-3.5" clip-path="url(#SVGID_42_)" fill="#FCB813" width="16.7" height="17.3"/>
					</g>
				</g>
			</g>
		</g>
	</g>
</g>
</svg>
