<?xml version="1.0" encoding="utf-8"?>
<!-- Generator: Adobe Illustrator 21.1.0, SVG Export Plug-In . SVG Version: 6.00 Build 0)  -->
<svg version="1.0" id="Layer_1" xmlns="http://www.w3.org/2000/svg" xmlns:xlink="http://www.w3.org/1999/xlink" x="0px" y="0px"
	 viewBox="0 0 259.6 92.4" enable-background="new 0 0 259.6 92.4" xml:space="preserve">
<g>
	<g>
		<defs>
			<path id="SVGID_1_" d="M47.2,51.2c0,0,2.1-2.1,4.6-4.6l-8.3-8.3L30.6,51.2l12.9,12.8l8.3-8.3L47.2,51.2"/>
		</defs>
		<clipPath id="SVGID_2_">
			<use xlink:href="#SVGID_1_"  overflow="visible"/>
		</clipPath>
		<g clip-path="url(#SVGID_2_)">
			<defs>
				<rect id="SVGID_3_" x="-904" y="-2085" width="1440" height="4673"/>
			</defs>
			<clipPath id="SVGID_4_">
				<use xlink:href="#SVGID_3_"  overflow="visible"/>
			</clipPath>
			<rect x="25.6" y="33.4" clip-path="url(#SVGID_4_)" fill="#231F20" width="31.2" height="35.7"/>
		</g>
	</g>
	<g>
		<defs>
			<polygon id="SVGID_5_" points="87.6,51.6 95.9,43.4 52.5,0 9.1,43.4 17.3,51.6 52.5,16.6 			"/>
		</defs>
		<clipPath id="SVGID_6_">
			<use xlink:href="#SVGID_5_"  overflow="visible"/>
		</clipPath>
		<g clip-path="url(#SVGID_6_)">
			<defs>
				<rect id="SVGID_7_" x="-904" y="-2085" width="1440" height="4673"/>
			</defs>
			<clipPath id="SVGID_8_">
				<use xlink:href="#SVGID_7_"  overflow="visible"/>
			</clipPath>
			<rect x="4.1" y="-5" clip-path="url(#SVGID_8_)" fill="#231F20" width="96.9" height="61.6"/>
		</g>
	</g>
	<g>
		<defs>
			<polygon id="SVGID_9_" points="68.4,89 105,52.4 96.7,44.1 68.4,72.4 61.5,65.6 53.3,73.9 			"/>
		</defs>
		<clipPath id="SVGID_10_">
			<use xlink:href="#SVGID_9_"  overflow="visible"/>
		</clipPath>
		<g clip-path="url(#SVGID_10_)">
			<defs>
				<rect id="SVGID_11_" x="-904" y="-2085" width="1440" height="4673"/>
			</defs>
			<clipPath id="SVGID_12_">
				<use xlink:href="#SVGID_11_"  overflow="visible"/>
			</clipPath>
			<rect x="48.3" y="39.1" clip-path="url(#SVGID_12_)" fill="#231F20" width="61.7" height="54.8"/>
		</g>
	</g>
	<g>
		<g>
			<g enable-background="new    ">
				<g>
					<g>
						<defs>
							<polygon id="SVGID_13_" points="36.6,89 51.7,73.9 43.4,65.6 36.6,72.4 8.3,44.1 0,52.4 							"/>
						</defs>
						<clipPath id="SVGID_14_">
							<use xlink:href="#SVGID_13_"  overflow="visible"/>
						</clipPath>
						<g clip-path="url(#SVGID_14_)">
							<defs>
								<rect id="SVGID_15_" x="0" y="44" width="52" height="45"/>
							</defs>
							<clipPath id="SVGID_16_">
								<use xlink:href="#SVGID_15_"  overflow="visible"/>
							</clipPath>
							<rect x="-5" y="39.1" clip-path="url(#SVGID_16_)" fill="#231F20" width="61.7" height="54.8"/>
						</g>
					</g>
				</g>
			</g>
		</g>
	</g>
	<g>
		<defs>
			<polygon id="SVGID_17_" points="52.5,73.1 52.5,73.1 74.4,51.2 52.5,29.4 44.2,37.6 44.2,37.6 57.8,51.2 44.2,64.9 			"/>
		</defs>
		<clipPath id="SVGID_18_">
			<use xlink:href="#SVGID_17_"  overflow="visible"/>
		</clipPath>
		<g clip-path="url(#SVGID_18_)">
			<defs>
				<rect id="SVGID_19_" x="-904" y="-2085" width="1440" height="4673"/>
			</defs>
			<clipPath id="SVGID_20_">
				<use xlink:href="#SVGID_19_"  overflow="visible"/>
			</clipPath>
			<rect x="39.2" y="24.4" clip-path="url(#SVGID_20_)" fill="#231F20" width="40.2" height="53.8"/>
		</g>
	</g>
	<g>
		<defs>
			<polygon id="SVGID_21_" points="117.5,64.8 117.5,29.3 138.6,29.3 138.6,33.9 123.4,33.9 123.4,44.1 137.3,44.1 135.8,48.7 
				123.4,48.7 123.4,60.2 140.1,60.2 140.1,64.8 			"/>
		</defs>
		<clipPath id="SVGID_22_">
			<use xlink:href="#SVGID_21_"  overflow="visible"/>
		</clipPath>
		<g clip-path="url(#SVGID_22_)">
			<rect x="112.5" y="24.3" fill="#231F20" width="32.6" height="45.6"/>
		</g>
	</g>
	<g>
		<defs>
			<path id="SVGID_23_" d="M159.3,64.8V49.1c0-2.7-2.1-5-5.4-5c-2.9,0-6.1,3.4-6.1,3.4v17.3h-5.6V40.2l4.8,2.8c0,0,3.2-3.5,8.6-3.5
				c6.3,0,9.4,4.6,9.4,9.2v16H159.3"/>
		</defs>
		<clipPath id="SVGID_24_">
			<use xlink:href="#SVGID_23_"  overflow="visible"/>
		</clipPath>
		<g clip-path="url(#SVGID_24_)">
			<rect x="137.1" y="34.6" fill="#231F20" width="32.8" height="35.3"/>
		</g>
	</g>
	<g>
		<defs>
			<path id="SVGID_25_" d="M187.1,48.4c0,0-2.8-4.5-7.6-4.5c-6.2,0-6.7,6.5-6.7,8.7c0,2.2,1.2,8.6,6.5,8.6c4.6,0,7.8-3.6,7.8-3.6
				V48.4z M187,62.7c0,0-2.9,2.8-7.9,2.8c-5.7,0-12.2-3.5-12.2-12.6c0-9.1,6.6-13.2,11.9-13.2c5.1,0,8.1,3.1,8.1,3.1V29.3h5.7v35.9
				L187,62.7z"/>
		</defs>
		<clipPath id="SVGID_26_">
			<use xlink:href="#SVGID_25_"  overflow="visible"/>
		</clipPath>
		<g clip-path="url(#SVGID_26_)">
			<rect x="161.9" y="24.3" fill="#231F20" width="35.7" height="46.1"/>
		</g>
	</g>
	<g>
		<defs>
			<path id="SVGID_27_" d="M212.3,62c0,0-2.8,3.5-8.2,3.5c-6.3,0-9.4-4.6-9.4-9.2v-16h5.6v15.8c0,2.7,2.1,5,5.4,5
				c2.9,0,5.7-3.4,5.7-3.4V40.2h5.6v24.6L212.3,62"/>
		</defs>
		<clipPath id="SVGID_28_">
			<use xlink:href="#SVGID_27_"  overflow="visible"/>
		</clipPath>
		<g clip-path="url(#SVGID_28_)">
			<rect x="189.7" y="35.2" fill="#231F20" width="32.4" height="35.3"/>
		</g>
	</g>
	<g>
		<defs>
			<path id="SVGID_29_" d="M231.8,44c-3.8,0-7.1,3.5-7.1,3.5v17.4h-5.6v-25l5.1,2.4c0,0,3.5-2.7,6.6-2.7c1.7,0,2.3,0.2,2.3,0.2
				l1.3,4.4C234.4,44.1,232.9,44,231.8,44"/>
		</defs>
		<clipPath id="SVGID_30_">
			<use xlink:href="#SVGID_29_"  overflow="visible"/>
		</clipPath>
		<g clip-path="url(#SVGID_30_)">
			<rect x="214.1" y="34.5" fill="#231F20" width="25.3" height="35.3"/>
		</g>
	</g>
	<g>
		<defs>
			<path id="SVGID_31_" d="M254.1,48.4c0,0-2.8-4.5-7.6-4.5c-6.2,0-6.7,6.5-6.7,8.7c0,2.2,1.2,8.6,6.5,8.6c4.6,0,7.8-3.6,7.8-3.6
				V48.4z M254,62.7c0,0-2.9,2.8-7.9,2.8c-5.7,0-12.2-3.5-12.2-12.6c0-9.1,6.6-13.2,11.9-13.2c5.1,0,8.1,3.1,8.1,3.1v-2.5h5.7v25.1
				L254,62.7z"/>
		</defs>
		<clipPath id="SVGID_32_">
			<use xlink:href="#SVGID_31_"  overflow="visible"/>
		</clipPath>
		<g clip-path="url(#SVGID_32_)">
			<rect x="228.9" y="34.6" fill="#231F20" width="35.7" height="35.9"/>
		</g>
	</g>
	<g>
		<defs>
			<path id="SVGID_33_" d="M78.2,92.4V91l-0.6,1.5h-0.3L76.7,91v1.5h-0.4v-1.9h0.6l0.6,1.4l0.6-1.4h0.6v1.9H78.2z M75.4,90.8v1.6H75
				v-1.6h-0.6v-0.3H76v0.3H75.4z"/>
		</defs>
		<clipPath id="SVGID_34_">
			<use xlink:href="#SVGID_33_"  overflow="visible"/>
		</clipPath>
		<g clip-path="url(#SVGID_34_)">
			<rect x="69.4" y="85.5" fill="#231F20" width="14.2" height="11.9"/>
		</g>
	</g>
</g>
</svg>
