<?xml version="1.0" encoding="utf-8"?>
<!-- Generator: Adobe Illustrator 21.1.0, SVG Export Plug-In . SVG Version: 6.00 Build 0)  -->
<svg version="1.0" id="Layer_1" xmlns="http://www.w3.org/2000/svg" xmlns:xlink="http://www.w3.org/1999/xlink" x="0px" y="0px"
	 viewBox="0 0 280.4 80.2" enable-background="new 0 0 280.4 80.2" xml:space="preserve">
<g>
	<g>
		<defs>
			<polygon id="SVGID_1_" points="143.3,11.3 145,11.3 146.4,16.6 146.5,16.6 147.8,11.3 149.4,11.3 150.7,16.6 150.8,16.6 
				152.2,11.3 153.8,11.3 151.6,18.4 150,18.4 148.6,13.1 148.6,13.1 147.3,18.4 145.6,18.4 			"/>
		</defs>
		<clipPath id="SVGID_2_">
			<use xlink:href="#SVGID_1_"  overflow="visible"/>
		</clipPath>
		<g clip-path="url(#SVGID_2_)">
			<defs>
				<rect id="SVGID_3_" x="-884.1" y="-1333.8" width="1440" height="4673"/>
			</defs>
			<clipPath id="SVGID_4_">
				<use xlink:href="#SVGID_3_"  overflow="visible"/>
			</clipPath>
			<rect x="138.3" y="6.3" clip-path="url(#SVGID_4_)" width="20.5" height="17.2"/>
		</g>
	</g>
	<g>
		<defs>
			<polygon id="SVGID_5_" points="154.2,11.3 155.9,11.3 157.3,16.6 157.3,16.6 158.7,11.3 160.3,11.3 161.6,16.6 161.6,16.6 
				163.1,11.3 164.7,11.3 162.4,18.4 160.8,18.4 159.5,13.1 159.4,13.1 158.1,18.4 156.4,18.4 			"/>
		</defs>
		<clipPath id="SVGID_6_">
			<use xlink:href="#SVGID_5_"  overflow="visible"/>
		</clipPath>
		<g clip-path="url(#SVGID_6_)">
			<defs>
				<rect id="SVGID_7_" x="-884.1" y="-1333.8" width="1440" height="4673"/>
			</defs>
			<clipPath id="SVGID_8_">
				<use xlink:href="#SVGID_7_"  overflow="visible"/>
			</clipPath>
			<rect x="149.2" y="6.3" clip-path="url(#SVGID_8_)" width="20.5" height="17.2"/>
		</g>
	</g>
	<g>
		<defs>
			<polygon id="SVGID_9_" points="165.1,11.3 166.8,11.3 168.2,16.6 168.2,16.6 169.6,11.3 171.2,11.3 172.5,16.6 172.5,16.6 
				173.9,11.3 175.6,11.3 173.3,18.4 171.7,18.4 170.3,13.1 170.3,13.1 169,18.4 167.3,18.4 			"/>
		</defs>
		<clipPath id="SVGID_10_">
			<use xlink:href="#SVGID_9_"  overflow="visible"/>
		</clipPath>
		<g clip-path="url(#SVGID_10_)">
			<defs>
				<rect id="SVGID_11_" x="-884.1" y="-1333.8" width="1440" height="4673"/>
			</defs>
			<clipPath id="SVGID_12_">
				<use xlink:href="#SVGID_11_"  overflow="visible"/>
			</clipPath>
			<rect x="160.1" y="6.3" clip-path="url(#SVGID_12_)" width="20.5" height="17.2"/>
		</g>
	</g>
	<g>
		<defs>
			<rect id="SVGID_13_" x="175.9" y="16.6" width="1.9" height="1.9"/>
		</defs>
		<clipPath id="SVGID_14_">
			<use xlink:href="#SVGID_13_"  overflow="visible"/>
		</clipPath>
		<g clip-path="url(#SVGID_14_)">
			<defs>
				<rect id="SVGID_15_" x="-884.1" y="-1333.8" width="1440" height="4673"/>
			</defs>
			<clipPath id="SVGID_16_">
				<use xlink:href="#SVGID_15_"  overflow="visible"/>
			</clipPath>
			<rect x="170.9" y="11.6" clip-path="url(#SVGID_16_)" width="11.9" height="11.9"/>
		</g>
	</g>
	<g>
		<defs>
			<path id="SVGID_17_" d="M179.7,18.4h1.6v-7.2h-1.6V18.4z M179.7,10h1.6V8.5h-1.6V10z"/>
		</defs>
		<clipPath id="SVGID_18_">
			<use xlink:href="#SVGID_17_"  overflow="visible"/>
		</clipPath>
		<g clip-path="url(#SVGID_18_)">
			<defs>
				<rect id="SVGID_19_" x="-884.1" y="-1333.8" width="1440" height="4673"/>
			</defs>
			<clipPath id="SVGID_20_">
				<use xlink:href="#SVGID_19_"  overflow="visible"/>
			</clipPath>
			<rect x="174.7" y="3.5" clip-path="url(#SVGID_20_)" width="11.6" height="19.9"/>
		</g>
	</g>
	<g>
		<defs>
			<path id="SVGID_21_" d="M183.1,11.3h1.5v1.1l0,0c0.5-0.8,1.3-1.3,2.2-1.3c1.6,0,2.6,0.8,2.6,2.4v4.9h-1.6v-4.5
				c0-1.1-0.5-1.6-1.4-1.6c-1.1,0-1.7,0.8-1.7,1.9v4.2h-1.6V11.3z"/>
		</defs>
		<clipPath id="SVGID_22_">
			<use xlink:href="#SVGID_21_"  overflow="visible"/>
		</clipPath>
		<g clip-path="url(#SVGID_22_)">
			<defs>
				<rect id="SVGID_23_" x="-884.1" y="-1333.8" width="1440" height="4673"/>
			</defs>
			<clipPath id="SVGID_24_">
				<use xlink:href="#SVGID_23_"  overflow="visible"/>
			</clipPath>
			<rect x="178.1" y="6.1" clip-path="url(#SVGID_24_)" width="16.3" height="17.4"/>
		</g>
	</g>
	<g>
		<defs>
			<path id="SVGID_25_" d="M191.1,11.3h1.5v1.1l0,0c0.5-0.8,1.3-1.3,2.2-1.3c1.6,0,2.6,0.8,2.6,2.4v4.9h-1.6v-4.5
				c0-1.1-0.5-1.6-1.4-1.6c-1.1,0-1.7,0.8-1.7,1.9v4.2h-1.6V11.3z"/>
		</defs>
		<clipPath id="SVGID_26_">
			<use xlink:href="#SVGID_25_"  overflow="visible"/>
		</clipPath>
		<g clip-path="url(#SVGID_26_)">
			<defs>
				<rect id="SVGID_27_" x="-884.1" y="-1333.8" width="1440" height="4673"/>
			</defs>
			<clipPath id="SVGID_28_">
				<use xlink:href="#SVGID_27_"  overflow="visible"/>
			</clipPath>
			<rect x="186.1" y="6.1" clip-path="url(#SVGID_28_)" width="16.3" height="17.4"/>
		</g>
	</g>
	<g>
		<defs>
			<path id="SVGID_29_" d="M200.3,15.2c0,1.1,0.6,2.1,1.9,2.1c0.9,0,1.5-0.4,1.8-1.2h1.5c-0.3,1.6-1.7,2.4-3.3,2.4
				c-2.3,0-3.5-1.6-3.5-3.8c0-2,1.3-3.8,3.5-3.8c2.3,0,3.7,2,3.4,4.2H200.3z M204.1,14.2c-0.1-1-0.7-1.9-1.8-1.9
				c-1.1,0-1.9,0.8-1.9,1.9H204.1z"/>
		</defs>
		<clipPath id="SVGID_30_">
			<use xlink:href="#SVGID_29_"  overflow="visible"/>
		</clipPath>
		<g clip-path="url(#SVGID_30_)">
			<defs>
				<rect id="SVGID_31_" x="-884.1" y="-1333.8" width="1440" height="4673"/>
			</defs>
			<clipPath id="SVGID_32_">
				<use xlink:href="#SVGID_31_"  overflow="visible"/>
			</clipPath>
			<rect x="193.7" y="6.1" clip-path="url(#SVGID_32_)" width="16.9" height="17.6"/>
		</g>
	</g>
	<g>
		<defs>
			<path id="SVGID_33_" d="M206.9,11.3h1.5v1.4h0c0.2-0.8,1.1-1.6,2.1-1.6c0.4,0,0.5,0,0.6,0v1.5c-0.2,0-0.5-0.1-0.7-0.1
				c-1.1,0-2,0.9-2,2.5v3.4h-1.6V11.3z"/>
		</defs>
		<clipPath id="SVGID_34_">
			<use xlink:href="#SVGID_33_"  overflow="visible"/>
		</clipPath>
		<g clip-path="url(#SVGID_34_)">
			<defs>
				<rect id="SVGID_35_" x="-884.1" y="-1333.8" width="1440" height="4673"/>
			</defs>
			<clipPath id="SVGID_36_">
				<use xlink:href="#SVGID_35_"  overflow="visible"/>
			</clipPath>
			<rect x="201.9" y="6.1" clip-path="url(#SVGID_36_)" width="14.2" height="17.4"/>
		</g>
	</g>
	<g>
		<defs>
			<path id="SVGID_37_" d="M211.8,11.3h1.5v1.4h0c0.2-0.8,1.1-1.6,2.1-1.6c0.4,0,0.5,0,0.6,0v1.5c-0.2,0-0.5-0.1-0.7-0.1
				c-1.1,0-2,0.9-2,2.5v3.4h-1.6V11.3z"/>
		</defs>
		<clipPath id="SVGID_38_">
			<use xlink:href="#SVGID_37_"  overflow="visible"/>
		</clipPath>
		<g clip-path="url(#SVGID_38_)">
			<defs>
				<rect id="SVGID_39_" x="-884.1" y="-1333.8" width="1440" height="4673"/>
			</defs>
			<clipPath id="SVGID_40_">
				<use xlink:href="#SVGID_39_"  overflow="visible"/>
			</clipPath>
			<rect x="206.8" y="6.1" clip-path="url(#SVGID_40_)" width="14.2" height="17.4"/>
		</g>
	</g>
	<g>
		<defs>
			<path id="SVGID_41_" d="M222.7,16.8c0,0.4,0.1,0.5,0.4,0.5c0.1,0,0.2,0,0.4,0v1.1c-0.2,0.1-0.7,0.2-1,0.2c-0.6,0-1.1-0.2-1.2-0.9
				c-0.6,0.6-1.6,0.9-2.5,0.9c-1.3,0-2.5-0.7-2.5-2.1c0-1.8,1.4-2.1,2.8-2.2c1.1-0.2,2.2-0.1,2.2-1c0-0.8-0.9-1-1.5-1
				c-0.9,0-1.5,0.4-1.6,1.1h-1.6c0.1-1.8,1.7-2.4,3.3-2.4c1.4,0,2.9,0.6,2.9,2.1V16.8z M221.1,14.8c-0.5,0.3-1.3,0.3-2,0.4
				c-0.7,0.1-1.3,0.4-1.3,1.2c0,0.7,0.9,0.9,1.5,0.9c0.7,0,1.8-0.4,1.8-1.4V14.8z"/>
		</defs>
		<clipPath id="SVGID_42_">
			<use xlink:href="#SVGID_41_"  overflow="visible"/>
		</clipPath>
		<g clip-path="url(#SVGID_42_)">
			<defs>
				<rect id="SVGID_43_" x="-884.1" y="-1333.8" width="1440" height="4673"/>
			</defs>
			<clipPath id="SVGID_44_">
				<use xlink:href="#SVGID_43_"  overflow="visible"/>
			</clipPath>
			<rect x="211.3" y="6.1" clip-path="url(#SVGID_44_)" width="17.2" height="17.6"/>
		</g>
	</g>
	<g>
		<defs>
			<path id="SVGID_45_" d="M224.4,11.3h1.5v1.1l0,0c0.5-0.8,1.3-1.3,2.2-1.3c1.6,0,2.6,0.8,2.6,2.4v4.9h-1.6v-4.5
				c0-1.1-0.5-1.6-1.4-1.6c-1.1,0-1.7,0.8-1.7,1.9v4.2h-1.6V11.3z"/>
		</defs>
		<clipPath id="SVGID_46_">
			<use xlink:href="#SVGID_45_"  overflow="visible"/>
		</clipPath>
		<g clip-path="url(#SVGID_46_)">
			<defs>
				<rect id="SVGID_47_" x="-884.1" y="-1333.8" width="1440" height="4673"/>
			</defs>
			<clipPath id="SVGID_48_">
				<use xlink:href="#SVGID_47_"  overflow="visible"/>
			</clipPath>
			<rect x="219.4" y="6.1" clip-path="url(#SVGID_48_)" width="16.3" height="17.4"/>
		</g>
	</g>
	<g>
		<defs>
			<path id="SVGID_49_" d="M239.1,18.1c0,2.2-1.3,3.2-3.5,3.2c-1.5,0-3.1-0.6-3.2-2.2h1.6c0.2,0.9,0.9,1.1,1.7,1.1
				c1.3,0,1.9-0.7,1.9-1.8v-1.1h0c-0.4,0.8-1.3,1.3-2.2,1.3c-2.3,0-3.2-1.7-3.2-3.8c0-1.9,1.2-3.6,3.3-3.6c0.9,0,1.7,0.4,2.1,1.2h0
				v-1h1.6V18.1z M237.5,14.7c0-1.2-0.6-2.4-1.9-2.4c-1.4,0-1.9,1.3-1.9,2.5c0,1.2,0.6,2.4,1.9,2.4C237,17.2,237.5,15.9,237.5,14.7z
				"/>
		</defs>
		<clipPath id="SVGID_50_">
			<use xlink:href="#SVGID_49_"  overflow="visible"/>
		</clipPath>
		<g clip-path="url(#SVGID_50_)">
			<rect x="227.1" y="6.1" width="17" height="20.2"/>
		</g>
	</g>
	<g>
		<defs>
			<path id="SVGID_51_" d="M242,15.2c0,1.1,0.6,2.1,1.9,2.1c0.9,0,1.5-0.4,1.8-1.2h1.5c-0.4,1.6-1.7,2.4-3.3,2.4
				c-2.3,0-3.5-1.6-3.5-3.8c0-2,1.3-3.8,3.5-3.8c2.3,0,3.7,2,3.4,4.2H242z M245.7,14.2c-0.1-1-0.7-1.9-1.8-1.9
				c-1.1,0-1.9,0.8-1.9,1.9H245.7z"/>
		</defs>
		<clipPath id="SVGID_52_">
			<use xlink:href="#SVGID_51_"  overflow="visible"/>
		</clipPath>
		<g clip-path="url(#SVGID_52_)">
			<rect x="235.4" y="6.1" width="16.9" height="17.6"/>
		</g>
	</g>
	<g>
		<g>
			<g enable-background="new    ">
				<g>
					<g>
						<defs>
							<rect id="SVGID_53_" x="248.6" y="16.6" width="1.9" height="1.9"/>
						</defs>
						<clipPath id="SVGID_54_">
							<use xlink:href="#SVGID_53_"  overflow="visible"/>
						</clipPath>
						<g clip-path="url(#SVGID_54_)">
							<defs>
								<rect id="SVGID_55_" x="-0.1" y="-0.8" width="281" height="82"/>
							</defs>
							<clipPath id="SVGID_56_">
								<use xlink:href="#SVGID_55_"  overflow="visible"/>
							</clipPath>
							<rect x="243.6" y="11.6" clip-path="url(#SVGID_56_)" width="11.9" height="11.9"/>
						</g>
					</g>
					<g>
						<defs>
							<path id="SVGID_57_" d="M257.3,13.7c-0.1-0.9-0.8-1.3-1.6-1.3c-0.8,0-2,0.4-2,2.6c0,1.2,0.5,2.5,1.9,2.5
								c0.9,0,1.6-0.6,1.7-1.6h1.6c-0.3,1.9-1.5,2.9-3.3,2.9c-2.3,0-3.5-1.6-3.5-3.7c0-2.2,1.2-3.9,3.6-3.9c1.7,0,3.1,0.8,3.3,2.6
								H257.3z"/>
						</defs>
						<clipPath id="SVGID_58_">
							<use xlink:href="#SVGID_57_"  overflow="visible"/>
						</clipPath>
						<g clip-path="url(#SVGID_58_)">
							<defs>
								<rect id="SVGID_59_" x="-0.1" y="-0.8" width="281" height="82"/>
							</defs>
							<clipPath id="SVGID_60_">
								<use xlink:href="#SVGID_59_"  overflow="visible"/>
							</clipPath>
							<rect x="247" y="6.1" clip-path="url(#SVGID_60_)" width="16.8" height="17.6"/>
						</g>
					</g>
					<g>
						<defs>
							<path id="SVGID_61_" d="M259.8,14.8c0-2.2,1.3-3.8,3.6-3.8c2.3,0,3.6,1.6,3.6,3.8c0,2.2-1.3,3.8-3.6,3.8
								C261.1,18.6,259.8,17,259.8,14.8 M265.5,14.8c0-1.2-0.6-2.5-2.1-2.5c-1.4,0-2.1,1.3-2.1,2.5c0,1.2,0.6,2.5,2.1,2.5
								C264.9,17.4,265.5,16.1,265.5,14.8"/>
						</defs>
						<clipPath id="SVGID_62_">
							<use xlink:href="#SVGID_61_"  overflow="visible"/>
						</clipPath>
						<g clip-path="url(#SVGID_62_)">
							<defs>
								<rect id="SVGID_63_" x="-0.1" y="-0.8" width="281" height="82"/>
							</defs>
							<clipPath id="SVGID_64_">
								<use xlink:href="#SVGID_63_"  overflow="visible"/>
							</clipPath>
							<rect x="254.8" y="6.1" clip-path="url(#SVGID_64_)" width="17.3" height="17.6"/>
						</g>
					</g>
					<g>
						<defs>
							<path id="SVGID_65_" d="M268.4,11.3h1.5v1h0c0.5-0.7,1.1-1.2,2.2-1.2c0.9,0,1.7,0.4,2,1.2c0.5-0.7,1.2-1.2,2.3-1.2
								c1.5,0,2.4,0.7,2.4,2.4v5h-1.6v-4.2c0-1.1-0.1-1.9-1.3-1.9c-1.1,0-1.5,0.7-1.5,1.9v4.2h-1.6v-4.6c0-1-0.3-1.5-1.3-1.5
								c-0.8,0-1.6,0.7-1.6,1.9v4.3h-1.6V11.3z"/>
						</defs>
						<clipPath id="SVGID_66_">
							<use xlink:href="#SVGID_65_"  overflow="visible"/>
						</clipPath>
						<g clip-path="url(#SVGID_66_)">
							<defs>
								<rect id="SVGID_67_" x="-0.1" y="-0.8" width="281" height="82"/>
							</defs>
							<clipPath id="SVGID_68_">
								<use xlink:href="#SVGID_67_"  overflow="visible"/>
							</clipPath>
							<rect x="263.4" y="6.1" clip-path="url(#SVGID_68_)" width="20.5" height="17.4"/>
						</g>
					</g>
					<g>
						<defs>
							<path id="SVGID_69_" d="M52.2,0.2H32.7h0h0h0.1h0.1h0h0c-2.7,0-5.2,1-7.1,2.9c0,0,0,0-0.1,0c0,0-0.1,0.1-0.1,0.1c0,0,0,0,0,0
								c-1.9,1.9-2.9,4.4-2.9,7v0v0v-0.1v-0.1v0v0v39.1c0,5.6,4.5,10.1,10.1,10.1c5.6,0,10.1-4.5,10.1-10.1V24.7
								c0-4.3,0.5-4.3,3.3-4.3h6c5.6,0,10.1-4.5,10.1-10.1S57.8,0.2,52.2,0.2"/>
						</defs>
						<clipPath id="SVGID_70_">
							<use xlink:href="#SVGID_69_"  overflow="visible"/>
						</clipPath>
						<g clip-path="url(#SVGID_70_)">
							<defs>
								<rect id="SVGID_71_" x="-0.1" y="-0.8" width="281" height="82"/>
							</defs>
							<clipPath id="SVGID_72_">
								<use xlink:href="#SVGID_71_"  overflow="visible"/>
							</clipPath>
							<rect x="17.6" y="-4.8" clip-path="url(#SVGID_72_)" fill="#FFFFFF" width="49.8" height="69.2"/>
						</g>
					</g>
					<g>
						<path fill="none" stroke="#FFFFFF" stroke-width="0.44" stroke-miterlimit="10" d="M52.2,0.2H32.7h0h0h0.1h0.1h0h0
							c-2.7,0-5.2,1-7.1,2.9c0,0,0,0-0.1,0c0,0-0.1,0.1-0.1,0.1c0,0,0,0,0,0c-1.9,1.9-2.9,4.4-2.9,7v0v0v-0.1v-0.1v0v0v39.1
							c0,5.6,4.5,10.1,10.1,10.1c5.6,0,10.1-4.5,10.1-10.1V24.7c0-4.3,0.5-4.3,3.3-4.3h6c5.6,0,10.1-4.5,10.1-10.1
							S57.8,0.2,52.2,0.2z"/>
					</g>
					<g>
						<defs>
							<path id="SVGID_73_" d="M0.2,20.3v29.1c0,5.6,4.5,10.1,10.1,10.1c5.6,0,10.1-4.5,10.1-10.1V20.3H0.2z"/>
						</defs>
						<clipPath id="SVGID_74_">
							<use xlink:href="#SVGID_73_"  overflow="visible"/>
						</clipPath>
						<g clip-path="url(#SVGID_74_)">
							<defs>
								<rect id="SVGID_75_" x="-0.1" y="-0.8" width="281" height="82"/>
							</defs>
							<clipPath id="SVGID_76_">
								<use xlink:href="#SVGID_75_"  overflow="visible"/>
							</clipPath>
							<rect x="-4.8" y="15.3" clip-path="url(#SVGID_76_)" fill="#FFFFFF" width="30.3" height="49.2"/>
						</g>
					</g>
					<g>
						<path fill="none" stroke="#FFFFFF" stroke-width="0.44" stroke-miterlimit="10" d="M0.2,20.3v29.1c0,5.6,4.5,10.1,10.1,10.1
							c5.6,0,10.1-4.5,10.1-10.1V20.3H0.2z"/>
					</g>
					<g>
						<defs>
							<path id="SVGID_77_" d="M10.4,0.2C4.8,0.2,0.2,4.7,0.2,10.3V18h20.3v-7.6C20.5,4.7,16,0.2,10.4,0.2"/>
						</defs>
						<clipPath id="SVGID_78_">
							<use xlink:href="#SVGID_77_"  overflow="visible"/>
						</clipPath>
						<g clip-path="url(#SVGID_78_)">
							<defs>
								<rect id="SVGID_79_" x="-0.1" y="-0.8" width="281" height="82"/>
							</defs>
							<clipPath id="SVGID_80_">
								<use xlink:href="#SVGID_79_"  overflow="visible"/>
							</clipPath>
							<rect x="-4.8" y="-4.8" clip-path="url(#SVGID_80_)" fill="#FFFFFF" width="30.3" height="27.7"/>
						</g>
					</g>
					<g>
						<path fill="none" stroke="#FFFFFF" stroke-width="0.44" stroke-miterlimit="10" d="M10.4,0.2C4.8,0.2,0.2,4.7,0.2,10.3V18
							h20.3v-7.6C20.5,4.7,16,0.2,10.4,0.2z"/>
					</g>
					<g>
						<defs>
							<path id="SVGID_81_" d="M59.6,10.3c0,4.1-3.3,7.4-7.4,7.4h-6c-5.2,0-6.1,2.2-6.1,7v24.7c0,4.1-3.3,7.4-7.4,7.4
								c-4.1,0-7.4-3.3-7.4-7.4V10.3v0.1v0v0v0v0v0.1c0-1.9,0.8-3.8,2.1-5.1c0,0,0,0,0.1-0.1c0,0,0,0,0,0c0,0,0,0,0,0l0,0
								c0,0,0,0,0,0c1.4-1.4,3.3-2.1,5.2-2.1l-0.1,0l0,0h0h0l0,0l-0.1,0h19.5C56.3,2.9,59.6,6.2,59.6,10.3"/>
						</defs>
						<clipPath id="SVGID_82_">
							<use xlink:href="#SVGID_81_"  overflow="visible"/>
						</clipPath>
						<g clip-path="url(#SVGID_82_)">
							<defs>
								<rect id="SVGID_83_" x="-0.1" y="-0.8" width="281" height="82"/>
							</defs>
							<clipPath id="SVGID_84_">
								<use xlink:href="#SVGID_83_"  overflow="visible"/>
							</clipPath>
							<rect x="20.3" y="-2.1" clip-path="url(#SVGID_84_)" fill="#C41230" width="44.3" height="63.9"/>
						</g>
					</g>
					<g>
						<defs>
							<path id="SVGID_85_" d="M10.4,56.8c-4.1,0-7.4-3.3-7.4-7.4V23h14.9v26.4C17.8,53.5,14.5,56.8,10.4,56.8"/>
						</defs>
						<clipPath id="SVGID_86_">
							<use xlink:href="#SVGID_85_"  overflow="visible"/>
						</clipPath>
						<g clip-path="url(#SVGID_86_)">
							<defs>
								<rect id="SVGID_87_" x="-0.1" y="-0.8" width="281" height="82"/>
							</defs>
							<clipPath id="SVGID_88_">
								<use xlink:href="#SVGID_87_"  overflow="visible"/>
							</clipPath>
							<rect x="-2.1" y="18" clip-path="url(#SVGID_88_)" fill="#C41230" width="24.9" height="43.8"/>
						</g>
					</g>
					<g>
						<defs>
							<path id="SVGID_89_" d="M10.4,2.9c4.1,0,7.4,3.3,7.4,7.4v4.9H2.9v-4.9C2.9,6.2,6.3,2.9,10.4,2.9"/>
						</defs>
						<clipPath id="SVGID_90_">
							<use xlink:href="#SVGID_89_"  overflow="visible"/>
						</clipPath>
						<g clip-path="url(#SVGID_90_)">
							<defs>
								<rect id="SVGID_91_" x="-0.1" y="-0.8" width="281" height="82"/>
							</defs>
							<clipPath id="SVGID_92_">
								<use xlink:href="#SVGID_91_"  overflow="visible"/>
							</clipPath>
							<rect x="-2.1" y="-2.1" clip-path="url(#SVGID_92_)" fill="#C41230" width="24.9" height="22.3"/>
						</g>
					</g>
					<g>
						<defs>
							<path id="SVGID_93_" d="M57.8,30.2h6.3v-5.5h-6.3V30.2z M57.8,56.6h6.3V32.9h-6.3V56.6z"/>
						</defs>
						<clipPath id="SVGID_94_">
							<use xlink:href="#SVGID_93_"  overflow="visible"/>
						</clipPath>
						<g clip-path="url(#SVGID_94_)">
							<defs>
								<rect id="SVGID_95_" x="-0.1" y="-0.8" width="281" height="82"/>
							</defs>
							<clipPath id="SVGID_96_">
								<use xlink:href="#SVGID_95_"  overflow="visible"/>
							</clipPath>
							<rect x="52.8" y="19.8" clip-path="url(#SVGID_96_)" width="16.3" height="41.9"/>
						</g>
					</g>
					<g>
						<defs>
							<path id="SVGID_97_" d="M69.1,32.9h6.3v3.6h0.1c1.2-2.5,3.6-4,6-4c5.6,0,9.4,2.3,9.4,8.2v15.9h-6.3V42.6
								c0-2.1-0.3-4.6-4.6-4.6c-3.8,0-4.6,2.1-4.6,4v14.7h-6.3V32.9z"/>
						</defs>
						<clipPath id="SVGID_98_">
							<use xlink:href="#SVGID_97_"  overflow="visible"/>
						</clipPath>
						<g clip-path="url(#SVGID_98_)">
							<defs>
								<rect id="SVGID_99_" x="-0.1" y="-0.8" width="281" height="82"/>
							</defs>
							<clipPath id="SVGID_100_">
								<use xlink:href="#SVGID_99_"  overflow="visible"/>
							</clipPath>
							<rect x="64.1" y="27.5" clip-path="url(#SVGID_100_)" width="31.8" height="34.1"/>
						</g>
					</g>
					<g>
						<defs>
							<path id="SVGID_101_" d="M94.1,32.9h6.3v3.6h0.1c1.2-2.5,3.6-4,6-4c5.6,0,9.4,2.3,9.4,8.2v15.9h-6.3V42.6
								c0-2.1-0.3-4.6-4.6-4.6c-3.8,0-4.6,2.1-4.6,4v14.7h-6.3V32.9z"/>
						</defs>
						<clipPath id="SVGID_102_">
							<use xlink:href="#SVGID_101_"  overflow="visible"/>
						</clipPath>
						<g clip-path="url(#SVGID_102_)">
							<defs>
								<rect id="SVGID_103_" x="-0.1" y="-0.8" width="281" height="82"/>
							</defs>
							<clipPath id="SVGID_104_">
								<use xlink:href="#SVGID_103_"  overflow="visible"/>
							</clipPath>
							<rect x="89.1" y="27.5" clip-path="url(#SVGID_104_)" width="31.8" height="34.1"/>
						</g>
					</g>
					<g>
						<defs>
							<path id="SVGID_105_" d="M124.7,46.7c-0.1,1.3-0.1,2.6,0.8,3.8c1.4,1.9,3.5,2.4,5.3,2.1c1.8-0.3,3.3-1.4,3.6-2.7h6.2
								c-1.1,4.6-6.9,7.7-11.1,7.7c-2.4,0-4.6-0.7-6.4-1.8c-2.3-1.4-3.7-3.6-4.4-5.6c-0.1-0.4-0.3-1.4-0.4-2.9
								c-0.1-1.4-0.1-3.2,0.2-5.1c1.6-9.3,8.2-9.7,11-9.7c4.8,0,7.8,2.3,9.3,4.7c2.2,3.5,2.2,6.6,2.1,9.5H124.7z M134.4,42.6
								c0-1.8-0.6-4.8-4.4-4.9c-3.9-0.2-5.3,2.7-5.3,4.9H134.4z"/>
						</defs>
						<clipPath id="SVGID_106_">
							<use xlink:href="#SVGID_105_"  overflow="visible"/>
						</clipPath>
						<g clip-path="url(#SVGID_106_)">
							<defs>
								<rect id="SVGID_107_" x="-0.1" y="-0.8" width="281" height="82"/>
							</defs>
							<clipPath id="SVGID_108_">
								<use xlink:href="#SVGID_107_"  overflow="visible"/>
							</clipPath>
							<rect x="113.3" y="27.5" clip-path="url(#SVGID_108_)" width="32.7" height="35.1"/>
						</g>
					</g>
					<g>
						<defs>
							<path id="SVGID_109_" d="M143.8,32.9h6.3v4.6h0.1c0.4-1.4,0.7-2.2,2.9-3.7c1.1-0.8,2.5-1.6,4.5-1.3v6.2
								c-2.7-0.3-6.8-0.7-7.5,4.5v13.3h-6.3V32.9z"/>
						</defs>
						<clipPath id="SVGID_110_">
							<use xlink:href="#SVGID_109_"  overflow="visible"/>
						</clipPath>
						<g clip-path="url(#SVGID_110_)">
							<defs>
								<rect id="SVGID_111_" x="-0.1" y="-0.8" width="281" height="82"/>
							</defs>
							<clipPath id="SVGID_112_">
								<use xlink:href="#SVGID_111_"  overflow="visible"/>
							</clipPath>
							<rect x="138.8" y="27.5" clip-path="url(#SVGID_112_)" width="23.8" height="34.2"/>
						</g>
					</g>
					<g>
						<defs>
							<path id="SVGID_113_" d="M166.6,32.9h6.3v4.6h0.1c0.4-1.4,0.7-2.2,2.9-3.7c1.1-0.8,2.5-1.6,4.5-1.3v6.2
								c-2.7-0.3-6.8-0.7-7.5,4.5v13.3h-6.3V32.9z"/>
						</defs>
						<clipPath id="SVGID_114_">
							<use xlink:href="#SVGID_113_"  overflow="visible"/>
						</clipPath>
						<g clip-path="url(#SVGID_114_)">
							<defs>
								<rect id="SVGID_115_" x="-0.1" y="-0.8" width="281" height="82"/>
							</defs>
							<clipPath id="SVGID_116_">
								<use xlink:href="#SVGID_115_"  overflow="visible"/>
							</clipPath>
							<rect x="161.6" y="27.5" clip-path="url(#SVGID_116_)" width="23.8" height="34.2"/>
						</g>
					</g>
					<g>
						<defs>
							<path id="SVGID_117_" d="M198.2,56.6c-0.5-0.6-0.7-1.5-0.7-2.4c-2.2,2-4.1,3.4-7.8,3.4c-5,0-7.4-2.7-7.2-7.3
								c0.1-3.3,1.5-6.6,7.1-7.5c2.3-0.1,4.9-0.6,6.4-1.1c1.1-0.4,1.7-1.5,1.6-2.7c0-1.5-1.3-2.1-4.1-2.1c-3.6,0-4.1,2.1-4.1,3.8
								h-5.9c0.1-7.6,6.8-8.3,10.1-8.3c2.4,0,4.6,0.4,5.8,0.9c2.4,1,4.4,2.9,4.4,6.6V53c0,1.1,0.6,2.1,1.4,2.8v0.8H198.2z
								 M197.5,45.5c-1.8,1.1-4.2,1-5.9,1.3c-1.9,0.4-3.3,1.9-2.7,3.9c0.4,1.4,1.5,2.4,4.2,2c3.7-0.6,4.4-3.1,4.4-5.7V45.5z"/>
						</defs>
						<clipPath id="SVGID_118_">
							<use xlink:href="#SVGID_117_"  overflow="visible"/>
						</clipPath>
						<g clip-path="url(#SVGID_118_)">
							<defs>
								<rect id="SVGID_119_" x="-0.1" y="-0.8" width="281" height="82"/>
							</defs>
							<clipPath id="SVGID_120_">
								<use xlink:href="#SVGID_119_"  overflow="visible"/>
							</clipPath>
							<rect x="177.5" y="27.5" clip-path="url(#SVGID_120_)" width="32.4" height="35.1"/>
						</g>
					</g>
					<g>
						<defs>
							<path id="SVGID_121_" d="M207.8,32.9h6.3v3.6h0.1c1.2-2.5,3.6-4,6-4c5.6,0,9.4,2.3,9.4,8.2v15.9h-6.3V42.6
								c0-2.1-0.3-4.6-4.6-4.6c-3.8,0-4.6,2.1-4.6,4v14.7h-6.3V32.9z"/>
						</defs>
						<clipPath id="SVGID_122_">
							<use xlink:href="#SVGID_121_"  overflow="visible"/>
						</clipPath>
						<g clip-path="url(#SVGID_122_)">
							<defs>
								<rect id="SVGID_123_" x="-0.1" y="-0.8" width="281" height="82"/>
							</defs>
							<clipPath id="SVGID_124_">
								<use xlink:href="#SVGID_123_"  overflow="visible"/>
							</clipPath>
							<rect x="202.8" y="27.5" clip-path="url(#SVGID_124_)" width="31.8" height="34.1"/>
						</g>
					</g>
					<g>
						<defs>
							<path id="SVGID_125_" d="M255,32.9v24.3c0,2.9-1.5,5.7-3.8,7.1c-1.6,1-3.8,1.8-8.4,1.8c-6.7,0-10.2-3-10.2-6.8h6.6
								c0,1.4,1.5,2.7,4.4,2.7c2.8,0,5.5-1.9,5.5-4.5v-3.3c-1.9,2-3.2,3.5-6.6,3.5c-3.4,0-5-0.7-7-2.6c-4.7-4.6-4.3-15,0.3-19.6
								c1.2-1.2,3.5-3.1,6.9-2.8c3.9,0.2,4.7,2,6.5,4v-3.6H255z M239,40.8c-0.5,0.9-1.2,2.7-1.2,4.6c0,2,0.7,3.7,1.2,4.6
								c1.2,2,2.9,2.7,4.5,2.7c1.6,0,3.3-0.7,4.5-2.7c0.5-0.9,1.2-2.7,1.2-4.6c0-2-0.7-3.7-1.2-4.6c-1.2-2-2.9-2.7-4.5-2.7
								C241.9,38.1,240.2,38.8,239,40.8z"/>
						</defs>
						<clipPath id="SVGID_126_">
							<use xlink:href="#SVGID_125_"  overflow="visible"/>
						</clipPath>
						<g clip-path="url(#SVGID_126_)">
							<defs>
								<rect id="SVGID_127_" x="-0.1" y="-0.8" width="281" height="82"/>
							</defs>
							<clipPath id="SVGID_128_">
								<use xlink:href="#SVGID_127_"  overflow="visible"/>
							</clipPath>
							<rect x="227.2" y="27.5" clip-path="url(#SVGID_128_)" width="32.8" height="43.7"/>
						</g>
					</g>
					<g>
						<defs>
							<path id="SVGID_129_" d="M264.2,46.7c-0.1,1.3-0.1,2.6,0.8,3.8c1.4,1.9,3.5,2.4,5.3,2.1c1.8-0.3,3.3-1.4,3.6-2.7h6.2
								c-1.1,4.6-6.8,7.7-11.1,7.7c-2.4,0-4.6-0.7-6.3-1.8c-2.3-1.4-3.7-3.6-4.4-5.6c-0.1-0.4-0.3-1.4-0.5-2.9
								c-0.1-1.4-0.1-3.2,0.2-5.1c1.6-9.3,8.2-9.7,11-9.7c4.8,0,7.7,2.3,9.3,4.7c2.2,3.5,2.2,6.6,2.1,9.5H264.2z M273.9,42.6
								c0-1.8-0.6-4.8-4.4-4.9c-3.9-0.2-5.3,2.7-5.3,4.9H273.9z"/>
						</defs>
						<clipPath id="SVGID_130_">
							<use xlink:href="#SVGID_129_"  overflow="visible"/>
						</clipPath>
						<g clip-path="url(#SVGID_130_)">
							<defs>
								<rect id="SVGID_131_" x="-0.1" y="-0.8" width="281" height="82"/>
							</defs>
							<clipPath id="SVGID_132_">
								<use xlink:href="#SVGID_131_"  overflow="visible"/>
							</clipPath>
							<rect x="252.8" y="27.5" clip-path="url(#SVGID_132_)" width="32.7" height="35.1"/>
						</g>
					</g>
					<g>
						<defs>
							<rect id="SVGID_133_" x="93.1" y="68.7" width="2.4" height="9.2"/>
						</defs>
						<clipPath id="SVGID_134_">
							<use xlink:href="#SVGID_133_"  overflow="visible"/>
						</clipPath>
						<g clip-path="url(#SVGID_134_)">
							<defs>
								<rect id="SVGID_135_" x="-0.1" y="-0.8" width="281" height="82"/>
							</defs>
							<clipPath id="SVGID_136_">
								<use xlink:href="#SVGID_135_"  overflow="visible"/>
							</clipPath>
							<rect x="88.1" y="63.7" clip-path="url(#SVGID_136_)" fill="#F7941E" width="12.4" height="19.2"/>
						</g>
					</g>
					<g>
						<defs>
							<path id="SVGID_137_" d="M97,71.2h2.1v0.9h0c0.4-0.7,1.3-1.1,2.1-1.1c2.2,0,2.4,1.6,2.4,2.6v4.3h-2.2v-3.2
								c0-0.9,0.1-1.8-1.1-1.8c-0.8,0-1.2,0.7-1.2,1.4v3.6H97V71.2z"/>
						</defs>
						<clipPath id="SVGID_138_">
							<use xlink:href="#SVGID_137_"  overflow="visible"/>
						</clipPath>
						<g clip-path="url(#SVGID_138_)">
							<defs>
								<rect id="SVGID_139_" x="-0.1" y="-0.8" width="281" height="82"/>
							</defs>
							<clipPath id="SVGID_140_">
								<use xlink:href="#SVGID_139_"  overflow="visible"/>
							</clipPath>
							<rect x="92" y="66.1" clip-path="url(#SVGID_140_)" fill="#F7941E" width="16.7" height="16.8"/>
						</g>
					</g>
					<g>
						<defs>
							<path id="SVGID_141_" d="M109.2,72.7h-1.4v3c0,0.5,0.3,0.6,0.8,0.6c0.2,0,0.4,0,0.6,0v1.6c-0.4,0-0.8,0.1-1.2,0.1
								c-1.9,0-2.3-0.5-2.3-2.3v-3h-1.1v-1.4h1.1v-2h2.2v2h1.4V72.7z"/>
						</defs>
						<clipPath id="SVGID_142_">
							<use xlink:href="#SVGID_141_"  overflow="visible"/>
						</clipPath>
						<g clip-path="url(#SVGID_142_)">
							<defs>
								<rect id="SVGID_143_" x="-0.1" y="-0.8" width="281" height="82"/>
							</defs>
							<clipPath id="SVGID_144_">
								<use xlink:href="#SVGID_143_"  overflow="visible"/>
							</clipPath>
							<rect x="99.5" y="64.2" clip-path="url(#SVGID_144_)" fill="#F7941E" width="14.7" height="18.7"/>
						</g>
					</g>
					<g>
						<defs>
							<path id="SVGID_145_" d="M112,75.1c0,0.9,0.6,1.5,1.5,1.5c0.5,0,1-0.2,1.2-0.7h2.1c-0.4,1.5-1.8,2.2-3.3,2.2
								c-2.2,0-3.7-1.3-3.7-3.5c0-2,1.6-3.5,3.6-3.5c2.4,0,3.6,1.8,3.5,4.1H112z M114.8,73.9c0-0.7-0.6-1.4-1.3-1.4
								c-0.8,0-1.3,0.6-1.4,1.4H114.8z"/>
						</defs>
						<clipPath id="SVGID_146_">
							<use xlink:href="#SVGID_145_"  overflow="visible"/>
						</clipPath>
						<g clip-path="url(#SVGID_146_)">
							<defs>
								<rect id="SVGID_147_" x="-0.1" y="-0.8" width="281" height="82"/>
							</defs>
							<clipPath id="SVGID_148_">
								<use xlink:href="#SVGID_147_"  overflow="visible"/>
							</clipPath>
							<rect x="104.8" y="66.1" clip-path="url(#SVGID_148_)" fill="#F7941E" width="17.1" height="17"/>
						</g>
					</g>
					<g>
						<defs>
							<rect id="SVGID_149_" x="118.1" y="68.7" width="2.2" height="9.2"/>
						</defs>
						<clipPath id="SVGID_150_">
							<use xlink:href="#SVGID_149_"  overflow="visible"/>
						</clipPath>
						<g clip-path="url(#SVGID_150_)">
							<defs>
								<rect id="SVGID_151_" x="-0.1" y="-0.8" width="281" height="82"/>
							</defs>
							<clipPath id="SVGID_152_">
								<use xlink:href="#SVGID_151_"  overflow="visible"/>
							</clipPath>
							<rect x="113.1" y="63.7" clip-path="url(#SVGID_152_)" fill="#F7941E" width="12.2" height="19.2"/>
						</g>
					</g>
					<g>
						<defs>
							<rect id="SVGID_153_" x="121.9" y="68.7" width="2.2" height="9.2"/>
						</defs>
						<clipPath id="SVGID_154_">
							<use xlink:href="#SVGID_153_"  overflow="visible"/>
						</clipPath>
						<g clip-path="url(#SVGID_154_)">
							<defs>
								<rect id="SVGID_155_" x="-0.1" y="-0.8" width="281" height="82"/>
							</defs>
							<clipPath id="SVGID_156_">
								<use xlink:href="#SVGID_155_"  overflow="visible"/>
							</clipPath>
							<rect x="116.9" y="63.7" clip-path="url(#SVGID_156_)" fill="#F7941E" width="12.2" height="19.2"/>
						</g>
					</g>
					<g>
						<defs>
							<path id="SVGID_157_" d="M125.8,70.4h2.2v-1.7h-2.2V70.4z M125.8,77.9h2.2v-6.7h-2.2V77.9z"/>
						</defs>
						<clipPath id="SVGID_158_">
							<use xlink:href="#SVGID_157_"  overflow="visible"/>
						</clipPath>
						<g clip-path="url(#SVGID_158_)">
							<defs>
								<rect id="SVGID_159_" x="-0.1" y="-0.8" width="281" height="82"/>
							</defs>
							<clipPath id="SVGID_160_">
								<use xlink:href="#SVGID_159_"  overflow="visible"/>
							</clipPath>
							<rect x="120.8" y="63.7" clip-path="url(#SVGID_160_)" fill="#F7941E" width="12.2" height="19.2"/>
						</g>
					</g>
					<g>
						<defs>
							<path id="SVGID_161_" d="M136,77.1c0,1.1-0.2,3.1-3.3,3.1c-1.6,0-3-0.3-3.3-2.1h2.2c0.1,0.3,0.2,0.5,0.4,0.6
								c0.2,0.1,0.5,0.1,0.8,0.1c1,0,1.1-0.7,1.1-1.6v-0.6h0c-0.4,0.6-1.1,1-1.8,1c-2,0-2.9-1.4-2.9-3.3c0-1.8,1-3.3,2.9-3.3
								c0.8,0,1.4,0.3,1.8,1h0v-0.8h2.1V77.1z M132.6,72.7c-1,0-1.3,0.8-1.3,1.7c0,0.8,0.4,1.6,1.3,1.6c0.9,0,1.3-0.7,1.3-1.6
								C133.9,73.6,133.6,72.7,132.6,72.7z"/>
						</defs>
						<clipPath id="SVGID_162_">
							<use xlink:href="#SVGID_161_"  overflow="visible"/>
						</clipPath>
						<g clip-path="url(#SVGID_162_)">
							<defs>
								<rect id="SVGID_163_" x="-0.1" y="-0.8" width="281" height="82"/>
							</defs>
							<clipPath id="SVGID_164_">
								<use xlink:href="#SVGID_163_"  overflow="visible"/>
							</clipPath>
							<rect x="124.1" y="66.1" clip-path="url(#SVGID_164_)" fill="#F7941E" width="16.9" height="19.2"/>
						</g>
					</g>
					<g>
						<defs>
							<path id="SVGID_165_" d="M139.2,75.1c0,0.9,0.6,1.5,1.5,1.5c0.5,0,1-0.2,1.2-0.7h2.1c-0.4,1.5-1.8,2.2-3.3,2.2
								c-2.2,0-3.7-1.3-3.7-3.5c0-2,1.6-3.5,3.6-3.5c2.4,0,3.6,1.8,3.5,4.1H139.2z M142,73.9c0-0.7-0.6-1.4-1.3-1.4
								c-0.8,0-1.3,0.6-1.4,1.4H142z"/>
						</defs>
						<clipPath id="SVGID_166_">
							<use xlink:href="#SVGID_165_"  overflow="visible"/>
						</clipPath>
						<g clip-path="url(#SVGID_166_)">
							<defs>
								<rect id="SVGID_167_" x="-0.1" y="-0.8" width="281" height="82"/>
							</defs>
							<clipPath id="SVGID_168_">
								<use xlink:href="#SVGID_167_"  overflow="visible"/>
							</clipPath>
							<rect x="132.1" y="66.1" clip-path="url(#SVGID_168_)" fill="#F7941E" width="17.1" height="17"/>
						</g>
					</g>
					<g>
						<defs>
							<path id="SVGID_169_" d="M145.3,71.2h2.1v0.9h0c0.4-0.7,1.3-1.1,2.1-1.1c2.2,0,2.4,1.6,2.4,2.6v4.3h-2.2v-3.2
								c0-0.9,0.1-1.8-1.1-1.8c-0.8,0-1.2,0.7-1.2,1.4v3.6h-2.2V71.2z"/>
						</defs>
						<clipPath id="SVGID_170_">
							<use xlink:href="#SVGID_169_"  overflow="visible"/>
						</clipPath>
						<g clip-path="url(#SVGID_170_)">
							<defs>
								<rect id="SVGID_171_" x="-0.1" y="-0.8" width="281" height="82"/>
							</defs>
							<clipPath id="SVGID_172_">
								<use xlink:href="#SVGID_171_"  overflow="visible"/>
							</clipPath>
							<rect x="140.3" y="66.1" clip-path="url(#SVGID_172_)" fill="#F7941E" width="16.7" height="16.8"/>
						</g>
					</g>
					<g>
						<defs>
							<path id="SVGID_173_" d="M157.4,72.7h-1.4v3c0,0.5,0.3,0.6,0.8,0.6c0.2,0,0.4,0,0.6,0v1.6c-0.4,0-0.8,0.1-1.2,0.1
								c-1.9,0-2.3-0.5-2.3-2.3v-3h-1.1v-1.4h1.1v-2h2.2v2h1.4V72.7z"/>
						</defs>
						<clipPath id="SVGID_174_">
							<use xlink:href="#SVGID_173_"  overflow="visible"/>
						</clipPath>
						<g clip-path="url(#SVGID_174_)">
							<defs>
								<rect id="SVGID_175_" x="-0.1" y="-0.8" width="281" height="82"/>
							</defs>
							<clipPath id="SVGID_176_">
								<use xlink:href="#SVGID_175_"  overflow="visible"/>
							</clipPath>
							<rect x="147.8" y="64.2" clip-path="url(#SVGID_176_)" fill="#F7941E" width="14.7" height="18.7"/>
						</g>
					</g>
					<g>
						<defs>
							<path id="SVGID_177_" d="M164.4,74.8c0.1,1.1,0.7,1.4,1.7,1.4c0.7,0,1.5-0.3,1.5-0.9c0-0.8-1.3-1-2.6-1.3
								c-1.3-0.4-2.7-1-2.7-2.6c0-2,2-2.8,3.8-2.8c1.8,0,3.7,0.9,3.7,2.9h-2.4c0-0.8-0.7-1.1-1.5-1.1c-0.5,0-1.2,0.2-1.2,0.8
								c0,0.7,1.3,0.8,2.7,1.2c1.3,0.4,2.7,1,2.7,2.6c0,2.3-2,3.1-4,3.1c-2.1,0-4-0.9-4-3.3H164.4z"/>
						</defs>
						<clipPath id="SVGID_178_">
							<use xlink:href="#SVGID_177_"  overflow="visible"/>
						</clipPath>
						<g clip-path="url(#SVGID_178_)">
							<defs>
								<rect id="SVGID_179_" x="-0.1" y="-0.8" width="281" height="82"/>
							</defs>
							<clipPath id="SVGID_180_">
								<use xlink:href="#SVGID_179_"  overflow="visible"/>
							</clipPath>
							<rect x="157" y="63.5" clip-path="url(#SVGID_180_)" fill="#F7941E" width="18" height="19.5"/>
						</g>
					</g>
					<g>
						<defs>
							<path id="SVGID_181_" d="M172.9,75.1c0,0.9,0.6,1.5,1.5,1.5c0.5,0,1-0.2,1.3-0.7h2c-0.4,1.5-1.8,2.2-3.3,2.2
								c-2.2,0-3.7-1.3-3.7-3.5c0-2,1.6-3.5,3.6-3.5c2.4,0,3.6,1.8,3.5,4.1H172.9z M175.6,73.9c0-0.7-0.6-1.4-1.3-1.4
								c-0.8,0-1.3,0.6-1.4,1.4H175.6z"/>
						</defs>
						<clipPath id="SVGID_182_">
							<use xlink:href="#SVGID_181_"  overflow="visible"/>
						</clipPath>
						<g clip-path="url(#SVGID_182_)">
							<defs>
								<rect id="SVGID_183_" x="-0.1" y="-0.8" width="281" height="82"/>
							</defs>
							<clipPath id="SVGID_184_">
								<use xlink:href="#SVGID_183_"  overflow="visible"/>
							</clipPath>
							<rect x="165.7" y="66.1" clip-path="url(#SVGID_184_)" fill="#F7941E" width="17.1" height="17"/>
						</g>
					</g>
					<g>
						<defs>
							<path id="SVGID_185_" d="M183.3,73.7c0-0.6-0.5-1-1.1-1c-1.2,0-1.4,1-1.4,2c0,0.9,0.4,1.7,1.3,1.7c0.8,0,1.1-0.4,1.2-1.1h2.1
								c-0.2,1.8-1.6,2.8-3.4,2.8c-2,0-3.5-1.4-3.5-3.4c0-2.1,1.4-3.6,3.5-3.6c1.7,0,3.1,0.9,3.3,2.6H183.3z"/>
						</defs>
						<clipPath id="SVGID_186_">
							<use xlink:href="#SVGID_185_"  overflow="visible"/>
						</clipPath>
						<g clip-path="url(#SVGID_186_)">
							<defs>
								<rect id="SVGID_187_" x="-0.1" y="-0.8" width="281" height="82"/>
							</defs>
							<clipPath id="SVGID_188_">
								<use xlink:href="#SVGID_187_"  overflow="visible"/>
							</clipPath>
							<rect x="173.6" y="66.1" clip-path="url(#SVGID_188_)" fill="#F7941E" width="16.9" height="17"/>
						</g>
					</g>
					<g>
						<defs>
							<path id="SVGID_189_" d="M193.2,77.9h-2.1V77h0c-0.4,0.7-1.3,1.1-2,1.1c-1.9,0-2.5-1.1-2.5-2.8v-4h2.2v3.9
								c0,0.9,0.4,1.2,1.1,1.2c0.5,0,1.2-0.3,1.2-1.5v-3.6h2.2V77.9z"/>
						</defs>
						<clipPath id="SVGID_190_">
							<use xlink:href="#SVGID_189_"  overflow="visible"/>
						</clipPath>
						<g clip-path="url(#SVGID_190_)">
							<defs>
								<rect id="SVGID_191_" x="-0.1" y="-0.8" width="281" height="82"/>
							</defs>
							<clipPath id="SVGID_192_">
								<use xlink:href="#SVGID_191_"  overflow="visible"/>
							</clipPath>
							<rect x="181.6" y="66.2" clip-path="url(#SVGID_192_)" fill="#F7941E" width="16.7" height="16.8"/>
						</g>
					</g>
					<g>
						<defs>
							<path id="SVGID_193_" d="M194.8,71.2h2.1v1.2h0c0.3-0.8,1.1-1.3,2-1.3c0.2,0,0.3,0,0.5,0.1v2c-0.3-0.1-0.5-0.1-0.8-0.1
								c-1.1,0-1.7,0.7-1.7,1.6v3.3h-2.2V71.2z"/>
						</defs>
						<clipPath id="SVGID_194_">
							<use xlink:href="#SVGID_193_"  overflow="visible"/>
						</clipPath>
						<g clip-path="url(#SVGID_194_)">
							<defs>
								<rect id="SVGID_195_" x="-0.1" y="-0.8" width="281" height="82"/>
							</defs>
							<clipPath id="SVGID_196_">
								<use xlink:href="#SVGID_195_"  overflow="visible"/>
							</clipPath>
							<rect x="189.8" y="66.1" clip-path="url(#SVGID_196_)" fill="#F7941E" width="14.7" height="16.8"/>
						</g>
					</g>
					<g>
						<defs>
							<path id="SVGID_197_" d="M200.3,70.4h2.2v-1.7h-2.2V70.4z M200.3,77.9h2.2v-6.7h-2.2V77.9z"/>
						</defs>
						<clipPath id="SVGID_198_">
							<use xlink:href="#SVGID_197_"  overflow="visible"/>
						</clipPath>
						<g clip-path="url(#SVGID_198_)">
							<defs>
								<rect id="SVGID_199_" x="-0.1" y="-0.8" width="281" height="82"/>
							</defs>
							<clipPath id="SVGID_200_">
								<use xlink:href="#SVGID_199_"  overflow="visible"/>
							</clipPath>
							<rect x="195.3" y="63.7" clip-path="url(#SVGID_200_)" fill="#F7941E" width="12.2" height="19.2"/>
						</g>
					</g>
					<g>
						<defs>
							<path id="SVGID_201_" d="M208.1,72.7h-1.4v3c0,0.5,0.3,0.6,0.8,0.6c0.2,0,0.4,0,0.6,0v1.6c-0.4,0-0.8,0.1-1.2,0.1
								c-1.9,0-2.3-0.5-2.3-2.3v-3h-1.1v-1.4h1.1v-2h2.2v2h1.4V72.7z"/>
						</defs>
						<clipPath id="SVGID_202_">
							<use xlink:href="#SVGID_201_"  overflow="visible"/>
						</clipPath>
						<g clip-path="url(#SVGID_202_)">
							<defs>
								<rect id="SVGID_203_" x="-0.1" y="-0.8" width="281" height="82"/>
							</defs>
							<clipPath id="SVGID_204_">
								<use xlink:href="#SVGID_203_"  overflow="visible"/>
							</clipPath>
							<rect x="198.4" y="64.2" clip-path="url(#SVGID_204_)" fill="#F7941E" width="14.7" height="18.7"/>
						</g>
					</g>
					<g>
						<defs>
							<path id="SVGID_205_" d="M212.7,78.5c-0.5,1.5-1.3,1.6-2.8,1.6h-1v-1.8h0.8c0.5,0,0.9-0.3,0.9-0.7c0-0.4-0.4-1.4-0.6-1.7
								l-1.7-4.6h2.3l1.3,4.3h0l1.3-4.3h2.2L212.7,78.5z"/>
						</defs>
						<clipPath id="SVGID_206_">
							<use xlink:href="#SVGID_205_"  overflow="visible"/>
						</clipPath>
						<g clip-path="url(#SVGID_206_)">
							<defs>
								<rect id="SVGID_207_" x="-0.1" y="-0.8" width="281" height="82"/>
							</defs>
							<clipPath id="SVGID_208_">
								<use xlink:href="#SVGID_207_"  overflow="visible"/>
							</clipPath>
							<rect x="203.2" y="66.2" clip-path="url(#SVGID_208_)" fill="#F7941E" width="17.1" height="18.9"/>
						</g>
					</g>
					<g>
						<defs>
							<path id="SVGID_209_" d="M222,74.8c0.1,1.1,0.7,1.4,1.7,1.4c0.7,0,1.5-0.3,1.5-0.9c0-0.8-1.3-1-2.6-1.3
								c-1.3-0.4-2.7-1-2.7-2.6c0-2,2-2.8,3.8-2.8c1.8,0,3.7,0.9,3.7,2.9h-2.4c0-0.8-0.7-1.1-1.5-1.1c-0.5,0-1.2,0.2-1.2,0.8
								c0,0.7,1.3,0.8,2.7,1.2c1.3,0.4,2.7,1,2.7,2.6c0,2.3-2,3.1-4,3.1c-2.1,0-4-0.9-4-3.3H222z"/>
						</defs>
						<clipPath id="SVGID_210_">
							<use xlink:href="#SVGID_209_"  overflow="visible"/>
						</clipPath>
						<g clip-path="url(#SVGID_210_)">
							<defs>
								<rect id="SVGID_211_" x="-0.1" y="-0.8" width="281" height="82"/>
							</defs>
							<clipPath id="SVGID_212_">
								<use xlink:href="#SVGID_211_"  overflow="visible"/>
							</clipPath>
							<rect x="214.6" y="63.5" clip-path="url(#SVGID_212_)" fill="#F7941E" width="18" height="19.5"/>
						</g>
					</g>
					<g>
						<defs>
							<path id="SVGID_213_" d="M231.8,71.1c2.1,0,3.5,1.5,3.5,3.5s-1.5,3.5-3.5,3.5c-2.1,0-3.5-1.5-3.5-3.5S229.7,71.1,231.8,71.1
								 M231.8,76.4c1,0,1.3-1,1.3-1.8c0-0.8-0.3-1.9-1.3-1.9c-1,0-1.3,1-1.3,1.9C230.5,75.4,230.8,76.4,231.8,76.4"/>
						</defs>
						<clipPath id="SVGID_214_">
							<use xlink:href="#SVGID_213_"  overflow="visible"/>
						</clipPath>
						<g clip-path="url(#SVGID_214_)">
							<defs>
								<rect id="SVGID_215_" x="-0.1" y="-0.8" width="281" height="82"/>
							</defs>
							<clipPath id="SVGID_216_">
								<use xlink:href="#SVGID_215_"  overflow="visible"/>
							</clipPath>
							<rect x="223.3" y="66.1" clip-path="url(#SVGID_216_)" fill="#F7941E" width="17.1" height="17"/>
						</g>
					</g>
					<g>
						<defs>
							<rect id="SVGID_217_" x="236.6" y="68.7" width="2.2" height="9.2"/>
						</defs>
						<clipPath id="SVGID_218_">
							<use xlink:href="#SVGID_217_"  overflow="visible"/>
						</clipPath>
						<g clip-path="url(#SVGID_218_)">
							<defs>
								<rect id="SVGID_219_" x="-0.1" y="-0.8" width="281" height="82"/>
							</defs>
							<clipPath id="SVGID_220_">
								<use xlink:href="#SVGID_219_"  overflow="visible"/>
							</clipPath>
							<rect x="231.6" y="63.7" clip-path="url(#SVGID_220_)" fill="#F7941E" width="12.2" height="19.2"/>
						</g>
					</g>
					<g>
						<defs>
							<path id="SVGID_221_" d="M247,77.9h-2.1V77h0c-0.4,0.7-1.3,1.1-2,1.1c-1.9,0-2.5-1.1-2.5-2.8v-4h2.2v3.9
								c0,0.9,0.4,1.2,1.1,1.2c0.5,0,1.2-0.3,1.2-1.5v-3.6h2.2V77.9z"/>
						</defs>
						<clipPath id="SVGID_222_">
							<use xlink:href="#SVGID_221_"  overflow="visible"/>
						</clipPath>
						<g clip-path="url(#SVGID_222_)">
							<defs>
								<rect id="SVGID_223_" x="-0.1" y="-0.8" width="281" height="82"/>
							</defs>
							<clipPath id="SVGID_224_">
								<use xlink:href="#SVGID_223_"  overflow="visible"/>
							</clipPath>
							<rect x="235.3" y="66.2" clip-path="url(#SVGID_224_)" fill="#F7941E" width="16.7" height="16.8"/>
						</g>
					</g>
					<g>
						<defs>
							<path id="SVGID_225_" d="M252.5,72.7h-1.4v3c0,0.5,0.3,0.6,0.8,0.6c0.2,0,0.4,0,0.6,0v1.6c-0.4,0-0.8,0.1-1.2,0.1
								c-1.9,0-2.3-0.5-2.3-2.3v-3h-1.1v-1.4h1.1v-2h2.2v2h1.4V72.7z"/>
						</defs>
						<clipPath id="SVGID_226_">
							<use xlink:href="#SVGID_225_"  overflow="visible"/>
						</clipPath>
						<g clip-path="url(#SVGID_226_)">
							<defs>
								<rect id="SVGID_227_" x="-0.1" y="-0.8" width="281" height="82"/>
							</defs>
							<clipPath id="SVGID_228_">
								<use xlink:href="#SVGID_227_"  overflow="visible"/>
							</clipPath>
							<rect x="242.8" y="64.2" clip-path="url(#SVGID_228_)" fill="#F7941E" width="14.7" height="18.7"/>
						</g>
					</g>
					<g>
						<defs>
							<path id="SVGID_229_" d="M253.5,70.4h2.2v-1.7h-2.2V70.4z M253.5,77.9h2.2v-6.7h-2.2V77.9z"/>
						</defs>
						<clipPath id="SVGID_230_">
							<use xlink:href="#SVGID_229_"  overflow="visible"/>
						</clipPath>
						<g clip-path="url(#SVGID_230_)">
							<defs>
								<rect id="SVGID_231_" x="-0.1" y="-0.8" width="281" height="82"/>
							</defs>
							<clipPath id="SVGID_232_">
								<use xlink:href="#SVGID_231_"  overflow="visible"/>
							</clipPath>
							<rect x="248.5" y="63.7" clip-path="url(#SVGID_232_)" fill="#F7941E" width="12.2" height="19.2"/>
						</g>
					</g>
					<g>
						<defs>
							<path id="SVGID_233_" d="M260.5,71.1c2.1,0,3.5,1.5,3.5,3.5s-1.5,3.5-3.5,3.5s-3.5-1.5-3.5-3.5S258.4,71.1,260.5,71.1
								 M260.5,76.4c1,0,1.3-1,1.3-1.8c0-0.8-0.3-1.9-1.3-1.9c-1,0-1.3,1-1.3,1.9C259.1,75.4,259.4,76.4,260.5,76.4"/>
						</defs>
						<clipPath id="SVGID_234_">
							<use xlink:href="#SVGID_233_"  overflow="visible"/>
						</clipPath>
						<g clip-path="url(#SVGID_234_)">
							<defs>
								<rect id="SVGID_235_" x="-0.1" y="-0.8" width="281" height="82"/>
							</defs>
							<clipPath id="SVGID_236_">
								<use xlink:href="#SVGID_235_"  overflow="visible"/>
							</clipPath>
							<rect x="251.9" y="66.1" clip-path="url(#SVGID_236_)" fill="#F7941E" width="17.1" height="17"/>
						</g>
					</g>
					<g>
						<defs>
							<path id="SVGID_237_" d="M265.1,71.2h2.1v0.9h0c0.4-0.7,1.3-1.1,2.1-1.1c2.2,0,2.4,1.6,2.4,2.6v4.3h-2.2v-3.2
								c0-0.9,0.1-1.8-1.1-1.8c-0.8,0-1.2,0.7-1.2,1.4v3.6h-2.2V71.2z"/>
						</defs>
						<clipPath id="SVGID_238_">
							<use xlink:href="#SVGID_237_"  overflow="visible"/>
						</clipPath>
						<g clip-path="url(#SVGID_238_)">
							<defs>
								<rect id="SVGID_239_" x="-0.1" y="-0.8" width="281" height="82"/>
							</defs>
							<clipPath id="SVGID_240_">
								<use xlink:href="#SVGID_239_"  overflow="visible"/>
							</clipPath>
							<rect x="260.1" y="66.1" clip-path="url(#SVGID_240_)" fill="#F7941E" width="16.7" height="16.8"/>
						</g>
					</g>
					<g>
						<defs>
							<path id="SVGID_241_" d="M275,75.7c0,0.3,0.1,0.6,0.4,0.7c0.2,0.2,0.5,0.2,0.8,0.2c0.4,0,1-0.2,1-0.7c0-0.5-0.7-0.6-1.1-0.7
								c-1.4-0.3-3.1-0.4-3.1-2.2c0-1.6,1.7-2,3.1-2c1.5,0,3,0.4,3.1,2.2h-2c0-0.3-0.1-0.5-0.3-0.6c-0.2-0.1-0.4-0.2-0.7-0.2
								c-0.4,0-0.9,0-0.9,0.5c0,0.6,1.5,0.7,2.5,1c1.4,0.3,1.7,1.2,1.7,1.8c0,1.8-1.7,2.4-3.2,2.4c-1.6,0-3.2-0.5-3.3-2.4H275z"/>
						</defs>
						<clipPath id="SVGID_242_">
							<use xlink:href="#SVGID_241_"  overflow="visible"/>
						</clipPath>
						<g clip-path="url(#SVGID_242_)">
							<defs>
								<rect id="SVGID_243_" x="-0.1" y="-0.8" width="281" height="82"/>
							</defs>
							<clipPath id="SVGID_244_">
								<use xlink:href="#SVGID_243_"  overflow="visible"/>
							</clipPath>
							<rect x="267.9" y="66.1" clip-path="url(#SVGID_244_)" fill="#F7941E" width="16.5" height="17"/>
						</g>
					</g>
				</g>
			</g>
		</g>
	</g>
</g>
</svg>
