<?xml version="1.0" encoding="utf-8"?>
<!-- Generator: Adobe Illustrator 21.1.0, SVG Export Plug-In . SVG Version: 6.00 Build 0)  -->
<svg version="1.0" id="Layer_1" xmlns="http://www.w3.org/2000/svg" xmlns:xlink="http://www.w3.org/1999/xlink" x="0px" y="0px"
	 viewBox="0 0 276.5 76.9" enable-background="new 0 0 276.5 76.9" xml:space="preserve">
<g>
	<g>
		<defs>
			<rect id="SVGID_1_" y="11.7" width="9.8" height="32.3"/>
		</defs>
		<clipPath id="SVGID_2_">
			<use xlink:href="#SVGID_1_"  overflow="visible"/>
		</clipPath>
		<g clip-path="url(#SVGID_2_)">
			<defs>
				<rect id="SVGID_3_" x="-886" y="-880.8" width="1440" height="4673"/>
			</defs>
			<clipPath id="SVGID_4_">
				<use xlink:href="#SVGID_3_"  overflow="visible"/>
			</clipPath>
			<rect x="-5" y="6.7" clip-path="url(#SVGID_4_)" width="19.8" height="42.3"/>
		</g>
	</g>
	<g>
		<defs>
			<path id="SVGID_5_" d="M15.2,11.7h17.6c5.3,0,9.1,0.9,11.4,2.7c2.3,1.8,3.4,4.9,3.4,9.1V44h-9.4V24.6c0-2.4-0.4-4-1.2-4.7
				c-0.8-0.7-2.5-1.1-4.9-1.1h-7.5V44h-9.4V11.7z"/>
		</defs>
		<clipPath id="SVGID_6_">
			<use xlink:href="#SVGID_5_"  overflow="visible"/>
		</clipPath>
		<g clip-path="url(#SVGID_6_)">
			<defs>
				<rect id="SVGID_7_" x="-886" y="-880.8" width="1440" height="4673"/>
			</defs>
			<clipPath id="SVGID_8_">
				<use xlink:href="#SVGID_7_"  overflow="visible"/>
			</clipPath>
			<rect x="10.2" y="6.7" clip-path="url(#SVGID_8_)" width="42.5" height="42.3"/>
		</g>
	</g>
	<g>
		<defs>
			<path id="SVGID_9_" d="M49.5,11.7h6.6V0h9.4v11.7h9.9v6.4h-9.9v13.1c0,2.4,0.4,4.1,1.3,5c0.9,0.9,2.5,1.4,4.7,1.4h3.9V44h-8.6
				c-3.5,0-6.1-0.9-8-2.6c-1.9-1.7-2.8-4.3-2.8-7.5V18.1h-6.6V11.7z"/>
		</defs>
		<clipPath id="SVGID_10_">
			<use xlink:href="#SVGID_9_"  overflow="visible"/>
		</clipPath>
		<g clip-path="url(#SVGID_10_)">
			<defs>
				<rect id="SVGID_11_" x="-886" y="-880.8" width="1440" height="4673"/>
			</defs>
			<clipPath id="SVGID_12_">
				<use xlink:href="#SVGID_11_"  overflow="visible"/>
			</clipPath>
			<rect x="44.5" y="-5" clip-path="url(#SVGID_12_)" width="35.9" height="54"/>
		</g>
	</g>
	<g>
		<defs>
			<path id="SVGID_13_" d="M94,44c-5.9,0-10.3-1.4-13.3-4.1c-3-2.7-4.5-6.7-4.5-12c0-5.3,1.5-9.3,4.5-12.1c3-2.7,7.5-4.1,13.3-4.1
				h13.7v6.7H95.3c-3.4,0-5.7,0.4-6.9,1.3c-1.2,0.9-1.8,2.5-1.9,4.8h21.2v6.7H86.6c0.1,2.3,0.7,3.9,1.8,4.7c1.1,0.9,3.4,1.3,6.9,1.3
				h12.5V44H94z"/>
		</defs>
		<clipPath id="SVGID_14_">
			<use xlink:href="#SVGID_13_"  overflow="visible"/>
		</clipPath>
		<g clip-path="url(#SVGID_14_)">
			<defs>
				<rect id="SVGID_15_" x="-886" y="-880.8" width="1440" height="4673"/>
			</defs>
			<clipPath id="SVGID_16_">
				<use xlink:href="#SVGID_15_"  overflow="visible"/>
			</clipPath>
			<rect x="71.2" y="6.7" clip-path="url(#SVGID_16_)" width="41.6" height="42.3"/>
		</g>
	</g>
	<g>
		<defs>
			<path id="SVGID_17_" d="M144.3,42.8c0,4.4-1.1,7.7-3.3,9.8c-2.2,2.1-5.6,3.1-10.2,3.1h-18.4v-6.6h16.8c1.8,0,3.2-0.4,4.2-1.2
				c1-0.8,1.4-1.9,1.4-3.4V44h-7.6c-3.9,0-6.8-0.3-8.5-0.8c-1.7-0.5-3.3-1.4-4.8-2.8c-1.7-1.5-3-3.3-3.9-5.4
				c-0.9-2.2-1.4-4.5-1.4-7.1c0-2.5,0.5-4.8,1.4-7c0.9-2.2,2.2-4,3.9-5.4c1.5-1.4,3.3-2.3,5.3-2.9c2-0.6,4.7-0.9,8-0.9h17.1V42.8z
				 M130,37.3h4.9V18.6H130c-2.3,0-4,0.1-4.9,0.2c-0.9,0.2-1.8,0.4-2.5,0.8c-1.4,0.8-2.5,1.9-3.2,3.2c-0.7,1.3-1,3-1,5.1
				c0,3.5,0.8,5.9,2.5,7.3C122.6,36.6,125.7,37.3,130,37.3z"/>
		</defs>
		<clipPath id="SVGID_18_">
			<use xlink:href="#SVGID_17_"  overflow="visible"/>
		</clipPath>
		<g clip-path="url(#SVGID_18_)">
			<defs>
				<rect id="SVGID_19_" x="-886" y="-880.8" width="1440" height="4673"/>
			</defs>
			<clipPath id="SVGID_20_">
				<use xlink:href="#SVGID_19_"  overflow="visible"/>
			</clipPath>
			<rect x="103.6" y="6.7" clip-path="url(#SVGID_20_)" width="45.7" height="54"/>
		</g>
	</g>
	<g>
		<defs>
			<path id="SVGID_21_" d="M149.4,11.7h15.8c3.7,0,6.3,0.6,7.7,1.8c1.5,1.2,2.2,3.3,2.2,6.3v5.4h-8.9v-4.2c0-1.3-0.3-2.1-0.7-2.5
				c-0.5-0.4-1.6-0.6-3.4-0.6h-3.3V44h-9.4V11.7z"/>
		</defs>
		<clipPath id="SVGID_22_">
			<use xlink:href="#SVGID_21_"  overflow="visible"/>
		</clipPath>
		<g clip-path="url(#SVGID_22_)">
			<defs>
				<rect id="SVGID_23_" x="-886" y="-880.8" width="1440" height="4673"/>
			</defs>
			<clipPath id="SVGID_24_">
				<use xlink:href="#SVGID_23_"  overflow="visible"/>
			</clipPath>
			<rect x="144.4" y="6.7" clip-path="url(#SVGID_24_)" width="35.7" height="42.3"/>
		</g>
	</g>
	<g>
		<defs>
			<rect id="SVGID_25_" width="276.5" height="76.9"/>
		</defs>
		<clipPath id="SVGID_26_">
			<use xlink:href="#SVGID_25_"  overflow="visible"/>
		</clipPath>
		<g clip-path="url(#SVGID_26_)">
			<defs>
				<rect id="SVGID_27_" x="-886" y="-880.8" width="1440" height="4673"/>
			</defs>
			<clipPath id="SVGID_28_">
				<use xlink:href="#SVGID_27_"  overflow="visible"/>
			</clipPath>
			<g clip-path="url(#SVGID_28_)" enable-background="new    ">
				<g>
					<defs>
						<rect id="SVGID_29_" y="-0.8" width="277" height="73"/>
					</defs>
					<clipPath id="SVGID_30_">
						<use xlink:href="#SVGID_29_"  overflow="visible"/>
					</clipPath>
					<g clip-path="url(#SVGID_30_)">
						<defs>
							<rect id="SVGID_31_" x="178.4" y="11.7" width="9.8" height="32.3"/>
						</defs>
						<clipPath id="SVGID_32_">
							<use xlink:href="#SVGID_31_"  overflow="visible"/>
						</clipPath>
						<g clip-path="url(#SVGID_32_)">
							<defs>
								<rect id="SVGID_33_" y="-0.8" width="277" height="73"/>
							</defs>
							<clipPath id="SVGID_34_">
								<use xlink:href="#SVGID_33_"  overflow="visible"/>
							</clipPath>
							<rect x="173.4" y="6.7" clip-path="url(#SVGID_34_)" width="19.8" height="42.3"/>
						</g>
					</g>
					<g clip-path="url(#SVGID_30_)">
						<defs>
							<path id="SVGID_35_" d="M190.1,11.7h6.6V0h9.4v11.7h9.9v6.4h-9.9v13.1c0,2.4,0.4,4.1,1.3,5c0.9,0.9,2.5,1.4,4.7,1.4h3.8V44
								h-8.6c-3.5,0-6.1-0.9-8-2.6c-1.9-1.7-2.8-4.3-2.8-7.5V18.1h-6.6V11.7z"/>
						</defs>
						<clipPath id="SVGID_36_">
							<use xlink:href="#SVGID_35_"  overflow="visible"/>
						</clipPath>
						<g clip-path="url(#SVGID_36_)">
							<defs>
								<rect id="SVGID_37_" y="-0.8" width="277" height="73"/>
							</defs>
							<clipPath id="SVGID_38_">
								<use xlink:href="#SVGID_37_"  overflow="visible"/>
							</clipPath>
							<rect x="185.1" y="-5" clip-path="url(#SVGID_38_)" width="35.9" height="54"/>
						</g>
					</g>
					<g clip-path="url(#SVGID_30_)">
						<defs>
							<rect id="SVGID_39_" x="218.9" y="11.7" width="9.8" height="32.3"/>
						</defs>
						<clipPath id="SVGID_40_">
							<use xlink:href="#SVGID_39_"  overflow="visible"/>
						</clipPath>
						<g clip-path="url(#SVGID_40_)">
							<defs>
								<rect id="SVGID_41_" y="-0.8" width="277" height="73"/>
							</defs>
							<clipPath id="SVGID_42_">
								<use xlink:href="#SVGID_41_"  overflow="visible"/>
							</clipPath>
							<rect x="213.9" y="6.7" clip-path="url(#SVGID_42_)" width="19.8" height="42.3"/>
						</g>
					</g>
					<g clip-path="url(#SVGID_30_)">
						<defs>
							<rect id="SVGID_43_" x="1.6" y="60.6" width="2.4" height="10.8"/>
						</defs>
						<clipPath id="SVGID_44_">
							<use xlink:href="#SVGID_43_"  overflow="visible"/>
						</clipPath>
						<g clip-path="url(#SVGID_44_)">
							<defs>
								<rect id="SVGID_45_" y="-0.8" width="277" height="73"/>
							</defs>
							<clipPath id="SVGID_46_">
								<use xlink:href="#SVGID_45_"  overflow="visible"/>
							</clipPath>
							<rect x="-3.4" y="55.6" clip-path="url(#SVGID_46_)" width="12.4" height="20.8"/>
						</g>
					</g>
					<g clip-path="url(#SVGID_30_)">
						<defs>
							<polygon id="SVGID_47_" points="10.4,60.6 13.3,60.6 17.7,68.4 17.6,60.6 19.9,60.6 19.9,71.4 17.3,71.4 12.6,63.3 
								12.7,71.4 10.4,71.4 							"/>
						</defs>
						<clipPath id="SVGID_48_">
							<use xlink:href="#SVGID_47_"  overflow="visible"/>
						</clipPath>
						<g clip-path="url(#SVGID_48_)">
							<defs>
								<rect id="SVGID_49_" y="-0.8" width="277" height="73"/>
							</defs>
							<clipPath id="SVGID_50_">
								<use xlink:href="#SVGID_49_"  overflow="visible"/>
							</clipPath>
							<rect x="5.4" y="55.6" clip-path="url(#SVGID_50_)" width="19.5" height="20.8"/>
						</g>
					</g>
					<g clip-path="url(#SVGID_30_)">
						<defs>
							<polygon id="SVGID_51_" points="28.6,62.5 25.1,62.5 25.1,60.6 34.5,60.6 34.5,62.5 31,62.5 31,71.4 28.6,71.4 							"/>
						</defs>
						<clipPath id="SVGID_52_">
							<use xlink:href="#SVGID_51_"  overflow="visible"/>
						</clipPath>
						<g clip-path="url(#SVGID_52_)">
							<defs>
								<rect id="SVGID_53_" y="-0.8" width="277" height="73"/>
							</defs>
							<clipPath id="SVGID_54_">
								<use xlink:href="#SVGID_53_"  overflow="visible"/>
							</clipPath>
							<rect x="20.1" y="55.6" clip-path="url(#SVGID_54_)" width="19.3" height="20.8"/>
						</g>
					</g>
					<g clip-path="url(#SVGID_30_)">
						<defs>
							<path id="SVGID_55_" d="M44.2,62.5c-0.8,0-1.4,0.2-1.9,0.6c-0.4,0.4-0.6,1-0.7,1.9h6.3v1.9h-6.3c0,0.9,0.2,1.6,0.6,2
								c0.4,0.4,1,0.6,1.9,0.6h3.7v1.9H44c-0.8,0-1.5-0.1-2-0.2c-0.5-0.2-0.9-0.4-1.4-0.7c-0.6-0.4-1-1-1.2-1.7
								c-0.3-0.7-0.4-1.5-0.4-2.5c0-1.9,0.4-3.3,1.2-4.2c0.8-0.9,2.1-1.4,3.8-1.4h3.8v1.9H44.2z"/>
						</defs>
						<clipPath id="SVGID_56_">
							<use xlink:href="#SVGID_55_"  overflow="visible"/>
						</clipPath>
						<g clip-path="url(#SVGID_56_)">
							<defs>
								<rect id="SVGID_57_" y="-0.8" width="277" height="73"/>
							</defs>
							<clipPath id="SVGID_58_">
								<use xlink:href="#SVGID_57_"  overflow="visible"/>
							</clipPath>
							<rect x="34.1" y="55.6" clip-path="url(#SVGID_58_)" width="18.8" height="20.8"/>
						</g>
					</g>
					<g clip-path="url(#SVGID_30_)">
						<defs>
							<path id="SVGID_59_" d="M57.9,66.9V65h5.4v6.4h-4.9c-0.9,0-1.6-0.1-2.1-0.2c-0.5-0.1-0.9-0.4-1.3-0.7c-0.6-0.4-1-1-1.2-1.7
								c-0.3-0.7-0.4-1.5-0.4-2.5c0-1.9,0.4-3.3,1.2-4.2c0.8-0.9,2.1-1.4,3.8-1.4h4.9v1.9h-4.9c-0.9,0-1.5,0.3-1.9,0.9
								c-0.4,0.6-0.6,1.5-0.6,2.7c0,1.2,0.2,2,0.6,2.6c0.4,0.5,1,0.8,1.9,0.8H61v-2.5H57.9z"/>
						</defs>
						<clipPath id="SVGID_60_">
							<use xlink:href="#SVGID_59_"  overflow="visible"/>
						</clipPath>
						<g clip-path="url(#SVGID_60_)">
							<defs>
								<rect id="SVGID_61_" y="-0.8" width="277" height="73"/>
							</defs>
							<clipPath id="SVGID_62_">
								<use xlink:href="#SVGID_61_"  overflow="visible"/>
							</clipPath>
							<rect x="48.4" y="55.6" clip-path="url(#SVGID_62_)" width="19.9" height="20.8"/>
						</g>
					</g>
					<g clip-path="url(#SVGID_30_)">
						<defs>
							<path id="SVGID_63_" d="M69.4,60.6h5.6c1.3,0,2.2,0.3,2.8,0.8c0.6,0.5,0.9,1.3,0.9,2.4c0,0.8-0.2,1.5-0.6,2
								c-0.4,0.5-0.9,0.9-1.6,1l2.7,4.5h-2.5l-2.4-4.2h-2.7v4.2h-2.3V60.6z M74.4,62.6h-2.8v2.7h2.8c0.7,0,1.3-0.1,1.6-0.3
								c0.3-0.2,0.4-0.6,0.4-1.1c0-0.5-0.1-0.8-0.4-1C75.7,62.7,75.2,62.6,74.4,62.6z"/>
						</defs>
						<clipPath id="SVGID_64_">
							<use xlink:href="#SVGID_63_"  overflow="visible"/>
						</clipPath>
						<g clip-path="url(#SVGID_64_)">
							<defs>
								<rect id="SVGID_65_" y="-0.8" width="277" height="73"/>
							</defs>
							<clipPath id="SVGID_66_">
								<use xlink:href="#SVGID_65_"  overflow="visible"/>
							</clipPath>
							<rect x="64.4" y="55.6" clip-path="url(#SVGID_66_)" width="19.8" height="20.8"/>
						</g>
					</g>
					<g clip-path="url(#SVGID_30_)">
						<defs>
							<path id="SVGID_67_" d="M87.9,60.6h2.4l4.6,10.8h-2.5l-1-2.6h-4.7l-1,2.6h-2.4L87.9,60.6z M89,62.8l-1.6,4.1h3.2L89,62.8z"/>
						</defs>
						<clipPath id="SVGID_68_">
							<use xlink:href="#SVGID_67_"  overflow="visible"/>
						</clipPath>
						<g clip-path="url(#SVGID_68_)">
							<defs>
								<rect id="SVGID_69_" y="-0.8" width="277" height="73"/>
							</defs>
							<clipPath id="SVGID_70_">
								<use xlink:href="#SVGID_69_"  overflow="visible"/>
							</clipPath>
							<rect x="78.3" y="55.6" clip-path="url(#SVGID_70_)" width="21.5" height="20.8"/>
						</g>
					</g>
					<g clip-path="url(#SVGID_30_)">
						<defs>
							<polygon id="SVGID_71_" points="100.8,62.5 97.3,62.5 97.3,60.6 106.6,60.6 106.6,62.5 103.1,62.5 103.1,71.4 100.8,71.4 
															"/>
						</defs>
						<clipPath id="SVGID_72_">
							<use xlink:href="#SVGID_71_"  overflow="visible"/>
						</clipPath>
						<g clip-path="url(#SVGID_72_)">
							<defs>
								<rect id="SVGID_73_" y="-0.8" width="277" height="73"/>
							</defs>
							<clipPath id="SVGID_74_">
								<use xlink:href="#SVGID_73_"  overflow="visible"/>
							</clipPath>
							<rect x="92.3" y="55.6" clip-path="url(#SVGID_74_)" width="19.3" height="20.8"/>
						</g>
					</g>
					<g clip-path="url(#SVGID_30_)">
						<defs>
							<path id="SVGID_75_" d="M116.3,62.5c-0.8,0-1.4,0.2-1.9,0.6c-0.4,0.4-0.6,1-0.7,1.9h6.2v1.9h-6.3c0,0.9,0.2,1.6,0.6,2
								c0.4,0.4,1.1,0.6,2,0.6h3.7v1.9h-3.8c-0.8,0-1.5-0.1-2-0.2c-0.5-0.2-0.9-0.4-1.4-0.7c-0.5-0.4-1-1-1.2-1.7
								c-0.3-0.7-0.4-1.5-0.4-2.5c0-1.9,0.4-3.3,1.2-4.2c0.8-0.9,2.1-1.4,3.8-1.4h3.7v1.9H116.3z"/>
						</defs>
						<clipPath id="SVGID_76_">
							<use xlink:href="#SVGID_75_"  overflow="visible"/>
						</clipPath>
						<g clip-path="url(#SVGID_76_)">
							<defs>
								<rect id="SVGID_77_" y="-0.8" width="277" height="73"/>
							</defs>
							<clipPath id="SVGID_78_">
								<use xlink:href="#SVGID_77_"  overflow="visible"/>
							</clipPath>
							<rect x="106.2" y="55.6" clip-path="url(#SVGID_78_)" width="18.8" height="20.8"/>
						</g>
					</g>
					<g clip-path="url(#SVGID_30_)">
						<defs>
							<path id="SVGID_79_" d="M126.2,60.6h4.9c1.7,0,3,0.4,3.8,1.4c0.8,0.9,1.2,2.3,1.2,4.2c0,1-0.1,1.8-0.4,2.5
								c-0.3,0.7-0.7,1.3-1.2,1.7c-0.4,0.4-0.9,0.6-1.4,0.7c-0.5,0.1-1.1,0.2-2,0.2h-5V60.6z M131.1,62.5h-2.6v7h2.6
								c1,0,1.7-0.3,2.1-0.8c0.4-0.5,0.6-1.4,0.6-2.7c0-1.3-0.2-2.2-0.6-2.7C132.8,62.8,132.1,62.5,131.1,62.5z"/>
						</defs>
						<clipPath id="SVGID_80_">
							<use xlink:href="#SVGID_79_"  overflow="visible"/>
						</clipPath>
						<g clip-path="url(#SVGID_80_)">
							<defs>
								<rect id="SVGID_81_" y="-0.8" width="277" height="73"/>
							</defs>
							<clipPath id="SVGID_82_">
								<use xlink:href="#SVGID_81_"  overflow="visible"/>
							</clipPath>
							<rect x="121.2" y="55.6" clip-path="url(#SVGID_82_)" width="20" height="20.8"/>
						</g>
					</g>
					<g clip-path="url(#SVGID_30_)">
						<defs>
							<path id="SVGID_83_" d="M162.8,62.6h-5.6c-0.6,0-1,0.1-1.3,0.3c-0.3,0.2-0.4,0.6-0.4,1.1c0,0.4,0.1,0.7,0.4,0.9
								c0.2,0.2,0.6,0.3,1.1,0.3h3c1.2,0,2.1,0.2,2.6,0.7c0.5,0.5,0.8,1.2,0.8,2.3c0,1.1-0.3,1.9-0.9,2.4c-0.6,0.5-1.6,0.8-2.8,0.8
								h-6v-1.9h5.7c0.6,0,1.1-0.1,1.4-0.3c0.3-0.2,0.4-0.5,0.4-0.9c0-0.5-0.1-0.8-0.4-1c-0.2-0.2-0.6-0.3-1.2-0.3h-2.7
								c-1.2,0-2.2-0.3-2.7-0.7c-0.6-0.5-0.9-1.3-0.9-2.3c0-1.1,0.3-2,0.9-2.5c0.6-0.5,1.6-0.8,2.9-0.8h5.9V62.6z"/>
						</defs>
						<clipPath id="SVGID_84_">
							<use xlink:href="#SVGID_83_"  overflow="visible"/>
						</clipPath>
						<g clip-path="url(#SVGID_84_)">
							<defs>
								<rect id="SVGID_85_" y="-0.8" width="277" height="73"/>
							</defs>
							<clipPath id="SVGID_86_">
								<use xlink:href="#SVGID_85_"  overflow="visible"/>
							</clipPath>
							<rect x="148.1" y="55.6" clip-path="url(#SVGID_86_)" width="20.2" height="20.8"/>
						</g>
					</g>
					<g clip-path="url(#SVGID_30_)">
						<defs>
							<path id="SVGID_87_" d="M168.5,65.9c0-1.9,0.4-3.2,1.3-4.1c0.9-0.9,2.2-1.3,4-1.3c1.8,0,3.2,0.5,4.1,1.4
								c0.9,0.9,1.3,2.3,1.3,4.2c0,1.9-0.4,3.3-1.3,4.2c-0.9,0.9-2.2,1.4-4.1,1.4c-1.8,0-3.2-0.5-4.1-1.4
								C169,69.3,168.5,67.9,168.5,65.9 M173.9,62.3c-1,0-1.7,0.3-2.2,0.9c-0.5,0.6-0.7,1.5-0.7,2.8c0,1.3,0.2,2.3,0.7,2.9
								c0.5,0.6,1.2,0.9,2.2,0.9c1,0,1.7-0.3,2.2-0.9c0.5-0.6,0.7-1.6,0.7-2.8c0-1.3-0.2-2.2-0.7-2.8
								C175.6,62.6,174.9,62.3,173.9,62.3"/>
						</defs>
						<clipPath id="SVGID_88_">
							<use xlink:href="#SVGID_87_"  overflow="visible"/>
						</clipPath>
						<g clip-path="url(#SVGID_88_)">
							<defs>
								<rect id="SVGID_89_" y="-0.8" width="277" height="73"/>
							</defs>
							<clipPath id="SVGID_90_">
								<use xlink:href="#SVGID_89_"  overflow="visible"/>
							</clipPath>
							<rect x="163.5" y="55.4" clip-path="url(#SVGID_90_)" width="20.7" height="21.2"/>
						</g>
					</g>
					<g clip-path="url(#SVGID_30_)">
						<defs>
							<path id="SVGID_91_" d="M189.3,71.4c-1,0-1.8-0.1-2.2-0.3c-0.5-0.2-0.9-0.5-1.3-0.9c-0.4-0.4-0.6-0.8-0.8-1.2
								c-0.1-0.5-0.2-1.1-0.2-2v-6.4h2.3V67c0,0.6,0,1.1,0.1,1.3c0.1,0.3,0.1,0.5,0.3,0.6c0.2,0.3,0.5,0.4,0.8,0.5
								c0.3,0.1,0.8,0.2,1.3,0.2h2.7v1.8H189.3z"/>
						</defs>
						<clipPath id="SVGID_92_">
							<use xlink:href="#SVGID_91_"  overflow="visible"/>
						</clipPath>
						<g clip-path="url(#SVGID_92_)">
							<defs>
								<rect id="SVGID_93_" y="-0.8" width="277" height="73"/>
							</defs>
							<clipPath id="SVGID_94_">
								<use xlink:href="#SVGID_93_"  overflow="visible"/>
							</clipPath>
							<rect x="179.8" y="55.6" clip-path="url(#SVGID_94_)" width="17.4" height="20.8"/>
						</g>
					</g>
					<g clip-path="url(#SVGID_30_)">
						<defs>
							<path id="SVGID_95_" d="M199.5,60.6v6.4c0,1,0.2,1.7,0.5,2.1c0.4,0.4,1,0.6,1.9,0.6c0.9,0,1.5-0.2,1.9-0.6
								c0.4-0.4,0.5-1.1,0.5-2.1v-6.4h2.3v6.5c0,0.8-0.1,1.4-0.2,1.8c-0.1,0.4-0.3,0.8-0.5,1.1c-0.4,0.5-1,0.9-1.6,1.1
								c-0.7,0.2-1.5,0.4-2.4,0.4c-1,0-1.8-0.1-2.4-0.4c-0.6-0.2-1.2-0.6-1.6-1.1c-0.2-0.3-0.4-0.6-0.5-1.1
								c-0.1-0.4-0.1-1.1-0.1-1.9v-6.5H199.5z"/>
						</defs>
						<clipPath id="SVGID_96_">
							<use xlink:href="#SVGID_95_"  overflow="visible"/>
						</clipPath>
						<g clip-path="url(#SVGID_96_)">
							<defs>
								<rect id="SVGID_97_" y="-0.8" width="277" height="73"/>
							</defs>
							<clipPath id="SVGID_98_">
								<use xlink:href="#SVGID_97_"  overflow="visible"/>
							</clipPath>
							<rect x="192.2" y="55.6" clip-path="url(#SVGID_98_)" width="19.3" height="20.9"/>
						</g>
					</g>
					<g clip-path="url(#SVGID_30_)">
						<defs>
							<polygon id="SVGID_99_" points="215.3,62.5 211.8,62.5 211.8,60.6 221.1,60.6 221.1,62.5 217.6,62.5 217.6,71.4 215.3,71.4 
															"/>
						</defs>
						<clipPath id="SVGID_100_">
							<use xlink:href="#SVGID_99_"  overflow="visible"/>
						</clipPath>
						<g clip-path="url(#SVGID_100_)">
							<defs>
								<rect id="SVGID_101_" y="-0.8" width="277" height="73"/>
							</defs>
							<clipPath id="SVGID_102_">
								<use xlink:href="#SVGID_101_"  overflow="visible"/>
							</clipPath>
							<rect x="206.8" y="55.6" clip-path="url(#SVGID_102_)" width="19.3" height="20.8"/>
						</g>
					</g>
					<g clip-path="url(#SVGID_30_)">
						<defs>
							<rect id="SVGID_103_" x="226.4" y="60.6" width="2.4" height="10.8"/>
						</defs>
						<clipPath id="SVGID_104_">
							<use xlink:href="#SVGID_103_"  overflow="visible"/>
						</clipPath>
						<g clip-path="url(#SVGID_104_)">
							<defs>
								<rect id="SVGID_105_" y="-0.8" width="277" height="73"/>
							</defs>
							<clipPath id="SVGID_106_">
								<use xlink:href="#SVGID_105_"  overflow="visible"/>
							</clipPath>
							<rect x="221.4" y="55.6" clip-path="url(#SVGID_106_)" width="12.4" height="20.8"/>
						</g>
					</g>
					<g clip-path="url(#SVGID_30_)">
						<defs>
							<path id="SVGID_107_" d="M234.5,65.9c0-1.9,0.4-3.2,1.3-4.1c0.9-0.9,2.2-1.3,4-1.3c1.8,0,3.2,0.5,4,1.4
								c0.9,0.9,1.3,2.3,1.3,4.2c0,1.9-0.4,3.3-1.3,4.2c-0.9,0.9-2.2,1.4-4,1.4c-1.9,0-3.2-0.5-4.1-1.4
								C235,69.3,234.5,67.9,234.5,65.9 M239.9,62.3c-1,0-1.7,0.3-2.2,0.9c-0.5,0.6-0.7,1.5-0.7,2.8c0,1.3,0.2,2.3,0.7,2.9
								c0.5,0.6,1.2,0.9,2.2,0.9c1,0,1.7-0.3,2.2-0.9c0.5-0.6,0.7-1.6,0.7-2.8c0-1.3-0.2-2.2-0.7-2.8
								C241.6,62.6,240.9,62.3,239.9,62.3"/>
						</defs>
						<clipPath id="SVGID_108_">
							<use xlink:href="#SVGID_107_"  overflow="visible"/>
						</clipPath>
						<g clip-path="url(#SVGID_108_)">
							<defs>
								<rect id="SVGID_109_" y="-0.8" width="277" height="73"/>
							</defs>
							<clipPath id="SVGID_110_">
								<use xlink:href="#SVGID_109_"  overflow="visible"/>
							</clipPath>
							<rect x="229.5" y="55.4" clip-path="url(#SVGID_110_)" width="20.7" height="21.2"/>
						</g>
					</g>
					<g clip-path="url(#SVGID_30_)">
						<defs>
							<polygon id="SVGID_111_" points="251,60.6 253.9,60.6 258.3,68.4 258.1,60.6 260.5,60.6 260.5,71.4 257.8,71.4 253.2,63.3 
								253.3,71.4 251,71.4 							"/>
						</defs>
						<clipPath id="SVGID_112_">
							<use xlink:href="#SVGID_111_"  overflow="visible"/>
						</clipPath>
						<g clip-path="url(#SVGID_112_)">
							<defs>
								<rect id="SVGID_113_" y="-0.8" width="277" height="73"/>
							</defs>
							<clipPath id="SVGID_114_">
								<use xlink:href="#SVGID_113_"  overflow="visible"/>
							</clipPath>
							<rect x="246" y="55.6" clip-path="url(#SVGID_114_)" width="19.5" height="20.8"/>
						</g>
					</g>
					<g clip-path="url(#SVGID_30_)">
						<defs>
							<path id="SVGID_115_" d="M275.9,62.6h-5.6c-0.6,0-1,0.1-1.3,0.3c-0.3,0.2-0.4,0.6-0.4,1.1c0,0.4,0.1,0.7,0.4,0.9
								c0.2,0.2,0.6,0.3,1.1,0.3h3c1.2,0,2.1,0.2,2.6,0.7c0.5,0.5,0.8,1.2,0.8,2.3c0,1.1-0.3,1.9-0.9,2.4c-0.6,0.5-1.5,0.8-2.8,0.8
								h-6v-1.9h5.7c0.6,0,1.1-0.1,1.4-0.3c0.3-0.2,0.4-0.5,0.4-0.9c0-0.5-0.1-0.8-0.4-1c-0.2-0.2-0.7-0.3-1.2-0.3h-2.7
								c-1.2,0-2.1-0.3-2.7-0.7c-0.6-0.5-0.9-1.3-0.9-2.3c0-1.1,0.3-2,0.9-2.5c0.6-0.5,1.5-0.8,2.9-0.8h5.9V62.6z"/>
						</defs>
						<clipPath id="SVGID_116_">
							<use xlink:href="#SVGID_115_"  overflow="visible"/>
						</clipPath>
						<g clip-path="url(#SVGID_116_)">
							<defs>
								<rect id="SVGID_117_" y="-0.8" width="277" height="73"/>
							</defs>
							<clipPath id="SVGID_118_">
								<use xlink:href="#SVGID_117_"  overflow="visible"/>
							</clipPath>
							<rect x="261.2" y="55.6" clip-path="url(#SVGID_118_)" width="20.2" height="20.8"/>
						</g>
					</g>
					<g clip-path="url(#SVGID_30_)">
						<defs>
							<rect id="SVGID_119_" x="234.9" y="0.2" width="9.8" height="8.3"/>
						</defs>
						<clipPath id="SVGID_120_">
							<use xlink:href="#SVGID_119_"  overflow="visible"/>
						</clipPath>
						<g clip-path="url(#SVGID_120_)">
							<defs>
								<rect id="SVGID_121_" y="-0.8" width="277" height="73"/>
							</defs>
							<clipPath id="SVGID_122_">
								<use xlink:href="#SVGID_121_"  overflow="visible"/>
							</clipPath>
							<rect x="229.9" y="-4.8" clip-path="url(#SVGID_122_)" fill="#ED1D24" width="19.8" height="18.3"/>
						</g>
					</g>
					<g clip-path="url(#SVGID_30_)">
						<defs>
							<rect id="SVGID_123_" x="250.3" y="0.2" width="9.8" height="8.3"/>
						</defs>
						<clipPath id="SVGID_124_">
							<use xlink:href="#SVGID_123_"  overflow="visible"/>
						</clipPath>
						<g clip-path="url(#SVGID_124_)">
							<defs>
								<rect id="SVGID_125_" y="-0.8" width="277" height="73"/>
							</defs>
							<clipPath id="SVGID_126_">
								<use xlink:href="#SVGID_125_"  overflow="visible"/>
							</clipPath>
							<rect x="245.3" y="-4.8" clip-path="url(#SVGID_126_)" fill="#ED1D24" width="19.8" height="18.3"/>
						</g>
					</g>
					<g clip-path="url(#SVGID_30_)">
						<defs>
							<rect id="SVGID_127_" x="265.8" y="0.2" width="9.8" height="8.3"/>
						</defs>
						<clipPath id="SVGID_128_">
							<use xlink:href="#SVGID_127_"  overflow="visible"/>
						</clipPath>
						<g clip-path="url(#SVGID_128_)">
							<defs>
								<rect id="SVGID_129_" y="-0.8" width="277" height="73"/>
							</defs>
							<clipPath id="SVGID_130_">
								<use xlink:href="#SVGID_129_"  overflow="visible"/>
							</clipPath>
							<rect x="260.8" y="-4.8" clip-path="url(#SVGID_130_)" fill="#ED1D24" width="19.8" height="18.3"/>
						</g>
					</g>
					<g clip-path="url(#SVGID_30_)">
						<defs>
							<rect id="SVGID_131_" x="234.9" y="12.3" width="9.8" height="8.3"/>
						</defs>
						<clipPath id="SVGID_132_">
							<use xlink:href="#SVGID_131_"  overflow="visible"/>
						</clipPath>
						<g clip-path="url(#SVGID_132_)">
							<defs>
								<rect id="SVGID_133_" y="-0.8" width="277" height="73"/>
							</defs>
							<clipPath id="SVGID_134_">
								<use xlink:href="#SVGID_133_"  overflow="visible"/>
							</clipPath>
							<rect x="229.9" y="7.3" clip-path="url(#SVGID_134_)" fill="#ED1D24" width="19.8" height="18.3"/>
						</g>
					</g>
					<g clip-path="url(#SVGID_30_)">
						<defs>
							<rect id="SVGID_135_" x="250.3" y="12.3" width="9.8" height="8.3"/>
						</defs>
						<clipPath id="SVGID_136_">
							<use xlink:href="#SVGID_135_"  overflow="visible"/>
						</clipPath>
						<g clip-path="url(#SVGID_136_)">
							<defs>
								<rect id="SVGID_137_" y="-0.8" width="277" height="73"/>
							</defs>
							<clipPath id="SVGID_138_">
								<use xlink:href="#SVGID_137_"  overflow="visible"/>
							</clipPath>
							<rect x="245.3" y="7.3" clip-path="url(#SVGID_138_)" fill="#ED1D24" width="19.8" height="18.3"/>
						</g>
					</g>
					<g clip-path="url(#SVGID_30_)">
						<defs>
							<rect id="SVGID_139_" x="265.8" y="12.3" width="9.8" height="8.3"/>
						</defs>
						<clipPath id="SVGID_140_">
							<use xlink:href="#SVGID_139_"  overflow="visible"/>
						</clipPath>
						<g clip-path="url(#SVGID_140_)">
							<defs>
								<rect id="SVGID_141_" y="-0.8" width="277" height="73"/>
							</defs>
							<clipPath id="SVGID_142_">
								<use xlink:href="#SVGID_141_"  overflow="visible"/>
							</clipPath>
							<rect x="260.8" y="7.3" clip-path="url(#SVGID_142_)" fill="#ED1D24" width="19.8" height="18.3"/>
						</g>
					</g>
					<g clip-path="url(#SVGID_30_)">
						<defs>
							<rect id="SVGID_143_" x="234.9" y="24.3" width="9.8" height="8.3"/>
						</defs>
						<clipPath id="SVGID_144_">
							<use xlink:href="#SVGID_143_"  overflow="visible"/>
						</clipPath>
						<g clip-path="url(#SVGID_144_)">
							<defs>
								<rect id="SVGID_145_" y="-0.8" width="277" height="73"/>
							</defs>
							<clipPath id="SVGID_146_">
								<use xlink:href="#SVGID_145_"  overflow="visible"/>
							</clipPath>
							<rect x="229.9" y="19.3" clip-path="url(#SVGID_146_)" fill="#ED1D24" width="19.8" height="18.3"/>
						</g>
					</g>
					<g clip-path="url(#SVGID_30_)">
						<defs>
							<rect id="SVGID_147_" x="250.3" y="24.3" width="9.8" height="8.3"/>
						</defs>
						<clipPath id="SVGID_148_">
							<use xlink:href="#SVGID_147_"  overflow="visible"/>
						</clipPath>
						<g clip-path="url(#SVGID_148_)">
							<defs>
								<rect id="SVGID_149_" y="-0.8" width="277" height="73"/>
							</defs>
							<clipPath id="SVGID_150_">
								<use xlink:href="#SVGID_149_"  overflow="visible"/>
							</clipPath>
							<rect x="245.3" y="19.3" clip-path="url(#SVGID_150_)" fill="#ED1D24" width="19.8" height="18.3"/>
						</g>
					</g>
					<g clip-path="url(#SVGID_30_)">
						<defs>
							<rect id="SVGID_151_" x="265.8" y="24.3" width="9.8" height="8.3"/>
						</defs>
						<clipPath id="SVGID_152_">
							<use xlink:href="#SVGID_151_"  overflow="visible"/>
						</clipPath>
						<g clip-path="url(#SVGID_152_)">
							<defs>
								<rect id="SVGID_153_" y="-0.8" width="277" height="73"/>
							</defs>
							<clipPath id="SVGID_154_">
								<use xlink:href="#SVGID_153_"  overflow="visible"/>
							</clipPath>
							<rect x="260.8" y="19.3" clip-path="url(#SVGID_154_)" fill="#ED1D24" width="19.8" height="18.3"/>
						</g>
					</g>
					<g clip-path="url(#SVGID_30_)">
						<defs>
							<rect id="SVGID_155_" x="234.9" y="35.7" width="9.8" height="8.3"/>
						</defs>
						<clipPath id="SVGID_156_">
							<use xlink:href="#SVGID_155_"  overflow="visible"/>
						</clipPath>
						<g clip-path="url(#SVGID_156_)">
							<defs>
								<rect id="SVGID_157_" y="-0.8" width="277" height="73"/>
							</defs>
							<clipPath id="SVGID_158_">
								<use xlink:href="#SVGID_157_"  overflow="visible"/>
							</clipPath>
							<rect x="229.9" y="30.7" clip-path="url(#SVGID_158_)" fill="#ED1D24" width="19.8" height="18.3"/>
						</g>
					</g>
					<g clip-path="url(#SVGID_30_)">
						<defs>
							<rect id="SVGID_159_" x="250.3" y="35.7" width="9.8" height="8.3"/>
						</defs>
						<clipPath id="SVGID_160_">
							<use xlink:href="#SVGID_159_"  overflow="visible"/>
						</clipPath>
						<g clip-path="url(#SVGID_160_)">
							<defs>
								<rect id="SVGID_161_" y="-0.8" width="277" height="73"/>
							</defs>
							<clipPath id="SVGID_162_">
								<use xlink:href="#SVGID_161_"  overflow="visible"/>
							</clipPath>
							<rect x="245.3" y="30.7" clip-path="url(#SVGID_162_)" fill="#ED1D24" width="19.8" height="18.3"/>
						</g>
					</g>
					<g clip-path="url(#SVGID_30_)">
						<defs>
							<rect id="SVGID_163_" x="265.8" y="35.7" width="9.8" height="8.3"/>
						</defs>
						<clipPath id="SVGID_164_">
							<use xlink:href="#SVGID_163_"  overflow="visible"/>
						</clipPath>
						<g clip-path="url(#SVGID_164_)">
							<defs>
								<rect id="SVGID_165_" y="-0.8" width="277" height="73"/>
							</defs>
							<clipPath id="SVGID_166_">
								<use xlink:href="#SVGID_165_"  overflow="visible"/>
							</clipPath>
							<rect x="260.8" y="30.7" clip-path="url(#SVGID_166_)" fill="#ED1D24" width="19.8" height="18.3"/>
						</g>
					</g>
					<g clip-path="url(#SVGID_30_)">
						<defs>
							<rect id="SVGID_167_" x="218.9" y="0.2" width="9.8" height="8.3"/>
						</defs>
						<clipPath id="SVGID_168_">
							<use xlink:href="#SVGID_167_"  overflow="visible"/>
						</clipPath>
						<g clip-path="url(#SVGID_168_)">
							<defs>
								<rect id="SVGID_169_" y="-0.8" width="277" height="73"/>
							</defs>
							<clipPath id="SVGID_170_">
								<use xlink:href="#SVGID_169_"  overflow="visible"/>
							</clipPath>
							<rect x="213.9" y="-4.8" clip-path="url(#SVGID_170_)" fill="#ED1D24" width="19.8" height="18.3"/>
						</g>
					</g>
					<g clip-path="url(#SVGID_30_)">
						<defs>
							<rect id="SVGID_171_" width="9.8" height="8"/>
						</defs>
						<clipPath id="SVGID_172_">
							<use xlink:href="#SVGID_171_"  overflow="visible"/>
						</clipPath>
						<g clip-path="url(#SVGID_172_)">
							<defs>
								<rect id="SVGID_173_" y="-0.8" width="277" height="73"/>
							</defs>
							<clipPath id="SVGID_174_">
								<use xlink:href="#SVGID_173_"  overflow="visible"/>
							</clipPath>
							<rect x="-5" y="-5" clip-path="url(#SVGID_174_)" fill="#ED1D24" width="19.8" height="18"/>
						</g>
					</g>
					<g clip-path="url(#SVGID_30_)">
						<defs>
							<rect id="SVGID_175_" x="178.4" width="9.8" height="8"/>
						</defs>
						<clipPath id="SVGID_176_">
							<use xlink:href="#SVGID_175_"  overflow="visible"/>
						</clipPath>
						<g clip-path="url(#SVGID_176_)">
							<defs>
								<rect id="SVGID_177_" y="-0.8" width="277" height="73"/>
							</defs>
							<clipPath id="SVGID_178_">
								<use xlink:href="#SVGID_177_"  overflow="visible"/>
							</clipPath>
							<rect x="173.4" y="-5" clip-path="url(#SVGID_178_)" fill="#ED1D24" width="19.8" height="18"/>
						</g>
					</g>
				</g>
			</g>
		</g>
	</g>
</g>
</svg>
