<?xml version="1.0" encoding="utf-8"?>
<!-- Generator: Adobe Illustrator 21.1.0, SVG Export Plug-In . SVG Version: 6.00 Build 0)  -->
<svg version="1.0" id="Layer_1" xmlns="http://www.w3.org/2000/svg" xmlns:xlink="http://www.w3.org/1999/xlink" x="0px" y="0px"
	 viewBox="0 0 246 50.7" enable-background="new 0 0 246 50.7" xml:space="preserve">
<g>
	<defs>
		<polygon id="SVGID_1_" points="45.6,39.7 45.6,49.6 46.8,49.6 46.8,45.1 51.1,45.1 51.1,43.9 46.8,43.9 46.8,40.9 51.7,40.9 
			51.7,39.7 		"/>
	</defs>
	<clipPath id="SVGID_2_">
		<use xlink:href="#SVGID_1_"  overflow="visible"/>
	</clipPath>
	<g clip-path="url(#SVGID_2_)">
		<defs>
			<rect id="SVGID_3_" x="-911" y="-2979.2" width="1440" height="4673"/>
		</defs>
		<clipPath id="SVGID_4_">
			<use xlink:href="#SVGID_3_"  overflow="visible"/>
		</clipPath>
		<rect x="40.6" y="34.7" clip-path="url(#SVGID_4_)" fill="#0095DA" width="16.1" height="19.9"/>
	</g>
</g>
<g>
	<defs>
		<path id="SVGID_5_" d="M58.7,49.6v-1.1c-0.5,0.8-1.2,1.2-2.1,1.2c-0.4,0-0.7-0.1-1.1-0.2c-0.3-0.2-0.6-0.4-0.7-0.6
			c-0.2-0.2-0.3-0.5-0.3-0.9c0-0.2-0.1-0.6-0.1-1.1v-4.5h1.1v4c0,0.6,0,1.1,0.1,1.3c0.1,0.3,0.2,0.6,0.4,0.8
			c0.2,0.2,0.5,0.3,0.8,0.3c0.3,0,0.6-0.1,0.9-0.3c0.3-0.2,0.5-0.4,0.6-0.8c0.1-0.3,0.2-0.8,0.2-1.4v-3.9h1.1v7.2H58.7z"/>
	</defs>
	<clipPath id="SVGID_6_">
		<use xlink:href="#SVGID_5_"  overflow="visible"/>
	</clipPath>
	<g clip-path="url(#SVGID_6_)">
		<defs>
			<rect id="SVGID_7_" x="-911" y="-2979.2" width="1440" height="4673"/>
		</defs>
		<clipPath id="SVGID_8_">
			<use xlink:href="#SVGID_7_"  overflow="visible"/>
		</clipPath>
		<rect x="49.4" y="37.4" clip-path="url(#SVGID_8_)" fill="#0095DA" width="15.3" height="17.4"/>
	</g>
</g>
<g>
	<defs>
		<path id="SVGID_9_" d="M65.1,48.5l0.2,1.1c-0.3,0.1-0.6,0.1-0.8,0.1c-0.4,0-0.7-0.1-0.9-0.2c-0.2-0.1-0.4-0.3-0.5-0.6
			c-0.1-0.2-0.1-0.7-0.1-1.4v-4.1H62v-1h0.8v-1.8l1.1-0.7v2.5h1.1v1H64v4.2c0,0.3,0,0.6,0.1,0.7c0,0.1,0.1,0.2,0.2,0.2
			c0.1,0.1,0.2,0.1,0.4,0.1C64.7,48.6,64.9,48.5,65.1,48.5"/>
	</defs>
	<clipPath id="SVGID_10_">
		<use xlink:href="#SVGID_9_"  overflow="visible"/>
	</clipPath>
	<g clip-path="url(#SVGID_10_)">
		<defs>
			<rect id="SVGID_11_" x="-911" y="-2979.2" width="1440" height="4673"/>
		</defs>
		<clipPath id="SVGID_12_">
			<use xlink:href="#SVGID_11_"  overflow="visible"/>
		</clipPath>
		<rect x="57" y="34.9" clip-path="url(#SVGID_12_)" fill="#0095DA" width="13.2" height="19.8"/>
	</g>
</g>
<g>
	<defs>
		<path id="SVGID_13_" d="M71.7,49.6v-1.1c-0.5,0.8-1.2,1.2-2.1,1.2c-0.4,0-0.7-0.1-1.1-0.2c-0.3-0.2-0.6-0.4-0.7-0.6
			c-0.2-0.2-0.3-0.5-0.3-0.9c0-0.2-0.1-0.6-0.1-1.1v-4.5h1.1v4c0,0.6,0,1.1,0.1,1.3c0.1,0.3,0.2,0.6,0.4,0.8
			c0.2,0.2,0.5,0.3,0.8,0.3c0.3,0,0.6-0.1,0.9-0.3c0.3-0.2,0.5-0.4,0.6-0.8c0.1-0.3,0.2-0.8,0.2-1.4v-3.9h1.1v7.2H71.7z"/>
	</defs>
	<clipPath id="SVGID_14_">
		<use xlink:href="#SVGID_13_"  overflow="visible"/>
	</clipPath>
	<g clip-path="url(#SVGID_14_)">
		<defs>
			<rect id="SVGID_15_" x="-911" y="-2979.2" width="1440" height="4673"/>
		</defs>
		<clipPath id="SVGID_16_">
			<use xlink:href="#SVGID_15_"  overflow="visible"/>
		</clipPath>
		<rect x="62.4" y="37.4" clip-path="url(#SVGID_16_)" fill="#0095DA" width="15.3" height="17.4"/>
	</g>
</g>
<g>
	<defs>
		<path id="SVGID_17_" d="M75.7,49.6v-7.2h1v1.1c0.3-0.5,0.5-0.9,0.7-1c0.2-0.2,0.4-0.2,0.7-0.2c0.4,0,0.7,0.1,1.1,0.4l-0.4,1.1
			c-0.3-0.2-0.5-0.2-0.8-0.2c-0.2,0-0.5,0.1-0.6,0.2c-0.2,0.2-0.3,0.4-0.4,0.7c-0.1,0.4-0.2,0.9-0.2,1.4v3.8H75.7z"/>
	</defs>
	<clipPath id="SVGID_18_">
		<use xlink:href="#SVGID_17_"  overflow="visible"/>
	</clipPath>
	<g clip-path="url(#SVGID_18_)">
		<defs>
			<rect id="SVGID_19_" x="-911" y="-2979.2" width="1440" height="4673"/>
		</defs>
		<clipPath id="SVGID_20_">
			<use xlink:href="#SVGID_19_"  overflow="visible"/>
		</clipPath>
		<rect x="70.7" y="37.2" clip-path="url(#SVGID_20_)" fill="#0095DA" width="13.5" height="17.4"/>
	</g>
</g>
<g>
	<defs>
		<path id="SVGID_21_" d="M85.6,47.3l1.2,0.2c-0.2,0.7-0.5,1.3-1,1.7c-0.5,0.4-1.1,0.6-1.9,0.6c-1,0-1.7-0.3-2.3-1
			c-0.6-0.6-0.8-1.6-0.8-2.7c0-1.2,0.3-2.1,0.9-2.8c0.6-0.7,1.3-1,2.2-1c0.9,0,1.6,0.3,2.1,1c0.6,0.7,0.8,1.6,0.8,2.8
			c0,0.1,0,0.2,0,0.3h-4.9c0,0.8,0.2,1.4,0.6,1.8c0.4,0.4,0.8,0.6,1.4,0.6c0.4,0,0.8-0.1,1-0.4C85.2,48.2,85.4,47.8,85.6,47.3
			 M82,45.3h3.6c0-0.6-0.2-1.1-0.4-1.4c-0.4-0.5-0.8-0.7-1.4-0.7c-0.5,0-0.9,0.2-1.3,0.6C82.2,44.2,82,44.7,82,45.3"/>
	</defs>
	<clipPath id="SVGID_22_">
		<use xlink:href="#SVGID_21_"  overflow="visible"/>
	</clipPath>
	<g clip-path="url(#SVGID_22_)">
		<defs>
			<rect id="SVGID_23_" x="-911" y="-2979.2" width="1440" height="4673"/>
		</defs>
		<clipPath id="SVGID_24_">
			<use xlink:href="#SVGID_23_"  overflow="visible"/>
		</clipPath>
		<rect x="75.8" y="37.2" clip-path="url(#SVGID_24_)" fill="#0095DA" width="16" height="17.5"/>
	</g>
</g>
<g>
	<defs>
		<path id="SVGID_25_" d="M94.3,49.6v-9.9h3.4c0.6,0,1.1,0,1.4,0.1c0.4,0.1,0.8,0.2,1.1,0.5c0.3,0.2,0.5,0.5,0.7,1
			c0.2,0.4,0.3,0.9,0.3,1.4c0,0.8-0.2,1.6-0.7,2.1c-0.5,0.6-1.4,0.9-2.6,0.9h-2.3v4H94.3z M95.5,44.4h2.3c0.8,0,1.3-0.2,1.6-0.5
			c0.3-0.3,0.5-0.8,0.5-1.3c0-0.4-0.1-0.8-0.3-1.1c-0.2-0.3-0.4-0.5-0.8-0.6c-0.2-0.1-0.6-0.1-1.1-0.1h-2.3V44.4z"/>
	</defs>
	<clipPath id="SVGID_26_">
		<use xlink:href="#SVGID_25_"  overflow="visible"/>
	</clipPath>
	<g clip-path="url(#SVGID_26_)">
		<defs>
			<rect id="SVGID_27_" x="-911" y="-2979.2" width="1440" height="4673"/>
		</defs>
		<clipPath id="SVGID_28_">
			<use xlink:href="#SVGID_27_"  overflow="visible"/>
		</clipPath>
		<rect x="89.3" y="34.7" clip-path="url(#SVGID_28_)" fill="#0095DA" width="16.9" height="19.9"/>
	</g>
</g>
<g>
	<defs>
		<path id="SVGID_29_" d="M103.8,49.6v-7.2h1v1.1c0.3-0.5,0.5-0.9,0.7-1c0.2-0.2,0.4-0.2,0.7-0.2c0.4,0,0.7,0.1,1.1,0.4l-0.4,1.1
			c-0.3-0.2-0.5-0.2-0.8-0.2c-0.2,0-0.5,0.1-0.6,0.2c-0.2,0.2-0.3,0.4-0.4,0.7c-0.1,0.4-0.2,0.9-0.2,1.4v3.8H103.8z"/>
	</defs>
	<clipPath id="SVGID_30_">
		<use xlink:href="#SVGID_29_"  overflow="visible"/>
	</clipPath>
	<g clip-path="url(#SVGID_30_)">
		<defs>
			<rect id="SVGID_31_" x="-911" y="-2979.2" width="1440" height="4673"/>
		</defs>
		<clipPath id="SVGID_32_">
			<use xlink:href="#SVGID_31_"  overflow="visible"/>
		</clipPath>
		<rect x="98.8" y="37.2" clip-path="url(#SVGID_32_)" fill="#0095DA" width="13.5" height="17.4"/>
	</g>
</g>
<g>
	<defs>
		<path id="SVGID_33_" d="M108.8,46c0-1.3,0.3-2.3,1-3c0.6-0.5,1.2-0.8,2.1-0.8c0.9,0,1.6,0.3,2.2,1c0.6,0.6,0.9,1.5,0.9,2.7
			c0,0.9-0.1,1.7-0.4,2.2c-0.3,0.5-0.6,0.9-1.1,1.2c-0.5,0.3-1,0.4-1.6,0.4c-0.9,0-1.7-0.3-2.2-1C109.1,48.1,108.8,47.2,108.8,46
			 M110,46c0,0.9,0.2,1.6,0.5,2.1c0.4,0.5,0.8,0.7,1.4,0.7c0.6,0,1-0.2,1.4-0.7c0.4-0.5,0.5-1.2,0.5-2.1c0-0.9-0.2-1.6-0.6-2
			c-0.4-0.5-0.8-0.7-1.4-0.7c-0.6,0-1,0.2-1.4,0.7C110.2,44.4,110,45.1,110,46"/>
	</defs>
	<clipPath id="SVGID_34_">
		<use xlink:href="#SVGID_33_"  overflow="visible"/>
	</clipPath>
	<g clip-path="url(#SVGID_34_)">
		<defs>
			<rect id="SVGID_35_" x="-911" y="-2979.2" width="1440" height="4673"/>
		</defs>
		<clipPath id="SVGID_36_">
			<use xlink:href="#SVGID_35_"  overflow="visible"/>
		</clipPath>
		<rect x="103.8" y="37.2" clip-path="url(#SVGID_36_)" fill="#0095DA" width="16.1" height="17.5"/>
	</g>
</g>
<g>
	<defs>
		<path id="SVGID_37_" d="M117.1,46c0-1.3,0.3-2.3,1-3c0.6-0.5,1.2-0.8,2.1-0.8c0.9,0,1.6,0.3,2.2,1c0.6,0.6,0.9,1.5,0.9,2.7
			c0,0.9-0.1,1.7-0.4,2.2c-0.3,0.5-0.6,0.9-1.1,1.2c-0.5,0.3-1,0.4-1.6,0.4c-0.9,0-1.7-0.3-2.2-1C117.4,48.1,117.1,47.2,117.1,46
			 M118.2,46c0,0.9,0.2,1.6,0.5,2.1c0.4,0.5,0.8,0.7,1.4,0.7c0.6,0,1-0.2,1.4-0.7c0.4-0.5,0.5-1.2,0.5-2.1c0-0.9-0.2-1.6-0.6-2
			c-0.4-0.5-0.8-0.7-1.4-0.7c-0.6,0-1,0.2-1.4,0.7C118.4,44.4,118.2,45.1,118.2,46"/>
	</defs>
	<clipPath id="SVGID_38_">
		<use xlink:href="#SVGID_37_"  overflow="visible"/>
	</clipPath>
	<g clip-path="url(#SVGID_38_)">
		<defs>
			<rect id="SVGID_39_" x="-911" y="-2979.2" width="1440" height="4673"/>
		</defs>
		<clipPath id="SVGID_40_">
			<use xlink:href="#SVGID_39_"  overflow="visible"/>
		</clipPath>
		<rect x="112.1" y="37.2" clip-path="url(#SVGID_40_)" fill="#0095DA" width="16.1" height="17.5"/>
	</g>
</g>
<g>
	<defs>
		<path id="SVGID_41_" d="M126.1,49.6v-6.2h-1v-1h1v-0.8c0-0.5,0-0.8,0.1-1.1c0.1-0.3,0.3-0.6,0.6-0.8c0.3-0.2,0.6-0.3,1.1-0.3
			c0.3,0,0.7,0,1,0.1l-0.2,1.1c-0.2,0-0.4-0.1-0.7-0.1c-0.3,0-0.6,0.1-0.7,0.2c-0.1,0.2-0.2,0.4-0.2,0.9v0.7h1.3v1h-1.3v6.2H126.1z"
			/>
	</defs>
	<clipPath id="SVGID_42_">
		<use xlink:href="#SVGID_41_"  overflow="visible"/>
	</clipPath>
	<g clip-path="url(#SVGID_42_)">
		<defs>
			<rect id="SVGID_43_" x="-911" y="-2979.2" width="1440" height="4673"/>
		</defs>
		<clipPath id="SVGID_44_">
			<use xlink:href="#SVGID_43_"  overflow="visible"/>
		</clipPath>
		<rect x="120.1" y="34.5" clip-path="url(#SVGID_44_)" fill="#0095DA" width="13.8" height="20.1"/>
	</g>
</g>
<g>
	<defs>
		<path id="SVGID_45_" d="M141.9,46.1l1.2,0.3c-0.2,1.1-0.7,1.9-1.4,2.5c-0.7,0.6-1.4,0.8-2.4,0.8c-1,0-1.8-0.2-2.4-0.7
			s-1.1-1.1-1.4-1.9c-0.3-0.8-0.5-1.7-0.5-2.7c0-1,0.2-1.9,0.5-2.7c0.4-0.8,0.9-1.4,1.5-1.8c0.7-0.4,1.4-0.6,2.2-0.6
			c0.9,0,1.7,0.3,2.3,0.8c0.6,0.5,1,1.2,1.3,2.1l-1.2,0.3c-0.2-0.7-0.5-1.2-0.9-1.6c-0.4-0.3-0.9-0.5-1.5-0.5
			c-0.7,0-1.3,0.2-1.7,0.5c-0.5,0.4-0.8,0.9-1,1.5c-0.2,0.6-0.3,1.2-0.3,1.9c0,0.8,0.1,1.6,0.3,2.2c0.2,0.6,0.6,1.1,1,1.4
			s1,0.5,1.5,0.5c0.7,0,1.2-0.2,1.7-0.6C141.4,47.6,141.7,46.9,141.9,46.1"/>
	</defs>
	<clipPath id="SVGID_46_">
		<use xlink:href="#SVGID_45_"  overflow="visible"/>
	</clipPath>
	<g clip-path="url(#SVGID_46_)">
		<defs>
			<rect id="SVGID_47_" x="-911" y="-2979.2" width="1440" height="4673"/>
		</defs>
		<clipPath id="SVGID_48_">
			<use xlink:href="#SVGID_47_"  overflow="visible"/>
		</clipPath>
		<rect x="130.1" y="34.5" clip-path="url(#SVGID_48_)" fill="#0095DA" width="18" height="20.3"/>
	</g>
</g>
<g>
	<defs>
		<path id="SVGID_49_" d="M145.2,46c0-1.3,0.3-2.3,1-3c0.6-0.5,1.2-0.8,2.1-0.8c0.9,0,1.6,0.3,2.2,1c0.6,0.6,0.9,1.5,0.9,2.7
			c0,0.9-0.1,1.7-0.4,2.2c-0.3,0.5-0.6,0.9-1.1,1.2c-0.5,0.3-1,0.4-1.6,0.4c-0.9,0-1.7-0.3-2.2-1C145.5,48.1,145.2,47.2,145.2,46
			 M146.4,46c0,0.9,0.2,1.6,0.5,2.1c0.4,0.5,0.8,0.7,1.4,0.7c0.6,0,1-0.2,1.4-0.7c0.4-0.5,0.5-1.2,0.5-2.1c0-0.9-0.2-1.6-0.6-2
			c-0.4-0.5-0.8-0.7-1.4-0.7c-0.6,0-1,0.2-1.4,0.7C146.6,44.4,146.4,45.1,146.4,46"/>
	</defs>
	<clipPath id="SVGID_50_">
		<use xlink:href="#SVGID_49_"  overflow="visible"/>
	</clipPath>
	<g clip-path="url(#SVGID_50_)">
		<defs>
			<rect id="SVGID_51_" x="-911" y="-2979.2" width="1440" height="4673"/>
		</defs>
		<clipPath id="SVGID_52_">
			<use xlink:href="#SVGID_51_"  overflow="visible"/>
		</clipPath>
		<rect x="140.2" y="37.2" clip-path="url(#SVGID_52_)" fill="#0095DA" width="16.1" height="17.5"/>
	</g>
</g>
<g>
	<defs>
		<path id="SVGID_53_" d="M153.9,49.6v-7.2h1v1c0.2-0.4,0.5-0.6,0.8-0.9c0.3-0.2,0.7-0.3,1.2-0.3c0.5,0,0.9,0.1,1.2,0.3
			c0.3,0.2,0.5,0.5,0.7,0.9c0.5-0.8,1.2-1.3,2-1.3c0.6,0,1.2,0.2,1.5,0.6s0.5,1,0.5,1.8v4.9h-1.1v-4.5c0-0.5,0-0.8-0.1-1.1
			c-0.1-0.2-0.2-0.4-0.4-0.5c-0.2-0.1-0.4-0.2-0.7-0.2c-0.5,0-0.8,0.2-1.1,0.5c-0.3,0.3-0.5,0.9-0.5,1.6v4.2h-1.1v-4.7
			c0-0.5-0.1-0.9-0.3-1.2c-0.2-0.3-0.5-0.4-0.9-0.4c-0.3,0-0.6,0.1-0.9,0.3c-0.3,0.2-0.5,0.4-0.6,0.8c-0.1,0.3-0.2,0.8-0.2,1.5v3.7
			H153.9z"/>
	</defs>
	<clipPath id="SVGID_54_">
		<use xlink:href="#SVGID_53_"  overflow="visible"/>
	</clipPath>
	<g clip-path="url(#SVGID_54_)">
		<defs>
			<rect id="SVGID_55_" x="-911" y="-2979.2" width="1440" height="4673"/>
		</defs>
		<clipPath id="SVGID_56_">
			<use xlink:href="#SVGID_55_"  overflow="visible"/>
		</clipPath>
		<rect x="148.9" y="37.2" clip-path="url(#SVGID_56_)" fill="#0095DA" width="18.9" height="17.4"/>
	</g>
</g>
<g>
	<defs>
		<path id="SVGID_57_" d="M165.7,49.6v-7.2h1v1c0.2-0.4,0.5-0.6,0.8-0.9c0.3-0.2,0.7-0.3,1.2-0.3c0.5,0,0.9,0.1,1.2,0.3
			c0.3,0.2,0.5,0.5,0.7,0.9c0.5-0.8,1.2-1.3,2-1.3c0.6,0,1.1,0.2,1.5,0.6c0.3,0.4,0.5,1,0.5,1.8v4.9h-1.1v-4.5c0-0.5,0-0.8-0.1-1.1
			c-0.1-0.2-0.2-0.4-0.4-0.5c-0.2-0.1-0.4-0.2-0.7-0.2c-0.5,0-0.8,0.2-1.1,0.5c-0.3,0.3-0.5,0.9-0.5,1.6v4.2h-1.1v-4.7
			c0-0.5-0.1-0.9-0.3-1.2c-0.2-0.3-0.5-0.4-0.9-0.4c-0.3,0-0.6,0.1-0.9,0.3c-0.3,0.2-0.5,0.4-0.6,0.8c-0.1,0.3-0.2,0.8-0.2,1.5v3.7
			H165.7z"/>
	</defs>
	<clipPath id="SVGID_58_">
		<use xlink:href="#SVGID_57_"  overflow="visible"/>
	</clipPath>
	<g clip-path="url(#SVGID_58_)">
		<defs>
			<rect id="SVGID_59_" x="-911" y="-2979.2" width="1440" height="4673"/>
		</defs>
		<clipPath id="SVGID_60_">
			<use xlink:href="#SVGID_59_"  overflow="visible"/>
		</clipPath>
		<rect x="160.7" y="37.2" clip-path="url(#SVGID_60_)" fill="#0095DA" width="18.9" height="17.4"/>
	</g>
</g>
<g>
	<defs>
		<path id="SVGID_61_" d="M181.7,49.6v-1.1c-0.5,0.8-1.2,1.2-2.1,1.2c-0.4,0-0.7-0.1-1.1-0.2c-0.3-0.2-0.6-0.4-0.7-0.6
			c-0.2-0.2-0.3-0.5-0.3-0.9c0-0.2-0.1-0.6-0.1-1.1v-4.5h1.1v4c0,0.6,0,1.1,0.1,1.3c0.1,0.3,0.2,0.6,0.4,0.8
			c0.2,0.2,0.5,0.3,0.8,0.3c0.3,0,0.6-0.1,0.9-0.3c0.3-0.2,0.5-0.4,0.6-0.8c0.1-0.3,0.2-0.8,0.2-1.4v-3.9h1.1v7.2H181.7z"/>
	</defs>
	<clipPath id="SVGID_62_">
		<use xlink:href="#SVGID_61_"  overflow="visible"/>
	</clipPath>
	<g clip-path="url(#SVGID_62_)">
		<defs>
			<rect id="SVGID_63_" x="-911" y="-2979.2" width="1440" height="4673"/>
		</defs>
		<clipPath id="SVGID_64_">
			<use xlink:href="#SVGID_63_"  overflow="visible"/>
		</clipPath>
		<rect x="172.4" y="37.4" clip-path="url(#SVGID_64_)" fill="#0095DA" width="15.3" height="17.4"/>
	</g>
</g>
<g>
	<defs>
		<path id="SVGID_65_" d="M185.7,49.6v-7.2h1v1c0.5-0.8,1.2-1.2,2.1-1.2c0.4,0,0.8,0.1,1.1,0.2c0.3,0.2,0.6,0.4,0.7,0.6
			c0.2,0.3,0.3,0.6,0.3,0.9c0,0.2,0.1,0.6,0.1,1.2v4.4h-1.1v-4.4c0-0.5,0-0.9-0.1-1.1c-0.1-0.2-0.2-0.4-0.5-0.6
			c-0.2-0.1-0.5-0.2-0.8-0.2c-0.5,0-0.9,0.2-1.2,0.5c-0.3,0.3-0.5,1-0.5,1.9v3.9H185.7z"/>
	</defs>
	<clipPath id="SVGID_66_">
		<use xlink:href="#SVGID_65_"  overflow="visible"/>
	</clipPath>
	<g clip-path="url(#SVGID_66_)">
		<defs>
			<rect id="SVGID_67_" x="-911" y="-2979.2" width="1440" height="4673"/>
		</defs>
		<clipPath id="SVGID_68_">
			<use xlink:href="#SVGID_67_"  overflow="visible"/>
		</clipPath>
		<rect x="180.7" y="37.2" clip-path="url(#SVGID_68_)" fill="#0095DA" width="15.3" height="17.4"/>
	</g>
</g>
<g>
	<g>
		<g enable-background="new    ">
			<g>
				<g>
					<defs>
						<path id="SVGID_69_" d="M194,41.1h1.1v-1.4H194V41.1z M194,49.6h1.1v-7.2H194V49.6z"/>
					</defs>
					<clipPath id="SVGID_70_">
						<use xlink:href="#SVGID_69_"  overflow="visible"/>
					</clipPath>
					<g clip-path="url(#SVGID_70_)">
						<defs>
							<rect id="SVGID_71_" x="0" y="-0.2" width="246" height="51"/>
						</defs>
						<clipPath id="SVGID_72_">
							<use xlink:href="#SVGID_71_"  overflow="visible"/>
						</clipPath>
						<rect x="189" y="34.7" clip-path="url(#SVGID_72_)" fill="#0095DA" width="11.1" height="19.9"/>
					</g>
				</g>
				<g>
					<defs>
						<path id="SVGID_73_" d="M202.3,47l1.1,0.2c-0.1,0.8-0.4,1.5-0.9,1.9c-0.5,0.5-1.1,0.7-1.8,0.7c-0.9,0-1.6-0.3-2.2-1
							c-0.5-0.6-0.8-1.6-0.8-2.8c0-0.8,0.1-1.5,0.3-2c0.2-0.6,0.6-1,1.1-1.3c0.5-0.3,1-0.4,1.6-0.4c0.7,0,1.3,0.2,1.7,0.6
							c0.5,0.4,0.7,1,0.9,1.7l-1.1,0.2c-0.1-0.5-0.3-0.9-0.5-1.1c-0.3-0.2-0.6-0.4-0.9-0.4c-0.6,0-1,0.2-1.4,0.7
							c-0.3,0.4-0.5,1.1-0.5,2.1c0,1,0.2,1.7,0.5,2.1c0.3,0.4,0.8,0.7,1.3,0.7c0.4,0,0.8-0.1,1.1-0.4C202,48,202.2,47.6,202.3,47"/>
					</defs>
					<clipPath id="SVGID_74_">
						<use xlink:href="#SVGID_73_"  overflow="visible"/>
					</clipPath>
					<g clip-path="url(#SVGID_74_)">
						<defs>
							<rect id="SVGID_75_" x="0" y="-0.2" width="246" height="51"/>
						</defs>
						<clipPath id="SVGID_76_">
							<use xlink:href="#SVGID_75_"  overflow="visible"/>
						</clipPath>
						<rect x="192.7" y="37.2" clip-path="url(#SVGID_76_)" fill="#0095DA" width="15.7" height="17.5"/>
					</g>
				</g>
				<g>
					<defs>
						<path id="SVGID_77_" d="M209.8,48.7c-0.4,0.4-0.8,0.7-1.2,0.8c-0.4,0.2-0.8,0.2-1.2,0.2c-0.7,0-1.3-0.2-1.7-0.6
							c-0.4-0.4-0.6-0.9-0.6-1.5c0-0.4,0.1-0.7,0.2-1c0.1-0.3,0.3-0.5,0.6-0.7c0.2-0.2,0.5-0.3,0.8-0.4c0.2-0.1,0.5-0.1,1-0.2
							c0.9-0.1,1.6-0.3,2-0.4c0-0.2,0-0.3,0-0.3c0-0.5-0.1-0.9-0.3-1.1c-0.3-0.3-0.7-0.4-1.3-0.4c-0.5,0-0.9,0.1-1.2,0.3
							c-0.2,0.2-0.4,0.6-0.6,1.1l-1.1-0.2c0.1-0.5,0.3-0.9,0.5-1.2c0.2-0.3,0.6-0.6,1-0.7c0.4-0.2,0.9-0.3,1.5-0.3
							c0.6,0,1,0.1,1.4,0.2c0.3,0.1,0.6,0.3,0.8,0.5c0.2,0.2,0.3,0.5,0.3,0.8c0,0.2,0.1,0.6,0.1,1.1v1.6c0,1.1,0,1.9,0.1,2.2
							c0,0.3,0.1,0.6,0.3,0.9h-1.1C209.9,49.3,209.9,49,209.8,48.7z M209.8,46c-0.4,0.2-1,0.3-1.8,0.5c-0.5,0.1-0.8,0.2-1,0.2
							c-0.2,0.1-0.3,0.2-0.4,0.4s-0.2,0.4-0.2,0.6c0,0.3,0.1,0.6,0.3,0.8c0.2,0.2,0.6,0.3,1,0.3c0.4,0,0.8-0.1,1.1-0.3
							c0.3-0.2,0.6-0.5,0.7-0.8c0.1-0.3,0.2-0.7,0.2-1.2L209.8,46z"/>
					</defs>
					<clipPath id="SVGID_78_">
						<use xlink:href="#SVGID_77_"  overflow="visible"/>
					</clipPath>
					<g clip-path="url(#SVGID_78_)">
						<defs>
							<rect id="SVGID_79_" x="0" y="-0.2" width="246" height="51"/>
						</defs>
						<clipPath id="SVGID_80_">
							<use xlink:href="#SVGID_79_"  overflow="visible"/>
						</clipPath>
						<rect x="200.2" y="37.2" clip-path="url(#SVGID_80_)" fill="#0095DA" width="16" height="17.5"/>
					</g>
				</g>
				<g>
					<defs>
						<path id="SVGID_81_" d="M216.2,48.5l0.2,1.1c-0.3,0.1-0.6,0.1-0.8,0.1c-0.4,0-0.7-0.1-0.9-0.2c-0.2-0.1-0.4-0.3-0.5-0.6
							c-0.1-0.2-0.1-0.7-0.1-1.4v-4.1h-0.8v-1h0.8v-1.8l1.1-0.7v2.5h1.1v1h-1.1v4.2c0,0.3,0,0.6,0.1,0.7c0,0.1,0.1,0.2,0.2,0.2
							c0.1,0.1,0.2,0.1,0.4,0.1C215.9,48.6,216,48.5,216.2,48.5"/>
					</defs>
					<clipPath id="SVGID_82_">
						<use xlink:href="#SVGID_81_"  overflow="visible"/>
					</clipPath>
					<g clip-path="url(#SVGID_82_)">
						<defs>
							<rect id="SVGID_83_" x="0" y="-0.2" width="246" height="51"/>
						</defs>
						<clipPath id="SVGID_84_">
							<use xlink:href="#SVGID_83_"  overflow="visible"/>
						</clipPath>
						<rect x="208.2" y="34.9" clip-path="url(#SVGID_84_)" fill="#0095DA" width="13.2" height="19.8"/>
					</g>
				</g>
				<g>
					<defs>
						<path id="SVGID_85_" d="M218.6,41.1h1.1v-1.4h-1.1V41.1z M218.6,49.6h1.1v-7.2h-1.1V49.6z"/>
					</defs>
					<clipPath id="SVGID_86_">
						<use xlink:href="#SVGID_85_"  overflow="visible"/>
					</clipPath>
					<g clip-path="url(#SVGID_86_)">
						<defs>
							<rect id="SVGID_87_" x="0" y="-0.2" width="246" height="51"/>
						</defs>
						<clipPath id="SVGID_88_">
							<use xlink:href="#SVGID_87_"  overflow="visible"/>
						</clipPath>
						<rect x="213.6" y="34.7" clip-path="url(#SVGID_88_)" fill="#0095DA" width="11.1" height="19.9"/>
					</g>
				</g>
				<g>
					<defs>
						<path id="SVGID_89_" d="M222.2,46c0-1.3,0.3-2.3,1-3c0.6-0.5,1.2-0.8,2.1-0.8c0.9,0,1.6,0.3,2.2,1c0.6,0.6,0.9,1.5,0.9,2.7
							c0,0.9-0.1,1.7-0.4,2.2c-0.3,0.5-0.6,0.9-1.1,1.2c-0.5,0.3-1,0.4-1.6,0.4c-0.9,0-1.7-0.3-2.2-1
							C222.5,48.1,222.2,47.2,222.2,46 M223.4,46c0,0.9,0.2,1.6,0.5,2.1c0.4,0.5,0.8,0.7,1.4,0.7c0.6,0,1-0.2,1.4-0.7
							c0.4-0.5,0.5-1.2,0.5-2.1c0-0.9-0.2-1.6-0.6-2c-0.4-0.5-0.8-0.7-1.4-0.7c-0.6,0-1,0.2-1.4,0.7C223.5,44.4,223.4,45.1,223.4,46
							"/>
					</defs>
					<clipPath id="SVGID_90_">
						<use xlink:href="#SVGID_89_"  overflow="visible"/>
					</clipPath>
					<g clip-path="url(#SVGID_90_)">
						<defs>
							<rect id="SVGID_91_" x="0" y="-0.2" width="246" height="51"/>
						</defs>
						<clipPath id="SVGID_92_">
							<use xlink:href="#SVGID_91_"  overflow="visible"/>
						</clipPath>
						<rect x="217.2" y="37.2" clip-path="url(#SVGID_92_)" fill="#0095DA" width="16.1" height="17.5"/>
					</g>
				</g>
				<g>
					<defs>
						<path id="SVGID_93_" d="M230.9,49.6v-7.2h1v1c0.5-0.8,1.2-1.2,2.1-1.2c0.4,0,0.8,0.1,1.1,0.2c0.3,0.2,0.6,0.4,0.7,0.6
							c0.2,0.3,0.3,0.6,0.3,0.9c0,0.2,0.1,0.6,0.1,1.2v4.4h-1.1v-4.4c0-0.5,0-0.9-0.1-1.1c-0.1-0.2-0.2-0.4-0.5-0.6
							c-0.2-0.1-0.5-0.2-0.8-0.2c-0.5,0-0.9,0.2-1.2,0.5c-0.3,0.3-0.5,1-0.5,1.9v3.9H230.9z"/>
					</defs>
					<clipPath id="SVGID_94_">
						<use xlink:href="#SVGID_93_"  overflow="visible"/>
					</clipPath>
					<g clip-path="url(#SVGID_94_)">
						<defs>
							<rect id="SVGID_95_" x="0" y="-0.2" width="246" height="51"/>
						</defs>
						<clipPath id="SVGID_96_">
							<use xlink:href="#SVGID_95_"  overflow="visible"/>
						</clipPath>
						<rect x="225.9" y="37.2" clip-path="url(#SVGID_96_)" fill="#0095DA" width="15.3" height="17.4"/>
					</g>
				</g>
				<g>
					<defs>
						<path id="SVGID_97_" d="M238.7,47.4l1.1-0.2c0.1,0.5,0.2,0.9,0.5,1.1c0.3,0.3,0.7,0.4,1.2,0.4c0.5,0,0.9-0.1,1.1-0.3
							c0.2-0.2,0.4-0.5,0.4-0.8c0-0.3-0.1-0.5-0.3-0.7c-0.2-0.1-0.5-0.2-1.1-0.4c-0.8-0.2-1.4-0.4-1.7-0.6c-0.3-0.2-0.6-0.4-0.7-0.7
							c-0.2-0.3-0.2-0.6-0.2-1c0-0.3,0.1-0.6,0.2-0.9c0.1-0.3,0.3-0.5,0.5-0.7c0.2-0.1,0.4-0.3,0.7-0.4c0.3-0.1,0.6-0.1,1-0.1
							c0.5,0,1,0.1,1.4,0.2c0.4,0.2,0.7,0.4,0.9,0.7c0.2,0.3,0.3,0.6,0.4,1.1l-1.1,0.2c0-0.4-0.2-0.7-0.4-0.9
							c-0.2-0.2-0.6-0.3-1-0.3c-0.5,0-0.9,0.1-1.1,0.3c-0.2,0.2-0.3,0.4-0.3,0.7c0,0.2,0,0.3,0.1,0.4c0.1,0.1,0.2,0.2,0.4,0.3
							c0.1,0,0.4,0.1,1,0.3c0.8,0.2,1.3,0.4,1.6,0.6c0.3,0.1,0.6,0.4,0.7,0.6c0.2,0.3,0.3,0.6,0.3,1c0,0.4-0.1,0.8-0.3,1.1
							c-0.2,0.4-0.5,0.6-0.9,0.8c-0.4,0.2-0.9,0.3-1.4,0.3c-0.9,0-1.5-0.2-1.9-0.6C239.1,48.8,238.9,48.2,238.7,47.4"/>
					</defs>
					<clipPath id="SVGID_98_">
						<use xlink:href="#SVGID_97_"  overflow="visible"/>
					</clipPath>
					<g clip-path="url(#SVGID_98_)">
						<defs>
							<rect id="SVGID_99_" x="0" y="-0.2" width="246" height="51"/>
						</defs>
						<clipPath id="SVGID_100_">
							<use xlink:href="#SVGID_99_"  overflow="visible"/>
						</clipPath>
						<rect x="233.7" y="37.2" clip-path="url(#SVGID_100_)" fill="#0095DA" width="15.4" height="17.5"/>
					</g>
				</g>
				<g>
					<defs>
						<path id="SVGID_101_" d="M61.5,1.5v22.4c0,6.8-1.3,13.6-9.5,13.6c-2.1,0-3.8-0.5-5.5-1.5l2.2-3.7c1,0.8,2.2,1.2,3.5,1.2
							c5,0,5-5.9,5-9.5V1.5H61.5z"/>
					</defs>
					<clipPath id="SVGID_102_">
						<use xlink:href="#SVGID_101_"  overflow="visible"/>
					</clipPath>
					<g clip-path="url(#SVGID_102_)">
						<defs>
							<rect id="SVGID_103_" x="0" y="-0.2" width="246" height="51"/>
						</defs>
						<clipPath id="SVGID_104_">
							<use xlink:href="#SVGID_103_"  overflow="visible"/>
						</clipPath>
						<rect x="41.4" y="-3.5" clip-path="url(#SVGID_104_)" fill="#0095DA" width="25.1" height="46"/>
					</g>
				</g>
				<g>
					<defs>
						<path id="SVGID_105_" d="M87,23.9H74.4l6.3-14.2L87,23.9z M88.8,27.9l4,8.8h4.7L80.7,0L63.9,36.7h4.7l4-8.8H88.8z"/>
					</defs>
					<clipPath id="SVGID_106_">
						<use xlink:href="#SVGID_105_"  overflow="visible"/>
					</clipPath>
					<g clip-path="url(#SVGID_106_)">
						<defs>
							<rect id="SVGID_107_" x="0" y="-0.2" width="246" height="51"/>
						</defs>
						<clipPath id="SVGID_108_">
							<use xlink:href="#SVGID_107_"  overflow="visible"/>
						</clipPath>
						<rect x="58.9" y="-5" clip-path="url(#SVGID_108_)" fill="#0095DA" width="43.7" height="46.7"/>
					</g>
				</g>
				<g>
					<defs>
						<path id="SVGID_109_" d="M126.1,8.2c-2.5-2.2-6-3.5-9.3-3.5c-7.9,0-13.9,6.6-13.9,14.4c0,7.7,6,14.3,13.8,14.3
							c3.5,0,6.8-1.3,9.4-3.6V35c-2.7,1.6-6.2,2.5-9.3,2.5c-10,0-18.4-8-18.4-18.2c0-10.4,8.4-18.5,18.7-18.5c3.1,0,6.2,0.7,8.9,2.4
							V8.2z"/>
					</defs>
					<clipPath id="SVGID_110_">
						<use xlink:href="#SVGID_109_"  overflow="visible"/>
					</clipPath>
					<g clip-path="url(#SVGID_110_)">
						<defs>
							<rect id="SVGID_111_" x="0" y="-0.2" width="246" height="51"/>
						</defs>
						<clipPath id="SVGID_112_">
							<use xlink:href="#SVGID_111_"  overflow="visible"/>
						</clipPath>
						<rect x="93.5" y="-4.3" clip-path="url(#SVGID_112_)" fill="#0095DA" width="37.6" height="46.7"/>
					</g>
				</g>
				<g>
					<defs>
						<path id="SVGID_113_" d="M151.7,23.4h-5.5l8.1,7.9c-2.1,1.4-4.9,2-7,2c-7.6,0-14.1-6.2-14.1-14.2c0-7.8,5.8-14.2,14.1-14.2
							c8.3,0,14.1,6.5,14.1,14.2c0,3.4-1.4,7.4-4.1,9.9L151.7,23.4z M165.8,37.4l-5.5-5.4c3.5-3.3,5.5-8,5.5-13
							c0-10.1-8.4-18.3-18.5-18.3c-10.1,0-18.5,8.3-18.5,18.3c0,10.5,8.3,18.3,18.5,18.3c3.4,0,7.2-1.1,10.1-3.1l3,3.1H165.8z"/>
					</defs>
					<clipPath id="SVGID_114_">
						<use xlink:href="#SVGID_113_"  overflow="visible"/>
					</clipPath>
					<g clip-path="url(#SVGID_114_)">
						<defs>
							<rect id="SVGID_115_" x="0" y="-0.2" width="246" height="51"/>
						</defs>
						<clipPath id="SVGID_116_">
							<use xlink:href="#SVGID_115_"  overflow="visible"/>
						</clipPath>
						<rect x="123.9" y="-4.2" clip-path="url(#SVGID_116_)" fill="#0095DA" width="46.9" height="46.7"/>
					</g>
				</g>
				<g>
					<defs>
						<path id="SVGID_117_" d="M173.9,1.5v20.8c0,5.7,1.7,11.1,8.5,11.1c6.8,0,8.5-5.3,8.5-11.1V1.5h4.4v22.3
							c0,7.7-4.8,13.7-12.9,13.7c-8.1,0-12.9-5.9-12.9-13.7V1.5H173.9z"/>
					</defs>
					<clipPath id="SVGID_118_">
						<use xlink:href="#SVGID_117_"  overflow="visible"/>
					</clipPath>
					<g clip-path="url(#SVGID_118_)">
						<defs>
							<rect id="SVGID_119_" x="0" y="-0.2" width="246" height="51"/>
						</defs>
						<clipPath id="SVGID_120_">
							<use xlink:href="#SVGID_119_"  overflow="visible"/>
						</clipPath>
						<rect x="164.5" y="-3.5" clip-path="url(#SVGID_120_)" fill="#0095DA" width="35.8" height="46"/>
					</g>
				</g>
				<g>
					<defs>
						<polygon id="SVGID_121_" points="201.3,1.5 220.3,1.5 220.3,5.5 205.7,5.5 205.7,15.4 219.9,15.4 219.9,19.4 205.7,19.4 
							205.7,32.7 220.3,32.7 220.3,36.7 201.3,36.7 						"/>
					</defs>
					<clipPath id="SVGID_122_">
						<use xlink:href="#SVGID_121_"  overflow="visible"/>
					</clipPath>
					<g clip-path="url(#SVGID_122_)">
						<defs>
							<rect id="SVGID_123_" x="0" y="-0.2" width="246" height="51"/>
						</defs>
						<clipPath id="SVGID_124_">
							<use xlink:href="#SVGID_123_"  overflow="visible"/>
						</clipPath>
						<rect x="196.3" y="-3.5" clip-path="url(#SVGID_124_)" fill="#0095DA" width="28.9" height="45.2"/>
					</g>
				</g>
				<g>
					<defs>
						<path id="SVGID_125_" d="M241.4,8.2c-1.3-2.2-3-3.3-5.7-3.3c-2.8,0-5.9,1.9-5.9,5c0,2.8,2.7,4.2,4.9,5l2.5,1
							c5,2,8.7,4.7,8.7,10.6c0,6.4-5,11-11.3,11c-5.7,0-10.1-4.2-10.9-9.8l4.4-0.9c0,3.9,3,6.7,6.8,6.7c3.8,0,6.5-3.2,6.5-6.9
							c0-3.8-3-5.4-6.1-6.7l-2.4-1c-4-1.7-7.7-4-7.7-8.9c0-5.7,5-9.1,10.4-9.1c3.9,0,7.2,1.9,9.1,5.3L241.4,8.2z"/>
					</defs>
					<clipPath id="SVGID_126_">
						<use xlink:href="#SVGID_125_"  overflow="visible"/>
					</clipPath>
					<g clip-path="url(#SVGID_126_)">
						<defs>
							<rect id="SVGID_127_" x="0" y="-0.2" width="246" height="51"/>
						</defs>
						<clipPath id="SVGID_128_">
							<use xlink:href="#SVGID_127_"  overflow="visible"/>
						</clipPath>
						<rect x="218.8" y="-4.3" clip-path="url(#SVGID_128_)" fill="#0095DA" width="32.2" height="46.7"/>
					</g>
				</g>
				<g>
					<defs>
						<path id="SVGID_129_" d="M16.5,32.3c3.7,0.7,7.3-1.8,8-5.5c0.3-1.8-0.1-3.6-1.1-5.2c-1-1.5-2.6-2.5-4.4-2.9
							c-1.8-0.3-3.6,0.1-5.2,1.1c-1.5,1-2.5,2.6-2.9,4.4c-0.3,1.8,0.1,3.6,1.1,5.1C13.2,30.9,14.7,31.9,16.5,32.3 M24.8,1.3
							c-1.5-0.4-3,0.4-3.4,1.8c-0.4,1.4,0.4,3,1.8,3.4C32.9,9.5,38.8,19.1,37,29.1c-1,5.2-3.9,9.7-8.2,12.7c-4.4,3-9.6,4.1-14.8,3.1
							c-3.5-0.6-6.7-2.2-9.4-4.5c-1.1-1-2.9-0.9-3.9,0.3c-1,1.1-0.9,2.9,0.3,3.9c3.4,3,7.5,5,12,5.8c6.6,1.2,13.3-0.2,18.9-4
							c5.6-3.8,9.3-9.6,10.5-16.2C44.7,17.4,37.2,5,24.8,1.3 M14.8,41.4c4.2,0.8,8.6-0.1,12.1-2.6c3.6-2.4,6-6.1,6.8-10.4
							c0.8-4.2-0.1-8.5-2.6-12.1c-2.4-3.6-6.1-6-10.4-6.8c-1.4-0.3-2.8,0.7-3.1,2.1c-0.3,1.4,0.7,2.8,2.1,3.1c2.9,0.5,5.4,2.2,7,4.6
							c1.6,2.4,2.3,5.3,1.7,8.2c-0.5,2.9-2.2,5.4-4.6,7c-2.4,1.6-5.3,2.3-8.2,1.7c-2.4-0.4-4.5-1.6-6.1-3.4
							c-0.5-0.5-1.1-0.8-1.8-0.9c-0.7,0-1.4,0.2-1.9,0.7c-0.5,0.5-0.8,1.1-0.9,1.8c0,0.7,0.2,1.4,0.7,1.9
							C8.2,39,11.3,40.7,14.8,41.4"/>
					</defs>
					<clipPath id="SVGID_130_">
						<use xlink:href="#SVGID_129_"  overflow="visible"/>
					</clipPath>
					<g clip-path="url(#SVGID_130_)">
						<defs>
							<rect id="SVGID_131_" x="0" y="-0.2" width="246" height="51"/>
						</defs>
						<clipPath id="SVGID_132_">
							<use xlink:href="#SVGID_131_"  overflow="visible"/>
						</clipPath>
						<rect x="-5" y="-3.8" clip-path="url(#SVGID_132_)" fill="#0095DA" width="52.8" height="59.5"/>
					</g>
				</g>
			</g>
		</g>
	</g>
</g>
</svg>
