<?xml version="1.0" encoding="utf-8"?>
<!-- Generator: Adobe Illustrator 21.1.0, SVG Export Plug-In . SVG Version: 6.00 Build 0)  -->
<svg version="1.0" id="Layer_1" xmlns="http://www.w3.org/2000/svg" xmlns:xlink="http://www.w3.org/1999/xlink" x="0px" y="0px"
	 viewBox="0 0 126 126" enable-background="new 0 0 126 126" xml:space="preserve">
<g>
	<g>
		<defs>
			
				<rect id="SVGID_1_" x="18.4" y="18.5" transform="matrix(0.7069 -0.7073 0.7073 0.7069 -26.0983 62.981)" width="89" height="89"/>
		</defs>
		<clipPath id="SVGID_2_">
			<use xlink:href="#SVGID_1_"  overflow="visible"/>
		</clipPath>
		<g clip-path="url(#SVGID_2_)">
			<defs>
				<rect id="SVGID_3_" x="-971" y="-1863.9" width="1440" height="4673"/>
			</defs>
			<clipPath id="SVGID_4_">
				<use xlink:href="#SVGID_3_"  overflow="visible"/>
			</clipPath>
			<rect x="-5" y="-5" clip-path="url(#SVGID_4_)" fill="#68AEE0" width="135.9" height="136"/>
		</g>
	</g>
	<g>
		<defs>
			<path id="SVGID_5_" d="M0,86.7h1.9v2.1C2.3,88,2.9,87.4,3.6,87c0.7-0.4,1.5-0.6,2.4-0.6c1.1,0,2.1,0.3,3.1,0.8
				c1,0.5,1.7,1.2,2.3,2.1c0.6-1,1.3-1.7,2.2-2.2c0.9-0.5,1.8-0.7,2.7-0.7c1.7,0,3.1,0.6,4.4,1.7c1.3,1.1,1.9,2.6,1.9,4.3v9.5h-2
				v-9.2c0-1.4-0.4-2.4-1.3-3.2c-0.8-0.8-1.9-1.1-3-1.1c-1.1,0-2,0.3-2.7,1c-0.8,0.7-1.2,1.6-1.2,2.8v9.7h-2.1v-9.3
				c0-1.3-0.4-2.3-1.3-3.1c-0.9-0.7-1.9-1.1-3.1-1.1c-1.1,0-2,0.4-2.7,1.1C2.4,90.2,2,91.2,2,92.5v9.4H0V86.7z"/>
		</defs>
		<clipPath id="SVGID_6_">
			<use xlink:href="#SVGID_5_"  overflow="visible"/>
		</clipPath>
		<g clip-path="url(#SVGID_6_)">
			<defs>
				<rect id="SVGID_7_" x="-971" y="-1863.9" width="1440" height="4673"/>
			</defs>
			<clipPath id="SVGID_8_">
				<use xlink:href="#SVGID_7_"  overflow="visible"/>
			</clipPath>
			<rect x="-5" y="81.4" clip-path="url(#SVGID_8_)" width="32.6" height="25.6"/>
		</g>
	</g>
	<g>
		<g>
			<g enable-background="new    ">
				<g>
					<defs>
						<rect id="SVGID_9_" x="26" y="81.1" width="100" height="22"/>
					</defs>
					<clipPath id="SVGID_10_">
						<use xlink:href="#SVGID_9_"  overflow="visible"/>
					</clipPath>
					<g clip-path="url(#SVGID_10_)">
						<defs>
							<path id="SVGID_11_" d="M26.1,84.9h2v-3.5h-2V84.9z M26.1,101.9h2V86.7h-2V101.9z"/>
						</defs>
						<clipPath id="SVGID_12_">
							<use xlink:href="#SVGID_11_"  overflow="visible"/>
						</clipPath>
						<g clip-path="url(#SVGID_12_)">
							<defs>
								<rect id="SVGID_13_" x="0" y="-0.9" width="126" height="127"/>
							</defs>
							<clipPath id="SVGID_14_">
								<use xlink:href="#SVGID_13_"  overflow="visible"/>
							</clipPath>
							<rect x="21.1" y="76.3" clip-path="url(#SVGID_14_)" width="12" height="30.6"/>
						</g>
					</g>
					<g clip-path="url(#SVGID_10_)">
						<defs>
							<rect id="SVGID_15_" x="31.6" y="81.3" width="2" height="20.6"/>
						</defs>
						<clipPath id="SVGID_16_">
							<use xlink:href="#SVGID_15_"  overflow="visible"/>
						</clipPath>
						<g clip-path="url(#SVGID_16_)">
							<defs>
								<rect id="SVGID_17_" x="0" y="-0.9" width="126" height="127"/>
							</defs>
							<clipPath id="SVGID_18_">
								<use xlink:href="#SVGID_17_"  overflow="visible"/>
							</clipPath>
							<rect x="26.6" y="76.3" clip-path="url(#SVGID_18_)" width="12" height="30.6"/>
						</g>
					</g>
					<g clip-path="url(#SVGID_10_)">
						<defs>
							<path id="SVGID_19_" d="M36.6,94.2c0.1-2.4,0.9-4.3,2.4-5.7c1.6-1.4,3.4-2.2,5.4-2.2c1.3,0,2.5,0.3,3.8,0.9
								c1.2,0.6,2.2,1.6,3,2.8c0.8,1.3,1.2,2.8,1.2,4.5V95H38.7c0.1,1.7,0.8,3,2,3.9c1.2,0.9,2.4,1.4,3.8,1.4c1.1,0,2.2-0.3,3.3-1
								c1.1-0.6,1.8-1.4,2.1-2.4H52c-0.5,1.2-1.1,2.2-1.9,3c-0.8,0.8-1.7,1.4-2.7,1.8c-1,0.4-2,0.6-3,0.5c-1.4-0.1-2.6-0.4-3.8-1.1
								c-1.2-0.7-2.2-1.6-2.8-2.9C36.9,97.1,36.6,95.7,36.6,94.2z M50.4,93.2c-0.3-1.4-0.9-2.5-2-3.5c-1.1-1-2.4-1.4-3.8-1.4
								c-1.3,0-2.4,0.3-3.3,0.9c-0.9,0.6-1.5,1.3-1.9,2.1c-0.4,0.8-0.6,1.4-0.7,1.9H50.4z"/>
						</defs>
						<clipPath id="SVGID_20_">
							<use xlink:href="#SVGID_19_"  overflow="visible"/>
						</clipPath>
						<g clip-path="url(#SVGID_20_)">
							<defs>
								<rect id="SVGID_21_" x="0" y="-0.9" width="126" height="127"/>
							</defs>
							<clipPath id="SVGID_22_">
								<use xlink:href="#SVGID_21_"  overflow="visible"/>
							</clipPath>
							<rect x="31.6" y="81.3" clip-path="url(#SVGID_22_)" width="25.8" height="25.9"/>
						</g>
					</g>
					<g clip-path="url(#SVGID_10_)">
						<defs>
							<path id="SVGID_23_" d="M54.6,91.2c-0.1-1,0-1.9,0.5-2.6c0.4-0.7,1-1.3,1.7-1.6c0.7-0.4,1.4-0.5,2.1-0.5c1.1,0,2.1,0.3,2.9,1
								c0.9,0.7,1.4,1.7,1.4,3h-2.1c0-0.8-0.3-1.3-0.7-1.6c-0.4-0.3-1-0.5-1.6-0.5c-0.5,0-1,0.2-1.5,0.5c-0.5,0.4-0.7,0.9-0.7,1.6
								c0,0.1,0.1,0.3,0.1,0.4c0,0.1,0.1,0.3,0.1,0.3c0.2,0.6,1,1.2,2.5,1.7c1.5,0.5,2.6,1.1,3.4,1.8c0.8,0.7,1.1,1.8,0.8,3.5
								c-0.1,1.4-0.7,2.4-1.6,3c-1,0.7-2,1-3.1,1c-1.4,0-2.5-0.5-3.4-1.4c-0.9-0.9-1.3-2.1-1.3-3.4l2.1-0.1c0,0.8,0.3,1.5,0.9,2.1
								c0.6,0.5,1.2,0.8,1.9,0.9c0.7-0.1,1.3-0.3,1.8-0.8c0.5-0.5,0.8-1.1,0.8-1.8c0-0.6-0.2-1.2-0.6-1.7c-0.4-0.5-1-0.9-1.9-1.1
								C56.2,94.3,54.8,93,54.6,91.2"/>
						</defs>
						<clipPath id="SVGID_24_">
							<use xlink:href="#SVGID_23_"  overflow="visible"/>
						</clipPath>
						<g clip-path="url(#SVGID_24_)">
							<defs>
								<rect id="SVGID_25_" x="0" y="-0.9" width="126" height="127"/>
							</defs>
							<clipPath id="SVGID_26_">
								<use xlink:href="#SVGID_25_"  overflow="visible"/>
							</clipPath>
							<rect x="49" y="81.4" clip-path="url(#SVGID_26_)" width="19.5" height="25.9"/>
						</g>
					</g>
					<g clip-path="url(#SVGID_10_)">
						<defs>
							<polygon id="SVGID_27_" points="68.6,101.9 68.6,88.6 65.4,88.6 65.4,86.7 68.6,86.7 68.6,81.3 70.7,81.3 70.7,86.7 
								74.2,86.7 74.2,88.6 70.7,88.6 70.7,101.9 							"/>
						</defs>
						<clipPath id="SVGID_28_">
							<use xlink:href="#SVGID_27_"  overflow="visible"/>
						</clipPath>
						<g clip-path="url(#SVGID_28_)">
							<defs>
								<rect id="SVGID_29_" x="0" y="-0.9" width="126" height="127"/>
							</defs>
							<clipPath id="SVGID_30_">
								<use xlink:href="#SVGID_29_"  overflow="visible"/>
							</clipPath>
							<rect x="60.4" y="76.3" clip-path="url(#SVGID_30_)" width="18.8" height="30.6"/>
						</g>
					</g>
					<g clip-path="url(#SVGID_10_)">
						<defs>
							<path id="SVGID_31_" d="M75,94.1c0-1.4,0.4-2.7,1.1-3.8c0.7-1.2,1.7-2.1,3-2.8c1.3-0.7,2.7-1.1,4.2-1c0.8,0,1.7,0.2,2.6,0.6
								c0.9,0.4,1.7,0.9,2.4,1.5c0.7,0.6,1.3,1.4,1.8,2.3c0.5,0.9,0.8,1.9,0.8,2.8c0.1,1.5-0.2,3-0.9,4.3c-0.7,1.3-1.7,2.4-3,3.2
								c-1.3,0.8-2.6,1.2-4.1,1.2c-1.3,0-2.6-0.3-3.8-1c-1.3-0.7-2.3-1.6-3-2.9C75.3,97.1,75,95.7,75,94.1 M77,94.2
								c0,1.8,0.6,3.3,1.8,4.4c1.2,1.1,2.6,1.7,4.2,1.8c0.9,0,1.8-0.2,2.7-0.7c0.9-0.5,1.6-1.2,2.2-2.1c0.6-0.9,0.9-2.1,0.9-3.3
								c0-1-0.3-1.9-0.8-2.8c-0.5-0.9-1.3-1.7-2.2-2.2c-0.9-0.6-1.9-0.8-2.9-0.8c-1.6,0-3,0.6-4.2,1.7C77.6,91.2,77,92.6,77,94.2"/>
						</defs>
						<clipPath id="SVGID_32_">
							<use xlink:href="#SVGID_31_"  overflow="visible"/>
						</clipPath>
						<g clip-path="url(#SVGID_32_)">
							<defs>
								<rect id="SVGID_33_" x="0" y="-0.9" width="126" height="127"/>
							</defs>
							<clipPath id="SVGID_34_">
								<use xlink:href="#SVGID_33_"  overflow="visible"/>
							</clipPath>
							<rect x="70" y="81.4" clip-path="url(#SVGID_34_)" width="26" height="25.9"/>
						</g>
					</g>
					<g clip-path="url(#SVGID_10_)">
						<defs>
							<path id="SVGID_35_" d="M93.7,101.9V86.7h1.9V89c0.5-0.9,1.2-1.5,2.1-2c0.8-0.4,1.8-0.7,2.8-0.7c1.8,0,3.3,0.6,4.7,1.9
								c1.3,1.2,2,2.9,2,5.1v8.6h-2v-8.6c0-1.6-0.5-2.8-1.4-3.7c-0.9-0.8-2.1-1.3-3.4-1.3c-1.2,0-2.3,0.4-3.2,1.2
								c-0.9,0.8-1.4,2-1.4,3.4v8.8H93.7z"/>
						</defs>
						<clipPath id="SVGID_36_">
							<use xlink:href="#SVGID_35_"  overflow="visible"/>
						</clipPath>
						<g clip-path="url(#SVGID_36_)">
							<defs>
								<rect id="SVGID_37_" x="0" y="-0.9" width="126" height="127"/>
							</defs>
							<clipPath id="SVGID_38_">
								<use xlink:href="#SVGID_37_"  overflow="visible"/>
							</clipPath>
							<rect x="88.7" y="81.4" clip-path="url(#SVGID_38_)" width="23.5" height="25.6"/>
						</g>
					</g>
					<g clip-path="url(#SVGID_10_)">
						<defs>
							<path id="SVGID_39_" d="M110.1,94.2c0.1-2.4,0.9-4.3,2.4-5.7c1.6-1.4,3.4-2.2,5.4-2.2c1.3,0,2.5,0.3,3.8,0.9
								c1.2,0.6,2.2,1.6,3,2.8c0.8,1.3,1.2,2.8,1.2,4.5V95h-13.7c0.1,1.7,0.8,3,2,3.9c1.2,0.9,2.4,1.4,3.8,1.4c1.1,0,2.2-0.3,3.3-1
								c1.1-0.6,1.8-1.4,2.1-2.4h2.1c-0.5,1.2-1.1,2.2-1.9,3c-0.8,0.8-1.7,1.4-2.7,1.8c-1,0.4-2,0.6-3,0.5c-1.4-0.1-2.6-0.4-3.8-1.1
								c-1.2-0.7-2.2-1.6-2.8-2.9C110.4,97.1,110.1,95.7,110.1,94.2z M123.9,93.2c-0.3-1.4-0.9-2.5-2-3.5c-1.1-1-2.4-1.4-3.8-1.4
								c-1.3,0-2.4,0.3-3.3,0.9c-0.9,0.6-1.5,1.3-1.9,2.1c-0.4,0.8-0.6,1.4-0.7,1.9H123.9z"/>
						</defs>
						<clipPath id="SVGID_40_">
							<use xlink:href="#SVGID_39_"  overflow="visible"/>
						</clipPath>
						<g clip-path="url(#SVGID_40_)">
							<defs>
								<rect id="SVGID_41_" x="0" y="-0.9" width="126" height="127"/>
							</defs>
							<clipPath id="SVGID_42_">
								<use xlink:href="#SVGID_41_"  overflow="visible"/>
							</clipPath>
							<rect x="105.1" y="81.3" clip-path="url(#SVGID_42_)" width="25.8" height="25.9"/>
						</g>
					</g>
				</g>
			</g>
		</g>
	</g>
</g>
</svg>
