<?xml version="1.0" encoding="utf-8"?>
<!-- Generator: Adobe Illustrator 21.1.0, SVG Export Plug-In . SVG Version: 6.00 Build 0)  -->
<svg version="1.0" id="Layer_1" xmlns="http://www.w3.org/2000/svg" xmlns:xlink="http://www.w3.org/1999/xlink" x="0px" y="0px"
	 viewBox="0 0 246 49" enable-background="new 0 0 246 49" xml:space="preserve">
<g>
	<g>
		<defs>
			<path id="SVGID_1_" d="M49.2,30.6c-3.4,0-6.1-2.8-6.1-6.1c0-3.4,2.8-6.1,6.1-6.1c3.4,0,6.1,2.7,6.1,6.1
				C55.3,27.9,52.6,30.6,49.2,30.6z"/>
		</defs>
		<clipPath id="SVGID_2_">
			<use xlink:href="#SVGID_1_"  overflow="visible"/>
		</clipPath>
		<g clip-path="url(#SVGID_2_)">
			<defs>
				<rect id="SVGID_3_" x="-911" y="-2554" width="1440" height="4673"/>
			</defs>
			<clipPath id="SVGID_4_">
				<use xlink:href="#SVGID_3_"  overflow="visible"/>
			</clipPath>
			<rect x="38.1" y="13.4" clip-path="url(#SVGID_4_)" width="22.3" height="22.2"/>
		</g>
	</g>
	<g>
		<defs>
			<path id="SVGID_5_" d="M38.5,24.5c0-5.9,4.8-10.7,10.8-10.7c5.9,0,10.8,4.8,10.8,10.7s-4.8,10.7-10.8,10.7
				C43.3,35.2,38.5,30.4,38.5,24.5 M64.6,24.5c0-8.5-6.9-15.3-15.4-15.3c-8.5,0-15.4,6.9-15.4,15.3c0,8.5,6.9,15.3,15.4,15.3
				C57.7,39.8,64.6,32.9,64.6,24.5"/>
		</defs>
		<clipPath id="SVGID_6_">
			<use xlink:href="#SVGID_5_"  overflow="visible"/>
		</clipPath>
		<g clip-path="url(#SVGID_6_)">
			<defs>
				<rect id="SVGID_7_" x="-911" y="-2554" width="1440" height="4673"/>
			</defs>
			<clipPath id="SVGID_8_">
				<use xlink:href="#SVGID_7_"  overflow="visible"/>
			</clipPath>
			<rect x="28.8" y="4.2" clip-path="url(#SVGID_8_)" width="40.7" height="40.6"/>
		</g>
	</g>
	<g>
		<defs>
			<path id="SVGID_9_" d="M75.6,11.3C68.4,5.8,61,0,49.2,0C37.4,0,30,5.8,22.8,11.3c-2.7,2.1-5.3,4.1-8.1,5.8
				c-1,0.6-2.1,1.2-3.1,1.6c2.6,0.8,4.9,1.9,7.1,3.1c2.8-1.8,5.4-3.7,7.9-5.7c6.7-5.2,13-10.1,22.7-10.1c9.7,0,16,4.9,22.6,10
				c7.2,5.6,14.7,11.1,26.6,11.1v-5.5C88.7,21.7,82.3,16.5,75.6,11.3"/>
		</defs>
		<clipPath id="SVGID_10_">
			<use xlink:href="#SVGID_9_"  overflow="visible"/>
		</clipPath>
		<g clip-path="url(#SVGID_10_)">
			<defs>
				<rect id="SVGID_11_" x="-911" y="-2554" width="1440" height="4673"/>
			</defs>
			<clipPath id="SVGID_12_">
				<use xlink:href="#SVGID_11_"  overflow="visible"/>
			</clipPath>
			<rect x="6.6" y="-5" clip-path="url(#SVGID_12_)" width="96.8" height="37.2"/>
		</g>
	</g>
	<g>
		<defs>
			<path id="SVGID_13_" d="M79.8,27.1c-2.8,1.8-5.4,3.8-7.9,5.7c-6.7,5.2-13,10.1-22.7,10.1c-9.7,0-16-4.9-22.7-10
				C19.3,27.2,11.9,21.6,0,21.6v5.5c9.8,0,16.1,5.3,22.8,10.5C30,43.2,37.4,49,49.2,49s19.2-5.8,26.4-11.4c2.7-2.1,5.3-4.1,8.1-5.8
				c1.1-0.6,2.1-1.2,3.2-1.7C84.3,29.3,81.9,28.3,79.8,27.1"/>
		</defs>
		<clipPath id="SVGID_14_">
			<use xlink:href="#SVGID_13_"  overflow="visible"/>
		</clipPath>
		<g clip-path="url(#SVGID_14_)">
			<defs>
				<rect id="SVGID_15_" x="-911" y="-2554" width="1440" height="4673"/>
			</defs>
			<clipPath id="SVGID_16_">
				<use xlink:href="#SVGID_15_"  overflow="visible"/>
			</clipPath>
			<rect x="-5" y="16.6" clip-path="url(#SVGID_16_)" width="96.9" height="37.4"/>
		</g>
	</g>
	<g>
		<defs>
			<path id="SVGID_17_" d="M129,38.8c7.5,0,13.6-6.3,13.6-14.6c0-8-6.1-14.1-13.6-14.1c-7.5,0-13.7,6.1-13.7,14.1
				C115.3,32.5,121.5,38.8,129,38.8 M129,5.5c10.7,0,18.9,8.2,18.9,18.8c0,10.9-8.3,19.3-18.9,19.3c-10.7,0-19-8.4-19-19.3
				C110,13.6,118.3,5.5,129,5.5"/>
		</defs>
		<clipPath id="SVGID_18_">
			<use xlink:href="#SVGID_17_"  overflow="visible"/>
		</clipPath>
		<g clip-path="url(#SVGID_18_)">
			<defs>
				<rect id="SVGID_19_" x="-911" y="-2554" width="1440" height="4673"/>
			</defs>
			<clipPath id="SVGID_20_">
				<use xlink:href="#SVGID_19_"  overflow="visible"/>
			</clipPath>
			<rect x="105" y="0.5" clip-path="url(#SVGID_20_)" width="48" height="48.1"/>
		</g>
	</g>
	<g>
		<defs>
			<path id="SVGID_21_" d="M153.8,16.5h4.9V20c0,1-0.1,1.9-0.1,1.9h0.1c1-2.3,4.2-6.1,9.9-6.1c6.2,0,9.1,3.4,9.1,10.1v16.9h-5.1
				V27.2c0-3.7-0.8-6.6-5-6.6c-4,0-7.3,2.7-8.4,6.5c-0.3,1-0.4,2.2-0.4,3.5v12.4h-5.1V16.5z"/>
		</defs>
		<clipPath id="SVGID_22_">
			<use xlink:href="#SVGID_21_"  overflow="visible"/>
		</clipPath>
		<g clip-path="url(#SVGID_22_)">
			<defs>
				<rect id="SVGID_23_" x="-911" y="-2554" width="1440" height="4673"/>
			</defs>
			<clipPath id="SVGID_24_">
				<use xlink:href="#SVGID_23_"  overflow="visible"/>
			</clipPath>
			<rect x="148.8" y="10.9" clip-path="url(#SVGID_24_)" width="34" height="37"/>
		</g>
	</g>
	<g>
		<defs>
			<path id="SVGID_25_" d="M185.7,34.8c0,0,3.9,4,9.4,4c3.5,0,6.4-1.9,6.4-5.4c0-8-17.9-6.3-17.9-17.6c0-5.7,5-10.3,11.9-10.3
				c6.9,0,10.5,3.7,10.5,3.7l-2.4,4.3c0,0-3.4-3.2-8.1-3.2c-3.9,0-6.7,2.5-6.7,5.4c0,7.6,17.9,5.6,17.9,17.5
				c0,5.7-4.4,10.4-11.7,10.4c-7.8,0-12.2-4.9-12.2-4.9L185.7,34.8z"/>
		</defs>
		<clipPath id="SVGID_26_">
			<use xlink:href="#SVGID_25_"  overflow="visible"/>
		</clipPath>
		<g clip-path="url(#SVGID_26_)">
			<defs>
				<rect id="SVGID_27_" x="-911" y="-2554" width="1440" height="4673"/>
			</defs>
			<clipPath id="SVGID_28_">
				<use xlink:href="#SVGID_27_"  overflow="visible"/>
			</clipPath>
			<rect x="177.8" y="0.5" clip-path="url(#SVGID_28_)" width="34" height="48.1"/>
		</g>
	</g>
	<g>
		<defs>
			<path id="SVGID_29_" d="M213.2,34.8c0,0,3.9,4,9.4,4c3.5,0,6.4-1.9,6.4-5.4c0-8-17.9-6.3-17.9-17.6c0-5.7,5-10.3,11.9-10.3
				c6.9,0,10.5,3.7,10.5,3.7l-2.4,4.3c0,0-3.4-3.2-8.1-3.2c-3.9,0-6.7,2.5-6.7,5.4c0,7.6,17.9,5.6,17.9,17.5
				c0,5.7-4.4,10.4-11.7,10.4c-7.8,0-12.2-4.9-12.2-4.9L213.2,34.8z"/>
		</defs>
		<clipPath id="SVGID_30_">
			<use xlink:href="#SVGID_29_"  overflow="visible"/>
		</clipPath>
		<g clip-path="url(#SVGID_30_)">
			<defs>
				<rect id="SVGID_31_" x="-911" y="-2554" width="1440" height="4673"/>
			</defs>
			<clipPath id="SVGID_32_">
				<use xlink:href="#SVGID_31_"  overflow="visible"/>
			</clipPath>
			<rect x="205.2" y="0.5" clip-path="url(#SVGID_32_)" width="34" height="48.1"/>
		</g>
	</g>
	<g>
		<g>
			<g>
				<defs>
					<rect id="SVGID_33_" x="240" y="6" width="6" height="37"/>
				</defs>
				<clipPath id="SVGID_34_">
					<use xlink:href="#SVGID_33_"  overflow="visible"/>
				</clipPath>
				<g clip-path="url(#SVGID_34_)">
					<defs>
						<rect id="SVGID_35_" x="240.6" y="6.1" width="5.2" height="36.8"/>
					</defs>
					<clipPath id="SVGID_36_">
						<use xlink:href="#SVGID_35_"  overflow="visible"/>
					</clipPath>
					<g clip-path="url(#SVGID_36_)">
						<defs>
							<rect id="SVGID_37_" x="0" width="246" height="49"/>
						</defs>
						<clipPath id="SVGID_38_">
							<use xlink:href="#SVGID_37_"  overflow="visible"/>
						</clipPath>
						<rect x="235.6" y="1.1" clip-path="url(#SVGID_38_)" width="15.2" height="46.8"/>
					</g>
				</g>
			</g>
		</g>
	</g>
</g>
</svg>
