<?xml version="1.0" encoding="utf-8"?>
<!-- Generator: Adobe Illustrator 21.1.0, SVG Export Plug-In . SVG Version: 6.00 Build 0)  -->
<svg version="1.0" id="Layer_1" xmlns="http://www.w3.org/2000/svg" xmlns:xlink="http://www.w3.org/1999/xlink" x="0px" y="0px"
	 viewBox="0 0 246.9 72.6" enable-background="new 0 0 246.9 72.6" xml:space="preserve">
<g>
	<g>
		<defs>
			<path id="SVGID_1_" d="M47.4,53.5h-5.2v-6.6h5.2v-6.1h9.2v6.1H71v6.6H56.6v8.7c0,1.3,0.3,2.3,0.8,2.8c0.5,0.5,1.5,0.8,2.7,0.8
				c1.5,0,2.5-0.3,3.1-0.8c0.6-0.5,0.9-1.5,0.9-2.9c0-0.3,0-0.7-0.1-1.3c0-0.1,0-0.1,0-0.1h8.1c0,0.3,0.1,0.6,0.1,0.9
				c0,0.3,0,0.8,0,1.3c0,3.5-1,6-3,7.5c-2,1.5-5.3,2.3-9.9,2.3c-4.4,0-7.5-0.7-9.2-2c-1.8-1.3-2.7-3.6-2.7-6.8V53.5z"/>
		</defs>
		<clipPath id="SVGID_2_">
			<use xlink:href="#SVGID_1_"  overflow="visible"/>
		</clipPath>
		<g clip-path="url(#SVGID_2_)">
			<defs>
				<rect id="SVGID_3_" x="-588.6" y="-2290.8" width="1440" height="4673"/>
			</defs>
			<clipPath id="SVGID_4_">
				<use xlink:href="#SVGID_3_"  overflow="visible"/>
			</clipPath>
			<rect x="37.3" y="35.8" clip-path="url(#SVGID_4_)" fill="#3A73B9" width="40" height="41.9"/>
		</g>
	</g>
	<g>
		<defs>
			<path id="SVGID_5_" d="M100,63.8h8.6v0.4c0,3-0.9,5.1-2.7,6.4c-1.8,1.3-4.8,2-9,2h-8.5c-3.8,0-6.8-0.8-8.8-2.4c-2-1.6-3-3.9-3-7
				v-6.9c0-3.2,1-5.6,3-7.3c2-1.7,4.9-2.5,8.8-2.5h8.6c3.8,0,6.8,0.8,8.8,2.5c2,1.7,3,4.1,3,7.3v5.4h-23c0,0.1,0,0.2,0,0.4
				c0,0.2,0,0.3,0,0.3c0,1.5,0.4,2.5,1.3,3.2c0.8,0.6,2.2,1,4.2,1h3.9c2,0,3.3-0.2,3.9-0.6C99.4,65.6,99.8,64.9,100,63.8z
				 M85.6,56.2h14.1v-0.1c0-1.2-0.4-2.1-1.2-2.6c-0.8-0.5-2.1-0.8-4-0.8h-3.8c-1.9,0-3.3,0.3-4,0.8C86,54.1,85.6,54.9,85.6,56.2
				L85.6,56.2z"/>
		</defs>
		<clipPath id="SVGID_6_">
			<use xlink:href="#SVGID_5_"  overflow="visible"/>
		</clipPath>
		<g clip-path="url(#SVGID_6_)">
			<defs>
				<rect id="SVGID_7_" x="-588.6" y="-2290.8" width="1440" height="4673"/>
			</defs>
			<clipPath id="SVGID_8_">
				<use xlink:href="#SVGID_7_"  overflow="visible"/>
			</clipPath>
			<rect x="71.5" y="41.5" clip-path="url(#SVGID_8_)" fill="#3A73B9" width="42.2" height="36.1"/>
		</g>
	</g>
	<g>
		<defs>
			<path id="SVGID_9_" d="M126.2,72.6c-4.3,0-7.4-0.7-9.3-2.2c-1.9-1.5-2.8-3.8-2.8-7.2v-6.9c0-3.7,0.9-6.2,2.7-7.7
				c1.8-1.4,5-2.2,9.5-2.2h8.7c4.2,0,7.3,0.7,9.3,2.1c2,1.4,3,3.6,3,6.6c0,0.3,0,0.7,0,1c0,0.3-0.1,0.7-0.1,1.1h-8.7v-0.1
				c0-1.3-0.4-2.3-1.2-2.9c-0.8-0.6-2.1-0.9-3.9-0.9h-4.5c-2.1,0-3.5,0.3-4.3,1c-0.8,0.7-1.2,1.9-1.2,3.7v3.3c0,1.6,0.4,2.8,1.3,3.4
				c0.8,0.7,2.3,1,4.3,1h4c2.3,0,3.8-0.3,4.5-0.9c0.7-0.6,1.1-1.7,1.1-3.3h9.1c0,0.2,0,0.4,0,0.6c0,0.2,0,0.5,0,1
				c0,3.4-0.9,5.8-2.8,7.3c-1.9,1.4-5.1,2.2-9.7,2.2H126.2z"/>
		</defs>
		<clipPath id="SVGID_10_">
			<use xlink:href="#SVGID_9_"  overflow="visible"/>
		</clipPath>
		<g clip-path="url(#SVGID_10_)">
			<defs>
				<rect id="SVGID_11_" x="-588.6" y="-2290.8" width="1440" height="4673"/>
			</defs>
			<clipPath id="SVGID_12_">
				<use xlink:href="#SVGID_11_"  overflow="visible"/>
			</clipPath>
			<rect x="109" y="41.5" clip-path="url(#SVGID_12_)" fill="#3A73B9" width="43.5" height="36.1"/>
		</g>
	</g>
	<g>
		<defs>
			<path id="SVGID_13_" d="M165.4,72.6c-4.6,0-7.9-0.7-9.8-2.2c-2-1.4-2.9-3.8-2.9-7.2v-6.9c0-3.6,1-6.2,2.9-7.7
				c1.9-1.5,5.2-2.2,9.8-2.2h9.2c4.5,0,7.7,0.7,9.7,2.2c2,1.5,3,3.9,3,7.3v7.1c0,3.4-1,5.9-2.9,7.3c-1.9,1.5-5.2,2.2-9.8,2.2H165.4z
				 M167.8,65.8h4.3c2.2,0,3.7-0.3,4.6-1c0.9-0.7,1.3-1.8,1.3-3.5v-3.4c0-1.6-0.5-2.8-1.4-3.5c-0.9-0.7-2.4-1-4.6-1h-4.3
				c-2.3,0-3.8,0.3-4.7,1c-0.9,0.7-1.3,1.9-1.3,3.6v3.3c0,1.6,0.5,2.8,1.4,3.4C164.1,65.4,165.6,65.8,167.8,65.8z"/>
		</defs>
		<clipPath id="SVGID_14_">
			<use xlink:href="#SVGID_13_"  overflow="visible"/>
		</clipPath>
		<g clip-path="url(#SVGID_14_)">
			<defs>
				<rect id="SVGID_15_" x="-588.6" y="-2290.8" width="1440" height="4673"/>
			</defs>
			<clipPath id="SVGID_16_">
				<use xlink:href="#SVGID_15_"  overflow="visible"/>
			</clipPath>
			<rect x="147.6" y="41.5" clip-path="url(#SVGID_16_)" fill="#3A73B9" width="44.6" height="36.1"/>
		</g>
	</g>
	<g>
		<defs>
			<path id="SVGID_17_" d="M202.6,72.3h-9.2V47h9.2v3.9c1-1.6,2.2-2.7,3.7-3.3c1.5-0.7,3.6-1,6.4-1c3.3,0,5.8,0.5,7.6,1.4
				c1.8,0.9,3,2.4,3.6,4.4c0.9-2,2.1-3.5,3.8-4.4c1.7-0.9,3.9-1.4,6.7-1.4c4.3,0,7.4,0.8,9.5,2.3c2.1,1.5,3.1,3.8,3.1,7v16.4h-9.2
				V59.5c0-2.3-0.4-3.7-1.3-4.4c-0.9-0.7-2.6-1.1-5-1.1c-2.3,0-3.9,0.5-4.9,1.4c-1,0.9-1.5,2.4-1.5,4.4v12.5h-9.2V59.5
				c0-2.3-0.5-3.7-1.4-4.4c-0.9-0.7-2.6-1.1-5.2-1.1c-2.3,0-4,0.5-5,1.4c-1,0.9-1.6,2.4-1.6,4.4V72.3z"/>
		</defs>
		<clipPath id="SVGID_18_">
			<use xlink:href="#SVGID_17_"  overflow="visible"/>
		</clipPath>
		<g clip-path="url(#SVGID_18_)">
			<defs>
				<rect id="SVGID_19_" x="-588.6" y="-2290.8" width="1440" height="4673"/>
			</defs>
			<clipPath id="SVGID_20_">
				<use xlink:href="#SVGID_19_"  overflow="visible"/>
			</clipPath>
			<rect x="188.5" y="41.6" clip-path="url(#SVGID_20_)" fill="#3A73B9" width="63.5" height="35.7"/>
		</g>
	</g>
	<g>
		<g>
			<g>
				<g>
					<defs>
						<path id="SVGID_21_" d="M26.2,0H4.5C2,0,0,2,0,4.5v16.7c0,2.5,2,4.5,4.5,4.5h21.7c2.5,0,4.5-2,4.5-4.5V4.5
							C30.7,2,28.7,0,26.2,0z M4.5,21.2h21.7V4.5H4.5V21.2z"/>
					</defs>
					<clipPath id="SVGID_22_">
						<use xlink:href="#SVGID_21_"  overflow="visible"/>
					</clipPath>
					<g clip-path="url(#SVGID_22_)">
						<defs>
							<rect id="SVGID_23_" y="-0.2" width="247" height="73"/>
						</defs>
						<clipPath id="SVGID_24_">
							<use xlink:href="#SVGID_23_"  overflow="visible"/>
						</clipPath>
						<rect x="-5" y="-5" clip-path="url(#SVGID_24_)" fill="#3A73B9" width="40.7" height="35.7"/>
					</g>
				</g>
				<g>
					<defs>
						<path id="SVGID_25_" d="M36.5,40.2H14.8c-2.5,0-4.5-2-4.5-4.5v-9.9h4.5v9.9h21.7V19h-5.8v-4.5h5.8c2.5,0,4.5,2,4.5,4.5v16.7
							C41,38.1,39,40.2,36.5,40.2 M14.8,21.2h-4.5V19c0-2.5,2-4.5,4.5-4.5h11.4V19H14.8V21.2"/>
					</defs>
					<clipPath id="SVGID_26_">
						<use xlink:href="#SVGID_25_"  overflow="visible"/>
					</clipPath>
					<g clip-path="url(#SVGID_26_)">
						<defs>
							<rect id="SVGID_27_" y="-0.2" width="247" height="73"/>
						</defs>
						<clipPath id="SVGID_28_">
							<use xlink:href="#SVGID_27_"  overflow="visible"/>
						</clipPath>
						<rect x="5.3" y="9.4" clip-path="url(#SVGID_28_)" fill="#3A73B9" width="40.7" height="35.7"/>
					</g>
				</g>
				<g>
					<defs>
						<path id="SVGID_29_" d="M10.3,25.7h4.5v-4.5h-4.5V25.7z M26.2,19h4.5v-4.5h-4.5V19z"/>
					</defs>
					<clipPath id="SVGID_30_">
						<use xlink:href="#SVGID_29_"  overflow="visible"/>
					</clipPath>
					<g clip-path="url(#SVGID_30_)">
						<defs>
							<rect id="SVGID_31_" y="-0.2" width="247" height="73"/>
						</defs>
						<clipPath id="SVGID_32_">
							<use xlink:href="#SVGID_31_"  overflow="visible"/>
						</clipPath>
						<rect x="5.3" y="9.4" clip-path="url(#SVGID_32_)" fill="#3A73B9" width="30.4" height="21.3"/>
					</g>
				</g>
				<g>
					<defs>
						<path id="SVGID_33_" d="M26.2,28.9H4.5c-2.5,0-4.5,2-4.5,4.5v16.7c0,2.5,2,4.5,4.5,4.5h21.7c2.5,0,4.5-2,4.5-4.5V33.4
							C30.7,30.9,28.7,28.9,26.2,28.9 M26.2,33.4L26.2,33.4v16.7H4.5V33.4H26.2"/>
					</defs>
					<clipPath id="SVGID_34_">
						<use xlink:href="#SVGID_33_"  overflow="visible"/>
					</clipPath>
					<g clip-path="url(#SVGID_34_)">
						<defs>
							<rect id="SVGID_35_" y="-0.2" width="247" height="73"/>
						</defs>
						<clipPath id="SVGID_36_">
							<use xlink:href="#SVGID_35_"  overflow="visible"/>
						</clipPath>
						<rect x="-5" y="23.9" clip-path="url(#SVGID_36_)" fill="#3A73B9" width="40.7" height="35.7"/>
					</g>
				</g>
			</g>
		</g>
	</g>
</g>
</svg>
