<?xml version="1.0" encoding="utf-8"?>
<!-- Generator: Adobe Illustrator 21.0.2, SVG Export Plug-In . SVG Version: 6.00 Build 0)  -->
<svg version="1.0" id="Layer_1" xmlns="http://www.w3.org/2000/svg" xmlns:xlink="http://www.w3.org/1999/xlink" x="0px" y="0px"
	 viewBox="0 0 210 80" enable-background="new 0 0 210 80" xml:space="preserve">
<g>
	<g>
		<path fill="#ACACAD" d="M116.5,67.3h42c3.5,0,6.4-2.9,6.4-6.4V17.7c0-3.5-2.9-6.4-6.4-6.4h-43.1c-3.5,0-6.4,2.9-6.4,6.4v23.1
			c0,4.1,3.4,6.4,7.6,6.4H146c1.6,0,3,1.3,3,3l0,0c0,1.6-1.3,3-3,3h-29.5c-3.7,0-6.8,2.7-6.9,7.1C109.5,64.5,112.2,67.3,116.5,67.3
			L116.5,67.3z M94,10.1c4.6,0,8.3,3.7,8.3,8.3c0,4.6-3.7,8.3-8.3,8.3s-8.3-3.7-8.3-8.3C85.7,13.9,89.4,10.1,94,10.1L94,10.1z
			 M73.6,10.1c4.6,0,8.3,3.7,8.3,8.3c0,4.6-3.7,8.3-8.3,8.3c-4.6,0-8.3-3.7-8.3-8.3C65.3,13.9,69.1,10.1,73.6,10.1L73.6,10.1z
			 M53.3,10.1c4.6,0,8.3,3.7,8.3,8.3c0,4.6-3.7,8.3-8.3,8.3c-4.6,0-8.3-3.7-8.3-8.3C45,13.9,48.7,10.1,53.3,10.1L53.3,10.1z
			 M94,31.7c4.6,0,8.3,3.7,8.3,8.3c0,4.6-3.7,8.3-8.3,8.3s-8.3-3.7-8.3-8.3C85.7,35.4,89.4,31.7,94,31.7L94,31.7z M73.6,31.7
			c4.6,0,8.3,3.7,8.3,8.3c0,4.6-3.7,8.3-8.3,8.3c-4.6,0-8.3-3.7-8.3-8.3C65.3,35.4,69.1,31.7,73.6,31.7L73.6,31.7z M53.3,31.7
			c4.6,0,8.3,3.7,8.3,8.3c0,4.6-3.7,8.3-8.3,8.3c-4.6,0-8.3-3.7-8.3-8.3C45,35.4,48.7,31.7,53.3,31.7L53.3,31.7z M94,53.3
			c4.6,0,8.3,3.7,8.3,8.3s-3.7,8.3-8.3,8.3s-8.3-3.7-8.3-8.3S89.4,53.3,94,53.3L94,53.3z M73.6,53.3c4.6,0,8.3,3.7,8.3,8.3
			s-3.7,8.3-8.3,8.3c-4.6,0-8.3-3.7-8.3-8.3S69.1,53.3,73.6,53.3L73.6,53.3z M53.3,53.3c4.6,0,8.3,3.7,8.3,8.3s-3.7,8.3-8.3,8.3
			c-4.6,0-8.3-3.7-8.3-8.3S48.7,53.3,53.3,53.3L53.3,53.3z M126.1,25.7h20c1.6,0,3,1.3,3,3l0,0c0,1.6-1.3,3-3,3h-20
			c-1.6,0-3-1.3-3-3l0,0C123.1,27.1,124.4,25.7,126.1,25.7L126.1,25.7z"/>
	</g>
</g>
</svg>
