<?xml version="1.0" encoding="utf-8"?>
<!-- Generator: Adobe Illustrator 21.0.2, SVG Export Plug-In . SVG Version: 6.00 Build 0)  -->
<svg version="1.0" id="Layer_1" xmlns="http://www.w3.org/2000/svg" xmlns:xlink="http://www.w3.org/1999/xlink" x="0px" y="0px"
	 viewBox="0 0 210 80" enable-background="new 0 0 210 80" xml:space="preserve">
<g>
	<g>
		<path fill="#ACACAD" d="M28.9,24l-2.2,5.8l-0.5,1l-0.4,1l-0.4,1l-0.4,0.9l-0.4,0.9l-0.4,0.9l-0.4,0.8L23.3,37l-0.4,0.7l-0.4,0.7
			l-0.4,0.7l-0.3,0.6l-0.3,0.6l-0.3,0.6l-0.3,0.5l-0.3,0.5l-3.2,5.5l-0.3,0.6l-0.3,0.6L16.5,49l-0.3,0.5L16,50.1l-0.2,0.5L15.6,51
			l-0.1,0.5l-0.2,0.4l-0.1,0.4l-0.1,0.4l0,0.4l0,0.3v0.3l0,0.3l0,0.3l0.8,4.1L16,59l0.2,0.4l0.2,0.3l0.2,0.3l0.2,0.3l0.2,0.3
			l0.5,0.6l0.2,0.2l0.3,0.3l0.3,0.2l0.3,0.2l0.3,0.2l0.3,0.2l0.3,0.2l0.4,0.2L20,63l0.3,0.1l0.5,0.2l1,0.4l0.2,0.1l0.1,0l0.1,0.1
			l0.5,0.2l1,0.4l1,0.3l0.2,0.1l0.3,0.1l0.5,0.2l1,0.3l1,0.3l1,0.2l1,0.2l1,0.2l1,0.2l1,0.1l1,0.1l1,0l1,0l10.9-1.2l0.5,0h0.5l0.5,0
			h0.5l0.5,0l0.1,0h0.1h0.2l0.9,0l0.8-0.1l0.8-0.1l0.8-0.1l0.2,0l0.1,0h0.1l0.4,0l0.7-0.1l0.3-0.1l0.3,0l0.3-0.1l0.3-0.1l0.3-0.1
			l0.3-0.1l0.3-0.1l0.3-0.1l0.5-0.2l0.5-0.2l0.2-0.1l0,0l0.1,0l0.1,0l5.4-2.6l0.7-0.4l0.7-0.4l0.3-0.2l0.2-0.1l0.2-0.1l0.6-0.4
			l0.6-0.5l0.3-0.2l0.3-0.2l0.5-0.5l0.5-0.5l3.2-3.4l0.1-0.2l0.1-0.2l0-0.1l0,0l0.1-0.1l0.1-0.2l0.2-0.4l0.2-0.4l0.2-0.5l0.1-0.2
			l0-0.1l0-0.1l0,0l0.1-0.5v-0.1l0-0.1l0-0.1l0.1-0.2v-0.5l0-0.2v-0.2l0-0.3l0-0.1v-0.1v-0.1l0-0.3l0-0.3l-0.1-0.6l-0.1-0.3l0-0.3
			l-0.1-0.3l-0.1-0.3l-0.2-0.7l-0.1-0.2l0-0.2l-0.1-0.4l-0.2-0.8l-0.2-0.8l-0.1-0.4l-0.1-0.4L71.1,43l-0.1-0.5l-0.1-0.2l0-0.1l0-0.1
			l-0.2-0.5l-0.2-0.5l-0.2-0.5l-0.2-0.5L70,39.9l-0.1-0.2l-1.5-5.4l-0.3-1l-0.3-0.9l-0.3-0.8l-0.3-0.7l-0.3-0.7l-0.3-0.6l-0.3-0.5
			l-0.3-0.3l-1-1.2l-1-1.2L63,25.2l-1.1-1l-1.1-1l-1.1-0.9l-0.6-0.5l-0.5-0.4l-0.6-0.4l-0.5-0.4l-5.4-3.3l-0.9-0.6l-1-0.5l-1-0.5
			l-1.1-0.5L47,14.6l-1.2-0.4l-1.3-0.4l-1.3-0.4l-5.8-0.3l-0.7,0.2L36,13.7l-0.4,0.2l-0.4,0.3l-0.7,0.6l-0.7,0.7l-0.4,0.3l-0.4,0.4
			l-0.4,0.4L32.4,17L32,17.4l-0.4,0.5l-0.3,0.4l-0.2,0.2L31,18.9l-0.2,0.3l-0.2,0.3l-0.3,0.7L30,21l-0.4,0.9l-0.2,0.5l-0.2,0.5
			L28.9,24L28.9,24L28.9,24z M37.7,19l0.2-0.5l0.2-0.4l0.2-0.4l0.3-0.3l0.3-0.3l0.3-0.2l0.3-0.2l0.3-0.2l0.3-0.1l0.4,0l0.4,0l0.2,0
			l0.3,0l0.5,0.1l0.3,0.1l0.3,0.1l0.3,0.1l0.3,0.1l0.3,0.1l0.3,0.1l0.7,0.2l0.7,0.3l0.7,0.3l0.7,0.4l0.3,0.2l0.3,0.2l0.7,0.4
			l0.3,0.2l0.3,0.3l0.7,0.5l9.3,9.6l5.6,7.5l0.3,0.5l0.1,0.1l0,0.1l0,0.1l0.2,0.3l0.1,0.2l0.1,0.1l0,0.1l0,0.1l0.1,0.2l0.1,0.1
			l0,0.1l0,0.1l0.2,0.5l0.2,0.5l0.2,0.4l0.2,0.4l0.2,0.4l0.1,0.4l0.1,0.3l0,0.2l0.1,0.2l0,0.1l0,0.2l0.1,0.3l0,0.2l0,0.2l0,0.5
			l0,0.2l0,0.3l0,0.5v0.1l0,0.1l0,0.2v0.2l0,0.2l0,0.4v0.2l0,0.2l0,0.3v0.3v0.1v0.1v0l0,0v0.2v0.2l0,0.1v0.1v0.1h0v0v0v0.1v0.1
			l-0.2,0.4l-0.2,0.4l-0.2,0.4l-0.1,0.2L66.2,50l-0.3,0.4l-0.3,0.4l-0.3,0.4L65,51.5l-0.3,0.3L64.5,52l-0.2,0.2l-0.4,0.3l-0.4,0.3
			l-0.4,0.3l-0.4,0.3l-0.5,0.3l-0.5,0.3l-4.5,3.3l-4.8,2.7l-5.4,1.6l-3.9,0.8L36.5,64l-0.6,0l-0.6,0l-0.6,0l-0.5,0l-0.5-0.1l-0.5,0
			l-0.5-0.1l-0.4-0.1l-0.5-0.1l-0.4-0.1L31,63.4l-0.4-0.1l-0.4-0.1l-0.3-0.1L29.6,63l-0.3-0.1l-2.5-2l-0.3-0.4l-0.3-0.4L26,59.6
			l-0.2-0.5l-0.2-0.6l-0.2-0.6l-0.2-0.7l-0.1-0.7l-0.1-0.4l0-0.4L25,55l0-0.8l0-0.4l0-0.4V53l0-0.4l0.1-0.8l0-0.4l0.1-0.4l0.2-0.8
			l1.2-4.4L31,33.9L35.9,23L37.7,19L37.7,19L37.7,19z"/>
	</g>
	<g>
		<path fill="#ACACAD" d="M38.4,25l-3,6l-3.6,11.9l-1.5,3.4L30.2,47l-0.2,0.6l-0.2,0.6l-0.2,0.6l-0.3,1.2l-0.1,1.2l0,0.6l0,0.6
			l0,0.6l0,0.6l0,0.6l0.1,0.6l0.1,0.6l0.2,0.6l0.1,0.3l0.1,0.3l0.1,0.3l0.2,0.3l0.2,0.3l0.2,0.3l0.2,0.2l0.3,0.2l0.3,0.2l0.3,0.2
			l0.3,0.2l0.3,0.2l0.3,0.2l0.4,0.2l0.4,0.1l0.4,0.1l8.7-0.2l0.7-0.1l0.7-0.1l0.2,0l0.1,0h0.1l0.3,0l0.2,0l0.1,0h0.1l0.3,0l0.3-0.1
			l0.2,0l0.1,0h0.1l0.3-0.1l0.2,0l0.1,0h0.1l0.6-0.1l0.6-0.1l0.6-0.2l0.6-0.2l0.5-0.2l0.5-0.2l0.5-0.2l0.5-0.2l0.5-0.2l0.5-0.2
			l4.3-3.2l0.6-0.4l0.5-0.4l0.5-0.4l0.5-0.4l0.4-0.4l0.4-0.3l0.4-0.3l0.4-0.3L60,51l0.3-0.3l0.3-0.3l0.2-0.2l0.2-0.2l0.2-0.2
			l0.1-0.2l0.1-0.2l0.1-0.3l0.1-0.3l0-0.3l0-0.3v-0.4l0-0.2v-0.2l0-0.2l0-0.1v-0.1l0-0.2l0-0.2l-0.1-0.5l-0.1-0.6l-0.1-0.6l0-0.1
			l0-0.1l0-0.2L61,44l-0.1-0.3l0-0.2l0-0.2L60.7,43l0-0.2l0-0.2l-0.1-0.4l-0.1-0.4l-0.1-0.4L60.2,41L60,40.3l-0.2-0.7l-0.2-0.7
			l-0.2-0.6l-0.2-0.6L59,37.1l-0.2-0.5l-0.2-0.4l-3-4.2L54.7,31l-0.9-1l-1-1l-0.5-0.5l-0.5-0.5l-0.5-0.5L50.7,27l-1.1-0.9l-1.1-0.9
			l-1.1-0.8L46.6,24l-0.7-0.4l-0.7-0.4l-0.6-0.3l-0.6-0.3l-0.5-0.3L43.1,22l-0.4-0.2l-0.4-0.2l-0.3-0.2l-0.3-0.1l-0.2-0.1L41.1,21
			L41,21l-0.1,0l-0.1,0l-0.1,0l-0.1,0.1l-0.1,0.1l-0.1,0.2l-0.1,0.2l-0.1,0.2l-0.3,0.5l-0.2,0.3l-0.2,0.3l-0.2,0.3l-0.2,0.3L39,23.8
			l-0.2,0.4l-0.2,0.4L38.4,25L38.4,25L38.4,25z M50.6,32.4l0.3,0.4l0.3,0.4l0.1,0.1l0,0l0,0.1l0.2,0.2l0.3,0.4l0.3,0.4l0.3,0.4
			l0.2,0.4l0.1,0.2l0.1,0.1l0,0l0,0.1l0.2,0.3l0,0l0,0l0.1,0.1l0.1,0.2l0.2,0.3l0.1,0.2l0.1,0.2l0.1,0.2l0.1,0.2l0.2,0.3l0.2,0.3
			l0.2,0.3l0.3,0.6l0.1,0.1l0.1,0.2l0.2,0.3l0.3,0.6l0.1,0.3l0.1,0.3l0.1,0.2l0.1,0.3l0.2,0.5l0.1,0.2l0,0l0,0.1l0.1,0.1l0.1,0.2
			l0,0l0,0.1l0.1,0.1l0.2,0.4l0.1,0.4l0.1,0.3l0,0.2l0.1,0.2l0,0.1l0,0.1l0,0.1l0,0.1l0,0.1l0,0.1v0l0,0.1l0,0.1l0,0.1l0,0.1l0,0.3
			l0,0.3l0,0.3l0,0.4l-0.1,0.3l-0.1,0.3l-0.2,0.3l-0.2,0.4l-0.2,0.3L56,48.2l-0.3,0.3l-0.3,0.4l-0.3,0.3l-0.4,0.4l-0.4,0.3l-0.4,0.4
			l-0.7,0.4l-0.7,0.4l-0.7,0.4L51.3,52L50,52.7l-0.6,0.3l-0.6,0.3L47.7,54l-0.5,0.3l-0.5,0.3l-0.5,0.2l-0.5,0.2l-0.5,0.2l-0.5,0.2
			L44,55.8l-0.7,0.3l-0.7,0.2l-0.6,0.2l-0.6,0.2l-0.6,0.2l-0.6,0.2l-0.5,0.2l-0.5,0.1l-0.5,0.1l-0.5,0.1l-0.4,0.1l-0.4,0l-0.4,0
			h-0.4l-0.3,0l-0.4-0.1l-0.3-0.1l-0.3-0.2l-0.2-0.1l-0.1-0.1L35,56.8l-0.1-0.2l-0.2-0.4l-0.2-0.5l-0.2-0.5l-0.2-0.9l-0.1-0.5l0-0.5
			l0-0.9l0-0.5l0.1-0.4l0.7-3.9l0.1-0.8l0.1-0.7l0.1-0.7l0.2-0.6l0.2-0.6l0.2-0.6l0.2-0.5l0.2-0.5l4.4-10.2l0.3-0.8l0.3-0.7l0.3-0.7
			l0.3-0.6l0.3-0.6l0.1-0.3l0.2-0.3l0.3-0.5l0.3-0.4l0.2-0.4l0.2-0.3l0.2-0.3l0.1-0.1l0.1-0.1l0.2-0.2l0.2-0.1l0.2-0.1l0.2,0l0.3,0
			l0.4,0.1l0.4,0.2l0.4,0.3l0.4,0.4l0.5,0.5l0.5,0.6l0.5,0.7L50.6,32.4L50.6,32.4L50.6,32.4z"/>
	</g>
	<g>
		<path fill="#ACACAD" d="M43.4,32.9l-0.2,0l-0.1,0l-0.1,0.1L43,33.2L43,33.3l-0.2,0.3l-0.2,0.3l-0.1,0.2l-0.1,0.2l-0.1,0.2
			l-0.1,0.3l-0.2,0.6l-1.4,3.8l-2.3,8.4L37.7,50l-0.1,0.2l0,0.2l0,0.3l0,0.3v0.1l0,0.1l0,0.2l0,0.1l0.1,0.1l0,0.1l0.1,0.1L38,52
			l2.2-0.3l3.1-1l4.6-2l4.7-2.4l0.1-0.2l0.1-0.2l0.1-0.2l0.1-0.2l0.1-0.2l0.1-0.2l0-0.2v-0.1l0-0.1l0-0.2l0-0.2L53.1,44l-0.1-0.2
			L53,43.5l-0.1-0.1l0-0.1L52.7,43l-0.1-0.3l-4.4-5.5l-0.4-0.5l-0.4-0.5L47,35.7l-0.4-0.4l-0.4-0.4L46,34.6l-0.3-0.3L45.4,34
			l-0.3-0.3l-0.3-0.2l-0.3-0.2l-0.2-0.1L44,33.1L43.8,33l-0.2,0L43.4,32.9L43.4,32.9L43.4,32.9z M42.2,45l1.4-3.5l1.2-2.2l0.4,0.2
			l0.4,0.3l0.4,0.3l0.4,0.3l1.9,2.2l0.8,2.3l0,0l0,0l-0.2,0.1l-0.1,0.1l-0.1,0.1l-0.2,0.1l-0.2,0.1l-0.2,0.1l-0.2,0.1l-0.2,0.1
			l-0.3,0.2l-0.3,0.2l-0.3,0.2l-0.3,0.2l-0.3,0.2l-4.4,1.9l0.2-1.6L42.2,45L42.2,45L42.2,45z"/>
	</g>
	<g>
		<polygon fill="#ACACAD" points="120.4,25.3 120,25.3 119.6,25.3 118.8,25.4 118.4,25.5 118.1,25.5 117.4,25.8 117,25.9 
			116.7,26.1 116.1,26.4 115.8,26.6 115.5,26.8 115,27.3 114.5,27.8 114.1,28.4 113.7,29 113.5,29.6 113.2,30.2 113.1,30.9 
			113,31.6 113,32 113,32.4 113,33.1 113,33.4 113.1,33.8 113.1,34.1 113.2,34.4 113.3,34.7 113.4,35 113.5,35.3 113.7,35.6 
			114,36.1 114.1,36.4 114.3,36.6 114.8,37.1 115.3,37.6 115.8,38 116.4,38.4 116.7,38.5 117.1,38.7 117.8,38.9 118.1,39 118.5,39 
			118.9,39.1 119.3,39.1 119.7,39.2 120.1,39.2 120.9,39.2 121.6,39.1 122.4,39 123.1,38.8 123.9,38.6 124.6,38.4 125.4,38.1 
			126.1,37.8 126.1,31.8 120.6,31.8 120.6,34.2 122,34.2 122,36.5 120.8,36.5 120.4,36.5 120.1,36.5 119.7,36.4 119.4,36.3 
			119.1,36.1 118.9,35.9 118.7,35.7 118.5,35.5 118.3,35.2 118.1,34.9 118,34.6 117.9,34.2 117.8,33.8 117.8,33.4 117.7,32.9 
			117.7,32.5 117.7,31.9 117.8,31.4 117.8,31 117.9,30.6 118.1,30.1 118.2,29.8 118.4,29.5 118.6,29.2 118.8,28.9 119.1,28.7 
			119.3,28.5 119.6,28.4 120,28.2 120.3,28.2 120.7,28.1 121.2,28.1 121.6,28.1 121.8,28.1 122.1,28.2 122.5,28.3 122.9,28.4 
			123,28.5 123.2,28.6 123.5,28.9 123.8,29.2 124,29.3 124.1,29.5 126.1,27.8 125.8,27.5 125.5,27.2 125.2,26.9 124.9,26.7 
			124.5,26.4 124.2,26.2 123.9,26.1 123.5,25.9 123.2,25.7 122.8,25.6 122.4,25.5 122,25.4 121.6,25.4 121.2,25.3 120.8,25.3 
			120.4,25.3 120.4,25.3 		"/>
	</g>
	<g>
		<polygon fill="#ACACAD" points="110.6,25.7 107.2,25.7 107.2,32.1 101.8,25.7 98.6,25.7 98.6,38.9 101.9,38.9 101.9,31.8 
			107.9,38.9 110.6,38.9 110.6,25.7 110.6,25.7 		"/>
	</g>
	<g>
		<polygon fill="#ACACAD" points="133.5,25.7 128.8,25.7 128.8,38.9 138.8,38.9 138.8,35.9 133.5,35.9 133.5,25.7 133.5,25.7 		"/>
	</g>
	<g>
		<path fill="#ACACAD" d="M151.5,27.3l-0.3-0.3l-0.3-0.2l-0.3-0.2l-0.3-0.2l-0.3-0.2l-0.3-0.2l-0.3-0.2l-0.3-0.1l-0.3-0.1l-0.3-0.1
			l-0.4-0.1l-0.4-0.1l-0.4-0.1l-0.4,0l-0.4,0h-0.4l-0.8,0l-0.4,0l-0.4,0.1l-0.4,0.1l-0.3,0.1l-0.3,0.1l-0.3,0.1l-0.3,0.1l-0.3,0.2
			l-0.6,0.3l-0.3,0.2l-0.3,0.2l-0.5,0.5l-0.5,0.5l-0.4,0.5l-0.2,0.3l-0.2,0.3l-0.2,0.6l-0.2,0.6l-0.1,0.7l-0.1,0.7l0,0.7v0.4l0,0.4
			l0,0.4l0.1,0.4l0.1,0.3l0.1,0.3l0.1,0.3l0.1,0.3l0.1,0.3l0.2,0.3L140,36l0.2,0.3l0.2,0.3l0.2,0.3l0.2,0.2l0.3,0.3l0.5,0.4l0.3,0.2
			l0.3,0.2l0.3,0.2l0.3,0.2l0.6,0.3l0.7,0.2l0.7,0.2l0.3,0l0.4,0l0.8,0l0.2,0h0.2l0.2,0h0.2l0.4,0l0.2,0l0.1,0h0.1l0.1,0l0.1,0
			l0.2,0l0.1,0l0.1,0l0.2,0l0.3-0.1l0.3-0.1l0.3-0.1l0.3-0.1l0.1-0.1l0.2-0.1l0.3-0.2l0.3-0.2l0.3-0.2l0.3-0.2l0.3-0.2l0,0l0,0
			l0.1-0.1l0.1-0.1l0.2-0.2l0.2-0.3l0.2-0.3l0.2-0.3l0.1-0.2l0.1-0.1l0.2-0.3l0.2-0.3l0-0.2l0.1-0.2l0.1-0.3l0.1-0.3l0-0.2l0-0.1
			l0-0.1v-0.1l0-0.1l0-0.2v-0.1l0-0.1l0-0.2l0-0.4l0-0.4l0-0.7l-0.1-0.7l-0.2-0.7l-0.2-0.6l-0.3-0.6l-0.2-0.3l-0.2-0.3l-0.4-0.5
			L151.5,27.3L151.5,27.3L151.5,27.3z M148.5,32.2l0,0.2v0.3l0,0.5l0,0.2l0,0v0.1v0.1l0,0.2l0,0V34v0.1l-0.1,0.4l-0.1,0.3l-0.1,0.2
			l0,0.1l0,0.1l-0.1,0.3l-0.2,0.2l-0.1,0.1l-0.1,0.1l-0.2,0.2l-0.2,0.2l-0.1,0l-0.1,0.1l-0.1,0l-0.1,0l0,0l-0.2,0h-0.1l-0.1,0
			l-0.1,0l-0.3,0l-0.3,0l-0.3-0.1l-0.2-0.1l-0.2-0.2l-0.2-0.2l-0.2-0.2l-0.2-0.2l-0.2-0.3l-0.1-0.3l-0.1-0.3l-0.1-0.4l-0.1-0.4
			l0-0.4l0-0.5v-0.5v-0.5l0-0.5l0-0.5l0.1-0.4l0.1-0.4l0.1-0.3l0.1-0.3l0.2-0.3l0.2-0.3l0.2-0.2l0.2-0.2l0.2-0.1l0.2-0.1l0.3-0.1
			l0.3,0l0.3,0l0.3,0l0.2,0l0.2,0.1l0.1,0l0.1,0.1l0.2,0.1l0.2,0.2l0.1,0.1l0.1,0.1l0.2,0.3l0.1,0.3l0.1,0.3l0.1,0.3l0.1,0.4l0,0.4
			l0,0.2l0,0.2l0,0.5L148.5,32.2L148.5,32.2L148.5,32.2z"/>
	</g>
	<g>
		<path fill="#ACACAD" d="M88.1,25.7l-5.5,13.2h3.7l0.8-2h4.5l0.8,2h4.4l-5.2-13.2H88.1L88.1,25.7L88.1,25.7z M89.5,30.1l1.5,4.1h-3
			L89.5,30.1L89.5,30.1L89.5,30.1z"/>
	</g>
	<g>
		<polygon fill="#ACACAD" points="195,43.9 191.7,43.9 191.7,50.4 186.2,43.9 182.9,43.9 182.9,57.1 186.4,57.1 186.4,50 
			192.3,57.1 195,57.1 195,43.9 195,43.9 		"/>
	</g>
	<g>
		<path fill="#ACACAD" d="M170.8,57.1l0.8-2h4.5l0.7,2h4.6l-5.3-13.2h-3.5L167,57.1H170.8L170.8,57.1L170.8,57.1z M175.4,52.5h-3
			l1.5-4.2L175.4,52.5L175.4,52.5L175.4,52.5z"/>
	</g>
	<g>
		<polygon fill="#ACACAD" points="166.9,46.3 166.6,45.9 166.4,45.6 166.1,45.3 165.8,45.1 165.5,44.8 165.1,44.6 164.8,44.4 
			164.5,44.2 164.1,44 163.7,43.9 163.3,43.8 162.9,43.7 162.5,43.6 162,43.6 161.6,43.5 161.1,43.5 160.6,43.5 160.2,43.6 
			159.4,43.7 159,43.7 158.6,43.9 158.2,44 157.9,44.1 157.5,44.2 157.2,44.4 156.8,44.6 156.5,44.8 155.9,45.2 155.7,45.5 
			155.4,45.7 155,46.2 154.6,46.8 154.3,47.3 154.1,47.6 154,47.9 153.8,48.6 153.7,49.2 153.6,49.9 153.6,50.7 153.6,51 
			153.6,51.3 153.6,51.7 153.7,52 153.7,52.3 153.8,52.7 153.9,53 154,53.3 154.2,53.6 154.3,53.8 154.5,54.1 154.6,54.4 
			154.8,54.7 155,54.9 155.2,55.2 155.5,55.4 156,55.9 156.3,56.1 156.5,56.3 157.1,56.6 157.8,56.9 158.5,57.1 158.8,57.2 
			159.2,57.3 160,57.4 160.4,57.4 160.8,57.5 161,57.4 161.3,57.4 161.8,57.4 162.3,57.3 162.4,57.3 162.5,57.3 162.7,57.3 
			163.1,57.1 163.6,57 164,56.8 164.4,56.7 164.7,56.5 164.9,56.3 165.1,56.2 165.4,56 165.7,55.7 166,55.4 166.1,55.3 166.1,55.3 
			166.2,55.3 166.3,55.1 166.6,54.8 166.9,54.4 164.9,53 164.6,53.3 164.2,53.7 163.8,53.9 163.4,54.2 163,54.3 162.6,54.5 
			162.1,54.5 161.7,54.6 161.3,54.5 160.9,54.5 160.5,54.4 160.2,54.3 159.9,54.1 159.7,54 159.4,53.7 159.2,53.5 159,53.2 
			158.8,52.9 158.7,52.6 158.6,52.2 158.5,51.8 158.4,51.4 158.4,50.9 158.4,50.4 158.4,49.9 158.4,49.4 158.5,49 158.6,48.6 
			158.7,48.2 158.9,47.9 159,47.6 159.2,47.3 159.5,47.1 159.7,46.9 160,46.7 160.3,46.5 160.6,46.4 161,46.3 161.4,46.3 
			161.8,46.3 162.3,46.3 162.7,46.4 162.9,46.4 163.1,46.5 163.5,46.7 163.7,46.8 163.9,46.9 164.3,47.2 164.6,47.5 164.9,47.9 
			166.9,46.3 166.9,46.3 		"/>
	</g>
	<g>
		<polygon fill="#ACACAD" points="151,43.9 146.3,43.9 146.3,57.1 151,57.1 151,43.9 151,43.9 		"/>
	</g>
	<g>
		<path fill="#ACACAD" d="M143.4,47.8l0-0.3l0-0.2l-0.1-0.4l-0.1-0.4l-0.1-0.4l-0.2-0.3l-0.2-0.3l-0.3-0.3l-0.3-0.3l-0.4-0.2
			l-0.4-0.2l-0.5-0.2l-0.5-0.1l-0.5-0.1l-0.6-0.1l-0.6,0l-0.6,0h-6.7v13.2h4.4V52h1.3l2.5,5.1h4.7l-3-5.7l0.3-0.2l0.1-0.1l0.1-0.1
			l0.2-0.2l0.2-0.2l0.1-0.1l0.1-0.1l0.2-0.2l0.2-0.2l0-0.1l0,0l0,0l0.1-0.1l0.1-0.2l0.1-0.2v0l0,0l0-0.1l0.1-0.1l0.1-0.3l0.1-0.3
			l0-0.2l0-0.1l0-0.3L143.4,47.8L143.4,47.8L143.4,47.8z M135.5,50v-3.7h0.4l0.4,0l0.3,0l0.3,0.1l0.3,0l0.3,0.1l0.3,0.1l0.2,0.1
			l0.2,0.1l0.2,0.1l0.1,0.1l0.1,0.2l0.1,0.2l0.1,0.2l0,0.2l0,0.2l0,0v0v0.1v0.1l0,0.1l0,0.1l0,0.1l0,0.1l-0.1,0.2l0,0l0,0l-0.1,0.1
			l0,0l0,0l-0.1,0.1l-0.1,0.1l0,0l0,0l-0.1,0.1l-0.1,0.1l-0.1,0l-0.1,0.1h0l0,0l-0.1,0l-0.1,0.1l-0.2,0h0l0,0l-0.1,0l-0.3,0.1
			l-0.2,0l-0.2,0l-0.2,0l-0.2,0l-0.4,0h-0.2L135.5,50L135.5,50L135.5,50L135.5,50z"/>
	</g>
	<g>
		<polygon fill="#ACACAD" points="127.1,48.9 122.6,48.9 122.6,46.7 127.9,46.7 127.9,43.9 118,43.9 118,57.1 128.4,57.1 
			128.4,54.1 122.6,54.1 122.6,51.5 127.1,51.5 127.1,48.9 127.1,48.9 		"/>
	</g>
	<g>
		<polygon fill="#ACACAD" points="115.3,57.1 113.5,43.9 109.5,43.9 106.7,51 103.9,43.9 99.9,43.9 98,57.1 101.4,57.1 102.2,50 
			104.9,57.1 107.6,57.1 110.2,50 111.2,57.1 115.3,57.1 115.3,57.1 		"/>
	</g>
	<g>
		<path fill="#ACACAD" d="M91.6,55l0.8,2h4.4l-5.2-13.2h-3.5l-5.5,13.2h3.7l0.8-2H91.6L91.6,55L91.6,55z M89.5,48.3l1.5,4.2h-3
			L89.5,48.3L89.5,48.3L89.5,48.3z"/>
	</g>
</g>
</svg>
