<?xml version="1.0" encoding="utf-8"?>
<!-- Generator: Adobe Illustrator 21.0.2, SVG Export Plug-In . SVG Version: 6.00 Build 0)  -->
<svg version="1.0" id="Layer_1" xmlns="http://www.w3.org/2000/svg" xmlns:xlink="http://www.w3.org/1999/xlink" x="0px" y="0px"
	 viewBox="0 0 210 80" enable-background="new 0 0 210 80" xml:space="preserve">
<g>
	<g>
		<path fill="#ACACAD" d="M101.8,51c1.1,0,3,0.1,4.8,0.1c5.1,0,8.4-2.8,8.4-7.3c0-5-4.3-7.2-8.5-7.2h-4.7V51L101.8,51z M106.5,67.5
			H93v-3.9c0,0,3.4,0,3.5,0c0.5,0,1-0.5,1-1l0-26H93v-3.9h13.3c7.6,0,13,4.6,13,11.1c0,6.9-5,11.3-12.8,11.3c-1.7,0-3.5,0-4.7-0.1
			c0,2.7,0,7.5,0,7.7c0,0.5,0.4,1,1,1h3.7V67.5L106.5,67.5z M29.9,51.6h10.4l-5.2-14L29.9,51.6L29.9,51.6z M91.1,67.5H78v-3.9h4.4
			l-0.8-22.5L71.3,63.2h-2L59,41.1l-0.8,22.5h4.4v3.9H41v-3.9h3.6l-3-8.1H28.4l-3,8.1h3.8v3.9H17.4v-3.9h2.7c0.6,0,1-0.5,1.2-1
			c0.2-0.5,9.8-26,9.8-26h-3.6v-3.9h7.5c2.5,0,3.4,2.3,3.7,3c0,0,10.1,26.6,10.2,26.9c0.2,0.5,0.6,1,1.2,1h2.9c0.6,0,1-0.5,1-1
			c0-0.4,1-23.1,1.2-26h-4.6v-3.9h6.7c1.6,0,2.6,0.9,3.6,3c0.9,2.1,9.4,20.6,9.4,20.6s8.6-18.7,9.5-20.6c1-2.1,1.8-3,3.4-3H90v3.9
			h-4.6l1.1,26c0,0.5,0.5,1,1,1l3.6,0V67.5L91.1,67.5z"/>
	</g>
	<g>
		<path fill="#ACACAD" d="M150.8,48.2c0.5-0.9,0.8-2.3,0.4-4.1c-0.4,1.9-3.9,3.9-8.8,3.2c-2.8-0.2-5.9-1.8-8.4-3.4
			c-2.5-1.6-3.7-2.7-4.2-3.1c-2.3-1.9-5.2,1.1-2.2,3.2c3.6,2.8,9.9,5.5,14.6,5.9C145.1,50.2,148.4,49.8,150.8,48.2L150.8,48.2
			L150.8,48.2z"/>
	</g>
	<g>
		<g>
			<path fill="#ACACAD" d="M149.4,34.4c-2.8-3.7-10.4-13.1-11.2-14c0,0.1,0.1,0.3,0.1,0.6c0.3,1.1,0.6,3.3,1.6,6.4
				c2,2.4,4.1,5,5,6.1c7,8.6,7,12.6,5.8,14.7c1.1-0.7,2.1-1.8,2.6-2.9C154.6,42.3,152.3,38.2,149.4,34.4L149.4,34.4z"/>
		</g>
		<g>
			<path fill="#ACACAD" d="M160.4,18.3c0-0.1,0-0.3-0.1-0.5c0-0.3,0-0.8,0-1.4c0-1.1,0.2-2.7,0.3-4.3c0.3-3.2,0.6-6.5,0.7-8.1
				c0.2-3.9,4.5-3.6,3.7,0.3c-0.2,0.8-0.9,4.2-1.7,7.5c-0.4,1.7-0.8,3.4-1.1,4.7c-0.2,0.6-0.3,1.2-0.5,1.5c-0.1,0.2-0.1,0.3-0.2,0.5
				c-0.2,0.4-0.6,0.4-0.8,0.4C160.7,18.8,160.5,18.7,160.4,18.3L160.4,18.3z"/>
		</g>
		<g>
			<path fill="#ACACAD" d="M139.5,42.2c0.5-0.5-0.5-1.6-0.8-2.1c-1.4-1.9-6.6-8.3-14.1-10.8c-3.1-1-4.9,2.4-2.2,3.4
				c1.5,0.6,4.7,1.6,7.8,3.5c3.7,2.1,6.8,4.6,8,5.5C138.9,42.3,139.2,42.5,139.5,42.2L139.5,42.2z"/>
		</g>
		<g>
			<path fill="#ACACAD" d="M190.4,41.2c-2.8-0.6-4.7-0.7-10-0.7c-4.4,0-8.4,0.5-11.7,1.1c-5.1,0.9-8.7,2.3-9.3,2.5
				c-0.2,1.1-0.3,2.1-0.4,3.3c2.9-1,5.4-2,8-2.6c10.2-2.3,19.3-0.9,22.3-0.4C193.2,45.1,193.1,41.8,190.4,41.2L190.4,41.2z"/>
		</g>
	</g>
	<g>
		<path fill="#ACACAD" d="M179.4,4.6c-11.1,4-18.8,14.4-22.2,32.9c-1.2-1.5-5.1-8-6.3-12.9c-1.2-5.1-0.8-10.2,1.2-17
			c0.2-0.8,0.5-1.9,0.5-2c-0.9-1.8-2.8-1.3-3.2,0.2c-2.5,8.4-2.5,14.8-1.6,18.9c0.8,3.4,2.7,7.1,4.5,10.2c-1.2,3.7-2.9,6.7-4.9,6.7
			c-1.6,0-3.7-4.3-5.6-8.7c-2.6-5.9-3.2-10-3.6-11.7c-0.1-0.2-0.1-0.3-0.1-0.6c0,0-0.1-0.1-0.1-0.2c-1.2-1.4-2.8-0.6-2.8,0.9
			c-0.1,1.9,2.3,9.1,3.8,12.6c3.1,7.3,5.5,11.1,8,11c2.6-0.1,5.1-3.1,7-7.2c1.1,1.7,2,3,2.5,3.6c0,0.3-0.4,2.6-0.6,5
			c-0.2,1.9,1.6,1.6,2.9,1.2C161.3,25,170,11.2,181.7,7.4c0.3-0.1,0.8-0.2,1-0.3C182.6,4.6,181.3,4,179.4,4.6L179.4,4.6z"/>
	</g>
	<g>
		<path fill="#ACACAD" d="M152.1,7.5C152,7.7,152,7.8,151.9,8c0,0.1,0,0.1-0.1,0.2c0,0.2-0.1,0.3-0.1,0.4c0,0.1,0,0.1-0.1,0.2
			c0,0.2-0.1,0.3-0.1,0.5c0,0,0,0.1,0,0.1c0,0.2-0.1,0.3-0.1,0.5c0,0,0,0,0,0c0,0.1,0,0.2-0.1,0.3c2,4.4,3.1,7.9,3.1,12.2
			c0,2.4-0.4,5.5-1.1,8.6c0.6,1.3,1.3,2.5,1.9,3.5c0-0.1,0-0.1,0.1-0.2c1.5-4.7,2.5-9.1,2.5-12.2c0-5.7-2-10.3-5.3-16.6
			c0,0,0,0.1-0.1,0.3C152.4,6.2,152.2,6.9,152.1,7.5L152.1,7.5z"/>
	</g>
	<g>
		<circle fill="#ACACAD" cx="155.6" cy="76.8" r="0"/>
	</g>
	<g>
		<g>
			<path fill="#ACACAD" d="M156.3,59.3c0.5,4.6,0.2,10.4-2.2,14c0.5,1.3,1,2.5,1.5,3.5c2.6-2.8,4.3-9.2,3.9-15
				c-0.8-6.9-1.7-18.3-16.7-7.5c-4.8,3.3-9.3,8.3-10.9,12c1.3,0,2.6-0.2,3.9-0.5c2.7-3.9,6.7-7.7,10.3-10.1
				C151.7,51.8,155.4,50.4,156.3,59.3L156.3,59.3z"/>
		</g>
		<g>
			<path fill="#ACACAD" d="M173.4,69.4c-1-4.3-14.6-11.3-23.2-13.8c-7.3-2-18-2.7-25.3,0.3c-4.1,1.6-3,5.5,1.4,3.7
				c7.6-3.1,14.4-3.4,21.1-1.6c-6,6.5-10.8,8.2-15.6,8.3c-1.1,2.4-0.5,3.6,2.8,2.9c6.9-1.5,10.5-5.3,14.8-9.4
				c0.2-0.2,0.3-0.3,0.5-0.4c-0.2,1.5-0.4,3.3-0.5,5.3c-0.1,4,0.8,9.7,2.6,12.4c0.8,1.1,2,1.4,3.6-0.4c-0.9-2-2.1-4.8-2.8-7.9
				c-0.6-2.8-0.8-6-0.1-9.1c6.5,2.2,11,4.5,16.9,11C171.8,73.2,174.2,72,173.4,69.4L173.4,69.4z"/>
		</g>
	</g>
	<g>
		<path fill="#ACACAD" d="M163,59.7c0.2,0.2,0.9,1.1,1.8,2.2c4.2,2.4,7.6,5,8.5,7c-0.5-1.5-1.6-3.3-3.1-5.4c-0.6-0.9-5-6-5.9-7.2
			c-1.3-1.6-2.9-3.8-0.9-5.6c-1.1,0.5-1.9,1.1-2.5,1.8c-0.6,0.8-1.1,1.9-0.6,3.2C160.8,57,161.8,58.2,163,59.7L163,59.7z"/>
	</g>
	<g>
		<path fill="#ACACAD" d="M187.5,63.9c-2.3-2.4-5.5-5.5-8.1-7.7c2.8-1,5.6-2.6,8.2-4.4c-1.1-0.4-2.5-0.7-4.1-1.1
			c-2.3,1.5-4.6,2.7-6.8,3.3c-0.6-0.5-1.5-1.2-2.3-1.7c-0.5-0.4-1.1-0.8-1.6-1.1c-0.2-0.1-0.4-0.2-0.6-0.3c-0.3-0.1-0.7-0.2-0.9,0
			c-0.4,0.2-0.3,0.6-0.1,0.9c0.1,0.2,0.3,0.4,0.4,0.5c0.5,0.6,1,1.1,1.5,1.6c0.5,0.5,0.9,0.9,0.6,0.6c-2.6,0.1-6.8-0.9-6.9-4.8
			c-0.9,0.1-1.7,0.3-2.5,0.6c0.3,6.7,8.2,7.4,11.8,6.7c0.6,0.6,1.1,1.2,1.7,1.8c1.6,1.7,3.2,3.7,7.2,8
			C187.9,69.8,190.5,66.8,187.5,63.9L187.5,63.9z"/>
	</g>
	<g>
		<path fill="#ACACAD" d="M182.7,7.2c0,0-0.5,0.1-1,0.3c-0.8,0.3-1.6,0.6-2.4,0.9c0.1,1.2-0.2,3.2-1.1,5.9
			c-2.6,7.8-8.4,19.6-17.8,23.5c-0.3,1.2-0.5,2.3-0.7,3.6c10-3.6,14.8-12,18.2-17.8C180.8,18.4,183.1,11.2,182.7,7.2L182.7,7.2z"/>
	</g>
	<g>
		<path fill="#ACACAD" d="M164.9,47C164.9,47,164.9,47,164.9,47C164.9,47,164.9,47,164.9,47L164.9,47z M165.5,46.9
			C165.5,46.9,165.5,46.9,165.5,46.9C165.5,46.9,165.5,46.9,165.5,46.9L165.5,46.9z M167.8,44.9c0.6-1.2,1.6-2.4,2.9-3.5
			c2.3-1.9,4.5-3.3,7.1-4.4c2.5-1,5.3-1.7,8.8-2.1c2.9-0.3,3.5-1.3,3.3-2.2c-0.2-0.9-1.2-1.6-3.3-1.4c-3.1,0.3-6.1,0.9-8.9,2
			c-2.8,1.1-5.4,2.7-7.7,4.7c-1.5,1.3-2.8,3-3.8,4.9c-0.7,1.3-1.2,2.7-1.6,4c0,0,0,0,0,0c-4.6,1.1-6.9,3.8-4.5,8.6
			c-0.4-1.3,0-2.4,0.6-3.2c3.6-5,20.3-2.9,26.8-0.8c1.5-1,1.5-2.7-1.6-3.3c-6.7-1.6-13.7-2.4-18.9-1.7c0,0,0,0,0,0
			C167.3,46.1,167.5,45.5,167.8,44.9L167.8,44.9z"/>
	</g>
</g>
</svg>
