<?xml version="1.0" encoding="utf-8"?>
<!-- Generator: Adobe Illustrator 21.0.2, SVG Export Plug-In . SVG Version: 6.00 Build 0)  -->
<svg version="1.0" id="Layer_1" xmlns="http://www.w3.org/2000/svg" xmlns:xlink="http://www.w3.org/1999/xlink" x="0px" y="0px"
	 viewBox="0 0 34 34" enable-background="new 0 0 34 34" xml:space="preserve">
<g>
	<g>
		<path fill="#F5A623" d="M17,34C7.6,34,0,26.4,0,17S7.6,0,17,0s17,7.6,17,17S26.4,34,17,34z M17,2C8.7,2,2,8.7,2,17
			c0,8.3,6.7,15,15,15c8.3,0,15-6.7,15-15C32,8.7,25.3,2,17,2z"/>
	</g>
	<g>
		<path fill="#F5A623" d="M14.2,24.1c-0.4,0-0.8-0.1-1.1-0.4c-0.6-0.6-0.6-1.5,0-2.1l4.6-4.6l-4.5-4.5c-0.6-0.6-0.6-1.5,0-2.1
			c0.6-0.6,1.5-0.6,2.1,0l5.6,5.6c0.6,0.6,0.6,1.5,0,2.1l-5.7,5.7C15,23.9,14.6,24.1,14.2,24.1z"/>
	</g>
</g>
</svg>
