<?xml version="1.0" encoding="utf-8"?>
<!-- Generator: Adobe Illustrator 21.0.2, SVG Export Plug-In . SVG Version: 6.00 Build 0)  -->
<svg version="1.0" id="Layer_1" xmlns="http://www.w3.org/2000/svg" xmlns:xlink="http://www.w3.org/1999/xlink" x="0px" y="0px"
	 viewBox="0 0 80 80" enable-background="new 0 0 80 80" xml:space="preserve">
<g>
	<path fill="none" d="M40,52.5c-3,0-5.8-0.3-8.5-0.7c1.8,6.4,4.9,10.7,8.5,10.7s6.7-4.3,8.5-10.7C45.8,52.2,43,52.5,40,52.5z"/>
	<path fill="none" d="M17.5,40c0,3.5,4.3,6.7,10.7,8.5c-0.5-2.6-0.7-5.5-0.7-8.5s0.3-5.8,0.7-8.5C21.8,33.3,17.5,36.5,17.5,40z"/>
	<path fill="none" d="M28.8,51.2c-4.3-1.1-7.9-2.7-10.4-4.8c2.2,7.3,7.9,13,15.2,15.2C31.5,59.1,29.9,55.5,28.8,51.2z"/>
	<path fill="none" d="M40,27.5c3,0,5.8,0.3,8.5,0.7c-1.8-6.4-4.9-10.7-8.5-10.7s-6.7,4.3-8.5,10.7C34.2,27.8,37,27.5,40,27.5z"/>
	<path fill="none" d="M51.2,51.2c-1.1,4.3-2.7,7.9-4.8,10.4c7.3-2.2,13-7.9,15.2-15.2C59.1,48.5,55.5,50.1,51.2,51.2z"/>
	<path fill="none" d="M62.5,40c0-3.5-4.3-6.7-10.7-8.5c0.5,2.6,0.7,5.5,0.7,8.5s-0.3,5.8-0.7,8.5C58.2,46.7,62.5,43.5,62.5,40z"/>
	<path fill="none" d="M30.9,49.1c2.8,0.6,5.9,0.9,9.1,0.9s6.3-0.3,9.1-0.9c0.6-2.8,0.9-5.9,0.9-9.1s-0.3-6.3-0.9-9.1
		C46.3,30.3,43.2,30,40,30s-6.3,0.3-9.1,0.9C30.3,33.7,30,36.8,30,40S30.3,46.3,30.9,49.1z M43.8,38.8h2.5v2.5h-2.5V38.8z
		 M38.8,38.8h2.5v2.5h-2.5V38.8z M36.2,38.8v2.5h-2.5v-2.5H36.2z"/>
	<path fill="none" d="M51.2,28.8c4.3,1.1,7.9,2.7,10.4,4.8c-2.2-7.3-7.9-13-15.2-15.2C48.5,20.9,50.1,24.5,51.2,28.8z"/>
	<path fill="none" d="M28.8,28.8c1.1-4.3,2.7-7.9,4.8-10.4c-7.3,2.2-13,7.9-15.2,15.2C20.9,31.5,24.5,29.9,28.8,28.8z"/>
	<path fill="#F5A623" d="M36.8,2.6l-4,4l1.8,1.8L43,0h-3C23.5,0,8.5,10.4,2.6,25.8l2.3,0.9C10,13.2,22.6,3.9,36.8,2.6z"/>
	<path fill="#F5A623" d="M54.2,2.6l-0.9,2.3C66.8,10,76.1,22.6,77.4,36.8l-4-4l-1.8,1.8L80,43v-3C80,23.5,69.6,8.5,54.2,2.6z"/>
	<path fill="#F5A623" d="M43.2,77.4l4-4l-1.8-1.8L37,80h3c16.5,0,31.5-10.4,37.4-25.8l-2.3-0.9C70,66.8,57.4,76.1,43.2,77.4z"/>
	<path fill="#F5A623" d="M2.6,43.2l4,4l1.8-1.8L0,37v3c0,16.5,10.4,31.5,25.8,37.4l0.9-2.3C13.2,70,3.9,57.4,2.6,43.2z"/>
	<path fill="#F5A623" d="M15,40c0,13.8,11.2,25,25,25s25-11.2,25-25S53.8,15,40,15S15,26.2,15,40z M40,17.5c3.5,0,6.7,4.3,8.5,10.7
		c-2.6-0.5-5.5-0.7-8.5-0.7s-5.8,0.3-8.5,0.7C33.3,21.8,36.5,17.5,40,17.5z M40,30c3.2,0,6.3,0.3,9.1,0.9c0.6,2.8,0.9,5.9,0.9,9.1
		s-0.3,6.3-0.9,9.1C46.3,49.7,43.2,50,40,50s-6.3-0.3-9.1-0.9C30.3,46.3,30,43.2,30,40s0.3-6.3,0.9-9.1C33.7,30.3,36.8,30,40,30z
		 M51.8,31.5c6.4,1.8,10.7,4.9,10.7,8.5c0,3.5-4.3,6.7-10.7,8.5c0.5-2.6,0.7-5.5,0.7-8.5S52.2,34.2,51.8,31.5z M40,62.5
		c-3.5,0-6.7-4.3-8.5-10.7c2.6,0.5,5.5,0.7,8.5,0.7s5.8-0.3,8.5-0.7C46.7,58.2,43.5,62.5,40,62.5z M28.2,48.5
		c-6.4-1.8-10.7-4.9-10.7-8.5c0-3.5,4.3-6.7,10.7-8.5c-0.5,2.6-0.7,5.5-0.7,8.5S27.8,45.8,28.2,48.5z M18.4,46.4
		c2.4,2.1,6,3.7,10.4,4.8c1.1,4.3,2.7,7.9,4.8,10.4C26.3,59.4,20.6,53.7,18.4,46.4z M46.4,61.6c2.1-2.4,3.7-6,4.8-10.4
		c4.3-1.1,7.9-2.7,10.4-4.8C59.4,53.7,53.7,59.4,46.4,61.6z M61.6,33.6c-2.4-2.1-6-3.7-10.4-4.8c-1.1-4.3-2.7-7.9-4.8-10.4
		C53.7,20.6,59.4,26.3,61.6,33.6z M33.6,18.4c-2.1,2.4-3.7,6-4.8,10.4c-4.3,1.1-7.9,2.7-10.4,4.8C20.6,26.3,26.3,20.6,33.6,18.4z"/>
	<rect x="38.8" y="38.8" fill="#F5A623" width="2.5" height="2.5"/>
	<rect x="33.8" y="38.8" fill="#F5A623" width="2.5" height="2.5"/>
	<rect x="43.8" y="38.8" fill="#F5A623" width="2.5" height="2.5"/>
</g>
</svg>
