<?xml version="1.0" encoding="utf-8"?>
<!-- Generator: Adobe Illustrator 21.0.2, SVG Export Plug-In . SVG Version: 6.00 Build 0)  -->
<svg version="1.0" id="Layer_1" xmlns="http://www.w3.org/2000/svg" xmlns:xlink="http://www.w3.org/1999/xlink" x="0px" y="0px"
	 viewBox="0 0 80 80" enable-background="new 0 0 80 80" xml:space="preserve">
<g>
	<rect x="10" y="55" fill="none" width="26.2" height="2.5"/>
	<rect x="47.5" y="72.5" fill="none" width="12.5" height="2.5"/>
	<rect x="2.5" y="20" fill="none" width="7.5" height="2.5"/>
	<path fill="none" d="M30,45H17.5v7.5H30V45z M22.5,50H20v-2.5h2.5V50z M25,50v-2.5h2.5V50H25z"/>
	<rect x="2.5" y="15" fill="none" width="7.5" height="2.5"/>
	<rect x="47.5" y="27.5" fill="none" width="20" height="2.5"/>
	<rect x="47.5" y="32.5" fill="none" width="20" height="6.2"/>
	<path fill="#F5A623" d="M70,40V25H45v15c0,2.4-2.7,11.4-3.7,14.6l2.4,0.8c0.4-1.1,3.1-10,3.7-14.1h20.2c0.6,5.3,4.2,14.2,7,20.9
		c1.4,3.3,2.9,7.1,2.9,7.8H65v2.5h12.5V75H65v2.5h15V70c0-1.1-1-3.6-3.1-8.8C74,54.2,70,44.5,70,40z M67.5,27.5V30h-20v-2.5H67.5z
		 M67.5,32.5v6.2h-20v-6.2H67.5z"/>
	<path fill="#F5A623" d="M38.8,52.5h-6.2v-10h-5v-5H25v5h-2.5v-10H20v10h-3.2l-4.3-4.3V12.5H0V55h2.5V25H10v14.3l5,5v8.2H7.5v5H0v20
		h42.5V75h-40V60h5h31.2H60v7.5h2.5v-10H38.8V52.5z M10,15v2.5H2.5V15H10z M2.5,22.5V20H10v2.5H2.5z M17.5,45H30v7.5H17.5V45z
		 M10,57.5V55h26.2v2.5H10z"/>
	<rect x="20" y="47.5" fill="#F5A623" width="2.5" height="2.5"/>
	<rect x="25" y="47.5" fill="#F5A623" width="2.5" height="2.5"/>
	<rect x="5" y="30" fill="#F5A623" width="2.5" height="2.5"/>
	<rect x="5" y="35" fill="#F5A623" width="2.5" height="2.5"/>
	<rect x="5" y="40" fill="#F5A623" width="2.5" height="2.5"/>
	<rect x="5" y="70" fill="#F5A623" width="7.5" height="2.5"/>
	<rect x="15" y="70" fill="#F5A623" width="7.5" height="2.5"/>
	<rect x="25" y="70" fill="#F5A623" width="7.5" height="2.5"/>
	<rect x="35" y="70" fill="#F5A623" width="7.5" height="2.5"/>
	<path fill="#F5A623" d="M7.5,7.5C7.5,6.1,8.6,5,10,5c1.1,0,2.4,1.4,2.7,1.9c0.2,0.3,2.1,3.1,4.8,3.1s4.6-2.7,4.8-3.1
		C22.6,6.5,23.8,5,25,5c1.1,0,2.4,1.4,2.7,1.9c0.2,0.3,2.1,3.1,4.8,3.1c2.7,0,4.6-2.7,4.8-3.1C37.6,6.5,38.8,5,40,5V2.5
		c-2.7,0-4.6,2.7-4.8,3.1c-0.3,0.4-1.5,1.9-2.7,1.9c-1.1,0-2.4-1.4-2.7-1.9c-0.2-0.3-2.1-3.1-4.8-3.1s-4.6,2.7-4.8,3.1
		c-0.3,0.4-1.5,1.9-2.7,1.9c-1.1,0-2.4-1.4-2.7-1.9c-0.2-0.3-2.1-3.1-4.8-3.1c-2.8,0-5,2.2-5,5V10h2.5V7.5z"/>
	<path fill="#F5A623" d="M75.2,18.1c-0.3,0.4-1.5,1.9-2.7,1.9c-1.1,0-2.4-1.4-2.7-1.9C69.6,17.7,67.7,15,65,15h-7.5
		c-2.8,0-5,2.2-5,5v2.5H55V20c0-1.4,1.1-2.5,2.5-2.5h3.2C60.3,18.2,60,19.1,60,20v2.5h2.5V20c0-1.4,1.1-2.5,2.5-2.5
		c1.1,0,2.4,1.4,2.7,1.9c0.2,0.3,2.1,3.1,4.8,3.1c2.7,0,4.6-2.7,4.8-3.1c0.3-0.4,1.5-1.9,2.7-1.9V15C77.3,15,75.4,17.7,75.2,18.1z"
		/>
	<path fill="#F5A623" d="M45,77.5h17.5V70H45V77.5z M47.5,72.5H60V75H47.5V72.5z"/>
</g>
</svg>
