<?xml version="1.0" encoding="utf-8"?>
<!-- Generator: Adobe Illustrator 21.1.0, SVG Export Plug-In . SVG Version: 6.00 Build 0)  -->
<svg version="1.0" id="Layer_1" xmlns="http://www.w3.org/2000/svg" xmlns:xlink="http://www.w3.org/1999/xlink" x="0px" y="0px"
	 viewBox="0 0 53.9 120" enable-background="new 0 0 53.9 120" xml:space="preserve">
<g id="XMLID_1420_">
	<path id="XMLID_1434_" fill="#FFFFFF" d="M42.3,18.6l-7.4-7.1l3.6-3.7l3.8,4L53.8,0H0v80.1h42.3l-7.3-7l3.6-3.7l3.8,4l11.6-11.9
		v-8.1L42.3,64.8l-7.4-7.1l3.6-3.7l3.8,4L53.9,46v-8.1L42.3,49.4l-7.4-7.1l3.6-3.7l3.8,4l11.6-11.9v-8.1L42.3,34l-7.4-7.1l3.6-3.7
		l3.8,4l11.6-11.9V7.1L42.3,18.6z M43.1,2.1h1.1L45,4.5h0l0.8-2.4h1.1v3.5h-0.7V3.2h0l-0.9,2.5h-0.6l-0.9-2.4h0v2.4h-0.7V2.1z
		 M39.9,2.1h2.9v0.6h-1v2.8h-0.8V2.8h-1V2.1z M4.6,5.5C4.6,4.5,5.3,4,6.5,4h4.6v1.6H6.7c-0.5,0-0.8,0.2-0.8,0.6
		c0,0.5,0.4,0.8,1.1,0.8h4.2v1.6H6.7c-0.5,0-0.8,0.2-0.8,0.6c0,0.5,0.4,0.8,1.1,0.8h4.2v1.6H4.8v-1.6h0.6v0C4.9,9.8,4.6,9.3,4.6,8.6
		c0-0.7,0.4-1.3,1-1.5v0C5,6.9,4.6,6.3,4.6,5.5z M7.9,12.4h0.4v3.2h0.5c0.7,0,1.5-0.2,1.5-0.8c0-0.5-0.4-0.8-1.2-0.9v-1.5
		c1.5,0.1,2.3,0.8,2.3,2.3c0,2.4-1.8,2.4-3.4,2.4c-1.7,0-3.3-0.3-3.3-2.5C4.6,12.8,5.9,12.4,7.9,12.4z M9.4,22.3
		c-0.4,0-0.6,0.3-0.7,0.6l-0.4,1.1C8,25,7.4,25.4,6.6,25.4c-1,0-1.9-0.7-1.9-2.3c0-1.5,0.7-2.2,1.8-2.2h0.3v1.5c-0.6,0-1,0.2-1,0.7
		c0,0.4,0.2,0.8,0.7,0.8c0.3,0,0.6-0.2,0.7-0.7l0.3-1c0.3-1,0.9-1.4,1.8-1.4c1.3,0,2,1,2,2.4c0,1.8-0.8,2.3-2,2.3H9.1V24h0.2
		c0.6,0,0.9-0.3,0.9-0.8C10.2,22.7,10,22.3,9.4,22.3z M3,18.2h1.8v-0.9h1.1v0.9h3.4c0.5,0,0.7-0.1,0.7-0.6c0-0.1,0-0.3,0-0.4h1.1
		c0,0.4,0.1,0.7,0.1,1.1c0,1.3-0.4,1.5-1.7,1.5H5.9v0.8H4.8v-0.8H3V18.2z M3.8,52.6c0,0.1,0,0.2,0,0.3c0,0.5,0.1,0.6,0.5,0.6h0.6
		v-0.9h1.1v0.9h5.2v1.6H5.9V56H4.8v-0.8H4.1c-1.1,0-1.5-0.6-1.5-1.7c0-0.3,0-0.6,0-0.9H3.8z M2.6,52.1v-1.6H4v1.6H2.6z M4.6,62.6
		c0-0.1,0-0.2,0-0.3h1.6c0,0.2,0,0.3,0,0.5c0,0.6,0.3,1.2,1.1,1.2h3.8v1.6H4.8v-1.6h0.8v0C5,63.8,4.6,63.3,4.6,62.6z M9.5,61.1H5.9
		v0.8H4.8v-0.8H3v-1.6h1.8v-0.9h1.1v0.9h3.4c0.5,0,0.7-0.1,0.7-0.6c0-0.1,0-0.3,0-0.4h1.1c0,0.4,0.1,0.7,0.1,1.1
		C11.2,60.8,10.8,61.1,9.5,61.1z M2.6,58.1v-1.6H4v1.6H2.6z M4.8,58.1v-1.6h6.3v1.6H4.8z M11.1,52.1H4.8v-1.6h6.3V52.1z M6.9,77.2
		c-2.6,0-4.4-0.3-4.4-2.9c0-2.4,1.8-2.6,3-2.6v1.7c-1.2,0-1.8,0.2-1.8,1c0,0.9,0.9,1.1,3.2,1.1c2.5,0,3-0.4,3-1.1
		c0-0.6-0.3-1.1-2.1-1.1v-1.7c1.8,0,3.4,0.4,3.4,2.7C11.3,76.9,9.5,77.2,6.9,77.2z M7.9,71.2c-1.7,0-3.3-0.3-3.3-2.5
		c0-1.9,1.3-2.3,3.2-2.3h0.4v3.2h0.5c0.7,0,1.5-0.2,1.5-0.8c0-0.5-0.4-0.8-1.2-0.9v-1.5c1.5,0.1,2.3,0.8,2.3,2.3
		C11.3,71.1,9.5,71.2,7.9,71.2z M7.9,49.8c-1.7,0-3.3-0.3-3.3-2.5c0-1.9,1.3-2.3,3.2-2.3h0.4v3.2h0.5c0.7,0,1.5-0.2,1.5-0.8
		c0-0.5-0.4-0.8-1.2-0.9v-1.5c1.5,0.1,2.3,0.8,2.3,2.3C11.3,49.7,9.5,49.8,7.9,49.8z M8,44.5c-2.4,0-3.3-0.6-3.3-1.9
		c0-0.6,0.2-1,0.8-1.4v0H2.7v-1.6h8.4v1.6h-0.7v0c0.6,0.4,0.8,0.8,0.8,1.4C11.3,43.8,10.3,44.5,8,44.5z M8.9,36.3H8.5v-1.7h0.2
		c0.8,0,1.3-0.2,1.3-1.1c0-0.5-0.3-1-1-1c-0.8,0-1,0.4-1.4,1.5c-0.5,1.5-1.1,2.2-2.5,2.2c-1.6,0-2.5-1-2.5-2.6
		c0-1.5,0.6-2.6,2.3-2.6h0.2v1.6c-0.8,0-1.2,0.3-1.2,0.9c0,0.8,0.5,1,1,1c0.5,0,0.8-0.2,1.1-0.9l0.6-1.3c0.6-1.3,1.2-1.6,2.2-1.6
		c1.8,0,2.6,1.1,2.6,2.9C11.3,35.6,10.4,36.3,8.9,36.3z M13.2,30.2H12c0-0.1,0-0.3,0-0.4c0-0.6-0.3-0.8-0.9-0.9l-6.3,1.8V29L9.2,28
		v0l-4.4-0.8v-1.6l5.9,1.5c2.2,0.6,2.5,0.9,2.5,2.4V30.2z"/>
	<polygon id="XMLID_1453_" fill="#FFFFFF" points="53.9,80.1 53.9,68.7 42.4,80.1 	"/>
	<path id="XMLID_1454_" fill="#FFFFFF" d="M8,41.1c-1.4,0-2.1,0.1-2.1,0.9c0,0.7,0.7,0.8,2.1,0.8c1.4,0,2.1-0.1,2.1-0.8
		C10.1,41.3,9.4,41.1,8,41.1z"/>
	<path id="XMLID_1455_" fill="#FFFFFF" d="M5.8,68.7c0,0.6,0.7,0.8,1.3,0.8h0.2v-1.7C6.3,67.9,5.8,68,5.8,68.7z"/>
	<path id="XMLID_1456_" fill="#FFFFFF" d="M7,15.6h0.2v-1.7c-1,0-1.5,0.2-1.5,0.8C5.8,15.4,6.4,15.6,7,15.6z"/>
	<path id="XMLID_1457_" fill="#FFFFFF" d="M5.8,47.3c0,0.6,0.7,0.8,1.3,0.8h0.2v-1.7C6.3,46.6,5.8,46.7,5.8,47.3z"/>
	<path id="XMLID_1498_" fill="#FFFFFF" d="M3,84.1c-2.3,0-2.6,2.2-2.6,4.3c0,2.1,0.4,4.3,2.6,4.3c0.6,0,1.1-0.1,1.4-0.4l0.8,0.7
		l0.6-0.6l-0.8-0.8c0.6-0.8,0.7-2.1,0.7-3.2C5.6,86.3,5.2,84.1,3,84.1z M4.2,90.9l-0.8-0.7l-0.6,0.6l0.8,0.7
		c-0.2,0.1-0.4,0.2-0.7,0.2c-1.4,0-1.6-1.5-1.6-3.4c0-1.9,0.2-3.4,1.6-3.4c1.4,0,1.6,1.5,1.6,3.4C4.5,89.4,4.5,90.3,4.2,90.9z"/>
	<path id="XMLID_1499_" fill="#FFFFFF" d="M6.8,86.3v4.4c0,0.7,0,2,1.6,2c0.6,0,1.2-0.3,1.5-0.9h0v0.7h0.9v-6.2h-1v4.2
		c0,0.9-0.7,1.2-1.2,1.2c-0.9,0-0.9-0.8-0.9-1.2v-4.2H6.8z"/>
	<path id="XMLID_1502_" fill="#FFFFFF" d="M14.2,88.7l-1.3,0.4c-0.8,0.2-1.2,0.8-1.2,1.7c0,1.1,0.5,1.8,1.7,1.8
		c0.6,0,1.2-0.3,1.5-0.9h0c0,0.8,0.5,0.8,0.9,0.8c0.2,0,0.5,0,0.6-0.1v-0.7c0,0-0.1,0.1-0.2,0.1c-0.3,0-0.3-0.2-0.3-0.5v-3.4
		c0-0.6,0-1.8-1.9-1.8c-1.5,0-2.1,0.6-2.1,2h1v-0.1c0-0.2,0-1.2,1.1-1.2c0.6,0,1,0.3,1,0.9C14.9,88.3,15,88.5,14.2,88.7z M14.9,90.7
		c0,0.6-0.6,1.2-1.2,1.2c-0.7,0-0.9-0.4-0.9-1.1c0-0.5,0.2-0.8,0.5-1c0.4-0.3,1.3-0.3,1.6-0.7V90.7z"/>
	<rect id="XMLID_1503_" x="17.2" y="84.2" fill="#FFFFFF" width="1" height="8.2"/>
	<rect id="XMLID_1504_" x="19.6" y="84.2" fill="#FFFFFF" width="1" height="1.1"/>
	<rect id="XMLID_1505_" x="19.6" y="86.3" fill="#FFFFFF" width="1" height="6.2"/>
	<path id="XMLID_1506_" fill="#FFFFFF" d="M24.2,92.4v-0.8c-0.1,0-0.2,0-0.4,0c-0.5,0-0.6-0.2-0.6-0.7V87h1.1v-0.8h-1.1v-1.8h-1v1.8
		h-0.9V87h0.9v4.2c0,0.8,0.2,1.2,1.2,1.2C23.8,92.5,24,92.5,24.2,92.4z"/>
	<path id="XMLID_1507_" fill="#FFFFFF" d="M26.6,91.2L26.6,91.2l-1.2-4.9h-1.1l1.8,6.3L26,93.1c-0.1,0.3-0.3,0.6-0.8,0.6
		c-0.2,0-0.4,0-0.6,0v0.8c0.2,0,0.3,0,0.7,0c1.2,0,1.4-0.8,1.6-1.6l1.8-6.6h-1.1L26.6,91.2z"/>
	<rect id="XMLID_1508_" x="0.4" y="98" fill="#FFFFFF" width="1" height="8.2"/>
	<path id="XMLID_1509_" fill="#FFFFFF" d="M5,97.9c-2.1,0-2.4,1.5-2.4,2.3c0,3,3.9,1.7,3.9,4c0,0.9-0.6,1.4-1.4,1.4
		c-1.5,0-1.5-1-1.5-1.9h-1c0,1.7,0.6,2.7,2.5,2.7c1.2,0,2.5-0.5,2.5-2.4c0-3-3.9-1.6-3.9-3.9c0-0.9,0.5-1.3,1.4-1.3
		c1,0,1.3,0.6,1.3,1.5h1C7.2,98.6,6.5,97.9,5,97.9z"/>
	<path id="XMLID_1512_" fill="#FFFFFF" d="M13.7,102.1c0-2.1-0.4-4.3-2.6-4.3s-2.6,2.2-2.6,4.3c0,2.1,0.4,4.3,2.6,4.3
		S13.7,104.2,13.7,102.1z M9.4,102.1c0-1.9,0.2-3.4,1.6-3.4c1.4,0,1.6,1.5,1.6,3.4c0,1.9-0.2,3.4-1.6,3.4
		C9.6,105.5,9.4,104,9.4,102.1z"/>
	<path id="XMLID_1515_" fill="#FFFFFF" d="M19.7,98.1c-1.5,0-2.3,1.2-2.3,2.8c0,1.5,0.7,2.6,2.1,2.6c0.9,0,1.4-0.6,1.5-0.9h0v0.6
		c0,0.4-0.1,2.4-1.4,2.4c-0.7,0-1.1-0.5-1.1-1.2h-1c0,0.4,0.2,2,2.1,2c2.4,0,2.5-2.6,2.5-4.4C22.1,100.3,21.9,98.1,19.7,98.1z
		 M19.7,102.6c-1.1,0-1.3-1-1.3-1.9c0-0.9,0.3-1.9,1.3-1.9c1,0,1.3,1,1.3,1.9C21,101.6,20.7,102.6,19.7,102.6z"/>
	<path id="XMLID_1518_" fill="#FFFFFF" d="M25.2,106.4c2.2,0,2.3-2.4,2.3-4.1c0-2-0.1-4.2-2.3-4.2s-2.3,2.4-2.3,4.2
		C22.9,104.2,23,106.4,25.2,106.4z M25.2,98.8c1.2,0,1.3,1.6,1.3,3.4c0,1.7-0.1,3.4-1.3,3.4c-1.2,0-1.3-1.6-1.3-3.4
		C23.9,100.5,24,98.8,25.2,98.8z"/>
	<path id="XMLID_1521_" fill="#FFFFFF" d="M30.8,106.4c2.2,0,2.3-2.4,2.3-4.1c0-2-0.1-4.2-2.3-4.2c-2.2,0-2.3,2.4-2.3,4.2
		C28.4,104.2,28.5,106.4,30.8,106.4z M30.8,98.8c1.2,0,1.3,1.6,1.3,3.4c0,1.7-0.1,3.4-1.3,3.4c-1.2,0-1.3-1.6-1.3-3.4
		C29.4,100.5,29.5,98.8,30.8,98.8z"/>
	<path id="XMLID_1522_" fill="#FFFFFF" d="M37,106.2v-8.1h-0.7c-0.1,1.2-1,1.3-2,1.3v0.7H36v6.1H37z"/>
	<path id="XMLID_1523_" fill="#FFFFFF" d="M4.4,117.4v-0.7c1.2,1.6,1.7,0.1,3.8-2c-0.1-0.2-0.1-0.4-0.2-0.6c-1.9,1.9-2.3,3-3.6,1.8
		v-0.7c1.1,1.5,1.6,0.3,3.3-1.5c-0.1-0.2-0.2-0.3-0.3-0.4c-1.4,1.5-1.8,2.2-3,1.1v-0.7c1,1.2,1.5,0.6,2.6-0.7
		c-0.1-0.1-0.3-0.2-0.4-0.3c-0.8,0.9-1.3,1.1-2.2,0.3v-0.7c0.7,0.9,1.1,0.8,1.8,0.2c-0.6-0.3-1.2-0.4-1.9-0.4
		c-0.9,0-1.8,0.3-2.5,0.8l1.8,0.1L1.5,113c-0.3,0.3-0.6,0.7-0.8,1.1l2.7,0.2l-2.9,0.3c-0.1,0.3-0.2,0.7-0.2,1l3,0.2l-3,0.3
		c0,0.4,0.1,0.7,0.2,1l2.9,0.2l-2.7,0.2c0.2,0.4,0.5,0.8,0.8,1.1l2.2,0.2l-1.8,0.2c0.7,0.6,1.6,0.9,2.6,0.9c2,0,3.6-1.4,4-3.2
		c-2.2,2.2-2.5,3.4-3.9,2.1v-0.7c1.3,1.6,1.7,0,4-2.2c0,0,0,0,0-0.1c0-0.2,0-0.5-0.1-0.7C6.2,117.4,5.8,118.7,4.4,117.4z"/>
	<path id="XMLID_1524_" fill="#FFFFFF" d="M14.1,115.5c-0.4-0.2-1-0.2-1.7-0.2l-0.1,0c-1.1-0.1-1.4-0.2-1.4-0.5
		c0-0.5,0.9-0.6,1.4-0.6c0.6,0,1.1,0.1,1.6,0.4l0.2,0.1l0.6-0.6l-0.2-0.1c-0.5-0.4-1.2-0.5-2.1-0.5c-1.4,0-2.2,0.5-2.2,1.5
		c0,0.5,0.3,0.9,0.8,1.1c0.4,0.2,1,0.2,1.7,0.2c1.2,0.1,1.5,0.3,1.5,0.6c0,0.7-1.1,0.8-1.5,0.8c-0.7,0-1.3-0.2-1.8-0.6l-0.2-0.1
		l-0.5,0.7l0.2,0.1c0.6,0.4,1.4,0.7,2.4,0.7c1.5,0,2.4-0.6,2.4-1.6C14.8,116.2,14.6,115.8,14.1,115.5z"/>
	<path id="XMLID_1527_" fill="#FFFFFF" d="M17.7,113.5H17l-2.4,4.7h0.9c0,0,0.5-0.9,0.6-1.1c0.2,0,2.4,0,2.6,0
		c0.1,0.2,0.6,1.1,0.6,1.1h0.9l-2.4-4.7H17.7z M16.6,116.3c0.2-0.4,0.7-1.3,0.9-1.7c0.2,0.4,0.7,1.3,0.9,1.7
		C17.9,116.3,17,116.3,16.6,116.3z"/>
	<polygon id="XMLID_1528_" fill="#FFFFFF" points="20.6,113.5 20.6,118.2 21.4,118.2 21.4,113.5 21.2,113.5 	"/>
	<path id="XMLID_1529_" fill="#FFFFFF" d="M25.7,116.5c0,0,1.6,0,2.1,0c-0.3,0.7-0.9,1.1-1.7,1.1c-1.1,0-1.9-0.7-1.9-1.7
		c0-0.5,0.2-0.9,0.6-1.2c0.3-0.3,0.8-0.4,1.3-0.4c0.6,0,1.1,0.2,1.6,0.7l0.1,0.1l0.7-0.5l-0.2-0.2c-0.6-0.7-1.3-1-2.2-1
		c-0.7,0-1.4,0.2-1.9,0.7c-0.5,0.5-0.8,1.1-0.8,1.8c0,0.8,0.3,1.4,0.8,1.9c0.5,0.4,1.2,0.6,1.9,0.6c0.9,0,1.7-0.4,2.2-1l0,0
		c0.3-0.4,0.4-0.8,0.5-1.5l0-0.2h-3.1V116.5z"/>
	<path id="XMLID_1530_" fill="#FFFFFF" d="M30.1,113.5h-0.2h-0.6v4.7h4v-0.8c0,0-2.8,0-3.2,0C30.1,117,30.1,113.5,30.1,113.5z"/>
	<path id="XMLID_1533_" fill="#FFFFFF" d="M35.9,113.3c-0.7,0-1.4,0.2-1.9,0.6c-0.6,0.5-0.8,1.1-0.8,1.9c0,0.8,0.3,1.4,0.8,1.9
		c0.5,0.4,1.2,0.6,1.9,0.6c0.7,0,1.4-0.2,1.9-0.6l0,0c0.6-0.5,0.8-1.1,0.8-1.9c0-0.8-0.3-1.4-0.8-1.9
		C37.3,113.6,36.6,113.3,35.9,113.3z M35.9,117.5c-1.1,0-1.9-0.7-1.9-1.7c0-0.5,0.2-0.9,0.6-1.3c0.3-0.3,0.8-0.4,1.3-0.4
		c0.5,0,0.9,0.2,1.3,0.4c0.4,0.3,0.6,0.7,0.6,1.3C37.8,116.9,37,117.5,35.9,117.5z"/>
	<path id="XMLID_1536_" fill="#FFFFFF" d="M43.4,115.8c0.3-0.2,0.4-0.6,0.4-1c0-0.8-0.6-1.3-1.4-1.3h-3.2H39v4.7h3.5
		c0.9,0,1.5-0.5,1.5-1.4C44,116.4,43.8,116,43.4,115.8z M39.9,114.3c0.4,0,2.7,0,2.7,0c0.3,0,0.5,0.2,0.5,0.5c0,0.3-0.2,0.6-0.6,0.6
		c0,0-2.2,0-2.6,0C39.9,115.1,39.9,114.6,39.9,114.3z M42.5,117.4c0,0-2.2,0-2.6,0c0-0.3,0-0.9,0-1.2c0.4,0,2.6,0,2.6,0
		c0.4,0,0.7,0.2,0.7,0.6C43.2,117.1,43.1,117.4,42.5,117.4z"/>
	<path id="XMLID_1540_" fill="#FFFFFF" d="M47,113.5h-0.7l-2.4,4.7h0.9c0,0,0.5-0.9,0.6-1.1c0.2,0,2.4,0,2.6,0
		c0.1,0.2,0.6,1.1,0.6,1.1h0.9l-2.4-4.7H47z M45.9,116.3c0.2-0.4,0.7-1.3,0.9-1.7c0.2,0.4,0.7,1.3,0.9,1.7
		C47.2,116.3,46.3,116.3,45.9,116.3z"/>
	<path id="XMLID_1541_" fill="#FFFFFF" d="M50.7,113.5h-0.2h-0.6v4.7h4v-0.8c0,0-2.8,0-3.2,0C50.7,117,50.7,113.5,50.7,113.5z"/>
</g>
</svg>
