<?xml version="1.0" encoding="utf-8"?>
<!-- Generator: Adobe Illustrator 21.0.2, SVG Export Plug-In . SVG Version: 6.00 Build 0)  -->
<svg version="1.0" id="Layer_1" xmlns="http://www.w3.org/2000/svg" xmlns:xlink="http://www.w3.org/1999/xlink" x="0px" y="0px"
	 viewBox="0 0 210 80" enable-background="new 0 0 210 80" xml:space="preserve">
<g>
	<g>
		<g>
			<path fill="#ACACAD" d="M120.6,21.7h-12.1h-3.8v1.5c0.8,0.1,1.4,0.2,1.9,0.3c0.6,0.1,1,0.3,1.4,0.6c0.9,0.8,0.9,2.3,0.9,5v18.3
				c0,3.7,0.3,9-5,8.9c-2.3,0-4.6-1.6-5.3-4.6h-1.8c0.8,4.9,3.4,8.3,9.8,8.3h0h0c5.4,0,10.3-2.5,10.2-11V34.8v-5.8
				c0-2.7,0-4.2,0.9-5c0.6-0.5,1.1-0.8,2.8-0.9V21.7z"/>
		</g>
		<g>
			<path fill="#ACACAD" d="M138.7,21.7h-15.8v1.4v0.1c1.7,0.2,2.2,0.4,2.8,0.9c0.8,0.6,0.9,1.7,0.9,3.5c0,0.5,0,1.2,0,1.8v21.9
				c0,0.7,0,1.3,0,1.8c0,1.8-0.2,2.9-0.9,3.5c-0.6,0.5-1.1,0.8-2.8,0.9v0.1v1.4v0h15.8v0h0.1h8l2.5-7.3h-1.9c-1.8,4-4.7,4.5-7.3,4.5
				c-2.1,0-3.5-0.1-4.5-0.8c-0.8-0.5-1.1-1.9-1.1-4.2V29.5v-0.4c0-2.7,0-4.2,0.9-5c0.6-0.5,1.6-0.7,3.3-0.9V21.7z"/>
		</g>
		<g>
			<path fill="#ACACAD" d="M165.1,21.7h-15.8v1.4v0.1c1.7,0.2,2.2,0.4,2.8,0.9c0.8,0.6,0.9,1.7,0.9,3.5c0,0.5,0,1.2,0,1.8v21.9
				c0,0.7,0,1.3,0,1.8c0,1.8-0.2,2.9-0.9,3.5c-0.6,0.5-1.1,0.8-2.8,0.9v0.1v1.4v0h15.8v0h0.1h8l2.5-7.3h-1.9c-1.8,4-4.7,4.5-7.3,4.5
				c-2.1,0-3.5-0.1-4.5-0.8c-0.8-0.5-1.1-1.9-1.1-4.2V29.5v-0.4c0-2.7,0-4.2,0.9-5c0.6-0.5,1.6-0.7,3.3-0.9V21.7z"/>
		</g>
	</g>
	<path fill="#ACACAD" d="M64.7,24.7c1.3,3.7,2,7.7,2.3,11.6c0.1,1.3,0.1,2.7,0.1,4h0c0,1.3,0,2.7-0.1,4c-0.3,4.8-1.3,9.6-3.2,14.1
		c-0.7,1.7-1.6,3.4-2.6,5c-0.2,0.4-0.4,0.8-0.7,1.1c-0.5,0.7-1,1.5-1.6,2.2c-0.7,0.8-1.4,1.6-2.1,2.3c-0.8,0.8-1.6,1.5-2.5,2.1
		c-0.1,0.1-0.1,0.1-0.2,0.2v0.1c1.7,0,3.3-0.5,4.9-1.2c0.7-0.3,1.4-0.8,2.1-1.2c0.1-0.1,0.3-0.2,0.4-0.3c0.8-0.6,1.6-1.3,2.3-2.1
		c0.9-1,1.8-2.1,2.6-3.3c0.6-0.9,1.2-1.9,1.6-2.8c1.9-3.8,3.2-8,3.8-12.2c0.4-2.7,0.6-5.4,0.6-8.1c0-2.7-0.2-5.4-0.6-8.1
		c-0.6-4.1-1.9-8.4-3.8-12.2c-0.2-0.4-0.5-0.9-0.7-1.3C66.3,20.7,65.4,22.7,64.7,24.7"/>
	<path fill="#ACACAD" d="M69.6,15.2c0.2,0.3,0.5,0.7,0.7,1c4,6,5.9,13.1,6.4,20.2c0.1,1.3,0.1,2.7,0.1,4c0,1.3,0,2.7-0.1,4
		c-0.5,7.1-2.4,14.3-6.4,20.2c-0.5,0.7-1,1.5-1.6,2.2c-0.7,0.8-1.4,1.6-2.1,2.3c-0.8,0.8-1.6,1.5-2.5,2.1c-0.1,0.1-0.1,0.1-0.2,0.2
		v0.1c1.7,0,3.3-0.5,4.9-1.2c0.7-0.3,1.4-0.8,2.1-1.2c0.1-0.1,0.3-0.2,0.4-0.3c2.8-2.1,4.9-5.1,6.5-8.2c1.9-3.8,3.2-8,3.8-12.2
		c0.4-2.7,0.6-5.4,0.6-8.1h0c0-2.7-0.2-5.4-0.6-8.1c-0.6-4.1-1.9-8.4-3.8-12.2c-1.5-2.9-3.4-5.6-5.9-7.7
		C71,13.3,70.3,14.2,69.6,15.2"/>
	<path fill="#ACACAD" d="M73.5,9.3c2.6,1.8,4.8,4.3,6.5,6.8c4,6,5.9,13.1,6.4,20.2c0.1,1.3,0.1,2.7,0.1,4c0,1.3,0,2.7-0.1,4
		C86,51.5,84,58.7,80,64.6c-1.7,2.6-3.9,5-6.5,6.8v0.1h0c2.6-0.1,5.3-1.1,7.4-2.7c2.8-2.1,4.9-5.1,6.5-8.2c1.9-3.8,3.2-8,3.8-12.2
		c0.4-2.7,0.6-5.4,0.6-8.1h0c0-2.7-0.2-5.4-0.6-8.1c-0.6-4.1-1.9-8.4-3.8-12.2c-1.6-3.1-3.7-6.1-6.5-8.2
		C78.8,10.3,76.2,9.3,73.5,9.3L73.5,9.3z"/>
	<path fill="#ACACAD" d="M73.5,9.2c-1.7,0-3.3,0.5-4.9,1.2c-0.7,0.3-1.4,0.8-2.1,1.2c-0.1,0.1-0.3,0.2-0.4,0.3
		c-0.8,0.6-1.6,1.3-2.3,2.1c-0.9,1-1.8,2.1-2.6,3.3c-0.6,0.9-1.2,1.9-1.6,2.8c-1.9,3.8-3.2,8-3.8,12.2c-0.4,2.7-0.6,5.4-0.6,8.1
		c0,2.7,0.2,5.4,0.6,8.1c0.6,4.1,1.9,8.4,3.8,12.2c0.2,0.4,0.5,0.9,0.7,1.3c1-1.9,1.9-3.9,2.6-5.9c-1.3-3.7-2-7.7-2.3-11.6
		c-0.1-1.3-0.1-2.7-0.1-4h0c0-1.3,0-2.7,0.1-4c0.3-4.8,1.3-9.6,3.2-14.1c0.7-1.7,1.6-3.4,2.6-5c0.2-0.4,0.4-0.8,0.7-1.1
		c0.5-0.7,1-1.5,1.6-2.2c0.7-0.8,1.4-1.6,2.1-2.3c0.8-0.8,1.6-1.5,2.5-2.1C73.4,9.4,73.5,9.4,73.5,9.2L73.5,9.2L73.5,9.2z"/>
	<path fill="#ACACAD" d="M63.8,9.2c-1.7,0-3.3,0.5-4.9,1.2c-0.7,0.3-1.4,0.8-2.1,1.2c-0.1,0.1-0.3,0.2-0.4,0.3
		c-2.8,2.1-4.9,5.1-6.5,8.2c-1.9,3.8-3.2,8-3.8,12.2c-0.4,2.7-0.6,5.4-0.6,8.1c0,2.7,0.2,5.4,0.6,8.1c0.6,4.1,1.9,8.4,3.8,12.2
		c1.5,2.9,3.4,5.6,5.9,7.7c0.8-0.9,1.6-1.8,2.2-2.7c-0.2-0.3-0.5-0.7-0.7-1c-4-6-5.9-13.1-6.4-20.2c-0.1-1.3-0.1-2.7-0.1-4
		c0-1.3,0-2.7,0.1-4c0.5-7.1,2.4-14.3,6.4-20.2c0.5-0.7,1-1.5,1.6-2.2c0.7-0.8,1.4-1.6,2.1-2.3c0.8-0.8,1.6-1.5,2.5-2.1
		C63.7,9.4,63.7,9.4,63.8,9.2L63.8,9.2L63.8,9.2z"/>
	<path fill="#ACACAD" d="M54.1,9.2c-2.7,0.1-5.3,1.1-7.4,2.7c-2.8,2.1-4.9,5.1-6.5,8.2c-1.9,3.8-3.2,8-3.8,12.2
		c-0.4,2.3-0.5,4.6-0.6,6.9v2.4c0,2.3,0.2,4.6,0.6,6.8c0.6,4.1,1.9,8.4,3.8,12.2c1.6,3.1,3.7,6.1,6.5,8.2c2.1,1.6,4.7,2.6,7.4,2.7
		v-0.1c-2.6-1.8-4.8-4.3-6.5-6.8c-4-6-5.9-13.1-6.4-20.2c-0.1-1.3-0.1-2.7-0.1-4c0-1.3,0-2.7,0.1-4c0.5-7.1,2.4-14.3,6.4-20.2
		C49.3,13.6,51.5,11.1,54.1,9.2L54.1,9.2z"/>
	<g>
		<path fill="#ACACAD" d="M65.5,68.3c0.8-0.9,1.6-1.8,2.2-2.7c-0.2-0.3-0.5-0.7-0.7-1c-0.2-0.4-0.5-0.8-0.7-1.1
			c-0.8,1.2-1.6,2.3-2.6,3.3C64.4,67.3,64.9,67.9,65.5,68.3"/>
	</g>
	<g>
		<path fill="#ACACAD" d="M70.8,69.2c-0.7,0.5-1.4,0.9-2.1,1.2c1.5,0.7,3.2,1.1,4.9,1.2h0v-0.1C72.6,70.8,71.6,70,70.8,69.2"/>
	</g>
	<g>
		<path fill="#ACACAD" d="M62.9,71.5c0.3,0,0.5-0.1,0.8-0.1c-0.3-0.2-0.5-0.4-0.8-0.6c-0.6-0.5-1.3-1-1.8-1.6
			c-0.7,0.5-1.4,0.9-2.1,1.2c1,0.5,2.1,0.8,3.2,1C62.4,71.4,62.6,71.4,62.9,71.5 M63.8,71.5L63.8,71.5c0-0.1-0.1-0.2-0.1-0.2
			c-0.3,0-0.5,0.1-0.8,0.1C63.2,71.5,63.5,71.5,63.8,71.5z"/>
	</g>
	<g>
		<path fill="#ACACAD" d="M62.1,12.4c-0.8,0.9-1.6,1.8-2.2,2.7c0.2,0.3,0.5,0.7,0.7,1c0.2,0.4,0.5,0.8,0.7,1.1
			c0.8-1.2,1.6-2.3,2.6-3.3C63.3,13.5,62.7,12.9,62.1,12.4"/>
	</g>
	<g>
		<path fill="#ACACAD" d="M56.8,11.6c0.7-0.5,1.4-0.9,2.1-1.2c-1.5-0.7-3.2-1.1-4.9-1.2h0v0.1C55.1,10,56,10.8,56.8,11.6"/>
	</g>
	<g>
		<path fill="#ACACAD" d="M68.7,10.4c-1-0.5-2.1-0.8-3.2-1c-0.3,0-0.5-0.1-0.8-0.1l0,0c-0.3,0-0.6-0.1-0.9-0.1v0.1
			c0,0,0.1,0.1,0.1,0.1h0c0.3,0.2,0.5,0.4,0.8,0.6c0.6,0.5,1.3,1,1.8,1.6C67.2,11.2,67.9,10.8,68.7,10.4"/>
	</g>
</g>
</svg>
