<?xml version="1.0" encoding="utf-8"?>
<!-- Generator: Adobe Illustrator 21.0.2, SVG Export Plug-In . SVG Version: 6.00 Build 0)  -->
<svg version="1.1" baseProfile="basic" id="Layer_1"
	 xmlns="http://www.w3.org/2000/svg" xmlns:xlink="http://www.w3.org/1999/xlink" x="0px" y="0px" viewBox="0 0 234 90"
	 xml:space="preserve">
<g>
	<path fill="#00A1B2" d="M31.5,42.9c0.1,0.1,0.1,0.1,0.2,0.2L31.5,42.9C31.5,42.9,31.5,42.9,31.5,42.9L31.5,42.9z"/>
	<path fill="#00A5B5" d="M55.7,63.8c-8.3-9.1-20.6-22.4-20.6-22.4l-0.2,0.2c-0.9,0.6-0.1,3.7,0.1,4.5l-0.2-0.2
		c9.1,8.6,20.6,20.1,34.7,34.2l10.4,10.1l-3.4-3.7L55.7,63.8L55.7,63.8z"/>
	<path fill="#63C2CE" d="M34.7,45.9c-1-1-2.1-1.9-3-2.8L34.7,45.9L34.7,45.9z"/>
	<path fill="#26CAD3" d="M34.8,41.6l0.2-0.2L33.7,40c-0.8,0.9-1.5,1.9-2.2,2.8l0.2,0.2c1,0.9,2,1.8,3,2.8l0.2,0.2
		C34.7,45.3,33.9,42.2,34.8,41.6L34.8,41.6z"/>
	<path fill="#00A5B5" d="M10.1,28.9c2.5-1.5,8.5,2.4,18.1,10.9c0.8-1.1,1.6-2.1,2.5-3.1C15.2,20.5,5.9,12.4,2.1,14.6
		c-3.3,1.9-2.4,11,3.5,31.5c1.3,2.3,6.5,8,7,8.5C8.6,40.1,7.1,30.7,10.1,28.9L10.1,28.9z"/>
	<path fill="#26CAD3" d="M12.6,54.6c-0.4-0.5-5.7-6.2-7-8.5c0,0,0,0,0,0c0.3,1.3,5.6,18.7,6.9,22.5l0.1,0.1l0.1-0.3
		c0.1-0.1,0.1-0.3,0.2-0.4c0.7-1.7,1.3-3.4,2-5.1C13.9,59.4,13.2,56.8,12.6,54.6L12.6,54.6z"/>
	<path fill="#FFFFFF" d="M81.5,1.1C64,8.8,45.4,19,30.6,36.7c-0.8,1-1.7,2-2.5,3.1c-5,6.6-9.5,14.1-13.3,22.9c0,0,0,0,0,0
		c-0.7,1.7-1.4,3.3-2,5.1c-0.1,0.1-0.1,0.3-0.2,0.4l-0.1,0.3h4.7l0.1-0.2c3.2-8.9,8-17.4,14.2-25.6c0,0,0,0,0,0
		c0.7-1,1.5-1.9,2.2-2.8c0,0,0,0,0,0C46.2,24.5,63.6,10.8,84.1,0.2L81.5,1.1L81.5,1.1z"/>
	<polygon fill="#FFFFFF" points="67.7,41.2 74.9,35.1 76,34.1 69.6,34.1 64.2,39 63.7,39.5 61.5,39.5 61.5,34.1 56.8,34.1 
		56.8,48.7 61.5,48.7 61.5,43.1 63.6,43.1 70.3,48.7 76.9,48.7 67.7,41.2 	"/>
	<path fill="#FFFFFF" d="M112.7,45.1c-2.2,0-2.7-0.8-2.7-2.9v-1.6c0-1.8,0.5-2.9,2.9-2.9h5.5c2.4,0,2.9,1.1,2.9,2.9c0,0,0,0,0,0.1
		v1.6c0,2.1-0.5,2.9-2.7,2.9h-5.9H112.7L112.7,45.1z M124.6,35.2c-1.2-0.9-2.9-1.2-5.2-1.2h-7.5c-4.2,0-6.7,1-6.7,5.3v4.3
		c0,1.6,0.4,2.8,1.1,3.6c1.1,1.3,3.1,1.7,5.6,1.7h7.5c4.2,0,6.7-1,6.7-5.3v-4.3C126.2,37.3,125.6,36,124.6,35.2"/>
	<path fill="#FFFFFF" d="M174.8,45.2h-8.4v-2.3h8.4c1,0,1.7,0.2,1.7,1.2C176.5,45,175.8,45.2,174.8,45.2 M166.4,37.6h8.3
		c0.9,0,1.4,0.3,1.4,1.1c0,0.8-0.5,1.1-1.4,1.1h-8.3V37.6L166.4,37.6z M178.5,41.3L178.5,41.3c1.3-0.4,2.3-0.9,2.3-3.4
		c0-1.2-0.3-2.1-1-2.7c-0.9-0.8-2.4-1.1-4.6-1.1h-13.5v14.5h14.9c2.7,0,4.7-0.7,4.7-3.9C181.3,42.6,180.5,41.6,178.5,41.3"/>
	<polygon fill="#FFFFFF" points="221.5,45.2 221.5,42.9 232.9,42.9 232.9,39.8 221.5,39.8 221.5,37.5 233.5,37.5 233.5,34.1 
		216.8,34.1 216.8,48.7 217.7,48.7 233.8,48.7 233.8,45.2 221.5,45.2 	"/>
	<g>
		<path fill="#00A1B2" d="M105.2,63.3h2.3c1.9,0,3.2,1.3,3.2,3v0c0,1.7-1.3,3-3.2,3h-2.3V63.3z M107.5,68.4c1.3,0,2.1-0.9,2.1-2.1v0
			c0-1.2-0.8-2.1-2.1-2.1h-1.2v4.1H107.5z"/>
		<path fill="#00A1B2" d="M117.2,63.3h1l2.7,6.1h-1.1l-0.6-1.5h-2.9l-0.6,1.5h-1.1L117.2,63.3z M118.8,67l-1.1-2.4l-1,2.4H118.8z"/>
		<path fill="#00A1B2" d="M126.1,64.3h-1.9v-1h4.9v1h-1.9v5.1h-1.1V64.3z"/>
		<path fill="#00A1B2" d="M135.1,63.3h1l2.7,6.1h-1.1l-0.6-1.5h-2.9l-0.6,1.5h-1.1L135.1,63.3z M136.7,67l-1.1-2.4l-1,2.4H136.7z"/>
		<path fill="#00A1B2" d="M152.8,68.7c-0.5,0.5-1.1,0.8-1.9,0.8c-1.1,0-2-0.7-2-1.7v0c0-0.8,0.5-1.3,1.3-1.7
			c-0.3-0.4-0.5-0.8-0.5-1.3v0c0-0.8,0.7-1.5,1.7-1.5c1,0,1.6,0.7,1.6,1.5v0c0,0.8-0.5,1.3-1.3,1.6l1,1.1c0.2-0.3,0.5-0.7,0.7-1.2
			l0.8,0.4c-0.2,0.5-0.5,1-0.8,1.4l1,1l-0.8,0.6L152.8,68.7z M152.2,68.1l-1.4-1.4c-0.6,0.2-0.8,0.6-0.8,1v0c0,0.5,0.4,0.9,1,0.9
			C151.5,68.6,151.9,68.4,152.2,68.1z M152.2,64.8L152.2,64.8c0-0.4-0.3-0.7-0.7-0.7c-0.4,0-0.7,0.3-0.7,0.7v0
			c0,0.3,0.1,0.5,0.5,0.9C151.9,65.5,152.2,65.2,152.2,64.8z"/>
		<path fill="#00A1B2" d="M164.6,68.5l0.6-0.8c0.6,0.5,1.2,0.8,1.9,0.8c0.7,0,1.1-0.3,1.1-0.8v0c0-0.4-0.2-0.7-1.4-0.9
			c-1.3-0.3-2-0.7-2-1.8v0c0-1,0.9-1.8,2.1-1.8c0.9,0,1.6,0.3,2.2,0.8l-0.6,0.8c-0.5-0.4-1.1-0.6-1.7-0.6c-0.6,0-1,0.3-1,0.7v0
			c0,0.5,0.3,0.7,1.4,1c1.3,0.3,2,0.8,2,1.8v0c0,1.1-0.9,1.8-2.2,1.8C166.2,69.5,165.4,69.2,164.6,68.5z"/>
		<path fill="#00A1B2" d="M174.1,63.3h4.5v1h-3.4v1.6h3.1v1h-3.1v1.6h3.5v1h-4.6V63.3z"/>
		<path fill="#00A1B2" d="M183.1,66.4L183.1,66.4c0-1.7,1.3-3.2,3.1-3.2c1.1,0,1.8,0.4,2.4,0.9L188,65c-0.5-0.5-1-0.8-1.7-0.8
			c-1.2,0-2,1-2,2.1v0c0,1.2,0.8,2.2,2,2.2c0.7,0,1.2-0.3,1.7-0.8l0.7,0.7c-0.6,0.7-1.3,1.1-2.5,1.1
			C184.4,69.5,183.1,68.1,183.1,66.4z"/>
		<path fill="#00A1B2" d="M193.2,66.8v-3.5h1.1v3.5c0,1.1,0.6,1.7,1.5,1.7c0.9,0,1.5-0.6,1.5-1.7v-3.5h1.1v3.5c0,1.8-1,2.7-2.6,2.7
			C194.2,69.5,193.2,68.6,193.2,66.8z"/>
		<path fill="#00A1B2" d="M203.4,63.3h2.7c0.8,0,1.4,0.2,1.8,0.6c0.3,0.3,0.5,0.8,0.5,1.3v0c0,1-0.6,1.6-1.5,1.8l1.6,2.3h-1.3
			l-1.5-2.1h0h-1.3v2.1h-1.1V63.3z M206,66.3c0.8,0,1.3-0.4,1.3-1v0c0-0.7-0.5-1-1.3-1h-1.6v2H206z"/>
		<path fill="#00A1B2" d="M213.2,63.3h1.1v6.1h-1.1V63.3z"/>
		<path fill="#00A1B2" d="M220.9,64.3h-1.9v-1h4.9v1h-1.9v5.1h-1.1V64.3z"/>
		<path fill="#00A1B2" d="M230.3,67l-2.4-3.7h1.3l1.7,2.7l1.7-2.7h1.2l-2.4,3.7v2.4h-1.1V67z"/>
	</g>
</g>
</svg>
