<?xml version="1.0" encoding="utf-8"?>
<!-- Generator: Adobe Illustrator 21.1.0, SVG Export Plug-In . SVG Version: 6.00 Build 0)  -->
<svg version="1.0" id="Layer_1" xmlns="http://www.w3.org/2000/svg" xmlns:xlink="http://www.w3.org/1999/xlink" x="0px" y="0px"
	 viewBox="0 0 107.2 9" enable-background="new 0 0 107.2 9" xml:space="preserve">
<g>
	<path fill="none" d="M72.2,2.9c0-0.5-0.3-0.7-0.8-0.7h-5v1.4h5C71.9,3.6,72.2,3.4,72.2,2.9z"/>
	<path fill="none" d="M37.3,2.3H34c-1.5,0-1.8,0.7-1.8,1.8V5c0,1.3,0.3,1.8,1.6,1.8h0.1h3.6c1.3,0,1.6-0.5,1.6-1.8V4c0,0,0,0,0,0
		C39.1,2.9,38.8,2.3,37.3,2.3z"/>
	<path fill="none" d="M71.4,5.4h-5.1v1.4h5.1c0.6,0,1-0.1,1-0.6C72.5,5.5,72.1,5.4,71.4,5.4z"/>
	<polygon fill="#FFFFFF" points="11,0.6 11.6,0.1 7.7,0.1 4.5,3 4.2,3.3 2.8,3.3 2.8,0.1 0,0.1 0,8.9 2.8,8.9 2.8,5.5 4.1,5.5 
		8.2,8.9 12.2,8.9 6.6,4.4 	"/>
	<path fill="#FFFFFF" d="M37.9,0h-4.5c-2.6,0-4.1,0.6-4.1,3.2v2.6c0,1,0.2,1.7,0.7,2.2c0.7,0.8,1.9,1,3.4,1h4.5
		C40.5,9,42,8.4,42,5.8V3.2c0-1.2-0.3-2-0.9-2.4C40.4,0.2,39.3,0,37.9,0z M39.1,5c0,1.3-0.3,1.8-1.6,1.8h-3.6h-0.1
		c-1.3,0-1.6-0.5-1.6-1.8V4c0-1.1,0.3-1.8,1.8-1.8h3.3c1.5,0,1.8,0.7,1.8,1.7c0,0,0,0,0,0V5z"/>
	<path fill="#FFFFFF" d="M73.7,4.5L73.7,4.5c0.8-0.3,1.4-0.5,1.4-2.1c0-0.7-0.2-1.3-0.6-1.6c-0.5-0.5-1.5-0.7-2.8-0.7h-8.2v8.8h9
		c1.6,0,2.8-0.4,2.8-2.3C75.4,5.2,74.9,4.6,73.7,4.5z M66.4,2.2h5c0.5,0,0.8,0.2,0.8,0.7c0,0.5-0.3,0.7-0.8,0.7h-5V2.2z M71.4,6.8
		h-5.1V5.4h5.1c0.6,0,1,0.1,1,0.7C72.5,6.7,72.1,6.8,71.4,6.8z"/>
	<polygon fill="#FFFFFF" points="107.2,6.8 99.7,6.8 99.7,5.4 106.6,5.4 106.6,3.6 99.7,3.6 99.7,2.1 107,2.1 107,0.1 96.9,0.1 
		96.9,8.9 97.5,8.9 107.2,8.9 107.2,8.9 107.2,6.8 	"/>
</g>
</svg>
