<?xml version="1.0" encoding="utf-8"?>
<!-- Generator: Adobe Illustrator 21.0.2, SVG Export Plug-In . SVG Version: 6.00 Build 0)  -->
<svg version="1.0" id="Layer_1" xmlns="http://www.w3.org/2000/svg" xmlns:xlink="http://www.w3.org/1999/xlink" x="0px" y="0px"
	 viewBox="0 0 80 80" enable-background="new 0 0 80 80" xml:space="preserve">
<g>
	<path fill="#F5A623" d="M61.2,74.8L44.9,33.5l9.8-5.4l14.8,17.3l4.1-2V18.9L71,9.4L57.6,0L50,3.1v16.4L6.3,43.1v11.6l26.3-14.4
		L18.9,74.5l-0.1,0.2v2.7h-2.5V80h47.4v-2.5h-2.5V74.8z M71.2,41.8l-0.9,0.5L57,26.8l6.7-3.7v6.1l7.5,11.2V41.8z M71.2,19V36l-5-7.5
		v-6.7L71.2,19z M58.7,3.8l8.9,6.2l-4.2,2.2l-4.7-2.8V3.8z M52.5,4.7l3.7-1.5v7.6l4.6,2.8l-8.4,4.5V4.7z M8.8,50.4v-5.9L69.2,12
		l1.3,4.6L8.8,50.4z M53.7,77.5H26.3v-1.8L40,67.3l13.7,8.4V77.5z M40,64.4l-5.8-3.6L40,50.2l5.8,10.7L40,64.4z M47,63l4.6,8.5
		l-9.2-5.7L47,63z M37.6,65.9l-9.2,5.7L33,63L37.6,65.9z M58.7,77.5h-2.5v-2.8L40,45L23.8,74.7v2.8h-2.5v-2.3l14.8-36.9l6.7-3.7
		l16,40.6V77.5z"/>
	<rect x="71.2" y="47.6" fill="#F5A623" width="2.5" height="27.4"/>
	<polygon fill="#F5A623" points="76.2,75 76.2,77.5 68.7,77.5 68.7,75 66.2,75 66.2,80 78.7,80 78.7,75 	"/>
	<path fill="#F5A623" d="M1.3,80h12.5V70H1.3V80z M3.8,72.5h7.5v5H3.8V72.5z"/>
	<rect x="6.3" y="56.3" fill="#F5A623" width="2.5" height="11.2"/>
	<rect x="38.8" y="41.3" fill="#F5A623" width="2.5" height="2.5"/>
</g>
</svg>
