<?xml version="1.0" encoding="utf-8"?>
<!-- Generator: Adobe Illustrator 21.0.2, SVG Export Plug-In . SVG Version: 6.00 Build 0)  -->
<svg version="1.0" id="Layer_1" xmlns="http://www.w3.org/2000/svg" xmlns:xlink="http://www.w3.org/1999/xlink" x="0px" y="0px"
	 viewBox="0 0 210 80" enable-background="new 0 0 210 80" xml:space="preserve">
<g>
	<g>
		<path fill="#ACACAD" d="M15.3,37.5c0,0,1.6-2.1,2.4-3.4c0.8-1.3,3.8-5.2,6.4-6.6c2.6-1.4,3.1-1.6,4.7-1.5c1.6,0.2,3.3,1,3.8,3.4
			c0.4,2.4,2,4.6,2.9,5.4c0,0,1.6-1.2,3.2-4.6c1.6-3.5,2.3-5.1,4-6.9c1.7-1.8,3.9-4.1,6.9-4.1c3,0.1,4.8,1.6,7,5.9
			c2.2,4.3,4.9,9.8,13.8,11.3V12.9H15.4L15.3,37.5"/>
	</g>
	<g>
		<path fill="#ACACAD" d="M15.4,40.2c0,0,1.6-0.3,3.2-2.4c1.6-2.1,2.7-2.3,3.7-4c1-1.6,3.6-4.4,4.7-2.6c1.1,1.8,2,8.7,7.4,8.7
			c5.5,0,7.1-5.2,8.1-7.2c1.1-2,1.9-3.4,1.9-3.9c0.1-0.5,1-3.5,1.7-4c0.6-0.6,2-1.8,3.9-0.5c2,1.3,3.5,5,5.4,8.6
			c0.7,1.5,3.4,3.5,5.5,4.9c2.4,1.8,9.5,2.7,9.5,2.7v6c0,0-1.1,0.1-2.6-1c-1.5-1.1-7.6-4.2-13-3.7c-5.5,0.5-5.9,0.8-11.5,4
			c-5.6,3.2-9.1,0.5-12.5-1.3c-3.4-1.9-6.5-2.8-15.5,1.3V40.2"/>
	</g>
	<g>
		<path fill="#ACACAD" d="M15.4,49.6c0,0,6.6-3.2,9.1-2.1c2.5,1.1,7.9,4.8,13.1,4.6c5.2-0.2,6.5-0.6,11.4-4.3
			c4.9-3.6,12.4,0.1,14.9,1.3c2.5,1.2,5.4,1.9,6.5,1.8V57c0,0-16.9-1.8-20.6-1.8c-3.8-0.1-14.3-0.1-15.7-0.3
			c-1.4-0.2-5.9,0.8-8.3,0.3c-2.4-0.5-4.8-1.2-7.2,0.4c-2.4,1.5-3.2,1.3-3.2,1.3V49.6"/>
	</g>
	<g>
		<path fill="#ACACAD" d="M15.4,59.1c0,0,5.4,1.2,13.6,1.1c8.2-0.2,23.4,0,27.3,0.1c7.2,0.1,9.7-1.6,14.2-1.1v9.7H15.4V59.1"/>
	</g>
	<g>
		<polyline fill="#ACACAD" points="79.4,13 87.2,13 89.8,23.5 89.9,23.5 92.4,13 100.2,13 100.2,30.9 95,30.9 95,19.4 95,19.4 
			91.9,30.9 87.8,30.9 84.7,19.4 84.6,19.4 84.6,30.9 79.4,30.9 79.4,13 		"/>
	</g>
	<g>
		<path fill="#ACACAD" d="M111.6,12.5c5.4,0,9.1,3.9,9.1,9.4c0,5.5-3.6,9.4-9.1,9.4c-5.4,0-9.1-3.9-9.1-9.4
			C102.5,16.5,106.2,12.5,111.6,12.5 M111.6,26.8c1.4,0,3.6-0.9,3.6-4.9c0-4-2.2-4.9-3.6-4.9c-1.4,0-3.6,0.9-3.6,4.9
			C108.1,25.9,110.2,26.8,111.6,26.8z"/>
	</g>
	<g>
		<path fill="#ACACAD" d="M123,13h10.5c3.1,0,5.8,1.7,5.8,5.1c0,1.9-0.9,3.8-2.7,4.5c1.5,0.6,2.4,2.2,2.6,4.5c0.1,0.9,0.1,3,0.6,3.8
			h-5.5c-0.3-0.9-0.4-1.8-0.4-2.8c-0.2-1.7-0.3-3.5-2.5-3.5h-2.9v6.2H123V13 M128.5,20.8h2.9c1,0,2.4-0.2,2.4-1.8
			c0-1.1-0.6-1.8-2.7-1.8h-2.6V20.8z"/>
	</g>
	<g>
		<path fill="#ACACAD" d="M150.1,12.5c5.4,0,9.1,3.9,9.1,9.4c0,5.5-3.6,9.4-9.1,9.4c-5.4,0-9.1-3.9-9.1-9.4
			C141,16.5,144.7,12.5,150.1,12.5 M150.1,26.8c1.4,0,3.6-0.9,3.6-4.9c0-4-2.2-4.9-3.6-4.9c-1.4,0-3.6,0.9-3.6,4.9
			C146.5,25.9,148.7,26.8,150.1,26.8z"/>
	</g>
	<g>
		<path fill="#ACACAD" d="M161.5,13h9.8c4.7,0,5.7,2.7,5.7,4.5c0,1.8-0.9,2.8-2.2,3.5c1.6,0.6,3.1,1.8,3.1,4.5
			c0,3.6-3.1,5.4-6.3,5.4h-10.1V13 M167,19.9h2.9c1.2,0,1.9-0.3,1.9-1.5c0-0.9-0.8-1.2-1.9-1.2H167V19.9z M167,26.6h3.2
			c1.2,0,2.2-0.3,2.2-1.7c0-1.1-0.6-1.6-1.9-1.6H167V26.6z"/>
	</g>
	<g>
		<polyline fill="#ACACAD" points="180.1,13 194.9,13 194.9,17.6 185.6,17.6 185.6,19.8 194,19.8 194,24 185.6,24 185.6,26.3 
			195.1,26.3 195.1,30.9 180.1,30.9 180.1,13 		"/>
	</g>
	<g>
		<polyline fill="#ACACAD" points="79,37 80.6,37 87.8,54.2 87.9,54.2 95,37 96.7,37 96.7,55.4 95.5,55.4 95.5,38.4 95.5,38.4 
			88.4,55.4 87.3,55.4 80.2,38.4 80.1,38.4 80.1,55.4 79,55.4 79,37 		"/>
	</g>
	<g>
		<rect x="107.2" y="37" fill="#ACACAD" width="1.1" height="18.5"/>
	</g>
	<g>
		<polyline fill="#ACACAD" points="118.8,37 120.2,37 131.9,53.9 131.9,53.9 131.9,37 133.1,37 133.1,55.4 131.7,55.4 120,38.4 
			119.9,38.4 119.9,55.4 118.8,55.4 118.8,37 		"/>
	</g>
	<g>
		<rect x="143.6" y="37" fill="#ACACAD" width="1.1" height="18.5"/>
	</g>
	<g>
		<polyline fill="#ACACAD" points="154.7,37 156.1,37 167.7,53.9 167.8,53.9 167.8,37 168.9,37 168.9,55.4 167.6,55.4 155.9,38.4 
			155.8,38.4 155.8,55.4 154.7,55.4 154.7,37 		"/>
	</g>
	<g>
		<path fill="#ACACAD" d="M195.3,46.4v9h-1v-3.9h-0.1c-0.9,2.7-3.7,4.4-7,4.4c-5.6,0-8.7-4.3-8.7-9.6c0-5.2,3.2-9.8,8.7-9.8
			c3.8,0,7,2.3,7.7,6.2h-1.1c-0.8-3.2-3.2-5.2-6.6-5.2c-5,0-7.6,4.2-7.6,8.8c0,4.7,2.5,8.6,7.6,8.6c4.4,0,7.2-3,7-7.5h-6.8v-1H195.3
			"/>
	</g>
	<g>
		<path fill="#ACACAD" d="M85.4,65.5c0,2.4-1.1,3.3-3.2,3.3c-2.2,0-3.2-1.2-3.2-3.1V65h2.4v0.5c0,0.7,0,1.3,0.7,1.3
			c0.7,0,0.6-0.8,0.6-1.2V60h2.7V65.5"/>
	</g>
	<g>
		<path fill="#ACACAD" d="M91.4,59.8c2.6,0,4.4,1.9,4.4,4.5c0,2.6-1.8,4.5-4.4,4.5c-2.6,0-4.4-1.9-4.4-4.5
			C87,61.7,88.8,59.8,91.4,59.8 M91.4,66.7c0.7,0,1.7-0.4,1.7-2.4c0-1.9-1-2.4-1.7-2.4c-0.7,0-1.7,0.4-1.7,2.4
			C89.7,66.3,90.7,66.7,91.4,66.7z"/>
	</g>
	<g>
		<rect x="97.4" y="60" fill="#ACACAD" width="2.7" height="8.7"/>
	</g>
	<g>
		<polyline fill="#ACACAD" points="101.9,60 104.7,60 107.2,64.6 107.2,64.6 107.2,60 109.7,60 109.7,68.7 107.1,68.7 104.5,63.9 
			104.5,63.9 104.5,68.7 101.9,68.7 101.9,60 		"/>
	</g>
	<g>
		<polyline fill="#ACACAD" points="113.6,62.2 111.2,62.2 111.2,60 118.7,60 118.7,62.2 116.3,62.2 116.3,68.7 113.6,68.7 
			113.6,62.2 		"/>
	</g>
	<g>
		<polyline fill="#ACACAD" points="129.4,68.7 126.4,68.7 123.8,60 126.5,60 127.9,65.3 128,65.3 129.4,60 132.1,60 129.4,68.7 		
			"/>
	</g>
	<g>
		<polyline fill="#ACACAD" points="133.1,60 140.2,60 140.2,62.2 135.7,62.2 135.7,63.3 139.8,63.3 139.8,65.4 135.7,65.4 
			135.7,66.4 140.4,66.4 140.4,68.7 133.1,68.7 133.1,60 		"/>
	</g>
	<g>
		<polyline fill="#ACACAD" points="142.1,60 144.8,60 147.3,64.6 147.4,64.6 147.4,60 149.9,60 149.9,68.7 147.3,68.7 144.6,63.9 
			144.6,63.9 144.6,68.7 142.1,68.7 142.1,60 		"/>
	</g>
	<g>
		<polyline fill="#ACACAD" points="153.8,62.2 151.4,62.2 151.4,60 158.9,60 158.9,62.2 156.4,62.2 156.4,68.7 153.8,68.7 
			153.8,62.2 		"/>
	</g>
	<g>
		<path fill="#ACACAD" d="M167.9,65.3c0,2.4-1.3,3.6-3.9,3.6c-2.6,0-4-1.2-4-3.6V60h2.7v4.7c0,0.9,0,2,1.3,2c1.3,0,1.3-1.1,1.3-2V60
			h2.7V65.3"/>
	</g>
	<g>
		<path fill="#ACACAD" d="M169.8,60h5.1c1.5,0,2.8,0.8,2.8,2.5c0,0.9-0.4,1.8-1.3,2.2c0.7,0.3,1.2,1.1,1.3,2.2c0,0.4,0,1.5,0.3,1.9
			h-2.7c-0.1-0.4-0.2-0.9-0.2-1.3c-0.1-0.8-0.1-1.7-1.2-1.7h-1.4v3h-2.7V60 M172.4,63.8h1.4c0.5,0,1.2-0.1,1.2-0.9
			c0-0.5-0.3-0.9-1.3-0.9h-1.2V63.8z"/>
	</g>
	<g>
		<polyline fill="#ACACAD" points="179.2,60 186.4,60 186.4,62.2 181.9,62.2 181.9,63.3 186,63.3 186,65.4 181.9,65.4 181.9,66.4 
			186.5,66.4 186.5,68.7 179.2,68.7 179.2,60 		"/>
	</g>
	<g>
		<path fill="#ACACAD" d="M190.1,65.8c0,0.2,0,0.4,0.1,0.6c0.2,0.5,0.8,0.6,1.3,0.6c0.4,0,1.1-0.1,1.1-0.8c0-0.4-0.4-0.6-1.9-1
			c-1.4-0.4-2.9-0.8-2.9-2.5c0-2,1.7-2.9,3.5-2.9c1.9,0,3.5,0.7,3.6,2.8h-2.5c0-0.3-0.1-0.5-0.3-0.7c-0.2-0.2-0.5-0.2-0.8-0.2
			c-0.4,0-1,0.1-1,0.6c0,0.6,1.3,0.7,2.5,1.1c1.2,0.3,2.4,0.9,2.4,2.5c0,2.3-2.1,3-4,3c-1,0-3.8-0.4-3.8-3.1H190.1"/>
	</g>
</g>
</svg>
