<?xml version="1.0" encoding="utf-8"?>
<!-- Generator: Adobe Illustrator 21.0.2, SVG Export Plug-In . SVG Version: 6.00 Build 0)  -->
<svg version="1.0" id="Layer_1" xmlns="http://www.w3.org/2000/svg" xmlns:xlink="http://www.w3.org/1999/xlink" x="0px" y="0px"
	 viewBox="0 0 210 80" enable-background="new 0 0 210 80" xml:space="preserve">
<g>
	<g>
		<path fill="#ACACAD" d="M65.8,62.7c8.3-5.3,13.9-14.6,13.9-25.2C79.7,21,66.3,7.7,49.8,7.7C33.7,7.7,20.5,20.5,20,36.5
			c0,0.3,0,0.7,0,1c0,0.1,0,0.1,0,0.2c0,0.6,0,1.1,0.1,1.7c0,0.2,0,0.4,0,0.5c0,0.4,0.1,0.8,0.1,1.1c0,0.2,0.1,0.5,0.1,0.7
			c1.3,8.9,6.5,16.5,13.8,21.1V52.7c-3.7-3.8-6-8.9-6.1-14.6c0.5-0.1,1.1-0.1,1.6-0.1c3.7,0,6.4,2.5,6.4,6.7v19.9
			c0,1-0.3,1.5-0.9,2.3c-0.6,0.8-5.3,5.5-5.3,5.5h9.4c0,0,2.6-2.5,4.4-4.3c0.4-0.4,0.5-1,0.5-2.6V42.2c0-5-3.7-7.4-8.2-7.4
			c-2.9,0-5.6,0.6-7.9,1.4c0-0.6,0.1-1.2,0.2-1.9c2.3-0.9,4.9-1.4,7.9-1.4c6.5,0,9.8,4.3,9.8,9.3v23.1v6.9h8v-7.8V40.1
			c0-7-4-11.2-12.4-11.2c-5.2,0-9.5,1.3-12.9,3.2c0.2-0.7,0.4-1.5,0.7-2.2c3.6-1.7,8.1-2.9,13.7-2.9c6.5,0,12.9,4.2,12.9,12.7v25.7
			c0,1.6,0.1,2.2,0.5,2.6c1.7,1.7,4.4,4.3,4.4,4.3h9.4c0,0-4.7-4.8-5.3-5.5c-0.6-0.8-0.9-1.3-0.9-2.3V38c0-10.5-7.7-14.7-17-14.7
			c-6.7,0-12,1.4-16.2,3.6c3.7-6.7,10.9-11.2,19.1-11.2c12.1,0,21.8,9.8,21.8,21.8c0,5.8-2.2,11-5.9,14.9L65.8,62.7L65.8,62.7
			L65.8,62.7z"/>
	</g>
	<g>
		<polygon fill="#ACACAD" points="99.9,41.6 95.7,41.6 92.5,28.2 92.8,41.6 89.8,41.6 89.8,23.8 94,23.8 97.2,36.8 96.9,23.8 
			99.9,23.8 99.9,41.6 		"/>
	</g>
	<g>
		<polygon fill="#ACACAD" points="103.4,23.7 112.1,23.7 112.1,26.5 106.7,26.5 106.7,30.7 111.8,30.7 111.8,33.4 106.7,33.4 
			106.7,38.8 112.3,38.8 112.3,41.6 103.4,41.6 103.4,23.7 		"/>
	</g>
	<g>
		<polygon fill="#ACACAD" points="113.5,23.8 116.9,23.8 118.7,37.2 120.7,23.8 123.8,23.8 125.6,37.2 127.5,23.8 130.8,23.8 
			127.4,41.6 123.9,41.6 122.2,29.4 120.3,41.6 116.8,41.6 113.5,23.8 		"/>
	</g>
	<g>
		<path fill="#ACACAD" d="M139.2,30.3V28c0-1.3-0.2-2.1-1.7-2.1c-1.4,0-1.5,1.1-1.5,1.9v9.5c0,1.1,0.2,2,1.6,2
			c1.5,0,1.5-1.1,1.5-2.2v-2.3h3.3v2.5c0,1.4,0,4.5-4.8,4.5c-0.9,0-2.4-0.2-3.5-0.9c-1.4-0.9-1.4-2.3-1.4-3.3v-9.7
			c0-1.4,0.1-2.4,0.9-3.3c1.3-1.4,3.3-1.4,4-1.4c4.8,0,4.8,2.9,4.8,4.1v2.8L139.2,30.3L139.2,30.3L139.2,30.3z"/>
	</g>
	<g>
		<path fill="#ACACAD" d="M148.6,31.2h1.7c1.5,0,1.5-0.8,1.5-1.7v-1.7c0-1.5-0.8-1.5-1.5-1.5h-1.7V31.2L148.6,31.2z M145.4,23.7h6.6
			c3.2,0,3.2,2.1,3.2,3.8v1.9c0,2.3-0.7,2.7-2.3,3c0.8,0.2,2.4,0.7,2.4,3.1v3.6c0,0.9,0.1,1.8,0.8,2.4h-3.6c-0.4-0.7-0.5-1.4-0.5-2
			v-3.8c0-1.2,0-2.1-1.7-2.1h-1.6v7.8h-3.3L145.4,23.7L145.4,23.7L145.4,23.7z"/>
	</g>
	<g>
		<polygon fill="#ACACAD" points="158.4,23.7 167,23.7 167,26.5 161.6,26.5 161.6,30.7 166.7,30.7 166.7,33.4 161.6,33.4 
			161.6,38.8 167.2,38.8 167.2,41.6 158.4,41.6 158.4,23.7 		"/>
	</g>
	<g>
		<path fill="#ACACAD" d="M169.5,35.3h3.3v2.1c0,1,0,2.1,1.6,2.1c1.6,0,1.6-1.1,1.6-2.7c0-1.3-0.3-1.8-1.1-2.4l-3.1-2.1
			c-1.7-1.1-2.1-2.4-2.1-4.2c0-1.4,0.1-2.7,1.3-3.7c0.7-0.6,1.9-1.1,3.6-1.1c1.9,0,4.5,0.8,4.5,3.8V29h-3.3v-1.3
			c0-0.9,0-1.8-1.4-1.8c-0.9,0-1.5,0.3-1.5,1.8c0,1.5,0.3,1.8,1,2.3l3.2,2.2c0.6,0.5,1.3,1.1,1.7,1.7c0.5,0.8,0.5,1.4,0.5,2.8
			c0,1.6,0,2.6-0.6,3.5c-1,1.6-3,1.8-4.2,1.8c-2.8,0-4.9-1.1-4.9-4.1L169.5,35.3L169.5,35.3L169.5,35.3z"/>
	</g>
	<g>
		<polygon fill="#ACACAD" points="180.1,23.8 190,23.8 190,26.3 186.7,26.3 186.7,41.6 183.4,41.6 183.4,26.3 180.1,26.3 
			180.1,23.8 		"/>
	</g>
	<g>
		<polygon fill="#ACACAD" points="95.5,58 94.4,58 94.5,49.3 93.1,58 91.6,58 90.1,49.3 90.3,58 89.2,58 89.2,48.4 91,48.4 
			92.3,56.9 93.6,48.4 95.5,48.4 95.5,58 		"/>
	</g>
	<g>
		<polygon fill="#ACACAD" points="97.4,48.4 98.6,48.4 98.6,58 97.4,58 97.4,48.4 		"/>
	</g>
	<g>
		<polygon fill="#ACACAD" points="105.1,58 103.4,58 101.5,49.7 101.7,58 100.5,58 100.5,48.4 102.1,48.4 104.1,56.8 103.9,48.4 
			105.1,48.4 105.1,58 		"/>
	</g>
	<g>
		<polygon fill="#ACACAD" points="107,48.4 108.2,48.4 108.2,58 107,58 107,48.4 		"/>
	</g>
	<g>
		<polygon fill="#ACACAD" points="114.7,58 113,58 111.1,49.7 111.3,58 110.1,58 110.1,48.4 111.7,48.4 113.7,56.8 113.5,48.4 
			114.7,48.4 114.7,58 		"/>
	</g>
	<g>
		<path fill="#ACACAD" d="M121.3,58h-1v-0.7c-0.3,0.3-0.8,0.8-1.8,0.8c-0.4,0-1.3-0.2-1.7-1.1c-0.2-0.4-0.3-0.8-0.3-3.5
			c0-1.5,0.1-2.9,0.1-3.3c0.1-0.9,0.5-2,2.3-2c1.2,0,1.7,0.3,2,0.8c0.3,0.5,0.3,0.8,0.3,2.3h-1.1c0-0.6,0-1.1-0.1-1.4
			c-0.1-0.4-0.3-0.7-1-0.7c-1.1,0-1.2,0.8-1.2,1.6c0,0.5-0.1,2.5-0.1,3.2c0,0.7,0,1.2,0.1,1.8c0,0.4,0.1,1.2,1.1,1.2
			c0.4,0,0.7-0.1,1-0.4c0.2-0.2,0.4-0.5,0.4-1.7v-1h-1.4v-1h2.5L121.3,58L121.3,58L121.3,58z"/>
	</g>
	<g>
		<polygon fill="#ACACAD" points="129.7,58 125.6,58 125.6,48.4 126.9,48.4 126.9,56.9 129.7,56.9 129.7,58 		"/>
	</g>
	<g>
		<polygon fill="#ACACAD" points="130.7,48.4 131.9,48.4 131.9,58 130.7,58 130.7,48.4 		"/>
	</g>
	<g>
		<polygon fill="#ACACAD" points="140.1,58 139,58 139.2,49.3 137.8,58 136.2,58 134.8,49.3 135,58 133.8,58 133.8,48.4 135.6,48.4 
			137,56.9 138.3,48.4 140.1,48.4 140.1,58 		"/>
	</g>
	<g>
		<polygon fill="#ACACAD" points="142,48.4 143.2,48.4 143.2,58 142,58 142,48.4 		"/>
	</g>
	<g>
		<polygon fill="#ACACAD" points="147,58 145.9,58 145.9,49.5 144,49.5 144,48.4 148.9,48.4 148.9,49.5 147,49.5 147,58 		"/>
	</g>
	<g>
		<polygon fill="#ACACAD" points="154,58 149.7,58 149.7,48.4 153.9,48.4 153.9,49.5 150.9,49.5 150.9,52.3 153.5,52.3 153.5,53.4 
			150.9,53.4 150.9,56.9 154,56.9 154,58 		"/>
	</g>
	<g>
		<path fill="#ACACAD" d="M156.5,56.9h0.8c0.8,0,1.3-0.1,1.4-0.9c0.1-0.4,0.1-1.8,0.1-2.3c0-0.9,0-1.2,0-2.1c0-1,0-1.6-0.4-1.9
			c-0.3-0.2-0.6-0.2-1.8-0.2V56.9L156.5,56.9z M155.3,58v-9.6h1.8c0.9,0,1.8,0,2.4,0.7c0.4,0.6,0.5,1.1,0.5,3.4c0,0.5,0,1.1,0,2.4
			c0,0.9,0,1.6-0.4,2.2c-0.5,0.9-1.4,0.9-2.5,0.9H155.3L155.3,58z"/>
	</g>
</g>
</svg>
