<?xml version="1.0" encoding="utf-8"?>
<!-- Generator: Adobe Illustrator 21.0.2, SVG Export Plug-In . SVG Version: 6.00 Build 0)  -->
<svg version="1.0" id="Layer_1" xmlns="http://www.w3.org/2000/svg" xmlns:xlink="http://www.w3.org/1999/xlink" x="0px" y="0px"
	 viewBox="0 0 210 80" enable-background="new 0 0 210 80" xml:space="preserve">
<g>
	<g>
		<path fill="#ACACAD" d="M97.3,44.5c0,0-0.5,0.3-1.4,0.3c-1.3,0-2.4-0.7-3-1.1c-0.8-0.5-2-1.2-3.3-1.6c-2.4,0-4-0.7-5.2-2.3
			c-1.2-1.6-1.9-3.6-1.9-6c0-3.5,1.3-6.3,3.7-7.6c1-0.5,2.1-0.8,3.4-0.8c4.3,0,7,3.1,7,8.2c0,3.5-1.3,6.1-3.2,7.4
			c0.4,0.2,1.1,0.6,1.4,0.8c0.6,0.3,1.3,0.7,2,0.7c0.7,0,1.4-0.1,1.4-0.1L97.3,44.5z M92.3,29.9c-0.3-0.8-1.1-2-2.8-2
			c-1.1,0-2,0.6-2.5,1.4c-0.6,1-0.8,2.5-0.8,4.4c0,2.8,0.5,4.5,1.4,5.2c0.5,0.4,1.2,0.6,1.9,0.6c2.3,0,3.2-1.7,3.2-5.8
			C92.8,32,92.6,30.8,92.3,29.9z"/>
		<path fill="#ACACAD" d="M106.8,42.1c-0.4-0.3-0.7-0.7-0.9-1.2c-0.8,0.7-1.9,1.1-3.1,1.1c-1.7,0-3.1-0.8-3.5-1.9
			c-0.2-0.5-0.3-1.2-0.3-2.4v-7.6l3.1-0.6v7.7c0,1.1,0.1,1.6,0.3,2c0.2,0.3,0.6,0.6,1.1,0.6c0.8,0,1.7-0.6,1.9-1.1v-8.4l3-0.6v9.1
			c0,0.8,0.3,1.6,0.7,2.2L106.8,42.1z"/>
		<path fill="#ACACAD" d="M114.2,36.8L114.2,36.8c0,1.9,0.9,3,2.5,3c1.1,0,2.1-0.4,3-1.2l1.2,1.9c-1.4,1.1-2.8,1.7-4.5,1.7
			c-3.4,0-5.6-2.4-5.6-6.2c0-2.1,0.4-3.6,1.5-4.7c1-1.1,2.2-1.6,3.7-1.6c1.4,0,2.7,0.5,3.4,1.3c1.1,1.1,1.6,2.7,1.6,5.2v0.7H114.2z
			 M117.9,34.4c0-0.9-0.1-1.4-0.4-1.8c-0.3-0.5-0.7-0.7-1.4-0.7c-1.2,0-1.9,0.9-1.9,2.6v0h3.6V34.4z"/>
		<path fill="#ACACAD" d="M126,36.8L126,36.8c0,1.9,0.9,3,2.5,3c1.1,0,2.1-0.4,3-1.2l1.2,1.9c-1.4,1.1-2.8,1.7-4.5,1.7
			c-3.4,0-5.6-2.4-5.6-6.2c0-2.1,0.4-3.6,1.5-4.7c1-1.1,2.2-1.6,3.7-1.6c1.4,0,2.7,0.5,3.4,1.3c1.1,1.1,1.6,2.7,1.6,5.2v0.7H126z
			 M129.6,34.4c0-0.9-0.1-1.4-0.4-1.8c-0.3-0.5-0.7-0.7-1.4-0.7c-1.2,0-1.9,0.9-1.9,2.6v0h3.6V34.4z"/>
		<path fill="#ACACAD" d="M141.4,41.8V34c0-1.3-0.2-1.7-1-1.7c-0.6,0-1.4,0.4-2.2,1.1v8.4h-3.1v-8.6c0-1-0.1-2-0.4-2.8l2.8-0.8
			c0.3,0.5,0.4,1,0.4,1.5c0.5-0.3,0.9-0.6,1.4-0.9c0.6-0.3,1.4-0.5,2.1-0.5c1.3,0,2.5,0.7,2.9,1.7c0.2,0.4,0.2,1,0.2,1.7v8.7H141.4z
			"/>
		<path fill="#ACACAD" d="M151.3,42.1c-1.5,0-3.1-0.5-4.8-1.4l1.1-2.3c1,0.6,2.6,1.3,4,1.3c0.9,0,1.6-0.6,1.6-1.3
			c0-0.8-0.6-1.2-1.8-1.5l-1.4-0.3c-0.8-0.1-1.8-0.7-2.2-1.2c-0.4-0.5-0.7-1.4-0.7-2.1c0-2.3,1.8-3.9,4.6-3.9c1.9,0,3.2,0.6,4.3,1.1
			l-1,2.1c-1.2-0.6-2-0.9-2.9-0.9c-0.9,0-1.5,0.5-1.5,1.2c0,0.6,0.4,0.9,1.5,1.2l1.4,0.4c1.5,0.4,2,0.8,2.4,1.3
			c0.4,0.6,0.7,1.2,0.7,2C156.4,40.5,154.3,42.1,151.3,42.1z"/>
		<path fill="#ACACAD" d="M161.6,42c-1.3,0-2.4-0.6-2.8-1.6c-0.2-0.6-0.3-1-0.3-2.7v-8.9c0-1.6,0-2.5-0.2-3.6l3.2-0.7
			c0.1,0.7,0.2,1.4,0.2,3.1v9.3c0,2,0,2.3,0.2,2.7c0.1,0.2,0.4,0.3,0.6,0.3c0.1,0,0.2,0,0.3,0l0.5,1.9C162.9,41.9,162.3,42,161.6,42
			z"/>
		<path fill="#ACACAD" d="M173.1,42.4c-0.7-0.3-1.4-0.8-1.7-1.4c-0.2,0.2-0.5,0.5-0.7,0.6c-0.6,0.4-1.4,0.7-2.4,0.7
			c-2.7,0-4.1-1.3-4.1-3.7c0-2.8,1.9-4.1,5.7-4.1c0.2,0,0.4,0,0.7,0v-0.5c0-1.3-0.3-1.8-1.4-1.8c-1,0-2.2,0.5-3.4,1.4l-1.3-2.2
			c0.6-0.4,1.1-0.6,1.9-1c1.2-0.5,2.2-0.7,3.3-0.7c2,0,3.4,0.7,3.8,2.1c0.2,0.5,0.2,0.9,0.2,2.1l-0.1,4c0,1.3,0.1,1.9,1.1,2.7
			L173.1,42.4z M170.4,36.5c-2.2,0-2.9,0.4-2.9,1.8c0,0.9,0.6,1.6,1.4,1.6c0.6,0,1.2-0.3,1.6-0.8l0-2.6H170.4z"/>
		<path fill="#ACACAD" d="M183.2,41.8V34c0-1.3-0.2-1.7-1-1.7c-0.6,0-1.4,0.4-2.2,1.1v8.4h-3.1v-8.6c0-1-0.1-2-0.4-2.8l2.8-0.8
			c0.3,0.5,0.4,1,0.4,1.5c0.5-0.3,0.9-0.6,1.4-0.9c0.6-0.3,1.4-0.5,2.1-0.5c1.3,0,2.5,0.7,2.9,1.7c0.2,0.4,0.2,1,0.2,1.7v8.7H183.2z
			"/>
		<path fill="#ACACAD" d="M196.7,41.8c-0.1-0.2-0.1-0.4-0.2-0.7c-0.8,0.7-1.7,1-2.7,1c-3,0-4.9-2.4-4.9-6.1c0-3.7,2.1-6.3,5.1-6.3
			c0.9,0,1.5,0.2,2.1,0.7c0-0.3-0.1-1.1-0.1-1.8v-4.1l3.1,0.5v12.4c0,2.9,0.2,3.9,0.4,4.4H196.7z M196,33c-0.6-0.5-1.1-0.8-1.7-0.8
			c-1.4,0-2,1.2-2,3.8c0,2.6,0.5,3.4,2.2,3.4c0.6,0,1.2-0.4,1.5-0.8V33z"/>
		<path fill="#ACACAD" d="M89.9,64.5c-2,0-3.7-0.7-4.9-2c-1.3-1.5-2-3.4-2-6.2c0-3.1,0.8-5.2,2.5-6.7c1.1-1,2.5-1.5,4.2-1.5
			c1.7,0,3.2,0.5,4.4,1.6l-0.9,1.2c-1.3-0.9-2.2-1.2-3.5-1.2c-1.9,0-3.3,0.9-4,2.7c-0.4,1.2-0.6,2.5-0.6,4c0,2.1,0.4,3.8,1.1,4.8
			c0.7,1,2.4,1.7,3.9,1.7c1,0,1.9-0.2,2.5-0.6v-4.9h-3.2L89,55.9h5.4v7.4C93.2,64.1,91.5,64.5,89.9,64.5z"/>
		<path fill="#ACACAD" d="M102.5,64.6c-3.2,0-5-2.4-5-6.2c0-3.8,1.9-6.1,4.9-6.1c1.9,0,3.2,0.9,4,2c0.7,1,1.1,2.4,1.1,4.3
			C107.5,62.6,105.4,64.6,102.5,64.6z M104.9,55.3c-0.5-1-1.5-1.5-2.5-1.5c-1,0-2,0.5-2.4,1.3c-0.4,0.7-0.6,1.7-0.6,3
			c0,1.6,0.3,3.1,0.7,3.8c0.4,0.7,1.3,1.2,2.4,1.2c1.2,0,2.1-0.6,2.5-1.7c0.3-0.7,0.3-1.4,0.3-2.5C105.4,57.2,105.3,56.1,104.9,55.3
			z"/>
		<path fill="#ACACAD" d="M114.7,64.4H113l-4.2-11.6l1.9-0.4l2.7,8c0.3,1,0.6,2,0.6,2h0c0,0,0.2-0.9,0.6-2l2.7-7.7h1.9L114.7,64.4z"
			/>
		<path fill="#ACACAD" d="M122.7,58.8v0.3c0,1.1,0.1,1.9,0.5,2.5c0.7,1,1.7,1.4,2.9,1.4c1.1,0,2-0.3,2.8-1.1l0.7,1.2
			c-1,0.9-2.4,1.4-3.9,1.4c-3.2,0-5.1-2.3-5.1-6.2c0-2,0.4-3.2,1.4-4.4c0.9-1.1,2.1-1.6,3.5-1.6c1.3,0,2.4,0.4,3.1,1.3
			c1,1,1.3,2.1,1.3,4.9v0.3H122.7z M127.5,54.8c-0.4-0.6-1.2-1-2.1-1c-1.7,0-2.6,1.2-2.7,3.6h5.3C128,56.2,127.8,55.4,127.5,54.8z"
			/>
		<path fill="#ACACAD" d="M138.1,54.5c-0.1,0-0.3-0.1-0.5-0.1c-0.7,0-1.4,0.3-1.9,0.8c-0.5,0.5-0.7,0.9-0.7,1.8v7.3h-1.8v-8.9
			c0-1.7-0.4-2.5-0.4-2.5l1.8-0.5c0,0,0.4,0.9,0.4,1.9c0.8-1.2,2.1-1.9,3.3-1.9c0.3,0,0.6,0.1,0.6,0.1L138.1,54.5z"/>
		<path fill="#ACACAD" d="M147.3,64.3v-7.8c0-1.2-0.1-1.5-0.4-1.9c-0.3-0.3-0.7-0.5-1.3-0.5c-0.9,0-2.4,0.7-3.2,1.6v8.6h-1.8v-8.9
			c0-1.7-0.4-2.4-0.4-2.4l1.8-0.5c0,0,0.4,0.9,0.4,1.8c1.2-1.2,2.4-1.8,3.7-1.8c1.3,0,2.4,0.7,2.8,1.7c0.2,0.4,0.3,0.9,0.3,1.3v8.8
			H147.3z"/>
		<path fill="#ACACAD" d="M165.3,64.3v-8.6c0-1.1-0.5-1.7-1.5-1.7c-1,0-1.9,0.7-3.1,1.8v8.5h-1.8v-8.2c0-0.7-0.1-1.2-0.3-1.5
			c-0.3-0.3-0.7-0.5-1.2-0.5c-0.9,0-1.7,0.4-3,1.5v8.7h-1.7v-9c0-1.7-0.4-2.5-0.4-2.5l1.8-0.4c0,0,0.4,0.9,0.4,1.7
			c0.8-0.9,2.2-1.7,3.4-1.7c1.1,0,2.3,0.7,2.7,1.9c1.1-1.2,2.5-1.9,3.7-1.9c1.7,0,2.9,1.3,2.9,3.1v8.8H165.3z"/>
		<path fill="#ACACAD" d="M172.2,58.8v0.3c0,1.1,0.1,1.9,0.5,2.5c0.7,1,1.7,1.4,2.9,1.4c1.1,0,2-0.3,2.8-1.1l0.7,1.2
			c-1,0.9-2.4,1.4-3.9,1.4c-3.2,0-5.1-2.3-5.1-6.2c0-2,0.4-3.2,1.4-4.4c0.9-1.1,2.1-1.6,3.5-1.6c1.3,0,2.4,0.4,3.1,1.3
			c1,1,1.3,2.1,1.3,4.9v0.3H172.2z M177,54.8c-0.4-0.6-1.2-1-2.1-1c-1.7,0-2.6,1.2-2.7,3.6h5.3C177.5,56.2,177.3,55.4,177,54.8z"/>
		<path fill="#ACACAD" d="M189.4,64.3v-7.8c0-1.2-0.1-1.5-0.4-1.9c-0.3-0.3-0.7-0.5-1.3-0.5c-0.9,0-2.4,0.7-3.2,1.6v8.6h-1.8v-8.9
			c0-1.7-0.4-2.4-0.4-2.4l1.8-0.5c0,0,0.4,0.9,0.4,1.8c1.2-1.2,2.4-1.8,3.7-1.8c1.3,0,2.4,0.7,2.8,1.7c0.2,0.4,0.3,0.9,0.3,1.3v8.8
			H189.4z"/>
		<path fill="#ACACAD" d="M199,54.1h-2.4v7.5c0,1.3,0.3,1.7,1.5,1.7c0.5,0,0.8-0.1,1.1-0.2l0.3,1.2c-0.6,0.3-1.2,0.5-2,0.5
			c-0.6,0-1.1-0.1-1.5-0.3c-0.8-0.4-1.1-1.1-1.1-2.3v-8h-1.5v-1.4h1.5c0-1.1,0.2-2.9,0.2-2.9l1.9-0.4c0,0-0.2,1.8-0.2,3.4h2.9
			L199,54.1z"/>
	</g>
	<g>
		<path fill="#ACACAD" d="M38.1,29.3c-1.5,0.1-2.9,2-2.3,4.2c-0.2,0.1-0.9,0.1-1.1-0.4c-0.2,0.7-1.6,1.5-2.7,1.4
			c0.6-0.6,1-2.1,2.1-2.8c1.1-0.8,1.7-1.3,2.1-2.6c-0.5,0.3-3.3,1-4.1,0.1c1.8-0.3,4-1.3,5-2l-0.4-0.4c-1.1,0.6-2.7,1.2-3.4,1.4
			c-0.3-2.3,1.9-2.2,2.1-1.6c0.9-1.1,0.3-2.6-0.4-2.8c0.7-1.8,0-2.9-0.6-3.6c-0.1,1.9-2.3,2.2-2.5,3.7c-0.1-1.2-0.2-4.4-0.3-5.9
			c-0.2-2.9-3.8-3.9-4.4-3.9c-2.4,0.1-2.6-0.2-2.5-1.3c-1.2,1.4-0.8,2.6,0.2,3.2c-0.1,0.8-1.5,1.5-2.3,1.6c1.9,1.8,4.2,0.7,5.2-0.3
			c0.1-0.1,0.2-0.1,0.2-0.2c0.4,0.7,0.7,1.9,0.7,2.6c-1.8-0.1-2.1,1.3-2.1,1.8c2.3-1,2.5,3.4,3.2,4.2c-0.6,0-1.6-1.4-3.2-1.5
			c-1.8-0.1-2.5,0.9-3.2,0.8c0.1,1.3,1.7,2,2.7,2.2c-0.5,1.3-0.1,2.2,1,2.6c0-1.2,1.5-1.6,3.2-0.6c2,1.2,3,1.3,4.6,0.8
			c-0.3,0.6-1,0.6-1.9,1.5c-1.2,1.2-1.3,2.8-2.6,3.4c1.6,0.8,4-0.3,4.4-0.9c0.7,0.4,1.5,0.2,1.8-0.3c-1.1-2.4,0.8-3.9,1.5-3.8
			C38.1,30,38.5,29.3,38.1,29.3L38.1,29.3z M29.7,28.3c-0.8-0.3-2.1-0.5-2.8,0.4c-0.4-0.7,0.2-1.7,0.5-1.9c-1.8,0-2.8-0.5-3.1-1
			c0.7-0.4,2.3-1,3.7,0c0.9,0.7,1.4,1,2.5,1.4c0.4-0.4,0.3-0.2,0.4-0.3c-0.9-0.6-1.3-5.5-3.1-5.7c0.3-0.6,1.2-0.6,1.9-0.4
			c0.1-1.1-0.4-2.9-1.1-3.9c1-0.5,1.7,0,2.1,1.3c0.4,1.4-0.1,4.8,0.8,7.9l0.6-0.5c-0.3-1.8,1.7-2.4,2.1-3.3c0.2,1.2-0.1,1.8-0.4,2.2
			c0.7,0.1,1,0.8,0.9,1.3c-1.7-0.3-2.7,1.5-2.3,2.8C31.3,28.8,30.4,28.6,29.7,28.3L29.7,28.3z M24.8,14.8c1.4,0.7,1.8-0.6,4.3,1.1
			c-1.7,0.5-3,2.6-4.9,2.1c1.4-0.7,1.2-1.7,2-2.2C25.8,15.8,24.8,15.5,24.8,14.8L24.8,14.8z"/>
		<path fill="#ACACAD" d="M55.7,22.7c0-2.7-0.1-4.9-0.1-5.6c0.1,0,0.2,0.1,0.3,0.1c1.9,0.7,2.4,3,6.4,0.4c-2.1,0.3-2.3-1.6-3.2-1.6
			c1.5-0.8,1.6-2.8,1.6-2.8c-1.2,1-4.1,1.1-4.7,1.4c-0.7,0.4-1.7,1-2.3,1.3c-1.7,0.9-0.5,5.8-0.7,7.6c-0.9-2.7-2.7-2.3-3.7-3.8
			c-0.7,1.3,0,3.4,0.3,4.1c-1,0.8-0.8,2.4-0.5,2.8c0.9-0.6,2.3-0.5,2.7,0.6c-1.2,0.7-3.1,0.8-4.4-0.5l-0.5,0.5
			c0.9,1.2,3.3,1.7,5,0.7c0,0.3-0.1,0.6-0.2,1c-0.9,0.5-2.1,0.7-3.4,0.3c0.2,1.4,1.7,2.4,3.2,2.8c-0.5,0.4-1.1,0.5-1.6,0.5
			c0.3,0.8,0.4,1.8-0.2,2.7c-0.7-0.5-1.1-1-1.4-2.9c-0.3-1.9-1.7-3.8-2.7-4.2c-0.1,0.7-0.1,0.4,0.1,0.8c2.8,2.1,1.2,5.8,4.2,7.2
			c1.1-1.2,1.1-1.7,0.9-2.8c1.1-0.3,1.9-1.2,2.1-1.9c-1,0.5-2.6-0.4-3.1-1c1.7-0.1,3.4-1.4,5-3.1c1.5-1.6,3.5-1.3,3.3-0.1
			c1-0.2,1.4-1.6,1.1-2.4c1.5-0.5,2.7-1.6,2.8-3.3C60.2,22.3,57.6,20.6,55.7,22.7L55.7,22.7z M58.2,24.1c0.8,0.7,0.5,1.6,0.3,1.8
			c-0.7-1.2-2.9-0.8-5.1,1.7c-0.2,0.2-0.4,0.4-0.6,0.6c0.2-3-2.3-3-3-2.7c0.1-0.9,0.6-1.4,0.9-1.5c-0.7-0.8-0.9-1.9-1-2.6
			c1.2,0.5,3,1.9,3.2,4.3l0.8-0.5c-0.2-4.2-0.2-4.2-0.2-7c0-0.4,0-1.3,1.3-1.2c0.1,1.1,0.2,3.9,0.2,7.8h0.4c0.4-1.1,1.8-2.4,3.5-2.3
			c1.1,0.1,1.5,0.1,2.2-0.2C60.6,23.5,58.7,24,58.2,24.1L58.2,24.1z M54.9,16.2c0.8-0.6,1.3-0.8,1.8-1.1c0.7,0,1.9-0.1,2.6-0.4
			c-0.8,0.9-0.8,1.3-2.1,1.4c1.6,0.1,2.3,1.6,3.1,1.8C57.6,18.7,57.3,16,54.9,16.2L54.9,16.2z"/>
		<path fill="#ACACAD" d="M44.8,31.9c-0.1,0-0.3,0.1-0.3,0.2C44.3,32,44.2,32,44,32l0-0.9c0.2-0.1,0.3-0.2,0.3-0.4
			c0-0.2-0.2-0.4-0.4-0.4c-0.2,0-0.4,0.2-0.4,0.4c0,0.2,0.1,0.3,0.2,0.4l0,0.8c-0.1,0-0.3,0-0.5,0c-0.1-0.2-0.2-0.3-0.4-0.3
			c-0.2,0-0.4,0.2-0.4,0.4c0,0.2,0.2,0.4,0.4,0.4c0.2,0,0.3-0.1,0.4-0.2c0.2,0,0.3,0,0.5,0.1l0,1.3c-0.1,0.1-0.2,0.2-0.2,0.4
			c0,0.2,0.2,0.4,0.4,0.4c0.2,0,0.4-0.2,0.4-0.4c0-0.2-0.1-0.3-0.3-0.4l0-1.2c0.1,0,0.3,0,0.4,0.1c0.1,0.2,0.2,0.3,0.4,0.3
			c0.2,0,0.4-0.2,0.4-0.4C45.3,32.1,45.1,31.9,44.8,31.9L44.8,31.9z"/>
		<path fill="#ACACAD" d="M41.1,31.6c-0.2,0-0.3,0.1-0.4,0.3c-0.2,0-0.3,0-0.5,0l0-0.8c0.1-0.1,0.2-0.2,0.2-0.4
			c0-0.2-0.2-0.4-0.4-0.4c-0.2,0-0.4,0.2-0.4,0.4c0,0.2,0.1,0.3,0.3,0.4l0,0.9c-0.2,0-0.3,0-0.5,0.1c-0.1-0.1-0.2-0.2-0.3-0.2
			c-0.2,0-0.4,0.2-0.4,0.4c0,0.2,0.2,0.4,0.4,0.4c0.2,0,0.4-0.1,0.4-0.3c0.1,0,0.3,0,0.4-0.1l0,1.2c-0.1,0.1-0.3,0.2-0.3,0.4
			c0,0.2,0.2,0.4,0.4,0.4c0.2,0,0.4-0.2,0.4-0.4c0-0.2-0.1-0.3-0.2-0.4l0-1.3c0.2,0,0.3,0,0.5-0.1c0.1,0.1,0.2,0.2,0.4,0.2
			c0.2,0,0.4-0.2,0.4-0.4C41.5,31.8,41.3,31.6,41.1,31.6L41.1,31.6z"/>
		<path fill="#ACACAD" d="M46.8,35.3c-0.3-1.7-0.9-6.6-1-8.3l-0.7,0c0,0.3,0,0.6,0.1,1.1c-0.9-0.3-2.1-0.4-3.3-0.4
			c-1.2,0-2.4,0.2-3.3,0.4c0-0.4,0.1-0.8,0.1-1.1l-0.7,0c-0.1,1.6-0.7,6.5-1,8.3c-0.4,0.2-0.7,0.6-0.7,1.4c0,0,4.1,0.1,5.6,0.1
			c1.6,0,5.6-0.1,5.6-0.1C47.6,35.9,47.3,35.5,46.8,35.3L46.8,35.3z M41.9,35.3c-0.6,1.2-1.8,1.2-2.9,0.5c-0.4-0.3-0.9-0.5-1.2-0.5
			c0.2-1.2,0.5-3.5,0.7-5.4c1.4-0.6,3-0.8,3.4,0.8c0.4-1.6,2.1-1.4,3.4-0.8c0.2,1.9,0.5,4.2,0.7,5.4c-0.4,0.1-0.8,0.2-1.2,0.5
			C43.8,36.5,42.6,36.5,41.9,35.3L41.9,35.3z"/>
		<path fill="#ACACAD" d="M33.3,37.3c2.3,0.8,5,1.4,7.8,0c-0.4,1.2-0.9,2-1.6,2.5c0.4,1,1,2.2,1.3,3.2c0.7,0.5,0.6,1.3,0.5,1.9
			c-0.1,0.5-1.8,1.1-2.4,1c-0.5-0.2-0.5-0.4-0.8-0.4c-0.7,0.1-3.1,2.3-5.3,0.2c0-2.1,0-4.7,0-4.7c0.9-0.5,1.6-0.9,2-1.5
			C34.3,39.1,33.6,38.2,33.3,37.3L33.3,37.3z M35.8,39.3c-0.6,0.9-1.2,1.4-2.3,2c0,0,0,2.4,0,3.8c1.5,1.3,3.4,0.2,4.1-0.3
			c-0.2-0.4-0.3-0.6-0.4-1c-1.8,0.2-2.5-0.7-2.9-2.1c0,0,0.3-0.2,0.7-0.4c0.6,2.1,1.8,1.8,2.7,1.8c0.6-0.5,1.4-0.7,2.2-0.7
			c-0.2-0.8-0.8-1.9-1.3-2.8c0.5-0.3,1.1-0.7,1.5-1.3c-2.5,0.9-3.5,0.6-5.6,0C34.9,38.7,35.4,39.1,35.8,39.3L35.8,39.3z M40.1,43.1
			c-0.4-0.1-1.7,0.2-1.9,0.6c-0.1,0.3,0.1,0.9,0.6,1.2c0.3,0.2,1.5-0.2,1.7-0.5C40.7,44.2,40.5,43.2,40.1,43.1L40.1,43.1z"/>
		<path fill="#ACACAD" d="M51.2,40.4c0-1.4-1-2.7-2.6-2.7c-1.5,0-3.3,0.7-3.4,2C43,40.9,42,42,42.3,43.1c-0.7,0.8-0.2,2.2,2,1.3
			c-0.6,0.6-0.8,1.3-0.8,1.8c2,0,6.7,0,7.2,0C50,42.3,51.2,43,51.2,40.4L51.2,40.4z M49.1,40c-0.4-0.1-2-0.2-2.5,1
			c-0.3,0-0.6-0.1-0.8-0.3c-0.2,0.3-0.5,0.4-1,0.6c0.4,0.8,1.2,0.7,1.7,0.3c0,0.1,0,0.2,0,0.3c0,1.9,2.1,2.4,3.3,1.7
			c-0.2,0.6-0.1,1.4,0,2c0,0-4.3,0-5,0c0.1-0.5,0.8-1.2,1.3-1.5l-0.4-0.7c-0.5,0.2-1.1,0.5-1.6,0.6c-1.4,0.4-1.3-0.6,0.1-1v-0.4
			l-0.9,0c0.2-1,2.1-2.2,3-2.5c0-1.1,1.4-1.4,2.5-1.4c1.4,0,1.7,1.5,1.7,1.9c0,0.6-0.2,2-0.9,2.4c-1.1,0.6-2.1-0.2-2.1-1
			c0-0.8,0.6-1.3,1.6-1.2C49.9,40.7,49.8,40.1,49.1,40L49.1,40z"/>
		<path fill="#ACACAD" d="M48.9,54.1v-1.4v-0.3h-0.3h-0.4c0-1.8-0.5-3.1-1.3-4l-0.2-0.3l-0.2,0.3c-0.8,0.9-1.3,2.2-1.3,4h-0.4h-0.3
			v0.3V54c-1,0.3-1.7,0.8-2.5,1.4l0,0l0.4,0.5l0,0c1.3-1,2.1-1.6,4.4-1.6c2.4,0,3.3,1,4,2.1l0.6-0.4C50.6,55.3,50,54.6,48.9,54.1
			L48.9,54.1z M46.6,49.1c0.6,0.7,0.8,1.8,0.9,3.2h-1.8C45.7,50.9,46,49.9,46.6,49.1L46.6,49.1z M44.9,53.8V53h3.3v0.9
			c-0.5-0.1-1-0.2-1.7-0.2C45.9,53.7,45.4,53.7,44.9,53.8L44.9,53.8z"/>
		<path fill="#ACACAD" d="M48.4,57.3c0.2-0.6,0-1.1-0.3-1.5c-0.3-0.3-0.8-0.6-1.4-0.5l0.7,0.8l-1.2,1l-0.5-0.6c0,0,0.2-0.2,0.5-0.4
			c-0.4-0.5-1-0.9-1.8-0.7c-0.3,0.8,0,1.4,0.4,1.9c0.3-0.2,0.5-0.4,0.5-0.4l0.5,0.6l-1.4,1.2l0.4,0.5l1.4-1.2l0.5,0.5
			c0,0-0.3,0.4,0.1,0.9c0.3-0.3,0.9-0.8,1.2-1c-0.4-0.5-0.9-0.3-0.9-0.3l-0.5-0.5l1.1-1L48.4,57.3L48.4,57.3z"/>
		<path fill="#ACACAD" d="M39.3,49.1c-0.2-1-1.3-1.1-1.8-0.7c-0.5-0.5-1.7-0.3-1.8,0.7c-1.8-0.3-1.6,1.5-1.4,1.9
			c0.2,0.4,0.7,1.6,1,2.3c-0.1,0-0.1,0-0.2,0c-0.1,0.4-0.1,1,0,1.4c0.1,0,0.2,0.1,0.2,0.1c-0.2,0.6-0.5,1.4-0.7,1.9
			c0.3,0.2,0.5,0.3,0.9,0.4c0,0-0.1,0.3-0.2,0.6c0.5,0.2,1.5,0.3,2.1,0.3c0.6,0,1.6-0.1,2.1-0.3c-0.1-0.3-0.2-0.6-0.2-0.6
			c0.4-0.1,0.6-0.2,0.9-0.4c-0.2-0.4-0.5-1.3-0.7-1.9c0.1,0,0.2-0.1,0.2-0.1c0.1-0.4,0.1-1,0-1.4c0,0-0.1,0-0.2,0
			c0.3-0.7,0.8-1.9,1-2.3C41,50.5,41.2,48.8,39.3,49.1L39.3,49.1z M37.5,49.2c0.1-0.5,1.4-0.6,1.2,0.5c-0.3,1.1-0.6,2.3-0.8,3.4
			c-0.1,0-0.2,0-0.4,0c-0.1,0-0.2,0-0.4,0c-0.3-1.1-0.6-2.3-0.8-3.4C36,48.6,37.4,48.7,37.5,49.2L37.5,49.2z M39.3,53.8
			c0,0.2,0,0.4,0,0.5c-0.4,0.1-1.2,0.2-1.8,0.2c-0.6,0-1.4-0.1-1.8-0.2c0-0.2,0-0.4,0-0.5c0.3-0.1,1.5-0.2,1.8-0.2
			S39,53.7,39.3,53.8L39.3,53.8z M34.9,50.7c-0.4-1,0.6-1.2,0.8-0.7c0.3,0.8,0.7,2.1,1,3.1c-0.3,0-0.5,0-0.7,0.1
			C35.8,52.9,35.3,51.8,34.9,50.7L34.9,50.7z M39.6,56.4c-0.2,0.1-0.5,0.2-0.8,0.2c0.1,0.2,0.1,0.5,0.2,0.6c-0.4,0.1-1,0.1-1.4,0.1
			c-0.4,0-1.1,0-1.4-0.1c0-0.2,0.1-0.4,0.2-0.6c-0.3,0-0.6-0.1-0.8-0.2c0.1-0.4,0.3-0.8,0.5-1.4c0.5,0.1,1.1,0.2,1.7,0.2
			c0.6,0,1.1,0,1.7-0.2C39.3,55.5,39.5,55.9,39.6,56.4L39.6,56.4z M40.1,50.7c-0.4,1.1-0.9,2.1-1,2.5c-0.2,0-0.5-0.1-0.7-0.1
			c0.3-0.9,0.7-2.2,1-3.1C39.5,49.5,40.5,49.8,40.1,50.7L40.1,50.7z"/>
		<path fill="#ACACAD" d="M36,40.5c0.5,0.1,0.8,0,1.3,0c0.2,0,0.6,0.1,0.5,0.7c-0.1,0.3,0,0.4,0.1,0.6c-0.4-0.1-0.9,0.1-1.2,0
			C36.2,41.5,36.3,40.9,36,40.5L36,40.5z"/>
		<path fill="#ACACAD" d="M65.7,34.8c-0.1,1.7-1.4,4.2-3,5.5l1,0c1-1,2.8-2.8,3-6.1C66.7,34.1,66.1,34.5,65.7,34.8L65.7,34.8z"/>
		<path fill="#ACACAD" d="M60,31.2c0.1-0.2,0.1-0.5,0.6-0.7c0.4-0.1,0.5,0.2,0.6,0.3c0.3,0.1,0.2,0,0,0.2c-0.1,0.2-0.1,0.5-0.5,0.6
			c-0.5,0-0.4-0.2-0.7-0.2C59.8,31.4,59.8,31.3,60,31.2L60,31.2z"/>
		<g>
			<path fill="#ACACAD" d="M76.4,32.5c-0.2,0.1-0.7,0.2-1.1,0.3c0.6-0.6,1-1.4,1-2c-0.3,0.1-0.9,0.3-1.4,0.4c1-0.9,1.6-1.8,1.3-3.2
				c-0.3,0.2-0.7,0.4-1.2,0.6c0.9-1.4,0.9-2.5,0.5-3.2c-0.4,0.4-0.9,0.8-1.4,1.1c0.3-1.6,0.3-2.6-0.3-3.3c-0.7,1.3-1.2,2.2-2.2,3.3
				c0.1-1,0-2.3-0.7-3c0,0-0.2,1.4-0.7,1.9c-0.1-1.4-0.6-2.2-1.2-2.9c0,0,0,1.5-0.4,2.4c-0.3-1.2-1-2.2-1.8-3.1
				c0.1,2.7-0.7,7.8-2.9,11.3c-0.3,2-0.5,5.1-3.8,6.9c-0.5-0.3-1.3-0.8-2.5-0.7c-0.3-1.5,1.7-2.9,3.4-4.1c1.8-1.1,2.5-2.1,2.5-3.6
				c0-1.6-1.2-2.3-2.3-2.4c-1.6-0.1-3,1.4-3.3,2c-0.5,0.2-1.9,0.7-2.4,0.8c-0.6,0.2-1.4,0.4-1.8,0.8c0.3,0.2,1,0.2,1.3,0.2
				c0.6-0.1,2.3-0.4,4-0.6c0.6,0.3,1.6,0.9,0.6,1.6c-1.4,0.9-2.1,1.2-4.1,2.2c-3.2,1.7-2.2,5.9-1.4,6.2c0,1.4,1.3,4,2.1,4.9
				c0.4,1.8-0.1,4.5-0.7,5.6c-0.4-1.1-1.2-3.6-1.7-5.1c0.5-2.8-0.3-4-0.9-4.5c-0.6-0.5-1.5-0.4-2.1,0.6c0.9-0.1,1.2,1.1,1.2,2.3
				c0,1.5-0.4,2.6-1.4,2.7c0.1,1.3,1.4,1.6,2.1,1c0.1,0.3,0.6,1.9,1.2,3.4c0.3,0.9,0.6,1.7,0.8,2.1c0.2,0.5,1.8,0.5,2,0
				c0.2-0.7,0.4-1.3,0.8-2.1c0.3-0.6,0.7-1.5,1.3-2.6c0.4,0.7,1,1.9,1.3,2.6c0.2,0.4,0.3,0.6,0.3,0.8c0.1,1.2,0.1,5.5-0.3,8
				c-3.5-1-4.5,0.8-4.2,2c0.5-0.6,1.2-0.5,1.6-0.2c-0.1,0.9,0.2,1.6,1.1,1.9c1-2.7,4.6-2.1,5-1.8c0-0.5,0.5-1.8-1.4-2.1
				c0.1-2.3,0.3-5.1,0.4-5.7c0.1-0.6,0.2-1-0.1-1.9c-0.1-0.3-0.2-0.6-0.3-1l0,0c-0.2-0.9-0.5-2.2-0.5-3.5c0.3,0.3,1.1,0.6,1.6,0.5
				c0.4,1.7,1,1.2,1.3,2c0.2,0.4,0.2,0.7,0.2,1c0,0.3,0.1,0.6,0.3,0.8c1.2,0,2.3-0.3,3.1-0.8c0.2-0.2,0.4-0.3,0.6-0.6
				C68.5,51,68,50.1,67,49c-0.3-1.5-1-2.9-1.9-4.1c1.2-0.4,2.5-1.4,3.1-2.1c0.6,0,1.3-0.5,1.3-1.5c0.3,0,0.6-0.1,0.9-0.1
				c0-0.3-0.1-0.7-0.1-0.9c0.4,0,0.9,0,1.3-0.1c-0.1-0.4-0.3-0.7-0.4-1c0.4,0,1,0,1.5-0.1c-0.2-0.4-0.4-0.8-0.6-1.2
				c0.5-0.1,1.3-0.2,2-0.3c-0.2-0.2-0.4-0.4-0.8-0.8c1.7-0.5,2.4-1.7,2.5-2.2c-0.3,0-0.8,0.1-1.1,0.1C75.6,34.1,76.3,33.4,76.4,32.5
				z M67.5,24.8c0.4,0.7,0.7,2,0.7,3c0.5-0.5,0.9-1.4,1.1-2c0.2,0.5,0.2,1.7,0.2,2.3c0.6-0.5,1-1.2,1.3-1.9c0.1,0.5,0.1,1,0,1.5
				c-1.3,1.4-3.4,3.2-5.6,5C66.4,30.2,67.2,28.1,67.5,24.8z M56.8,53.4c-0.2,0.5-0.3,0.9-0.4,1.4c-0.1,0.5-1.1,0.3-1.3,0
				c-0.1-0.3-0.3-0.8-0.6-1.4l0,0c-0.6-1.5-1.4-3.7-1.6-4.6c-0.4,0.7-0.8,1-1.3,0.6c1.7-0.7,1.1-5.2,0.4-5.5c0.8-0.7,1.7,2,1.2,4
				c0.5,1.4,1.5,4.3,1.9,5.5c0.1,0.3,0.1,0.4,0.2,0.5c0.1,0.4,0.6,0.3,0.7,0c0-0.1,0.1-0.3,0.2-0.5c0.4-1.3,1.2-3.9,1.1-5.6
				c0.8,0.1,1,0.9,1.3,1.8C57.8,51.1,57.2,52.2,56.8,53.4z M74.3,35.4c-0.4,0.4-1.7,1-3.2,1c0.3,0.3,0.8,0.6,1.2,0.7
				c-0.4,0.1-1.1,0.1-1.6,0.1c0.3,0.4,0.6,1,0.8,1.2c-0.4,0-0.8,0-1.3-0.1c0.3,0.5,0.3,0.7,0.5,1.1c-0.3,0-1,0-1.3,0
				c0.1,0.3,0.3,0.8,0.4,1c-0.2,0-0.5,0-0.7,0c-1.5,2.1-3.6,4.2-7.5,4c0.1,0.3,0.2,0.7,0.2,0.7c0.6,0,1.8-0.1,2.6-0.2
				c0.6,0.7,1.7,2.2,2.2,4.7c0.4,0.3,1.1,1.5,1.5,3c-0.7,0.4-1.3,0.6-2.2,0.7c-0.3-1.9-1.3-2-1.8-3.6c-0.7,0.1-1.6-0.4-1.9-1.4h-0.9
				c-0.2,1.9,0.2,3.6,0.6,5c0.2,0.7,0.3,1.3,0.4,1.9c0.1,1.1-0.3,5.5-0.4,7.3c0.8,0,1.5,0.2,1.4,0.9c-1.3-0.4-3.6-0.2-4.6,1.6
				c-0.3-0.1-0.4-0.9,0-1.1c-0.5-0.5-0.9-0.9-1.9-0.7c0.4-0.7,1.3-1.1,4.1-0.4c0.3-1,0.5-7,0.5-8.3c0-0.2-0.1-0.6-0.3-1.2h0
				c-0.7-1.7-2.1-4.6-2.5-6.6c-0.5,0-1.2,0.1-1.4-0.1c-0.6-0.6-1.9-2.5-2.2-4.4c-0.4-0.8-1.2-3.6,1.1-5.2c1.6-1.1,5.1-2.5,5.1-3.8
				c0-0.8-1.3-1.4-1.8-1.7c-0.5-0.3-0.3-0.5,0.1-0.9c2.1-2.1,4.6,0,3.1,2.5c-1.1,1.8-6.5,3.4-5.3,6.9c1.2,0.1,1.8,0.5,2.2,1.1
				c1.1-0.4,5.3-2.2,5.7-7.5c1-0.7,2.1-1.4,3.1-2.2c0.2,1.3,0,9.9-7.8,11.9c0.2,0.7,1.9,0.9,2.9-0.4c1,0.2,2.1-0.6,2.1-1.3
				c0.9,0,1.8-0.9,1.6-1.8c1-0.3,1.5-1.7,1.1-2.8c0.9-0.4,1.2-1.5,0.8-2.5c0.7-0.5,1-1.7,0.3-2.5c0.4-0.7,0.3-1.2,0-1.7
				c1.4-1.3,3.2-3,4.3-5c0.1,1.4-0.6,2.5-1.5,3.8c1.5-1,1.8-1.2,2.7-1.9c-0.3,1.6-2.1,3-2.7,3.8c0.9-0.3,2.2-1,3.2-1.5
				c-0.9,1.7-2.3,2.7-3.2,3.3c1.2-0.2,2.1-0.4,2.9-0.7c-0.7,0.8-2,1.7-3.6,2.1c1.2,0,2.2-0.2,3.2-0.5c-0.8,0.8-1.9,1.6-3.3,1.8
				C72.7,35.4,73,35.5,74.3,35.4z"/>
			<path fill="#ACACAD" d="M66.9,51.4c-0.1-0.2-0.3-0.4-0.6-0.9c-0.4,0.1-0.7,0.1-1.2,0.1c0.3,0.6,0.3,1,0.3,1
				C65.8,51.6,66.4,51.5,66.9,51.4z"/>
		</g>
		<path fill="#ACACAD" d="M64.7,66.2c-0.5,0.1-1,0.2-1.9,0.2h-1.1c-3.6-0.1-7.4-1.2-9.7-3.5c3.2-3.2-0.6-5.8-2.6-3.1
			c-0.6,0.8-1.1,1.5-1.6,2.3c-0.4,0.7-0.1,1.3,0.7,2.4c0.4,0.6,1.5,1.4,2.4,2H32.8c0.9-0.6,1.9-1.4,2.4-2c0.8-1,1.1-1.7,0.7-2.4
			c-0.4-0.8-0.9-1.4-1.6-2.3c-2-2.7-5.7-0.1-2.6,3.1c-2.3,2.3-6,3.4-9.7,3.5h-1c-0.9,0-1.4-0.1-1.9-0.2c-0.8-0.2-0.9,0.1-0.5,1.4
			c0.3,0.9,0.5,2.3,0.6,3.3h45.4c0.1-1,0.3-2.4,0.6-3.3C65.6,66.3,65.5,66,64.7,66.2L64.7,66.2z M50.5,59.9c0.6-0.8,1.5-0.6,1.8,0.1
			c0.4,0.7-0.2,1.6-0.9,2.3C50.4,61.1,50.3,60.2,50.5,59.9L50.5,59.9z M49,63.6c-0.4-0.5-0.5-0.8-0.3-1.3c0.2-0.5,0.6-0.9,1-1.5
			c0.6,2.5,4.4,4.8,7.1,5.6h-4.4C51.3,65.8,49.8,64.8,49,63.6L49,63.6z M31.5,60c0.4-0.7,1.2-0.9,1.8-0.1c0.3,0.3,0.1,1.2-0.9,2.3
			C31.7,61.6,31.1,60.7,31.5,60L31.5,60z M34.2,60.8c0.4,0.6,0.8,1,1,1.5c0.2,0.5,0.1,0.8-0.3,1.3c-0.8,1.2-2.3,2.2-3.4,2.8H27
			C29.8,65.6,33.5,63.3,34.2,60.8L34.2,60.8z M63.8,70.2H20.1c-0.2-1.4-0.5-2.3-0.7-3h45.2C64.3,67.9,64,68.8,63.8,70.2L63.8,70.2z"
			/>
		<path fill="#ACACAD" d="M26,69.2C26,69.2,26,69.2,26,69.2l0.1,0.3c0,0,0,0.1,0,0.1c0,0,0,0,0,0c0,0,0,0,0.1,0c0.2,0,0.4,0,0.5,0
			c0.1,0,0.1,0,0.1,0c0,0,0,0,0,0c0,0-0.1,0-0.1,0c-0.1,0-0.1,0-0.2-0.3c-0.2-0.4-0.6-1.5-0.6-1.6c0-0.1,0-0.1-0.1-0.1
			c0,0,0,0-0.1,0.1L25,69.3c-0.1,0.1-0.1,0.2-0.2,0.2c0,0-0.1,0-0.1,0c0,0,0,0,0,0c0,0,0,0,0,0c0.1,0,0.3,0,0.3,0c0.1,0,0.2,0,0.3,0
			c0,0,0,0,0,0c0,0,0,0,0,0h0c-0.1,0-0.1,0-0.1-0.1c0,0,0-0.1,0-0.2l0.1-0.1c0,0,0,0,0,0H26L26,69.2z M25.3,69
			C25.3,69,25.3,69,25.3,69l0.3-0.9c0,0,0,0,0,0c0,0,0,0,0,0l0.3,0.9c0,0,0,0,0,0H25.3L25.3,69z"/>
		<path fill="#ACACAD" d="M27.3,68.8c0,0.4,0.1,0.6,0.2,0.7c0.2,0.2,0.4,0.2,0.6,0.2c0.2,0,0.4,0,0.5-0.2c0.2-0.2,0.2-0.5,0.2-0.8
			v-0.3c0-0.4,0-0.5,0-0.6c0-0.1,0-0.1,0.1-0.1c0,0,0,0,0.1,0c0,0,0,0,0,0c0,0,0,0-0.1,0c-0.1,0-0.3,0-0.3,0c0,0-0.2,0-0.3,0
			c0,0-0.1,0-0.1,0c0,0,0,0,0,0c0,0,0.1,0,0.1,0c0.1,0,0.1,0.1,0.1,0.1c0,0.1,0,0.2,0,0.6v0.3c0,0.3,0,0.5-0.1,0.6
			c-0.1,0.1-0.2,0.1-0.4,0.1c-0.1,0-0.2,0-0.3-0.1c-0.1-0.1-0.2-0.3-0.2-0.6v-0.4c0-0.4,0-0.5,0-0.6c0-0.1,0-0.1,0.1-0.1
			c0,0,0,0,0.1,0c0,0,0,0,0,0c0,0,0,0-0.1,0c-0.1,0-0.3,0-0.3,0c-0.1,0-0.2,0-0.4,0c0,0-0.1,0-0.1,0c0,0,0,0,0,0c0,0,0.1,0,0.1,0
			c0.1,0,0.1,0.1,0.1,0.1c0,0.1,0,0.2,0,0.6V68.8L27.3,68.8z"/>
		<path fill="#ACACAD" d="M30,68.9c0,0.2,0,0.4,0,0.6c0,0.1,0,0.1-0.1,0.1c0,0-0.1,0-0.1,0c0,0,0,0,0,0c0,0,0,0,0.1,0
			c0.1,0,0.3,0,0.3,0c0.1,0,0.4,0,0.6,0c0.5,0,0.8-0.2,0.9-0.3c0.1-0.2,0.3-0.4,0.3-0.7c0-0.3-0.1-0.5-0.3-0.6
			c-0.3-0.3-0.7-0.3-1-0.3c-0.2,0-0.3,0-0.4,0c-0.1,0-0.2,0-0.4,0c0,0-0.1,0-0.1,0c0,0,0,0,0,0c0,0,0.1,0,0.1,0
			c0.1,0,0.1,0.1,0.1,0.1c0,0.1,0,0.2,0,0.6V68.9L30,68.9z M30.3,68.4c0-0.2,0-0.4,0-0.5c0,0,0,0,0-0.1c0,0,0.1,0,0.2,0
			c0.2,0,0.5,0,0.7,0.3c0.1,0.1,0.2,0.3,0.2,0.6c0,0.3-0.1,0.5-0.2,0.6c-0.2,0.1-0.3,0.2-0.6,0.2c-0.2,0-0.3-0.1-0.3-0.1
			c0,0,0-0.1,0-0.2c0,0,0-0.2,0-0.5V68.4L30.3,68.4z"/>
		<path fill="#ACACAD" d="M33.5,69.2C33.6,69.2,33.6,69.2,33.5,69.2l0.1,0.3c0,0,0,0.1,0,0.1c0,0,0,0,0,0c0,0,0,0,0.1,0
			c0.2,0,0.4,0,0.5,0c0.1,0,0.1,0,0.1,0c0,0,0,0,0,0c0,0-0.1,0-0.1,0c-0.1,0-0.1,0-0.2-0.3c-0.2-0.4-0.6-1.5-0.6-1.6
			c0-0.1,0-0.1-0.1-0.1c0,0,0,0-0.1,0.1l-0.7,1.6c-0.1,0.1-0.1,0.2-0.2,0.2c0,0-0.1,0-0.1,0c0,0,0,0,0,0c0,0,0,0,0,0
			c0.1,0,0.3,0,0.3,0c0.1,0,0.2,0,0.3,0c0,0,0,0,0,0c0,0,0,0,0,0h0c-0.1,0-0.1,0-0.1-0.1c0,0,0-0.1,0-0.2l0.1-0.1c0,0,0,0,0,0H33.5
			L33.5,69.2z M32.8,69C32.8,69,32.8,69,32.8,69l0.3-0.9c0,0,0,0,0,0c0,0,0,0,0,0l0.3,0.9c0,0,0,0,0,0H32.8L32.8,69z"/>
		<path fill="#ACACAD" d="M36.1,67.9c0.1-0.1,0.1-0.2,0.2-0.2c0,0,0.1,0,0.1,0c0,0,0,0,0,0c0,0,0,0,0,0c-0.1,0-0.2,0-0.3,0
			c0,0-0.2,0-0.3,0c0,0-0.1,0-0.1,0c0,0,0,0,0,0c0,0,0.1,0,0.1,0c0,0,0,0,0,0c0,0,0,0.1,0,0.1c0,0.1-0.3,0.4-0.4,0.5
			c-0.1-0.2-0.2-0.4-0.3-0.6c0,0,0-0.1,0-0.1c0,0,0,0,0,0c0,0,0.1,0,0.1,0c0,0,0,0,0,0c0,0,0,0-0.1,0c-0.1,0-0.2,0-0.3,0
			c-0.1,0-0.3,0-0.4,0c0,0-0.1,0-0.1,0c0,0,0,0,0,0c0,0,0.1,0,0.1,0c0.1,0,0.2,0.1,0.2,0.2l0.4,0.7l-0.5,0.7
			c-0.1,0.1-0.1,0.2-0.2,0.2c0,0-0.1,0-0.1,0c0,0,0,0,0,0c0,0,0,0,0,0h0c0,0,0.2,0,0.2,0c0.1,0,0.2,0,0.2,0h0c0,0,0.1,0,0.1,0
			c0,0,0,0,0,0c0,0,0,0-0.1,0c0,0,0,0,0,0c0,0,0-0.1,0-0.1l0.4-0.6c0.1,0.2,0.3,0.5,0.4,0.7c0,0,0,0.1,0,0.1c0,0,0,0,0,0
			c0,0,0,0,0.1,0c0.2,0,0.4,0,0.5,0h0.1c0,0,0,0,0,0c0,0,0,0,0,0c0,0-0.1,0-0.1,0c-0.1,0-0.1-0.1-0.1-0.1c-0.1-0.1-0.5-0.8-0.6-0.9
			L36.1,67.9L36.1,67.9z"/>
		<path fill="#ACACAD" d="M40.3,69.2C40.3,69.2,40.3,69.2,40.3,69.2l0.1,0.3c0,0,0,0.1,0,0.1c0,0,0,0,0,0c0,0,0,0,0.1,0
			c0.2,0,0.4,0,0.5,0c0.1,0,0.1,0,0.1,0c0,0,0,0,0,0c0,0-0.1,0-0.1,0c-0.1,0-0.1,0-0.2-0.3c-0.2-0.4-0.6-1.5-0.6-1.6
			c0-0.1,0-0.1-0.1-0.1c0,0,0,0-0.1,0.1l-0.7,1.6c-0.1,0.1-0.1,0.2-0.2,0.2c0,0-0.1,0-0.1,0c0,0,0,0,0,0c0,0,0,0,0.1,0
			c0.1,0,0.3,0,0.3,0c0.1,0,0.2,0,0.3,0c0,0,0,0,0,0c0,0,0,0,0,0h0c-0.1,0-0.1,0-0.1-0.1c0,0,0-0.1,0-0.2l0.1-0.1c0,0,0,0,0,0H40.3
			L40.3,69.2z M39.6,69C39.6,69,39.6,69,39.6,69l0.3-0.9c0,0,0,0,0,0c0,0,0,0,0,0l0.3,0.9c0,0,0,0,0,0L39.6,69L39.6,69z"/>
		<path fill="#ACACAD" d="M41.9,68.9c0,0.2,0,0.4,0,0.6c0,0.1,0,0.1-0.1,0.1c0,0-0.1,0-0.1,0c0,0,0,0,0,0c0,0,0,0,0.1,0
			c0.1,0,0.3,0,0.3,0c0.1,0,0.2,0,0.4,0c0,0,0,0,0,0c0,0,0,0,0,0c0,0-0.1,0-0.1,0c-0.1,0-0.1-0.1-0.1-0.1c0-0.1,0-0.3,0-0.6v-1.1
			l0.3,0c0.2,0,0.3,0.1,0.3,0.2l0,0c0,0,0,0.1,0,0.1c0,0,0,0,0,0c0-0.1,0-0.2,0-0.3c0,0,0-0.1,0-0.1c0,0-0.1,0-0.2,0h-1
			c-0.1,0-0.2,0-0.3,0c-0.1,0-0.1,0-0.1,0c0,0,0,0,0,0.1c0,0-0.1,0.3-0.1,0.3c0,0,0,0,0,0c0,0,0,0,0,0c0,0,0-0.1,0-0.1
			c0-0.1,0.1-0.1,0.3-0.1l0.4,0V68.9L41.9,68.9z"/>
		<path fill="#ACACAD" d="M46.4,68.7C46.4,68.6,46.4,68.6,46.4,68.7c0.1,0,0.3,0,0.4,0c0.1,0,0.1,0.1,0.1,0.1c0,0,0,0.1,0,0.1
			c0,0,0,0,0,0c0,0,0,0,0-0.1c0,0,0-0.1,0-0.2c0-0.1,0-0.1,0-0.2c0,0,0,0,0,0c0,0,0,0,0,0c0,0-0.1,0-0.1,0c0,0-0.1,0-0.1,0l-0.3,0
			c0,0,0,0,0,0v-0.6c0,0,0,0,0,0l0.4,0c0.1,0,0.2,0,0.2,0.1c0,0,0,0.1,0,0.1c0,0,0,0,0,0c0,0,0,0,0,0c0,0,0-0.2,0-0.2
			c0-0.1,0-0.1,0-0.1c0,0,0,0,0,0c0,0,0,0,0,0c0,0-0.1,0-0.1,0c-0.1,0-0.6,0-0.7,0c-0.1,0-0.2,0-0.4,0c0,0-0.1,0-0.1,0c0,0,0,0,0,0
			c0,0,0.1,0,0.1,0c0.1,0,0.1,0.1,0.1,0.1c0,0.1,0,0.2,0,0.6v0.5c0,0.3,0,0.4,0,0.6c0,0.1,0,0.1-0.1,0.1c0,0-0.1,0-0.1,0
			c0,0,0,0,0,0c0,0,0,0,0.1,0c0.1,0,0.3,0,0.3,0c0.1,0,0.2,0,0.4,0c0,0,0.1,0,0.1,0c0,0,0,0,0,0c0,0-0.1,0-0.1,0
			c-0.1,0-0.1-0.1-0.1-0.1c0-0.1,0-0.3,0-0.6V68.7L46.4,68.7z"/>
		<path fill="#ACACAD" d="M48.1,68.9c0,0.3,0,0.5,0,0.6c0,0.1,0,0.1-0.1,0.1c0,0-0.1,0-0.1,0c0,0,0,0,0,0c0,0,0,0,0.1,0
			c0.1,0,0.3,0,0.3,0c0.1,0,0.2,0,0.4,0c0,0,0.1,0,0.1,0c0,0,0,0,0,0c0,0-0.1,0-0.1,0c-0.1,0-0.1-0.1-0.1-0.1c0-0.1,0-0.3,0-0.6
			v-0.5c0-0.4,0-0.5,0-0.6c0-0.1,0-0.1,0.1-0.1c0,0,0.1,0,0.1,0c0,0,0,0,0,0c0,0,0,0-0.1,0c-0.1,0-0.3,0-0.3,0c-0.1,0-0.2,0-0.3,0
			c0,0-0.1,0-0.1,0c0,0,0,0,0,0c0,0,0.1,0,0.1,0c0.1,0,0.1,0.1,0.1,0.1c0,0.1,0,0.2,0,0.6V68.9L48.1,68.9z"/>
		<path fill="#ACACAD" d="M49.6,68.9c0,0.2,0,0.4,0,0.6c0,0.1,0,0.1-0.1,0.1c0,0-0.1,0-0.1,0c0,0,0,0,0,0c0,0,0,0,0.1,0
			c0.1,0,0.3,0,0.3,0c0.1,0,0.4,0,0.6,0c0.5,0,0.7-0.2,0.9-0.3c0.1-0.2,0.3-0.4,0.3-0.7c0-0.3-0.1-0.5-0.3-0.6
			c-0.3-0.3-0.7-0.3-1-0.3c-0.2,0-0.3,0-0.4,0c-0.1,0-0.2,0-0.4,0c0,0-0.1,0-0.1,0c0,0,0,0,0,0c0,0,0.1,0,0.1,0
			c0.1,0,0.1,0.1,0.1,0.1c0,0.1,0,0.2,0,0.6V68.9L49.6,68.9z M50,68.4c0-0.2,0-0.4,0-0.5c0,0,0,0,0-0.1c0,0,0.1,0,0.2,0
			c0.2,0,0.5,0,0.7,0.3c0.1,0.1,0.2,0.3,0.2,0.6c0,0.3-0.1,0.5-0.2,0.6c-0.2,0.1-0.3,0.2-0.6,0.2c-0.2,0-0.3-0.1-0.3-0.1
			c0,0,0-0.1,0-0.2c0,0,0-0.2,0-0.5V68.4L50,68.4z"/>
		<path fill="#ACACAD" d="M52.4,68.9c0,0.2,0,0.4,0,0.6c0,0.1,0,0.1-0.1,0.1c0,0-0.1,0-0.1,0c0,0,0,0,0,0c0,0,0,0,0.1,0
			c0.1,0,0.3,0,0.3,0c0.2,0,0.3,0,0.7,0c0.1,0,0.1,0,0.1-0.1c0,0,0-0.2,0-0.3c0,0,0-0.1,0-0.1c0,0,0,0,0,0c0,0.1,0,0.2-0.1,0.2
			c-0.1,0-0.2,0-0.2,0c-0.3,0-0.3,0-0.3-0.2c0-0.1,0-0.3,0-0.4v-0.2c0,0,0,0,0,0c0.1,0,0.3,0,0.4,0c0.1,0,0.1,0,0.1,0.1
			c0,0,0,0.1,0,0.1c0,0,0,0,0,0c0,0,0,0,0,0c0,0,0-0.1,0-0.2c0-0.1,0-0.2,0-0.2c0,0,0,0,0,0c0,0,0,0,0,0c0,0-0.1,0-0.1,0
			c-0.1,0-0.4,0-0.4,0c0,0,0,0,0,0v-0.7c0,0,0,0,0,0c0.1,0,0.3,0,0.4,0c0.1,0,0.2,0,0.2,0.1c0,0,0,0.1,0,0.1c0,0,0,0,0,0
			c0,0,0,0,0,0c0,0,0-0.1,0-0.2c0-0.1,0-0.2,0-0.2c0,0,0,0,0,0c0,0,0,0,0,0c0,0-0.1,0-0.1,0c0,0-0.6,0-0.6,0c-0.1,0-0.2,0-0.4,0
			c0,0-0.1,0-0.1,0c0,0,0,0,0,0c0,0,0.1,0,0.1,0c0.1,0,0.1,0.1,0.1,0.1c0,0.1,0,0.2,0,0.6V68.9L52.4,68.9z"/>
		<path fill="#ACACAD" d="M54.7,68.4c0-0.4,0-0.5,0-0.6c0-0.1,0-0.1,0.1-0.1c0,0,0.1,0,0.1,0c0,0,0,0,0,0c0,0,0,0-0.1,0
			c-0.1,0-0.3,0-0.4,0c-0.1,0-0.2,0-0.4,0c0,0-0.1,0-0.1,0c0,0,0,0,0,0c0,0,0.1,0,0.1,0c0.1,0,0.1,0.1,0.1,0.1c0,0.1,0,0.2,0,0.6
			v0.5c0,0.2,0,0.4,0,0.6c0,0.1,0,0.1-0.1,0.1c0,0-0.1,0-0.1,0c0,0,0,0,0,0c0,0,0,0,0.1,0c0.1,0,0.3,0,0.3,0c0.2,0,0.4,0,0.8,0
			c0.1,0,0.1,0,0.2-0.1c0-0.1,0-0.3,0-0.3c0,0,0,0,0,0c0,0,0,0,0,0c0,0,0,0.1-0.1,0.2c-0.1,0.1-0.2,0.1-0.3,0.1
			c-0.2,0-0.3,0-0.3-0.1c-0.1,0-0.1-0.2-0.1-0.6V68.4L54.7,68.4z"/>
		<path fill="#ACACAD" d="M56.4,68.9c0,0.3,0,0.5,0,0.6c0,0.1,0,0.1-0.1,0.1c0,0-0.1,0-0.1,0c0,0,0,0,0,0c0,0,0,0,0.1,0
			c0.1,0,0.3,0,0.3,0c0.1,0,0.2,0,0.4,0c0,0,0,0,0,0c0,0,0,0,0,0c0,0-0.1,0-0.1,0c-0.1,0-0.1-0.1-0.1-0.1c0-0.1,0-0.3,0-0.6v-0.5
			c0-0.4,0-0.5,0-0.6c0-0.1,0-0.1,0.1-0.1c0,0,0.1,0,0.1,0c0,0,0,0,0,0c0,0,0,0-0.1,0c-0.1,0-0.3,0-0.3,0c-0.1,0-0.2,0-0.3,0
			c0,0-0.1,0-0.1,0c0,0,0,0,0,0c0,0,0.1,0,0.1,0c0.1,0,0.1,0.1,0.1,0.1c0,0.1,0,0.2,0,0.6V68.9L56.4,68.9z"/>
		<path fill="#ACACAD" d="M58.1,69.7c0.1,0,0.3,0,0.4-0.1c0.2-0.1,0.2-0.3,0.2-0.4c0-0.2-0.1-0.4-0.4-0.7l-0.1-0.1
			C58.1,68.2,58,68.1,58,68c0-0.2,0.1-0.3,0.3-0.3c0.2,0,0.2,0.1,0.3,0.1c0.1,0.1,0.1,0.1,0.1,0.2c0,0,0,0,0,0c0,0,0,0,0-0.1
			c0-0.2,0-0.3,0-0.3c0,0,0,0,0,0c-0.1,0-0.2,0-0.3,0c-0.4,0-0.6,0.2-0.6,0.5c0,0.2,0.1,0.4,0.4,0.6l0.1,0.1
			c0.2,0.2,0.3,0.3,0.3,0.4c0,0.1-0.1,0.3-0.3,0.3c-0.2,0-0.3-0.1-0.4-0.3c0,0,0-0.1,0-0.1c0,0,0,0,0,0c0,0,0,0,0,0.1
			c0,0,0,0.2,0,0.3c0,0.1,0,0.1,0,0.1C57.9,69.6,58,69.7,58.1,69.7L58.1,69.7z"/>
		<path fill="#ACACAD" d="M50.4,16.3c0-0.4-0.7-0.7-0.9-0.7c-0.3,0-0.7,0.6-1.1,1c-0.3-1.9-0.2-2.7,0-3.5c0.8,1.4,1.8,1.7,2.4,1.7
			c-1.9-1.5-1.6-2.9-2.1-3c-0.3,0-0.6,0-0.7,0c-0.7,0-0.8,1.3-0.8,1.9c-0.4-0.8-0.9-1.5-1.6-2.4C44.8,9.5,44,10,43.1,9.2
			c0.7,1,0.1,1.7,1.7,2.4c0.4,0.4,0.9,1,1.2,1.5c-0.3,0.3-0.4,0.6-0.7,0.8c-0.2,0.3-0.3,1.4-0.9,2.2c0.9-0.4,1.2-0.9,1.6-1.5
			c2.8,2.1,0.5,7.6-0.1,8.8c-0.6-0.4-1.4-0.7-2.1-0.8l-0.1-0.2L43,20.2h0.3c0.4,0,0.4-0.2,0.4-0.4l2,0.6l0.9,0.3L46,19.9l-0.9-1.2
			l0.9-1.2l0.5-0.7l-0.9,0.3l-1.8,0.5c-0.1-0.4-0.5-0.6-0.8-0.6l0.6-2l0.3-0.9l-0.7,0.5l-1.3,0.9l-1.2-0.9L40,14l0.3,0.9l0.6,2
			c-0.4,0-0.7,0.2-0.8,0.6l-1.8-0.5l-0.9-0.3l0.5,0.7l0.9,1.2l-0.9,1.2l-0.5,0.7l0.9-0.3l2-0.6c-0.1,0.2,0,0.4,0.4,0.4h0.3l-0.7,2.2
			l-0.1,0.2c-0.7,0.1-1.6,0.4-2.2,0.8c-1.9-3.7-1.4-7.4,0.2-8.7c0,0.8,0.7,1.8,1,2.1c-0.2-0.8,0.2-2.3-0.3-2.6
			c-0.3-0.2-0.7-0.4-1.2-0.4c0.3-0.5,0.8-1.2,1.5-2.2c1.1-0.5,1.4-1.8,1.7-2.5c-1.2,0.4-2.1,1.1-2.3,2.1c-0.4,0.6-0.9,1.2-1.4,2
			c0-1-0.5-1.3-1.2-1.4c-2.1,0.4-1.9,1.9-3.7,2.9c1.2,0.4,3.1-2.2,3.7-1.9c0.1,1.6-0.3,2.9-0.3,3.8c-0.3-0.3-0.5-0.6-0.7-0.6
			c-0.3,0-0.9,0-1.4,0.5c-0.1,0.8-0.1,2.4-0.9,4.2c1.1-1,1.7-3.1,1.9-3.7c0.3,0.4,0.6,1.3,0.7,2.1c0.1,1.5,1,3.9,1.8,5.1
			c-0.2,0.4-0.3,0.9-0.2,1.4c-0.6,0.4-0.7,1.1-0.5,1.5c0.2,0.4,0.8,0.8,1.5,0.5l0.2-0.1c0.7-0.3,2.1-0.9,3.7-0.9
			c1.6,0,3,0.6,3.7,0.9l0.2,0.1c0.7,0.3,1.3,0,1.5-0.5c0.2-0.4,0.1-1-0.5-1.5c0.1-0.6,0-1-0.3-1.5l0,0c1.4-2,1.5-5.8,2.7-6.9
			c0.1,1.3,0.8,2.4,1.5,2.6C50.3,19,50.3,17.2,50.4,16.3L50.4,16.3z M43.9,18.1l1-0.3l-0.5,0.7l-0.1,0.2l0.1,0.2l0.5,0.7l-1.3-0.4
			C43.8,18.8,43.9,18.5,43.9,18.1L43.9,18.1z M38.9,19.5l0.5-0.7l0.1-0.2l-0.1-0.2l-0.5-0.7l1,0.3c0.1,0.4,0.2,0.7,0.3,1L38.9,19.5
			L38.9,19.5z M43.1,19.2h-0.8l0.1-1.5C43.6,17.2,43.5,18.3,43.1,19.2L43.1,19.2z M42.8,21.7l-0.7-0.5L41.9,21l-0.2,0.1l-0.7,0.5
			l0.5-1.5h0.8L42.8,21.7L42.8,21.7z M41.8,16l0.2,0.1l0.2-0.1l0.7-0.5l-0.4,1.4c0,0,0,0,0,0c-0.1-0.2-0.2-0.3-0.4-0.3
			c-0.2,0-0.4,0.1-0.4,0.3c0,0,0,0,0,0l-0.4-1.4L41.8,16L41.8,16z M40.8,19.2c-0.4-0.9-0.5-2,0.7-1.5l0.1,1.5H40.8L40.8,19.2z
			 M41.9,21.8l1,0.7c-0.4,0-0.8,0-1,0c-0.2,0-0.6,0-1,0L41.9,21.8L41.9,21.8z M37.9,26.9L37.7,27c-0.3,0.1-0.5,0-0.6-0.1
			c-0.1-0.1,0-0.4,0.3-0.6c0,0,0.1-0.1,0.1-0.1l0.7,0.6C38.2,26.8,38,26.8,37.9,26.9L37.9,26.9z M40.3,26.1l-0.7-0.7
			c0.6-0.1,1.2-0.2,1.8-0.3l0.4,0.8C41.3,26,40.7,26,40.3,26.1L40.3,26.1z M44.3,26.3l-0.4-1c0.6,0.1,1.2,0.3,1.8,0.5l0.2,1
			C45.5,26.7,44.9,26.5,44.3,26.3L44.3,26.3z M41.9,24.4c-1.4,0-2.9,0.3-4.1,0.8c0-0.3,0.1-0.5,0.3-0.7c0.7-0.8,2.5-1.1,3.8-1.1
			c1.3,0,3.1,0.3,3.8,1.1c0.2,0.2,0.3,0.4,0.3,0.7C44.8,24.7,43.3,24.4,41.9,24.4L41.9,24.4z"/>
		<path fill="#ACACAD" d="M32.3,45.9c0.2-1.6-0.1-1.7-0.5-2.1c-0.4-0.3-1-0.4-1.7-0.9c-0.5-0.3-0.6-0.8-1.2-1.4
			c0.1-1.6,1.9-3.6,2.5-3.3l0-0.8c-0.8-0.3-2.1,0.5-3.2,3.2c-0.1-0.1-0.2-0.2-0.4-0.3c0.1-0.6-0.1-1.1-0.5-1.6
			c0.4-0.3,1.6-0.8,2.3-1.3c0.8-0.5,0.9-0.8,1.8-0.5c0,0,0.2-0.2,0.2-0.4c-0.7-0.9-1.7-0.6-2.3,0.2c-0.5,0.4-1.7,1.2-2.6,1.5
			c-1.1-1-2.9-1.8-4.2-3.1c0,0,1.7,0,2.5-0.3c0.2-0.1,0.8-1,0.5-1.8c-0.3-0.1-0.6-0.3-1-0.5c-0.5-0.3-0.9-0.5-1.1-0.7
			c-0.7-0.6-1-1-2.3-1.4c0.1-0.6,0.2-0.4,0.8-0.8c0.7-0.5,1.1-1.1,1.4-1.6c0.2-0.4,0-1.4-0.6-0.2c-0.2,0.4-0.8,1-1.4,1.1
			c0-0.4,0.1-0.6,0.1-0.8c1.9-1.3,1.7-2.5,1.5-3.6c-0.1-0.6-0.7-0.9-0.7-0.2c0,0.4,0.4,1.7-0.9,2.4c0-0.5-0.2-0.8-0.3-1.1
			c1.1-1.5,0.7-2.9,0.2-3.6c-0.3-0.4-1.1-0.6-0.7,0.1c0.3,0.5,0.7,2-0.1,2.6c-0.3-0.4-0.6-0.5-0.7-1c0.1-1.6,0-2.6-0.2-3.2
			c-0.2-0.5-0.7-0.9-0.7-0.1c0,0.9,0.1,2,0,2.1c-0.1,0.1-1.3-1.1-1.8-1.4c-0.5-0.3-1.1-0.2-0.5,0.5c0.5,0.6,2,1.7,1.8,2.1
			c-0.1,0.2-1.2-0.7-1.8-0.9c-0.6-0.2-0.8,0.1-0.3,0.5c0.8,0.6,1.3,1.1,2.6,1.5c1.3,0.4,1.9,2.2,1.5,4.8c0,0.1-0.2,0.1-0.4,0.1
			c-0.1-1-0.2-2.1-0.5-2.6c-0.3-0.7-0.9-0.7-0.7,0.2c0.2,0.7,0.3,1.5,0.2,2.5c-1.1-0.2-1.5-0.5-1.9-0.7c0-0.5,0.2-1.3,0.3-2
			c0-0.7-0.4-1.2-0.6-0.3c-0.2,0.9-0.4,1.3-0.5,1.9c-0.3-0.1-0.6-0.2-0.8-0.4c-0.1-0.1,0-1.1-0.1-1.7c-0.1-0.8-0.4-0.8-0.6-0.1
			c-0.1,0.3-0.2,0.7-0.2,1.3c-0.4-0.2-0.6-0.7-0.7-1c0.1-0.8,0.2-1.7,0.3-2.3c0.1-0.4-0.2-1.2-0.5-0.2c-0.2,0.7-0.3,1.3-0.4,1.8
			c-0.3,0-0.6-1.6-0.8-2.6c-0.1-0.5-0.5-1-0.5,0c-0.1,1.1,0.2,2.3,0.4,2.8c-0.5-0.1-1.1-1-1.4-1.6c-0.3-0.5-0.5,0-0.5,0.2
			c0.3,2,1.9,2.7,2.6,2.9c1.1,1.6,3.3,2.3,5.1,3.1c-2.4,0-3,0.9-4,0.3c0,0.9,0.5,1.3,0.9,1.5c0.3,0.1,0.6,0.2,0.7,0.2
			c0.2,1.1,1.2,1,2.1,1.1c-0.2,2.1,0,4.9,1.9,6.9c-0.1,1.1-0.1,2.5-0.1,3.4c-1.5,1.4-2.9,4.3-3.4,6c-0.4,1.2-1,2.2-1.9,2.6
			c0.8,0.8,1.9,0.4,2.5,0c0,0.7,0.2,1.2,0.3,1.6c-0.4,0.6-0.7,1.1-0.7,1.9c-0.5,0.1-0.8,0.4-1.1,0.8c-0.2,0.2,0,1.2,0.2,1.6
			c0.6,1.3,0.1,4.4,0,5.3c0.3,0,0.7,0,0.8-0.3c0.1,0.1,0.5,0.4,0.7,1c0,0.2-0.2,1.2,0.3,1.3c0.4,0.1,2.1,0,2.3-0.3
			c-0.2-0.2-0.5-0.6-0.6-1.1c0-0.5,0-1-0.2-1.3c-0.2-0.3-0.7-1.1-1-1.4c-0.1-0.6-0.1-3,0.1-4c0.4-0.3,3.4-2.5,4-4.6
			c0.5,0.2,0.4,1.7,0.4,3.6c0,0.5,0.6,0.8,1,0.8c0.8,0.1,2,0.9,3.2,2.8c0.3-0.3,0.6-0.5,0.6-0.5c0.2,0.2,0.4,0.8,0.5,1.1
			c0.1,0.3,1.2,0.4,2,0.2c0.3-0.1,0.4-0.1,0.6-0.4c-1-1.8-1.6-2.9-2.9-3.9c-0.6-0.5-1.4-0.7-2.1-1.1c0.4-0.8,1.7-4.8,0.9-6.2
			c-0.2-0.5-1.2-1-2.3-0.7c1-1.1,2.9-3.4,3.1-4.1c0.2,0.3,1.4,0.1,2.2,0.4c0.3,0.1,1.2,1.2,1.2,1.6c0.1,0.7,0.1,1.5-0.4,3.4
			c0.3-0.1,0.3-0.1,0.6-0.2c0.1,0.5-0.1,0.9-0.5,1.7c0.1,0.7,0.4,1.8,0.7,1.9c0.4-1.3,2-3.1,2-4.2C32.9,47.8,32.2,46.5,32.3,45.9
			L32.3,45.9z M16.8,32.5c-0.2-0.3-0.3-0.6-0.5-0.7c0.9-0.6,2-0.1,2.7-0.7c0.4,0.2,1.1,0,1.3,0c0.9-0.1,2.1,0.8,2.9,1.4
			c0.4,0.3,0.7,0.5,0.9,0.5c-0.2,0.7-0.2,0.9,0.4,1c0,0.2-0.2,0.4-0.9,0.3c-0.7-0.1-1.6-0.1-1.9,0c-2.1,1.1-2.8-0.7-2.8-1.7
			c0,0,0,0,0,0c0,0,0,0,0,0C17.7,33.2,17.1,32.9,16.8,32.5L16.8,32.5z M25.3,49.8c0.8,0.9-0.3,4.8-0.7,5.5c-0.4,0.6,0.3,1,0.6,1.1
			c1.6,0.4,3.1,1.9,3.6,3l-0.5,0.2c-1.2-1.6-1.5-1.1-1.8-0.8c-0.3-0.5-1.7-2.1-2.6-2.2c-0.8-0.1-0.8-0.6-0.8-1
			c0.1-0.8,0.1-2.1,0-2.7c-0.1-0.5-0.6-1.2-0.9-1.2c0.2-0.4,0-1.8,1.1-2.3C24.1,49.1,25.1,49.6,25.3,49.8L25.3,49.8z M31.6,50.7
			c-0.1,0-0.2,0-0.3-0.2c0.2-0.9,0.3-1.4,0.3-1.6c-0.2,0.1-0.4,0.1-0.5,0c0.2-1.5,0.1-2.4-0.1-2.9c-0.2-0.6-1-1.4-1.2-1.6
			c-0.4-0.2-0.8-0.5-1.7-0.6c-1.8-1.5-2.2-0.6-3.5-0.7c-0.2-0.2-0.5-0.5-0.5-0.5l-0.6,0.4c0,0,0.5,0.7,0.6,1.1c0,0,1.1-0.2,2,0
			c-0.3,1.1-1.9,2.6-3.4,4.3c-1.6,1.8-1.6,2.2-1.6,3.6c0,1.7-2.2,4.1-4,5.3c-0.1,0.4-0.3,4.1-0.1,4.6c0.1,0.2,0.6,0.8,0.9,1.2
			c0.1,0.2,0.1,0.7,0.2,1.2c-0.2,0-0.4,0-0.6-0.1c-0.1-0.5-0.5-1.2-1.3-1.7c0.2-2,0.4-3.1-0.3-5.2C16,57.2,17,56.6,17,56.6
			s0.3-1.5,1.2-2.2c-0.6-1.6-0.7-3.7-0.7-3.7s-0.4,0.5-1,0.9c1.6-5.1,2-3.7,3.9-7.4c1.3-6-2.2-7.2-1.6-9.3c1.2,1.1,1.8,0.8,2.8,0.5
			c0.9,0.8,2.2,2.4,3.4,2.9c2,0.7,1.9,2.5,1.6,3.4c0.8,0,1.5,0.3,1.8,0.8c1.4,2.1,2.3,1.5,3,2.4c0.3,0.4,0,1.6,0.4,2.7
			c0.3,0.7,0.4,1.5,0.4,1.8C32.2,49.5,31.7,50.2,31.6,50.7L31.6,50.7z"/>
		<path fill="#ACACAD" d="M21.2,32.9c0.4,0,0.6-0.3,1-0.1c0-0.1-0.2-0.1-0.3-0.2c0,0,0-0.1,0-0.1c0-0.4-0.2-0.7-0.8-0.8
			c-0.2,0.3-0.7,0.6-1,0.7c0.1,0,0.2,0,0.2,0C20.7,32.6,20.7,33,21.2,32.9L21.2,32.9z"/>
		<path fill="#ACACAD" d="M52.5,36.4H41.9H31.4H31v0.4v7.6c0.1,0.1,0.3,0.2,0.4,0.4c0.3,0.4,0,1.6,0.4,2.7c0,0,0,0.1,0,0.1h9.8v15.6
			c-1.1-0.5-3.5-1.6-5.6-3.7c-2.6-2.6-4-5.7-4.2-9.3c-0.1,0.2-0.1,0.3-0.2,0.5c-0.1,0-0.2,0-0.3-0.2c0.2-0.9,0.3-1.4,0.3-1.6
			c-0.2,0.1-0.4,0.1-0.5,0c0.2-1.5,0.1-2.4-0.1-2.9c0-0.1-0.1-0.2-0.1-0.2v3.7c0,4.1,1.5,7.7,4.5,10.5c2.6,2.5,5.5,3.7,6.4,4l0.1,0
			l0.1,0c0.8-0.3,3.8-1.5,6.4-4c3-2.9,4.5-6.4,4.5-10.5v-0.7c-0.3,0.4-0.5,0.7-0.8,0.7c0,3.9-1.4,7.2-4.2,9.9
			c-2.1,2.1-4.5,3.2-5.6,3.7V47.5h9.9V49c1-1.3,0.5-4.6,0-5v2.9H31.8v-9.7h10.2h10.2v6.7c0.3-0.2,0.6,0,0.8,0.4v-7.5v-0.4H52.5z"/>
	</g>
</g>
</svg>
