<?xml version="1.0" encoding="utf-8"?>
<!-- Generator: Adobe Illustrator 21.0.2, SVG Export Plug-In . SVG Version: 6.00 Build 0)  -->
<svg version="1.0" id="Layer_1" xmlns="http://www.w3.org/2000/svg" xmlns:xlink="http://www.w3.org/1999/xlink" x="0px" y="0px"
	 viewBox="0 0 650 560" enable-background="new 0 0 650 560" xml:space="preserve">
<g>
	<path fill="none" stroke="#3BB7C1" stroke-miterlimit="10" d="M436.2,234.1l0-0.3v0l0,0l0,0l0,0l0,0l0-0.1v0l0,0l0,0l0,0l0,0l0,0
		l0,0l0,0l0,0l0,0l0,0l0,0l0,0l0,0l0-0.1l0,0l0,0l0,0l0-0.1v0l0,0l0,0l0,0l0,0l0,0l0,0v0l0,0l0,0l0,0l0,0l0,0l0,0l0,0l0,0l0,0l0,0
		l0,0l0,0l0,0l0,0l0,0l0,0l0,0l0,0l0,0l0,0l0,0l0,0l0,0l0,0l0,0l0,0l0,0l0,0l0,0l0,0l0,0l0,0l0,0l0,0l0,0l0,0l0,0
		c0.8-2.5,3.1-4.3,5.9-4.3c1.7,0,3.3,0.7,4.4,1.9l0,0l0,0l0,0l0,0l0,0l0,0l0,0l0,0l0,0l0,0l0,0l0,0l0,0l0,0l0,0l0,0l0,0l0,0l0,0l0,0
		l0,0l0,0l0,0l0,0l0,0l0,0l0,0l0,0l0,0v0l0,0l0,0l0,0l0,0l0,0l0,0l0,0l0,0l0,0l0,0l0,0l0,0l0,0l0,0l0,0l0,0l0,0l0,0l0,0l0,0l0,0l0,0
		l0,0l0,0l0,0l0,0l0,0l0,0l0,0l0,0l0,0l0,0l0,0l0,0l0,0l0,0l0,0l0,0l0,0l0,0l0,0l0,0l0,0c0.5,0.9,0.8,1.9,0.8,3
		c0,3.4-2.8,6.1-6.1,6.1C439,240.2,436.2,237.4,436.2,234.1z M595.6,313.5h-12.7V242h12.7V313.5z M333.9,212.3L333.9,212.3
		c4.9,6.1,12.3,8.8,12.3,8.8l0,0L333.9,212.3z M443.5,207.6l-39.9,12.2l0.3,0.6c0,0,22.7,1.9,24.1,7.8l1.6,7l0,0l0,0l0,0l0,0l0,0
		l0,0l0,0l0,0l0,0l0,0v0c1.1,4.8,4.9,8.4,9.5,9.5h-13.8v7.1h2.8v20.9c0,0,117.1,6.6,154.7,23.8l-6.1-50l-112.3,1.8v-3.6h-19.5
		c6.8-1.6,11.1-8.4,9.5-15.2v0l0,0l0,0l0,0l0,0l0,0l-2-8.4c-1.1-4.8,8.1-13.4,9.2-14l0.1-3.7l13.6-3.2c5.4-1.3,7.6-2.6,6.2-7
		l-135.3,27.9L485,188.7c10.3-2.4,13.8-4.9,11.8-13.6c-2-8.8-11.1-47.7-11.1-47.7l-80.5,18.8l-0.7-2.9l-11.7,2.7l0.7,2.9l-87,20.3
		c7.3,16.6,19.4,33.1,27.5,43.1c0,0,2.3,9.9,3.1,13.3c0.8,3.3,4.4,5.9,18.2,2.7L443.5,207.6z"/>
	<polyline fill="none" stroke="#3BB7C1" stroke-miterlimit="10" points="595.6,90 595.6,390.3 266.6,390.3 266.6,319.2 	"/>
	<polyline fill="none" stroke="#3BB7C1" stroke-miterlimit="10" points="594.8,379.5 193,379.5 193,215.8 	"/>
	<circle fill="none" stroke="#3BB7C1" stroke-miterlimit="10" cx="192.9" cy="210.1" r="6.6"/>
	<circle fill="none" stroke="#3BB7C1" stroke-miterlimit="10" cx="267.4" cy="311.7" r="6.6"/>
	<polyline fill="none" stroke="#3BB7C1" stroke-miterlimit="10" points="596.4,368 382.3,368 382.3,275.4 	"/>
	<path fill="none" stroke="#3BB7C1" stroke-width="0.5" stroke-miterlimit="10" d="M627,132V41.3c0-6.9-5.6-12.5-12.5-12.5h-38
		c-6.9,0-12.5,5.6-12.5,12.5V132c0,6.9,5.6,12.5,12.5,12.5h38C621.4,144.6,627,139,627,132z M614.5,29.4c6.6,0,11.9,5.3,11.9,11.9
		V132c0,6.6-5.3,11.9-11.9,11.9h-38c-6.6,0-11.9-5.3-11.9-11.9V41.3c0-6.6,5.3-11.9,11.9-11.9H614.5z"/>
</g>
<g>
	<g>
		<g enable-background="new    ">
			<g>
				<g>
					<path fill="none" stroke="#3BB7C1" stroke-width="0.5" stroke-miterlimit="10" d="M621,122.8h-51.1V38.8H621V122.8z
						 M620.4,122.2h-49.8V39.4h49.8V122.2z"/>
					<path fill="none" stroke="#3BB7C1" stroke-width="0.5" stroke-miterlimit="10" d="M600.6,132.8c0-2.8-2.3-5.1-5.1-5.1
						s-5.1,2.3-5.1,5.1c0,2.8,2.3,5.1,5.1,5.1S600.6,135.6,600.6,132.8z M600,132.8c0,2.5-2,4.5-4.5,4.5c-2.5,0-4.5-2-4.5-4.5
						c0-2.5,2-4.5,4.5-4.5C598,128.3,600,130.3,600,132.8z"/>
					<path fill="none" stroke="#3BB7C1" stroke-width="0.5" stroke-miterlimit="10" d="M599,132.8c0-1.9-1.6-3.5-3.5-3.5
						c-1.9,0-3.5,1.6-3.5,3.5c0,1.9,1.6,3.5,3.5,3.5C597.4,136.2,599,134.7,599,132.8z M598.3,132.8c0,1.6-1.3,2.9-2.9,2.9
						c-1.6,0-2.9-1.3-2.9-2.9c0-1.6,1.3-2.9,2.9-2.9C597.1,129.9,598.3,131.2,598.3,132.8z"/>
					<circle fill="none" stroke="#3BB7C1" stroke-miterlimit="10" cx="381.7" cy="268.5" r="6.6"/>
					<path fill="none" stroke="#3BB7C1" stroke-width="0.5" stroke-miterlimit="10" d="M322.3,497.8l0-0.1h-5.1l-10.7,37.3h5
						l2.3-8.1h11.8l2.3,8.1h5L322.3,497.8z M325.9,526.4h-12.5l-2.3,8.1H307l10.4-36.4h4.5l10.4,36.4h-4.1L325.9,526.4z
						 M322.7,515.1h-6l-2.2,7.7h10.4L322.7,515.1z M317,515.5h5.3l2,6.9H315L317,515.5z M319.7,504.7l-1.9,6.8h3.9L319.7,504.7z
						 M319.7,506.2l1.4,4.9h-2.8L319.7,506.2z"/>
					<path fill="none" stroke="#3BB7C1" stroke-width="0.5" stroke-miterlimit="10" d="M325.7,486.3c0-3.3-2.7-6-6-6
						c-3.3,0-6,2.7-6,6s2.7,6,6,6C323,492.4,325.7,489.6,325.7,486.3z M325.3,486.3c0,3.1-2.5,5.6-5.6,5.6c-3.1,0-5.6-2.5-5.6-5.6
						c0-3.1,2.5-5.6,5.6-5.6C322.8,480.7,325.3,483.2,325.3,486.3z"/>
					<path fill="none" stroke="#3BB7C1" stroke-width="0.5" stroke-miterlimit="10" d="M304.6,502.3l-0.1-0.1
						c-3.7-4.4-5.8-10.1-5.8-15.8c0-5.8,2.1-11.4,5.8-15.9l0.1-0.1l-3.7-3.7l-0.1,0.1c-5.2,5.3-8,12.2-8,19.6c0,7.3,2.8,14.3,8,19.6
						l0.1,0.1L304.6,502.3z M304.1,470.3c-3.7,4.5-5.8,10.2-5.8,16c0,5.8,2,11.5,5.8,15.9l-3.2,3.2c-5-5.2-7.7-12-7.7-19.1
						c0-7.2,2.7-14,7.7-19.2L304.1,470.3z"/>
					<path fill="none" stroke="#3BB7C1" stroke-width="0.5" stroke-miterlimit="10" d="M311.4,494.4l-0.1-0.1
						c-1.8-2.3-2.8-5.1-2.8-8c0-2.9,1-5.7,2.8-8l0.1-0.1l-2.7-2.7l-0.1,0.2c-2.8,2.9-4.3,6.7-4.3,10.7c0,4,1.5,7.8,4.3,10.7l0.1,0.2
						L311.4,494.4z M310.8,478.2c-1.8,2.3-2.8,5.2-2.8,8.1c0,3,1,5.8,2.8,8.1l-2.2,2.2c-2.6-2.8-4-6.4-4-10.3
						c0-3.8,1.4-7.5,4.1-10.3L310.8,478.2z"/>
					<path fill="none" stroke="#3BB7C1" stroke-width="0.5" stroke-miterlimit="10" d="M338,505.9c5.1-5.3,8-12.2,8-19.6
						c0-7.4-2.8-14.3-8-19.6l-0.1-0.1l-3.7,3.7l0.1,0.1c3.8,4.4,5.8,10.1,5.8,15.9c0,5.8-2.1,11.4-5.8,15.8l-0.1,0.1l3.7,3.7
						L338,505.9z M340.5,486.3c0-5.8-2.1-11.5-5.8-16l3.2-3.2c5,5.2,7.7,12,7.7,19.2c0,7.2-2.7,13.9-7.7,19.1l-3.2-3.2
						C338.4,497.8,340.5,492.1,340.5,486.3z"/>
					<path fill="none" stroke="#3BB7C1" stroke-width="0.5" stroke-miterlimit="10" d="M330.3,497c2.8-2.9,4.3-6.7,4.3-10.7
						c0-4-1.5-7.8-4.3-10.7l-0.1-0.2l-2.7,2.7l0.1,0.1c1.8,2.3,2.8,5.1,2.8,8c0,2.9-1,5.7-2.8,8l-0.1,0.1l2.7,2.7L330.3,497z
						 M330.8,486.3c0-3-1-5.8-2.8-8.1l2.2-2.2c2.6,2.8,4.1,6.5,4.1,10.3c0,3.8-1.4,7.5-4,10.3l-2.2-2.2
						C329.8,492.1,330.8,489.3,330.8,486.3z"/>
					<polyline fill="none" stroke="#3BB7C1" stroke-miterlimit="10" points="381.7,317.3 319.7,317.3 319.7,476 					"/>
					<path fill="none" stroke="#3BB7C1" stroke-width="0.5" stroke-miterlimit="10" d="M177.3,450.5L177.3,450.5l-13.9-31.8
						c0-2-2.6-3.6-5.8-3.6H44.2c-3.2,0-5.7,1.6-5.8,3.6l-13.9,31.7l0,0.1c0,1.9,2.5,9.3,5.8,9.3h141.2
						C174.7,459.7,177.3,452.4,177.3,450.5z M38.9,418.8L38.9,418.8c0-1.9,2.4-3.3,5.3-3.3h113.4c2.9,0,5.3,1.4,5.3,3.2v0l13.9,31.8
						c0,2.1-2.5,8.8-5.3,8.8H30.3c-2.8,0-5.3-6.7-5.3-8.8L38.9,418.8z"/>
					<path fill="none" stroke="#3BB7C1" stroke-width="0.5" stroke-miterlimit="10" d="M163.4,409.7v-60.5c0-3.2-2.6-5.8-5.8-5.8
						H44.2c-3.2,0-5.8,2.6-5.8,5.8v60.5c0,3.2,2.6,5.8,5.8,5.8h113.4C160.8,415.5,163.4,412.9,163.4,409.7z M157.6,343.9
						c2.9,0,5.3,2.4,5.3,5.3v60.5c0,2.9-2.4,5.3-5.3,5.3H44.2c-2.9,0-5.3-2.4-5.3-5.3v-60.5c0-2.9,2.4-5.3,5.3-5.3H157.6z"/>
					<path fill="none" stroke="#3BB7C1" stroke-width="0.5" stroke-miterlimit="10" d="M158.2,406.4v-50.9c0-2.7-2.4-4.9-5.3-4.9H49
						c-2.9,0-5.3,2.2-5.3,4.9v50.9c0,2.7,2.4,4.9,5.3,4.9h103.9C155.8,411.3,158.2,409.1,158.2,406.4z M152.9,351.1
						c2.7,0,4.9,2,4.9,4.4v50.9c0,2.4-2.2,4.4-4.9,4.4H49c-2.7,0-4.9-2-4.9-4.4v-50.9c0-2.4,2.2-4.4,4.9-4.4H152.9z"/>
					<path fill="none" stroke="#3BB7C1" stroke-width="0.5" stroke-miterlimit="10" d="M177.3,450.5L177.3,450.5l-13.9-32.3
						c0-1.8-2.6-3.1-5.8-3.1H44.2c-3.2,0-5.7,1.4-5.8,3.1l-13.9,32.2l0,0.1c0,1.8,2.5,3.2,5.8,3.2h141.2
						C174.7,453.7,177.3,452.3,177.3,450.5z M38.9,418.4L38.9,418.4c0-1.6,2.5-2.8,5.3-2.8h113.4c2.9,0,5.3,1.2,5.3,2.7v0l13.9,32.2
						c0,1.5-2.5,2.7-5.3,2.7H30.3c-2.9,0-5.3-1.2-5.3-2.7L38.9,418.4z"/>
					<path fill="none" stroke="#3BB7C1" stroke-width="0.5" stroke-miterlimit="10" d="M102.9,347.1c0-1.1-0.9-2-2-2
						c-1.1,0-2,0.9-2,2c0,1.1,0.9,2,2,2C102,349.1,102.9,348.2,102.9,347.1z M102.5,347.1c0,0.8-0.7,1.5-1.5,1.5
						c-0.8,0-1.5-0.7-1.5-1.5c0-0.8,0.7-1.5,1.5-1.5C101.8,345.6,102.5,346.3,102.5,347.1z"/>
					<path fill="none" stroke="#3BB7C1" stroke-width="0.5" stroke-miterlimit="10" d="M152.6,440.3h10.5l-2.1-6.4h-10.2
						L152.6,440.3z M162.5,439.9H153l-1.5-5.6h9.3L162.5,439.9z"/>
					<path fill="none" stroke="#3BB7C1" stroke-width="0.5" stroke-miterlimit="10" d="M141.1,440.3h10.5l-1.7-6.4h-10.2
						L141.1,440.3z M151.1,439.9h-9.6l-1.2-5.6h9.3L151.1,439.9z"/>
					<path fill="none" stroke="#3BB7C1" stroke-width="0.5" stroke-miterlimit="10" d="M129.6,440.3h10.5l-1.3-6.4h-10.2
						L129.6,440.3z M139.6,439.9H130l-0.8-5.6h9.3L139.6,439.9z"/>
					<path fill="none" stroke="#3BB7C1" stroke-width="0.5" stroke-miterlimit="10" d="M118,440.3h10.5l-0.9-6.4h-10.2L118,440.3z
						 M128,439.9h-9.6l-0.5-5.6h9.3L128,439.9z"/>
					<path fill="none" stroke="#3BB7C1" stroke-width="0.5" stroke-miterlimit="10" d="M106.5,440.3H117l-0.5-6.4h-10.2L106.5,440.3
						z M116.5,439.9H107l-0.2-5.6h9.3L116.5,439.9z"/>
					<path fill="none" stroke="#3BB7C1" stroke-width="0.5" stroke-miterlimit="10" d="M95,440.3h10.5l-0.1-6.4H95.2L95,440.3z
						 M105,439.9h-9.6l0.2-5.6h9.3L105,439.9z"/>
					<path fill="none" stroke="#3BB7C1" stroke-width="0.5" stroke-miterlimit="10" d="M83.5,440.3H94l0.2-6.4H84.1L83.5,440.3z
						 M93.6,439.9H84l0.5-5.6h9.3L93.6,439.9z"/>
					<path fill="none" stroke="#3BB7C1" stroke-width="0.5" stroke-miterlimit="10" d="M71.7,440.3h10.5l0.6-6.4H72.7L71.7,440.3z
						 M81.8,439.9h-9.6l0.8-5.6h9.3L81.8,439.9z"/>
					<path fill="none" stroke="#3BB7C1" stroke-width="0.5" stroke-miterlimit="10" d="M60.2,440.3h10.5l1-6.4H61.6L60.2,440.3z
						 M70.3,439.9h-9.6l1.2-5.6h9.3L70.3,439.9z"/>
					<path fill="none" stroke="#3BB7C1" stroke-width="0.5" stroke-miterlimit="10" d="M48.7,440.3h10.5l1.4-6.4H50.4L48.7,440.3z
						 M58.8,439.9h-9.6l1.5-5.6h9.3L58.8,439.9z"/>
					<path fill="none" stroke="#3BB7C1" stroke-width="0.5" stroke-miterlimit="10" d="M37.2,440.3h10.5l1.8-6.4H39.3L37.2,440.3z
						 M47.4,439.9h-9.6l1.8-5.6h9.3L47.4,439.9z"/>
					<path fill="none" stroke="#3BB7C1" stroke-width="0.5" stroke-miterlimit="10" d="M149,426.6h9.8l-1.8-5.5h-9.5L149,426.6z
						 M158.2,426.2h-8.9l-1.3-4.8h8.6L158.2,426.2z"/>
					<path fill="none" stroke="#3BB7C1" stroke-width="0.5" stroke-miterlimit="10" d="M138.3,426.6h9.8l-1.5-5.5h-9.5L138.3,426.6z
						 M147.5,426.2h-8.9l-1-4.8h8.6L147.5,426.2z"/>
					<path fill="none" stroke="#3BB7C1" stroke-width="0.5" stroke-miterlimit="10" d="M63.1,426.6h9.8l0.9-5.5h-9.5L63.1,426.6z
						 M72.5,426.2h-8.9l1-4.8h8.6L72.5,426.2z"/>
					<path fill="none" stroke="#3BB7C1" stroke-width="0.5" stroke-miterlimit="10" d="M95.4,426.6h9.8l-0.1-5.5h-9.5L95.4,426.6z
						 M104.8,426.2h-8.9l0.1-4.8h8.6L104.8,426.2z"/>
					<path fill="none" stroke="#3BB7C1" stroke-width="0.5" stroke-miterlimit="10" d="M41.7,426.6h9.8l1.5-5.5h-9.5L41.7,426.6z
						 M51.2,426.2h-8.9l1.6-4.8h8.6L51.2,426.2z"/>
					<path fill="none" stroke="#3BB7C1" stroke-width="0.5" stroke-miterlimit="10" d="M84.7,426.6h9.8l0.2-5.5h-9.5L84.7,426.6z
						 M94.1,426.2h-8.9l0.4-4.8h8.6L94.1,426.2z"/>
					<path fill="none" stroke="#3BB7C1" stroke-width="0.5" stroke-miterlimit="10" d="M106.1,426.6h9.8l-0.5-5.5H106L106.1,426.6z
						 M115.4,426.2h-8.9l-0.1-4.8h8.6L115.4,426.2z"/>
					<path fill="none" stroke="#3BB7C1" stroke-width="0.5" stroke-miterlimit="10" d="M52.4,426.6h9.8l1.2-5.5h-9.5L52.4,426.6z
						 M61.8,426.2H53l1.3-4.8h8.6L61.8,426.2z"/>
					<path fill="none" stroke="#3BB7C1" stroke-width="0.5" stroke-miterlimit="10" d="M73.8,426.6h9.8l0.5-5.5h-9.5L73.8,426.6z
						 M83.2,426.2h-8.9l0.7-4.8h8.6L83.2,426.2z"/>
					<path fill="none" stroke="#3BB7C1" stroke-width="0.5" stroke-miterlimit="10" d="M127.6,426.6h9.8l-1.1-5.5h-9.5L127.6,426.6z
						 M136.8,426.2H128l-0.7-4.8h8.6L136.8,426.2z"/>
					<path fill="none" stroke="#3BB7C1" stroke-width="0.5" stroke-miterlimit="10" d="M116.8,426.6h9.8l-0.8-5.5h-9.5L116.8,426.6z
						 M126.1,426.2h-8.9l-0.4-4.8h8.6L126.1,426.2z"/>
					<path fill="none" stroke="#3BB7C1" stroke-width="0.5" stroke-miterlimit="10" d="M106.3,433.2h10.2l-0.5-6h-9.8L106.3,433.2z
						 M116,432.8h-9.2l-0.2-5.2h9L116,432.8z"/>
					<path fill="none" stroke="#3BB7C1" stroke-width="0.5" stroke-miterlimit="10" d="M128.6,433.2h10.2l-1.2-6h-9.8L128.6,433.2z
						 M138.2,432.8H129l-0.8-5.2h9L138.2,432.8z"/>
					<path fill="none" stroke="#3BB7C1" stroke-width="0.5" stroke-miterlimit="10" d="M150.7,433.2h10.2l-1.9-6h-9.8L150.7,433.2z
						 M160.3,432.8h-9.2l-1.4-5.2h9L160.3,432.8z"/>
					<path fill="none" stroke="#3BB7C1" stroke-width="0.5" stroke-miterlimit="10" d="M139.6,433.2h10.2l-1.6-6h-9.8L139.6,433.2z
						 M149.2,432.8H140l-1.1-5.2h9L149.2,432.8z"/>
					<path fill="none" stroke="#3BB7C1" stroke-width="0.5" stroke-miterlimit="10" d="M117.4,433.2h10.2l-0.8-6h-9.8L117.4,433.2z
						 M127,432.8h-9.2l-0.5-5.2h9L127,432.8z"/>
					<path fill="none" stroke="#3BB7C1" stroke-width="0.5" stroke-miterlimit="10" d="M95.2,433.2h10.2l-0.1-6h-9.8L95.2,433.2z
						 M104.9,432.8h-9.2l0.2-5.2h9L104.9,432.8z"/>
					<path fill="none" stroke="#3BB7C1" stroke-width="0.5" stroke-miterlimit="10" d="M84.1,433.2h10.2l0.2-6h-9.8L84.1,433.2z
						 M93.8,432.8h-9.2l0.5-5.2h8.9L93.8,432.8z"/>
					<path fill="none" stroke="#3BB7C1" stroke-width="0.5" stroke-miterlimit="10" d="M72.8,433.2h10.2l0.6-6h-9.8L72.8,433.2z
						 M82.5,432.8h-9.2l0.8-5.2h9L82.5,432.8z"/>
					<path fill="none" stroke="#3BB7C1" stroke-width="0.5" stroke-miterlimit="10" d="M61.7,433.2h10.2l0.9-6H63L61.7,433.2z
						 M71.5,432.8h-9.2l1.1-5.2h9L71.5,432.8z"/>
					<path fill="none" stroke="#3BB7C1" stroke-width="0.5" stroke-miterlimit="10" d="M50.6,433.2h10.2l1.3-6h-9.8L50.6,433.2z
						 M60.4,432.8h-9.2l1.4-5.2h9L60.4,432.8z"/>
					<path fill="none" stroke="#3BB7C1" stroke-width="0.5" stroke-miterlimit="10" d="M39.5,433.2h10.2l1.7-6h-9.8L39.5,433.2z
						 M49.3,432.8h-9.2l1.7-5.2h9L49.3,432.8z"/>
					<path fill="none" stroke="#3BB7C1" stroke-width="0.5" stroke-miterlimit="10" d="M70.5,448.3h11l0.7-7H71.5L70.5,448.3z
						 M81,447.8H71l0.9-6h9.7L81,447.8z"/>
					<path fill="none" stroke="#3BB7C1" stroke-width="0.5" stroke-miterlimit="10" d="M58.5,448.3h11l1.1-7H60L58.5,448.3z
						 M69,447.8h-10l1.3-6H70L69,447.8z"/>
					<path fill="none" stroke="#3BB7C1" stroke-width="0.5" stroke-miterlimit="10" d="M46.5,448.3h11l1.5-7H48.4L46.5,448.3z
						 M57.1,447.8h-10l1.6-6h9.7L57.1,447.8z"/>
					<path fill="none" stroke="#3BB7C1" stroke-width="0.5" stroke-miterlimit="10" d="M34.5,448.3h11l1.9-7H36.8L34.5,448.3z
						 M45.1,447.8h-10l2-6h9.7L45.1,447.8z"/>
					<path fill="none" stroke="#3BB7C1" stroke-width="0.5" stroke-miterlimit="10" d="M157,448.3h11l-2.3-7h-10.6L157,448.3z
						 M167.3,447.8h-10l-1.7-6h9.7L167.3,447.8z"/>
					<path fill="none" stroke="#3BB7C1" stroke-width="0.5" stroke-miterlimit="10" d="M145,448.3h11l-1.9-7h-10.6L145,448.3z
						 M155.4,447.8h-10l-1.3-6h9.7L155.4,447.8z"/>
					<path fill="none" stroke="#3BB7C1" stroke-width="0.5" stroke-miterlimit="10" d="M133,448.3h11l-1.5-7h-10.6L133,448.3z
						 M143.4,447.8h-10l-1-6h9.7L143.4,447.8z"/>
					<path fill="none" stroke="#3BB7C1" stroke-width="0.5" stroke-miterlimit="10" d="M121,448.3h11l-1.1-7h-10.6L121,448.3z
						 M131.5,447.8h-10l-0.6-6h9.7L131.5,447.8z"/>
					<path fill="none" stroke="#3BB7C1" stroke-width="0.5" stroke-miterlimit="10" d="M82.7,448.3H119l-0.6-7h-35L82.7,448.3z
						 M118.5,447.8H83.3l0.5-6H118L118.5,447.8z"/>
					<line fill="none" stroke="#3BB7C1" stroke-miterlimit="10" x1="105" y1="379.5" x2="193" y2="379.5"/>
					<circle fill="none" stroke="#3BB7C1" stroke-miterlimit="10" cx="98.6" cy="379.4" r="6.6"/>
					<circle fill="none" stroke="#3BB7C1" stroke-miterlimit="10" cx="596.2" cy="83.9" r="6.6"/>
				</g>
				<g>
					<defs>
						<path id="SVGID_1_" d="M218.5,134.7v41.1c0,3.1-2.5,5.7-5.7,5.7h-43.1c-3.1,0-5.7-2.5-5.7-5.7v-41.1c0-2.8,2.1-5.2,4.8-5.6
							v-8.6c0-12.4,10.1-22.4,22.4-22.4c12.4,0,22.4,10.1,22.4,22.4v8.6C216.5,129.5,218.5,131.9,218.5,134.7z M211.3,176.3v-0.5
							h-40v0.5c0,1.5,0.8,2.8,2.1,3.4h35.8C210.5,179.1,211.3,177.8,211.3,176.3z M211.3,175h-40v-39.5h40V175z M165.9,172.9
							c0.6,1.3,1.9,2.1,3.4,2.1h1.2v-39.5h-1.2c-1.5,0-2.8,0.9-3.4,2.1V172.9z M171.4,134.1v0.5h40v-0.5c0-1.5-0.8-2.8-2.1-3.4h-4
							h-27.8h-4C172.2,131.4,171.4,132.7,171.4,134.1z M207.9,121.5c0-9.1-7.4-16.5-16.5-16.5c-9.1,0-16.5,7.4-16.5,16.5v7.5h1.8v-8
							c0-8.1,6.6-14.7,14.7-14.7c8.1,0,14.7,6.6,14.7,14.7v8h1.8V121.5z M204.4,121c0-7.2-5.9-13-13-13c-7.2,0-13,5.9-13,13v8h26.1
							V121z M212.2,175h1.2c1.5,0,2.8-0.9,3.4-2.1v-35.3c-0.6-1.3-1.9-2.1-3.4-2.1h-1.2V175z M212.9,130.7h-2.2
							c0.9,0.8,1.5,2.1,1.5,3.4v0.5h1.2c1.4,0,2.6,0.6,3.4,1.5v-1.4C216.8,132.5,215.1,130.7,212.9,130.7z M170.6,129h3.4v-7.5
							c0-9.6,7.8-17.4,17.4-17.4c9.6,0,17.4,7.8,17.4,17.4v7.5h3.4v-8.5c0-11.4-9.3-20.7-20.7-20.7c-11.4,0-20.7,9.3-20.7,20.7V129z
							 M165.9,134.7v1.4c0.9-0.9,2.1-1.5,3.4-1.5h1.2v-0.5c0-1.3,0.6-2.5,1.5-3.4h-2.2C167.6,130.7,165.9,132.5,165.9,134.7z
							 M169.8,179.7h2.2c-0.9-0.8-1.5-2.1-1.5-3.4v-0.5h-1.2c-1.4,0-2.6-0.6-3.4-1.5v1.4C165.9,177.9,167.6,179.7,169.8,179.7z
							 M216.8,175.8v-1.4c-0.9,0.9-2.1,1.5-3.4,1.5h-1.2v0.5c0,1.3-0.6,2.5-1.5,3.4h2.2C215.1,179.7,216.8,177.9,216.8,175.8z"/>
					</defs>
					<use xlink:href="#SVGID_1_"  overflow="visible" fill-rule="evenodd" clip-rule="evenodd" fill="#3BB7C1"/>
					<clipPath id="SVGID_2_">
						<use xlink:href="#SVGID_1_"  overflow="visible"/>
					</clipPath>
					<g clip-path="url(#SVGID_2_)">
						<defs>
							<rect id="SVGID_3_" x="23.6" y="28.2" width="604" height="507"/>
						</defs>
						<clipPath id="SVGID_4_">
							<use xlink:href="#SVGID_3_"  overflow="visible"/>
						</clipPath>
					</g>
				</g>
				<g>
					<defs>
						<path id="SVGID_5_" d="M191.3,145.5c-3,0-5.4,2.4-5.4,5.4c0,2,1.1,3.8,2.8,4.7v9.4h5.3v-9.4c1.7-0.9,2.8-2.7,2.8-4.7
							C196.8,147.9,194.3,145.5,191.3,145.5"/>
					</defs>
					<clipPath id="SVGID_6_">
						<use xlink:href="#SVGID_5_"  overflow="visible"/>
					</clipPath>
					<g clip-path="url(#SVGID_6_)">
						<defs>
							<rect id="SVGID_7_" x="23.6" y="28.2" width="604" height="507"/>
						</defs>
						<clipPath id="SVGID_8_">
							<use xlink:href="#SVGID_7_"  overflow="visible"/>
						</clipPath>
						<rect x="180.9" y="140.5" clip-path="url(#SVGID_8_)" fill="#3BB7C1" width="20.8" height="29.5"/>
					</g>
				</g>
			</g>
		</g>
	</g>
</g>
</svg>
