<?xml version="1.0" encoding="utf-8"?>
<!-- Generator: Adobe Illustrator 21.0.2, SVG Export Plug-In . SVG Version: 6.00 Build 0)  -->
<svg version="1.0" id="Layer_1" xmlns="http://www.w3.org/2000/svg" xmlns:xlink="http://www.w3.org/1999/xlink" x="0px" y="0px"
	 viewBox="0 0 210 80" enable-background="new 0 0 210 80" xml:space="preserve">
<g>
	<path fill="#ACACAD" d="M70.3,34.2L70.3,34.2c-4.1,0-9.5,0.3-15.9,0.5c-3.5,0.1-10.6,0.6-14.7,0.6c5.9-2.4,13.7-4.7,21.9-6.6
		c9.1-2.2,18.8-3.9,27.2-5l-0.3-0.5l-2.7-4.5v0l3.9-5.7c-0.5,0-0.9,0.1-1.4,0.2c0.3,0,0.6-0.1,0.8-0.1c-0.3,0-0.6,0.1-0.8,0.1
		c-0.9,0.1-1.8,0.2-2.7,0.3c-0.4,0.1-0.9,0.1-1.3,0.2c-0.8,0.1-1.7,0.2-2.5,0.3c-0.5,0.1-1,0.1-1.4,0.2c-0.8,0.1-1.6,0.2-2.4,0.4
		c-0.5,0.1-1,0.2-1.5,0.2c-0.8,0.1-1.6,0.3-2.4,0.4c-0.3,0.1-0.6,0.1-0.9,0.1c0.3-0.1,0.6-0.1,0.9-0.1c-0.6,0.1-1.3,0.2-1.9,0.3
		c0.1,0,0.2,0,0.2,0c-0.2,0-0.3,0.1-0.5,0.1c-0.3,0-0.5,0.1-0.8,0.1c-1,0.2-2.1,0.4-3.1,0.6c-0.2,0-0.4,0.1-0.6,0.1
		c-0.3,0.1-0.7,0.1-1,0.2c0.1,0,0.3,0,0.4-0.1c-0.3,0.1-0.7,0.1-1,0.2c0.2,0,0.4-0.1,0.6-0.1c-0.7,0.1-1.4,0.3-2.1,0.4
		c-0.1,0-0.2,0-0.3,0.1c-1.1,0.2-2.2,0.5-3.3,0.7c-0.1,0-0.1,0-0.2,0c0,0,0,0-0.1,0c-0.9,0.2-1.8,0.4-2.7,0.6
		c-0.2,0-0.4,0.1-0.6,0.1c-1.8,0.4-3.6,0.9-5.4,1.4c-0.2,0-0.3,0.1-0.5,0.1c-0.9,0.2-1.7,0.5-2.6,0.7c0,0-0.1,0-0.1,0
		c-0.8,0.2-1.6,0.5-2.4,0.7c-0.1,0-0.2,0.1-0.4,0.1c-0.8,0.3-1.6,0.5-2.4,0.8c-0.1,0-0.1,0-0.2,0.1c-0.8,0.3-1.5,0.5-2.2,0.8
		c-0.1,0-0.1,0-0.2,0.1c-0.8,0.3-1.5,0.5-2.2,0.8c-0.1,0-0.2,0.1-0.2,0.1c-0.7,0.3-1.4,0.5-2.1,0.8c0,0,0,0,0,0
		c-0.7,0.3-1.3,0.6-1.9,0.8c-0.1,0-0.2,0.1-0.2,0.1c-1.2,0.6-2.3,1.1-3.3,1.7c-0.1,0-0.1,0.1-0.2,0.1c-0.5,0.3-1,0.6-1.4,0.9
		c0,0,0,0,0,0c-0.4,0.3-0.8,0.6-1.2,0.8c-0.1,0-0.1,0.1-0.2,0.1c-0.3,0.3-0.7,0.6-1,0.8c0,0-0.1,0.1-0.1,0.1
		c-0.3,0.3-0.5,0.5-0.7,0.8c0,0-0.1,0.1-0.1,0.1c0,0,0,0,0,0l0,0c-0.2,0.2-0.3,0.5-0.5,0.7c-0.2,0.5-0.4,1-0.4,1.4v0
		c0,0.3,0,0.6,0.2,0.9l3.7,9.1c0,0,0,0,0,0v0c-0.1-0.9,0.3-1.8,1.1-2.7c0,0,0.1-0.1,0.1-0.1v0c0,0,0,0,0,0c0,0-0.1,0.1-0.1,0.1
		c-0.8,0.9-1.2,1.8-1.1,2.7c0,0.1,0.1,0.2,0.1,0.2c0.6,1,4,1.4,8.4,1.4c5.6,0,12.7-0.6,17.4-0.9c0,0,0.1,0,0.1,0
		c-0.7,0.2-1.3,0.3-2,0.5c-7.2,1.8-13.6,3.1-17.1,4.2c0.4-0.1,0.9-0.3,1.4-0.4c-1.1,0.3-2,0.6-2.7,0.8c0.1,0,0.3-0.1,0.4-0.1
		c-1.4,0.5-2.2,0.9-2.2,1.3v0c0,0,0,0.1,0,0.1l2.3,5.6c0.2,0.4,0.8,0.5,1.9,0.5c0,0,0.1,0,0.1,0c1.7,0,4.4-0.4,7.6-1.1
		c0.6-0.1,1.2-0.3,1.9-0.4c0,0,0,0,0,0c-0.6,0.1-1.3,0.3-1.9,0.4L47,56c6.7,0.3,14.7,0.9,18.7,2.5c-1.1,0.5-2.3,0.9-3.7,1.3
		c-6.3,1.9-14.4,3.1-19.4,3.5c-1.3,0.1-2.3,0.2-3.1,0.2c-0.4,0-0.8,0-1.1,0c0.7,0.6,2.1,1.4,3.9,2c2.7,0.9,6.4,1.6,10.3,1.6h0.1
		c3.8,0,7.8-0.6,11.4-2.3c0,0,0,0,0.1,0c2.3-1.1,3.3-1.9,3.7-2.7l2.7-6.5c0.8-2-4.5-3.1-9.4-3.9c-1.1,0.3-2.1,0.7-3.2,1
		c0,0-0.1,0-0.1,0c1.1-0.3,2.2-0.7,3.3-1c1.3-0.4,2.5-0.8,3.7-1.2c5.4-1.9,9.6-3.7,10.3-4.9c0.7-1.2,2.4-5.7,3.5-8.4c0,0,0,0,0,0
		C79.5,34.8,76.4,34.2,70.3,34.2z M85.6,13.5c-0.4,0.1-0.9,0.1-1.3,0.2C84.7,13.6,85.2,13.6,85.6,13.5z M81.8,14
		c-0.5,0.1-0.9,0.1-1.4,0.2C80.8,14.2,81.3,14.1,81.8,14z M77.9,14.6c-0.5,0.1-1,0.2-1.5,0.2C76.9,14.8,77.4,14.7,77.9,14.6z
		 M30.1,40.9C30.1,40.9,30.1,40.9,30.1,40.9L30.1,40.9C30.1,40.9,30.1,40.9,30.1,40.9z M31.5,39.6c0,0,0.1-0.1,0.1-0.1
		c-0.2,0.2-0.4,0.3-0.6,0.5C31.2,39.9,31.4,39.7,31.5,39.6z M30.8,40.2c-0.2,0.2-0.4,0.3-0.5,0.5C30.4,40.5,30.6,40.4,30.8,40.2z
		 M30.1,40.9C30.1,40.9,30.1,40.9,30.1,40.9C30.1,40.9,30.1,40.9,30.1,40.9C30.1,40.9,30.1,40.9,30.1,40.9
		C30.1,40.9,30.1,40.9,30.1,40.9z M35.5,37.2c0.6-0.3,1.2-0.6,1.9-0.9C36.8,36.6,36.2,36.9,35.5,37.2z M32.1,39.2
		c0.2-0.1,0.3-0.2,0.5-0.4C32.5,38.9,32.3,39.1,32.1,39.2z M33.2,38.5c0.2-0.1,0.4-0.3,0.6-0.4C33.6,38.2,33.4,38.4,33.2,38.5z
		 M34.4,37.8c0.3-0.1,0.5-0.3,0.8-0.4C34.9,37.5,34.6,37.7,34.4,37.8z M38.9,35.6c-0.3,0.1-0.6,0.2-0.8,0.3
		C38.3,35.9,38.6,35.8,38.9,35.6z M67.1,57.9c0.2-0.1,0.4-0.2,0.5-0.3C67.4,57.7,67.3,57.8,67.1,57.9z M65.9,58.4
		c0.2-0.1,0.4-0.2,0.6-0.2C66.3,58.2,66.1,58.3,65.9,58.4z M69.8,56.2c0.1-0.1,0.2-0.1,0.2-0.2C69.9,56,69.9,56.1,69.8,56.2z
		 M68.1,57.3c0.1-0.1,0.3-0.1,0.4-0.2C68.4,57.2,68.3,57.2,68.1,57.3z M69,56.8c0.1-0.1,0.2-0.1,0.3-0.2
		C69.2,56.6,69.1,56.7,69,56.8z M65.6,41.7c-0.1,0-0.1,0-0.2,0c0,0,0,0,0,0c-0.2,0.1-0.4,0.1-0.6,0.2c0.8-0.2,1.7-0.5,2.5-0.7
		c-0.1,0-0.3,0.1-0.4,0.1c0,0-0.1,0-0.1,0c0,0,0,0,0,0c-0.3,0.1-0.6,0.2-0.9,0.3c0.3-0.1,0.6-0.2,0.9-0.3c-0.5,0.1-0.9,0.3-1.4,0.4
		C65.5,41.7,65.5,41.7,65.6,41.7z M64.7,41.9C64.8,41.9,64.8,41.9,64.7,41.9C64.7,41.9,64.7,41.9,64.7,41.9
		C64.7,41.9,64.7,41.9,64.7,41.9z M64.6,42c-0.1,0-0.3,0.1-0.4,0.1c0.1,0,0.2-0.1,0.3-0.1C64.6,42,64.6,42,64.6,42z M77.2,37.9
		C77.2,37.9,77.2,37.9,77.2,37.9C77.2,37.9,77.3,37.9,77.2,37.9C77.3,37.9,77.3,37.9,77.2,37.9z M76.5,38.3
		C76.5,38.3,76.5,38.2,76.5,38.3C76.5,38.2,76.5,38.2,76.5,38.3C76.5,38.3,76.5,38.3,76.5,38.3z M74,39.2C74,39.2,73.9,39.2,74,39.2
		C74,39.2,74,39.2,74,39.2C74.1,39.2,74,39.2,74,39.2z M72.8,39.6c0.1,0,0.1,0,0.2-0.1C72.9,39.6,72.9,39.6,72.8,39.6
		C72.8,39.6,72.8,39.6,72.8,39.6z M69,40.7C69.1,40.7,69.1,40.7,69,40.7c0,0-0.1,0-0.2,0.1C68.9,40.8,69,40.8,69,40.7z M67.8,41.1
		c-0.1,0-0.2,0.1-0.3,0.1C67.6,41.2,67.7,41.1,67.8,41.1z M69.1,40.7C69.2,40.7,69.2,40.7,69.1,40.7C69.2,40.7,69.2,40.7,69.1,40.7
		C69.2,40.7,69.2,40.7,69.1,40.7z M70.5,40.3c-0.1,0-0.2,0.1-0.4,0.1C70.3,40.4,70.4,40.3,70.5,40.3z M71.7,40c-0.1,0-0.1,0-0.2,0.1
		C71.6,40,71.6,40,71.7,40z M73,39.5C73,39.5,73,39.5,73,39.5c0,0-0.1,0-0.1,0C72.9,39.6,72.9,39.6,73,39.5z M73.9,39.2
		c0,0,0.1,0,0.1,0c-0.1,0-0.2,0.1-0.2,0.1C73.8,39.3,73.8,39.2,73.9,39.2z M75.9,38.5c-0.1,0-0.1,0.1-0.2,0.1
		C75.8,38.6,75.8,38.5,75.9,38.5z M76.6,38.2c0.1,0,0.1,0,0.2-0.1C76.7,38.2,76.6,38.2,76.6,38.2C76.5,38.2,76.5,38.2,76.6,38.2z
		 M77.1,38c0,0,0.1,0,0.1,0C77.2,37.9,77.1,38,77.1,38C77.1,38,77.1,38,77.1,38z M77.8,37.6c-0.1,0-0.1,0.1-0.2,0.1
		C77.7,37.7,77.7,37.6,77.8,37.6z M78.2,37.3C78.2,37.3,78.2,37.4,78.2,37.3C78.2,37.4,78.2,37.3,78.2,37.3z M55.4,53.1
		c0.1,0,0.2,0,0.2-0.1c-0.3,0.1-0.6,0.2-1,0.3c0,0,0,0,0,0C55,53.3,55.2,53.2,55.4,53.1z M51.8,54.1c-0.2,0.1-0.5,0.1-0.7,0.2
		c0.5-0.1,1-0.3,1.5-0.4c0,0,0,0,0,0C52.3,54,52.1,54.1,51.8,54.1z M49.8,54.6c-0.3,0.1-0.6,0.1-0.8,0.2c0.5-0.1,1-0.3,1.6-0.4
		c0,0,0,0,0,0C50.3,54.5,50,54.6,49.8,54.6z M51.3,54.3c-0.3,0.1-0.5,0.1-0.8,0.2C50.8,54.4,51,54.3,51.3,54.3z M52.7,53.9
		c0.1,0,0.3-0.1,0.4-0.1c0.2,0,0.3-0.1,0.5-0.1C53.2,53.8,52.9,53.8,52.7,53.9C52.6,53.9,52.6,53.9,52.7,53.9z M54.7,53.3
		c-0.3,0.1-0.6,0.2-0.9,0.2c-0.1,0-0.3,0.1-0.4,0.1C53.8,53.6,54.3,53.5,54.7,53.3C54.7,53.3,54.7,53.3,54.7,53.3z M58.9,43.5
		c0.2,0,0.3-0.1,0.5-0.1C59.2,43.4,59,43.4,58.9,43.5C58.9,43.5,58.9,43.5,58.9,43.5z M58.3,43.6c-0.1,0-0.3,0.1-0.4,0.1
		c0.1,0,0.2-0.1,0.3-0.1C58.2,43.6,58.3,43.6,58.3,43.6z M59.1,43.4c0.8-0.2,1.5-0.4,2.2-0.6c-0.5,0.1-1,0.3-1.5,0.4
		C59.5,43.3,59.3,43.4,59.1,43.4z M57.7,43.8c-0.1,0-0.3,0.1-0.4,0.1c-0.5,0.1-0.9,0.2-1.4,0.3c0.7-0.2,1.4-0.4,2.1-0.5
		C57.9,43.7,57.8,43.7,57.7,43.8z M56.6,44c-0.5,0.1-0.9,0.2-1.4,0.4C55.7,44.3,56.2,44.1,56.6,44z M48.5,55
		C48.5,55,48.5,55,48.5,55c-0.2,0-0.4,0.1-0.5,0.1c-0.3,0.1-0.7,0.2-1,0.2C47.4,55.2,47.9,55.1,48.5,55z M49.1,54.8
		c-0.2,0.1-0.4,0.1-0.6,0.2C48.7,54.9,48.9,54.9,49.1,54.8z M46.9,55.3c-0.1,0-0.3,0.1-0.4,0.1C46.6,55.4,46.8,55.4,46.9,55.3z
		 M57.9,52.4c-0.3,0.1-0.7,0.2-1,0.3c0,0,0,0,0,0C57.2,52.6,57.5,52.5,57.9,52.4C57.8,52.4,57.8,52.4,57.9,52.4z M56.8,52.7
		c-0.3,0.1-0.7,0.2-1,0.3c-0.1,0-0.1,0-0.2,0.1C56,53,56.4,52.9,56.8,52.7C56.8,52.7,56.8,52.7,56.8,52.7z M62.6,42.5
		c-0.2,0.1-0.4,0.1-0.6,0.2c0.8-0.2,1.6-0.4,2.4-0.6c-0.4,0.1-0.7,0.2-1.1,0.3c0.3-0.1,0.6-0.2,0.9-0.2c-0.5,0.1-0.9,0.3-1.4,0.4
		c0.2,0,0.3-0.1,0.5-0.1C63,42.4,62.8,42.5,62.6,42.5z M74.7,38.9c0.1,0,0.2-0.1,0.3-0.1C74.9,38.9,74.8,38.9,74.7,38.9z M78.4,37.2
		C78.4,37.1,78.5,37.1,78.4,37.2C78.5,37.1,78.4,37.1,78.4,37.2z"/>
	<path fill="#ACACAD" d="M25.8,31.6c-0.2,0.2-0.3,0.4-0.4,0.7C25.5,32.1,25.7,31.8,25.8,31.6z"/>
	<path fill="#ACACAD" d="M66.3,16.7C66.3,16.7,66.4,16.7,66.3,16.7C66.4,16.7,66.3,16.7,66.3,16.7z"/>
	<path fill="#ACACAD" d="M100.2,36.9V54h3.6l0,0V38c0-2.6-1.7-3.8-3.8-3.8h-1.2v1.4c0.2,0,0.5,0.1,0.5,0.1
		C99.8,35.8,100.2,36.3,100.2,36.9z"/>
	<path fill="#ACACAD" d="M127.8,54L127.8,54l0-16c0-2.6-1.7-3.8-3.8-3.8h-1.2v1.4c0.2,0,0.5,0.1,0.5,0.1c0.5,0.1,0.9,0.6,0.9,1.2V54
		H127.8z"/>
	<path fill="#ACACAD" d="M150.9,34.2h-1.2v1.4c0.2,0,0.5,0.1,0.5,0.1c0.5,0.1,0.9,0.6,0.9,1.2V54h3.6v-16
		C154.8,35.5,153,34.2,150.9,34.2z"/>
	<path fill="#ACACAD" d="M182.7,34.2l-4.6,7.4l-2.5-4.6c-1.5-2.6-4-2.8-4.7-2.8c-0.1,0-0.2,0-0.2,0h-1.1v1.4c1,0,1.5,0.8,2.1,1.8
		l4,7.1V54h3.6V43.6l5.8-9.4H182.7z"/>
	<path fill="#ACACAD" d="M90.9,54l6.4-19.8h-2.1l-4.1,13.2L88,37.2c-0.6-2-2.2-3-4.7-3h-0.8v1.4c0.9,0,1.2,0.5,1.5,1.4L89.5,54H90.9
		z"/>
	<path fill="#ACACAD" d="M121,48.6l0-0.2h-1.5l0,0.1c-0.7,2.4-2.1,3.7-4,3.7c-1.4,0-2.7-0.9-3.7-2.6c-1-1.6-1.5-3.6-1.5-6
		c0-4.9,1.9-7.9,5-7.9c2,0,3.5,1.4,4.2,3.8l0,0.1h1.4l0-0.2c-0.8-5.5-5.3-5.7-5.8-5.7l0,0c-5,0-8.4,4.2-8.4,10.2
		c0,5.9,3.5,10.1,8.5,10.1C119.6,54.3,120.7,49.9,121,48.6z"/>
	<path fill="#ACACAD" d="M168.1,36.4l0-2.1h-11.6l0,2.1h3.9v13.8c0,2.6,1.7,3.8,3.8,3.8h1.2v-1.4c-0.2,0-0.5-0.1-0.5-0.1
		c-0.5-0.1-0.9-0.6-0.9-1.2v-15H168.1z"/>
	<path fill="#ACACAD" d="M144.3,46.6l-7-9.7c-1.4-1.9-3.1-2.8-5.5-2.8h-0.7v1.4c0.3,0,0.5,0.1,0.5,0.1c0.5,0.1,0.9,0.6,0.9,1.2V54
		h1.9V39.6L144.7,54h1.5V34.2h-1.9V46.6z"/>
	<path fill="#ACACAD" d="M90.2,66.3c-1.4,0-2.6-1.3-2.6-3.7c0-2.4,1-3.8,2.6-3.8c1.2,0,2,0.9,2.3,2.2l0.8-0.2
		c-0.4-1.5-1.3-2.8-3.1-2.8c-2.5,0-3.4,2.4-3.4,4.4c0,2,0.9,4.3,3.4,4.3c1.8,0,2.7-1.2,3.1-2.8L92.6,64
		C92.2,65.5,91.4,66.3,90.2,66.3z"/>
	<polygon fill="#ACACAD" points="96.2,62.7 99.7,62.7 99.7,62 96.2,62 96.2,59 100.6,59 100.6,58.3 95.4,58.3 95.4,66.8 100.8,66.8 
		100.8,66.1 96.2,66.1 	"/>
	<polygon fill="#ACACAD" points="108.1,65.6 108.1,65.6 103.7,58.3 102.7,58.3 102.7,66.8 103.4,66.8 103.4,59.2 103.4,59.2 
		108,66.8 108.8,66.8 108.8,58.3 108.1,58.3 	"/>
	<polygon fill="#ACACAD" points="110.4,59 112.9,59 112.9,66.8 113.7,66.8 113.7,59 116.3,59 116.3,58.3 110.4,58.3 	"/>
	<path fill="#ACACAD" d="M123.5,60.6c0-1.6-1.2-2.3-2.7-2.3h-2.9v8.5h0.8V63h2.3l1.8,3.8h0.9l-2-4C122.7,62.6,123.5,62,123.5,60.6z
		 M120.7,62.3h-2V59h2.1c1.1,0,1.9,0.5,1.9,1.7C122.7,61.9,121.8,62.3,120.7,62.3z"/>
	<polygon fill="#ACACAD" points="126.4,62.7 130,62.7 130,62 126.4,62 126.4,59 130.8,59 130.8,58.3 125.6,58.3 125.6,66.8 
		131,66.8 131,66.1 126.4,66.1 	"/>
	<path fill="#ACACAD" d="M135.5,62c-1.7-0.3-2.2-0.9-2.2-1.7c0-0.9,0.8-1.5,2-1.5c1.3,0,2.1,0.8,2.2,1.7l0.7-0.2
		c-0.2-1.2-1.3-2.2-2.9-2.2c-1.8,0-2.8,1-2.8,2.2c0,1.2,0.8,2,2.6,2.3c1.7,0.3,2.6,0.8,2.6,1.8c0,1.2-0.9,1.7-2.2,1.7
		c-1.7,0-2.5-1.2-2.6-1.9l-0.7,0.2c0.1,0.8,0.9,2.4,3.3,2.4c2,0,3.1-1,3.1-2.5C138.5,63.1,137.5,62.3,135.5,62z"/>
</g>
</svg>
