<?xml version="1.0" encoding="utf-8"?>
<!-- Generator: Adobe Illustrator 21.0.2, SVG Export Plug-In . SVG Version: 6.00 Build 0)  -->
<svg version="1.0" id="Layer_1" xmlns="http://www.w3.org/2000/svg" xmlns:xlink="http://www.w3.org/1999/xlink" width="1400px" height="1500px"
	 viewBox="0 0 1396.1 1500" enable-background="new 0 0 1396.1 1500" xml:space="preserve">
<g>
	<g>
		<path fill="#F2F5F6" d="M1.4,3.8c340.3,176.3,629,404.3,836.4,661.8c0,0,0,0,0,0.1L816,689c0,0-204.6,220.9-342.4,371.3
			L127.2,1437l-55.8,61.8l173-167.8c233.9-234.1,425.4-425.8,576.5-568c17.4-16.4,34.2-32,50.5-47c1.1-1,2.2-2,3.3-3
			C977,848,1057,990.6,1110.5,1137.8l1,2.7h78.1l1-1.6c21.6-62.7,109-351,114.5-372.9c0,0.1-0.1,0.2-0.2,0.3
			c97.2-339.9,112.3-491.7,58.1-523.3c-63.2-36.8-217,98-474.1,368.4C644.8,316.7,334.8,147.1,43.8,19.1L1.4,3.8z M930.1,662.7
			c159.2-142,258.5-207.1,300.8-181.8c49,29.3,23.8,186.9-41.4,426.5c-10.1,37.4-21.6,80.7-38.6,136.2c-0.1-0.3-0.2-0.6-0.3-0.8
			C1088.3,897.4,1013.6,771.9,930.1,662.7z"/>
	</g>
</g>
</svg>
